<svg width="543" height="476" viewBox="0 0 543 476" fill="none" xmlns="http://www.w3.org/2000/svg">
<g clip-path="url(#clip0_43_4927)">
<path d="M492.646 291.921C492.646 291.921 480.946 285.419 480.08 300.147C479.214 314.874 477.043 410.674 477.043 410.674" stroke="#263238" stroke-width="2" stroke-linecap="round" stroke-linejoin="round"/>
<path d="M473.968 301.451C473.968 301.451 483.488 322.69 479.175 409.37" stroke="#263238" stroke-width="2" stroke-linecap="round" stroke-linejoin="round"/>
<path d="M483.383 294.882C483.383 294.882 478.899 297.738 476.357 294.473C473.816 291.207 478.08 285.172 474.32 282.601C470.56 280.031 464.058 283.953 464.058 283.953C464.058 283.953 469.056 285.419 468.894 288.151C468.732 290.884 466.323 291.959 466.038 290.722C465.752 289.484 463.324 283.515 459.259 286.019C458.09 286.712 457.073 287.634 456.27 288.73C455.467 289.826 454.894 291.074 454.585 292.397C454.585 292.397 464.038 291.388 464.61 294.949C465.181 298.509 460.735 294.33 456.832 294.101C452.929 293.873 449.368 294.444 449.625 296.805C449.712 298.894 449.587 300.986 449.254 303.05C451.388 301.271 454.091 300.318 456.87 300.366C461.163 300.613 461.002 303.345 457.098 303.117C453.195 302.888 449.844 306.601 449.844 306.601C449.844 306.601 453.405 312.684 457.927 315.693C462.449 318.701 464.077 317.597 464.591 315.302C465.105 313.008 463.905 307.039 466.637 307.201C469.37 307.363 462.115 317.511 465.6 318.111C469.084 318.711 471.893 317.692 472.806 315.398L473.758 313.103C473.758 313.103 472.54 307.163 473.073 304.84C473.606 302.517 474.244 304.907 474.863 307.696C475.482 310.485 475.872 317.159 477.062 316.835C478.252 316.511 482.069 311.647 482.964 309.743C483.859 307.839 477.938 302.003 478.004 300.832C478.071 299.661 482.641 301.889 483.355 303.107C483.872 304.034 484.339 304.987 484.754 305.963C484.754 305.963 487.61 304.174 487.534 298.69C487.458 293.206 483.383 294.882 483.383 294.882Z" fill="#8E6CED"/>
<path opacity="0.3" d="M483.383 294.882C483.383 294.882 478.899 297.738 476.357 294.473C473.816 291.207 478.08 285.172 474.32 282.601C470.56 280.031 464.058 283.953 464.058 283.953C464.058 283.953 469.056 285.419 468.894 288.151C468.732 290.884 466.323 291.959 466.038 290.722C465.752 289.484 463.324 283.515 459.259 286.019C458.09 286.712 457.073 287.634 456.27 288.73C455.467 289.826 454.894 291.074 454.585 292.397C454.585 292.397 464.038 291.388 464.61 294.949C465.181 298.509 460.735 294.33 456.832 294.101C452.929 293.873 449.368 294.444 449.625 296.805C449.712 298.894 449.587 300.986 449.254 303.05C451.388 301.271 454.091 300.318 456.87 300.366C461.163 300.613 461.002 303.345 457.098 303.117C453.195 302.888 449.844 306.601 449.844 306.601C449.844 306.601 453.405 312.684 457.927 315.693C462.449 318.701 464.077 317.597 464.591 315.302C465.105 313.008 463.905 307.039 466.637 307.201C469.37 307.363 462.115 317.511 465.6 318.111C469.084 318.711 471.893 317.692 472.806 315.398L473.758 313.103C473.758 313.103 472.54 307.163 473.073 304.84C473.606 302.517 474.244 304.907 474.863 307.696C475.482 310.485 475.872 317.159 477.062 316.835C478.252 316.511 482.069 311.647 482.964 309.743C483.859 307.839 477.938 302.003 478.004 300.832C478.071 299.661 482.641 301.889 483.355 303.107C483.872 304.034 484.339 304.987 484.754 305.963C484.754 305.963 487.61 304.174 487.534 298.69C487.458 293.206 483.383 294.882 483.383 294.882Z" fill="#263238"/>
<path d="M460.688 307.743C463.61 304.135 467.904 299.252 471.512 296.919" stroke="#263238" stroke-linecap="round" stroke-linejoin="round"/>
<path d="M457.298 312.142C457.298 312.142 458.05 311.095 459.269 309.533" stroke="#263238" stroke-linecap="round" stroke-linejoin="round"/>
<path d="M473.416 297.814C473.416 297.814 477.757 303.945 478.556 310.257" stroke="#263238" stroke-linecap="round" stroke-linejoin="round"/>
<path d="M468.503 301.441C468.503 301.441 469.722 300.737 469.265 308.534" stroke="#263238" stroke-linecap="round" stroke-linejoin="round"/>
<path d="M471.674 294.168C471.674 294.168 474.149 291.959 472.845 287.58" stroke="#263238" stroke-linecap="round" stroke-linejoin="round"/>
<path d="M468.322 297.909L466.552 294.672" stroke="#263238" stroke-linecap="round" stroke-linejoin="round"/>
<path d="M464.6 301.213C464.6 301.213 458.984 296.967 455.471 296.757" stroke="#263238" stroke-linecap="round" stroke-linejoin="round"/>
<path d="M499.339 283.315C499.339 283.315 499.158 289.751 494.131 290.065C489.105 290.379 486.001 282.011 480.86 284.02C475.72 286.028 475.225 295.215 475.225 295.215C475.225 295.215 480.099 291.207 482.726 293.235C485.354 295.263 484.745 298.376 483.326 297.881C481.908 297.386 474.263 295.682 474.006 301.451C473.9 303.094 474.127 304.742 474.675 306.295C475.224 307.847 476.081 309.273 477.195 310.485C477.195 310.485 482.631 300.337 486.591 302.184C490.552 304.031 483.326 305.64 480.432 309.39C477.538 313.141 475.672 317.092 478.233 318.453C480.382 319.79 482.392 321.34 484.23 323.08C484.23 323.08 483.545 317.768 486.725 313.646C489.904 309.524 492.522 311.542 489.638 315.293C486.753 319.044 488.181 324.927 488.181 324.927C488.181 324.927 496.692 325.517 502.785 323.023C508.878 320.529 508.916 318.177 506.955 316.064C504.994 313.951 498.215 311.123 500.234 308.496C502.252 305.868 507.469 320.053 510.448 316.968C513.428 313.884 514.314 310.39 512.648 307.905L510.972 305.421C510.972 305.421 504.194 302.565 502.233 300.48C500.272 298.395 503.099 299.347 506.307 300.623C509.515 301.898 516.456 306.058 516.951 304.649C517.446 303.241 515.17 296.081 513.876 293.911C512.581 291.74 502.699 293.663 501.576 292.797C500.452 291.931 505.793 288.875 507.497 288.989C509.201 289.103 511.305 289.513 511.305 289.513C511.305 289.513 511.458 285.448 505.917 281.773C500.376 278.098 499.339 283.315 499.339 283.315Z" fill="#8E6CED"/>
<path opacity="0.2" d="M499.339 283.315C499.339 283.315 499.158 289.751 494.131 290.065C489.105 290.379 486.001 282.011 480.86 284.02C475.72 286.028 475.225 295.215 475.225 295.215C475.225 295.215 480.099 291.207 482.726 293.235C485.354 295.263 484.745 298.376 483.326 297.881C481.908 297.386 474.263 295.682 474.006 301.451C473.9 303.094 474.127 304.742 474.675 306.295C475.224 307.847 476.081 309.273 477.195 310.485C477.195 310.485 482.631 300.337 486.591 302.184C490.552 304.031 483.326 305.64 480.432 309.39C477.538 313.141 475.672 317.092 478.233 318.453C480.382 319.79 482.392 321.34 484.23 323.08C484.23 323.08 483.545 317.768 486.725 313.646C489.904 309.524 492.522 311.542 489.638 315.293C486.753 319.044 488.181 324.927 488.181 324.927C488.181 324.927 496.692 325.517 502.785 323.023C508.878 320.529 508.916 318.177 506.955 316.064C504.994 313.951 498.215 311.123 500.234 308.496C502.252 305.868 507.469 320.053 510.448 316.968C513.428 313.884 514.314 310.39 512.648 307.905L510.972 305.421C510.972 305.421 504.194 302.565 502.233 300.48C500.272 298.395 503.099 299.347 506.307 300.623C509.515 301.898 516.456 306.058 516.951 304.649C517.446 303.241 515.17 296.081 513.876 293.911C512.581 291.74 502.699 293.663 501.576 292.797C500.452 291.931 505.793 288.875 507.497 288.989C509.201 289.103 511.305 289.513 511.305 289.513C511.305 289.513 511.458 285.448 505.917 281.773C500.376 278.098 499.339 283.315 499.339 283.315Z" fill="#263238"/>
<path d="M496.74 314.807C495.121 309.419 493.16 301.784 493.294 296.586" stroke="#263238" stroke-linecap="round" stroke-linejoin="round"/>
<path d="M498.834 321.186C498.834 321.186 498.301 319.729 497.568 317.444" stroke="#263238" stroke-linecap="round" stroke-linejoin="round"/>
<path d="M495.483 295.291C495.483 295.291 504.575 295.129 511.438 298.623" stroke="#263238" stroke-linecap="round" stroke-linejoin="round"/>
<path d="M495.769 302.679C495.769 302.679 495.883 300.984 503.385 306.763" stroke="#263238" stroke-linecap="round" stroke-linejoin="round"/>
<path d="M490.666 294.568C490.666 294.568 490.152 290.579 484.868 288.903" stroke="#263238" stroke-linecap="round" stroke-linejoin="round"/>
<path d="M492.104 300.461L487.658 300.023" stroke="#263238" stroke-linecap="round" stroke-linejoin="round"/>
<path d="M492.875 306.43C492.875 306.43 484.792 309.171 482.193 312.542" stroke="#263238" stroke-linecap="round" stroke-linejoin="round"/>
<path d="M445.408 326.155C445.408 326.155 470.978 343.063 470.541 408.503" stroke="#263238" stroke-width="2" stroke-linecap="round" stroke-linejoin="round"/>
<path d="M476.938 321.69C476.938 321.69 476.119 329.097 470.274 328.992C464.429 328.887 461.649 318.92 455.537 320.757C449.425 322.595 447.969 333.133 447.969 333.133C447.969 333.133 453.976 328.973 456.822 331.553C459.669 334.133 458.66 337.674 457.07 336.97C455.48 336.265 446.826 333.581 445.979 340.216C445.704 342.105 445.815 344.03 446.306 345.874C446.797 347.718 447.657 349.444 448.835 350.945C448.835 350.945 456.07 339.74 460.459 342.244C464.848 344.748 456.365 345.928 452.672 349.984C448.978 354.039 446.474 358.428 449.273 360.237C451.633 361.978 453.808 363.956 455.766 366.139C455.766 366.139 455.471 359.942 459.574 355.486C463.677 351.031 466.466 353.582 462.782 357.657C459.098 361.731 460.192 368.643 460.192 368.643C460.192 368.643 469.969 370.128 477.233 367.843C484.497 365.558 484.754 362.836 482.688 360.227C480.622 357.619 473.073 353.696 475.653 350.86C478.233 348.023 482.907 364.873 486.639 361.598C490.371 358.323 491.723 354.372 490.028 351.345L488.248 348.318C488.248 348.318 480.699 344.405 478.633 341.787C476.567 339.169 479.737 340.568 483.317 342.339C486.896 344.11 494.522 349.574 495.217 347.985C495.911 346.395 493.96 337.96 492.713 335.304C491.466 332.648 479.842 333.971 478.623 332.867C477.405 331.762 483.869 328.735 485.82 329.059C487.273 329.301 488.713 329.619 490.133 330.011C490.133 330.011 490.685 325.327 484.64 320.567C478.595 315.807 476.938 321.69 476.938 321.69Z" fill="#8E6CED"/>
<path opacity="0.3" d="M476.938 321.69C476.938 321.69 476.119 329.097 470.274 328.992C464.429 328.887 461.649 318.92 455.537 320.757C449.425 322.595 447.969 333.133 447.969 333.133C447.969 333.133 453.976 328.973 456.822 331.553C459.669 334.133 458.66 337.674 457.07 336.97C455.48 336.265 446.826 333.581 445.979 340.216C445.704 342.105 445.815 344.03 446.306 345.874C446.797 347.718 447.657 349.444 448.835 350.945C448.835 350.945 456.07 339.74 460.459 342.244C464.848 344.748 456.365 345.928 452.672 349.984C448.978 354.039 446.474 358.428 449.273 360.237C451.633 361.978 453.808 363.956 455.766 366.139C455.766 366.139 455.471 359.942 459.574 355.486C463.677 351.031 466.466 353.582 462.782 357.657C459.098 361.731 460.192 368.643 460.192 368.643C460.192 368.643 469.969 370.128 477.233 367.843C484.497 365.558 484.754 362.836 482.688 360.227C480.622 357.619 473.073 353.696 475.653 350.86C478.233 348.023 482.907 364.873 486.639 361.598C490.371 358.323 491.723 354.372 490.028 351.345L488.248 348.318C488.248 348.318 480.699 344.405 478.633 341.787C476.567 339.169 479.737 340.568 483.317 342.339C486.896 344.11 494.522 349.574 495.217 347.985C495.911 346.395 493.96 337.96 492.713 335.304C491.466 332.648 479.842 333.971 478.623 332.867C477.405 331.762 483.869 328.735 485.82 329.059C487.273 329.301 488.713 329.619 490.133 330.011C490.133 330.011 490.685 325.327 484.64 320.567C478.595 315.807 476.938 321.69 476.938 321.69Z" fill="#263238"/>
<path d="M470.979 357.781C469.608 351.421 468.075 342.425 468.703 336.437" stroke="#263238" stroke-linecap="round" stroke-linejoin="round"/>
<path d="M472.788 365.34C472.788 365.34 472.312 363.607 471.674 360.903" stroke="#263238" stroke-linecap="round" stroke-linejoin="round"/>
<path d="M471.359 335.104C471.359 335.104 481.831 335.78 489.447 340.464" stroke="#263238" stroke-linecap="round" stroke-linejoin="round"/>
<path d="M470.988 343.672C470.988 343.672 471.283 341.768 479.394 349.098" stroke="#263238" stroke-linecap="round" stroke-linejoin="round"/>
<path d="M465.866 333.857C465.866 333.857 465.647 329.211 459.716 326.774" stroke="#263238" stroke-linecap="round" stroke-linejoin="round"/>
<path d="M466.971 340.787L461.887 339.864" stroke="#263238" stroke-linecap="round" stroke-linejoin="round"/>
<path d="M467.304 347.756C467.304 347.756 457.717 350.146 454.395 353.792" stroke="#263238" stroke-linecap="round" stroke-linejoin="round"/>
<path d="M455.375 377.735C455.375 377.735 471.845 390.301 473.578 408.941L470.16 346.528" stroke="#263238" stroke-width="2" stroke-linecap="round" stroke-linejoin="round"/>
<path d="M495.245 368.633C473.578 364.73 473.578 408.941 473.578 408.941" stroke="#263238" stroke-width="2" stroke-linecap="round" stroke-linejoin="round"/>
<path d="M476.176 408.503C476.176 408.503 463.61 317.054 499.976 317.054" stroke="#263238" stroke-width="2" stroke-linecap="round" stroke-linejoin="round"/>
<path d="M486.991 365.996C484.031 362.674 477.738 362.674 474.044 371.185C470.35 379.696 473.673 378.211 473.673 378.211C473.673 378.211 480.699 375.992 485.097 374.507C489.495 373.022 495.455 369.328 495.826 371.556C496.197 373.784 492.865 375.992 488.791 376.735C484.716 377.478 473.996 380.429 475.101 382.656C476.205 384.884 478.804 391.529 478.804 391.529C481.967 388.847 485.303 386.376 488.791 384.132C493.608 381.171 496.568 382.285 493.979 385.608C491.39 388.93 483.983 392.643 485.468 397.079C486.953 401.516 495.864 407.075 495.864 407.075C495.864 407.075 496.968 397.822 499.567 394.861C502.166 391.9 502.157 395.232 501.414 400.411C501.043 402.617 500.795 404.842 500.672 407.075L511.029 410.769C512.723 408.19 514.577 405.719 516.579 403.372L518.483 401.525C518.483 401.525 510.344 394.49 509.973 390.101C509.601 385.712 515.523 390.101 517.37 390.844C519.217 391.586 522.177 396.756 522.177 396.756C522.177 396.756 524.034 388.254 524.405 385.332L524.776 382.371C524.776 382.371 516.998 379.41 514.038 379.41C511.077 379.41 509.601 381.628 509.601 378.668C509.601 375.707 512.562 373.86 515.894 374.231C518.91 374.73 521.88 375.472 524.776 376.449C524.776 376.449 526.994 374.593 526.252 369.043C525.509 363.493 523.662 363.493 519.226 364.978C514.79 366.463 511.819 369.738 508.487 369.738C505.155 369.738 507.012 365.673 509.23 364.559C511.448 363.445 516.998 361.227 518.112 360.856C519.226 360.484 512.191 355.305 508.487 354.572C504.784 353.839 499.996 356.476 500.348 360.123C501.052 367.853 489.952 369.376 486.991 365.996Z" fill="#8E6CED"/>
<path d="M510.81 404.095C510.924 405.209 511 406.333 511.039 407.446" stroke="#263238" stroke-linecap="round" stroke-linejoin="round"/>
<path d="M503.375 377.535C506.627 384.865 508.967 392.568 510.344 400.468" stroke="#263238" stroke-linecap="round" stroke-linejoin="round"/>
<path d="M502.042 374.564C500.214 370.623 498.834 368.224 498.834 368.224C500.835 367.259 502.495 365.709 503.594 363.778C504.461 362.028 505.73 360.508 507.297 359.342" stroke="#263238" stroke-linecap="round" stroke-linejoin="round"/>
<path d="M485.877 380.8C485.877 380.8 499.205 375.25 499.205 376.364" stroke="#263238" stroke-linecap="round" stroke-linejoin="round"/>
<path d="M506.603 373.774C506.603 373.774 512.524 370.813 517.703 370.813" stroke="#263238" stroke-linecap="round" stroke-linejoin="round"/>
<path d="M504.432 382.704C501.865 384.813 499.509 387.166 497.397 389.73C495.236 392.279 493.489 395.151 492.218 398.241" stroke="#263238" stroke-linecap="round" stroke-linejoin="round"/>
<path d="M508.449 384.132C508.449 384.132 516.227 381.914 520.292 385.608" stroke="#263238" stroke-linecap="round" stroke-linejoin="round"/>
<path d="M522.52 334.152C518.493 331.772 514.038 331.715 511.848 329.202C509.659 326.688 513.952 325.394 516.246 326.346C518.541 327.298 523.862 330.03 524.862 330.63C525.862 331.229 525.176 322.519 523.31 319.206C521.444 315.893 516.332 314.017 513.79 316.692C508.411 322.347 500.015 314.931 500.586 310.514C501.157 306.097 497.035 301.346 488.21 304.135C479.385 306.925 482.66 308.458 482.66 308.458C482.66 308.458 488.943 312.313 492.979 314.703C497.016 317.092 503.68 319.129 502.242 320.862C500.805 322.595 496.949 321.538 493.722 318.958C490.495 316.378 481.232 310.209 480.28 312.504C479.328 314.798 475.996 321.072 475.996 321.072C480.097 321.7 484.152 322.6 488.134 323.766C493.522 325.451 494.626 328.411 490.419 328.64C486.211 328.868 478.557 325.708 476.139 329.735C473.721 333.762 475.387 344.11 475.387 344.11C475.387 344.11 483.098 338.883 487.029 338.902C490.961 338.921 488.448 341.102 484.05 343.939C482.145 345.107 480.304 346.378 478.538 347.747L482.536 358C485.594 357.585 488.675 357.366 491.761 357.343L494.369 357.524C494.369 357.524 494.369 346.766 497.454 343.577C500.538 340.388 501.091 347.766 501.747 349.651C502.404 351.535 500.434 357.162 500.434 357.162C500.434 357.162 508.05 352.983 510.544 351.326L513.029 349.66C513.029 349.66 510.173 341.854 508.269 339.616C506.365 337.379 503.69 337.712 505.917 335.808C508.145 333.904 511.496 334.856 513.4 337.646C514.994 340.252 516.379 342.98 517.541 345.804C517.541 345.804 520.397 346.271 524.1 342.073C527.804 337.874 526.557 336.522 522.52 334.152ZM487.505 345.995C484.545 344.519 491.571 341.559 491.571 341.559C494.169 341.168 490.466 347.48 487.515 345.976L487.505 345.995ZM492.484 332.181C491.228 331.553 495.007 330.277 495.007 330.277C500.491 331.296 493.76 332.8 492.494 332.162L492.484 332.181Z" fill="#8E6CED"/>
<path d="M487.429 353.516C486.661 354.334 485.871 355.124 485.059 355.886" stroke="#263238" stroke-linecap="round" stroke-linejoin="round"/>
<path d="M502.614 330.487C499.213 337.75 494.932 344.567 489.866 350.783" stroke="#263238" stroke-linecap="round" stroke-linejoin="round"/>
<path d="M503.984 327.536C505.765 323.566 506.669 320.948 506.669 320.948C508.714 321.85 510.987 322.103 513.181 321.671C515.071 321.178 517.051 321.138 518.959 321.557" stroke="#263238" stroke-linecap="round" stroke-linejoin="round"/>
<path d="M500.767 326.536C501.605 325.812 488.686 319.386 488.686 319.386" stroke="#263238" stroke-linecap="round" stroke-linejoin="round"/>
<path d="M507.574 330.458C507.574 330.458 513.695 332.991 517.094 336.903" stroke="#263238" stroke-linecap="round" stroke-linejoin="round"/>
<path d="M499.415 334.599C496.138 334.05 492.816 333.817 489.495 333.904C486.156 333.942 482.844 334.504 479.68 335.57" stroke="#263238" stroke-linecap="round" stroke-linejoin="round"/>
<path d="M500.967 338.645C500.967 338.645 507.736 343.063 507.631 348.556" stroke="#263238" stroke-linecap="round" stroke-linejoin="round"/>
<path d="M465.029 385.408C461.792 383.504 458.203 383.446 456.461 381.419C454.718 379.391 458.146 378.372 459.993 379.143C461.839 379.915 466.114 382.104 466.933 382.58C467.751 383.056 467.18 376.059 465.676 373.422C464.172 370.785 460.059 369.243 458.06 371.404C453.728 375.945 446.969 369.985 447.436 366.425C447.902 362.864 444.58 359.047 437.449 361.293C430.319 363.54 432.984 364.778 432.984 364.778C432.984 364.778 438.039 367.881 441.286 369.795C444.532 371.708 449.854 373.355 448.74 374.755C447.626 376.154 444.484 375.297 441.885 373.212C439.286 371.128 431.832 366.168 431.061 368.015C430.29 369.861 427.624 374.955 427.624 374.955C430.925 375.458 434.188 376.18 437.392 377.116C441.724 378.477 442.609 380.867 439.22 381.047C435.831 381.228 429.7 378.686 427.796 381.923C425.892 385.16 427.196 393.49 427.196 393.49C427.196 393.49 433.403 389.292 436.564 389.301C439.724 389.311 437.706 391.072 434.174 393.357C432.637 394.293 431.153 395.313 429.728 396.413L432.946 404.667C435.408 404.332 437.888 404.154 440.372 404.133L442.476 404.286C442.476 404.286 442.476 395.623 444.96 393.062C447.445 390.501 447.883 396.432 448.407 397.945C448.93 399.459 447.35 403.991 447.35 403.991C447.35 403.991 453.5 400.63 455.49 399.288L457.489 397.955C457.489 397.955 455.185 391.672 453.624 389.872C452.062 388.073 449.93 388.34 451.72 386.778C453.509 385.217 456.204 386.045 457.736 388.264C459.022 390.362 460.139 392.558 461.078 394.832C461.078 394.832 463.372 395.204 466.352 391.824C469.332 388.444 468.256 387.321 465.029 385.408ZM436.849 394.928C434.469 393.738 440.124 391.358 440.124 391.358C442.209 391.062 439.229 396.127 436.84 394.937L436.849 394.928ZM440.867 383.808C439.848 383.304 442.895 382.285 442.895 382.285C447.312 383.142 441.876 384.332 440.867 383.818V383.808Z" fill="#8E6CED"/>
<path d="M436.84 401.001C436.221 401.658 435.583 402.296 434.936 402.905" stroke="#263238" stroke-linecap="round" stroke-linejoin="round"/>
<path d="M449.006 382.475C446.265 388.316 442.818 393.799 438.744 398.802" stroke="#263238" stroke-linecap="round" stroke-linejoin="round"/>
<path d="M450.111 380.095C451.539 376.906 452.272 374.793 452.272 374.793C453.916 375.519 455.744 375.721 457.508 375.374C459.027 374.977 460.619 374.945 462.154 375.278" stroke="#263238" stroke-linecap="round" stroke-linejoin="round"/>
<path d="M437.792 373.565C437.792 373.565 448.197 378.734 447.521 379.277" stroke="#263238" stroke-linecap="round" stroke-linejoin="round"/>
<path d="M453.024 382.447C453.024 382.447 457.946 384.484 460.64 387.626" stroke="#263238" stroke-linecap="round" stroke-linejoin="round"/>
<path d="M446.427 385.779C443.792 385.333 441.12 385.145 438.449 385.217C435.761 385.249 433.095 385.702 430.547 386.56" stroke="#263238" stroke-linecap="round" stroke-linejoin="round"/>
<path d="M447.674 389.035C447.674 389.035 453.129 392.586 453.024 397.013" stroke="#263238" stroke-linecap="round" stroke-linejoin="round"/>
<path d="M451.815 324.308C451.815 324.308 447.74 327.269 445.151 324.308C442.561 321.348 446.265 315.426 442.552 313.208C438.839 310.99 432.937 315.055 432.937 315.055C432.937 315.055 437.744 316.169 437.744 318.758C437.744 321.348 435.526 322.452 435.155 321.348C434.784 320.243 432.194 314.684 428.491 317.273C427.423 317.992 426.512 318.921 425.813 320.003C425.115 321.084 424.643 322.296 424.426 323.566C424.426 323.566 433.298 322.081 434.041 325.413C434.784 328.745 430.338 325.041 426.644 325.041C422.95 325.041 419.609 325.784 419.98 328.002C420.182 329.971 420.182 331.955 419.98 333.924C421.897 332.129 424.392 331.079 427.015 330.963C431.08 330.963 431.08 333.552 427.387 333.552C423.693 333.552 420.723 337.256 420.723 337.256C420.723 337.256 424.426 342.806 428.862 345.395C433.298 347.985 434.784 346.88 435.155 344.653C435.526 342.425 434.041 336.884 436.63 336.884C439.22 336.884 432.937 346.88 436.259 347.242C439.582 347.604 442.181 346.509 442.923 344.281L443.666 342.063C443.666 342.063 442.181 336.513 442.552 334.295C442.923 332.077 443.666 334.295 444.399 336.884C445.132 339.474 445.884 345.766 446.988 345.395C448.093 345.024 451.434 340.216 452.177 338.369C452.919 336.522 446.988 331.334 446.988 330.23C446.988 329.125 451.434 330.963 452.177 332.077C452.712 332.914 453.205 333.778 453.652 334.666C453.652 334.666 456.242 332.819 455.87 327.631C455.499 322.442 451.815 324.308 451.815 324.308Z" fill="#8E6CED"/>
<path d="M431.128 337.722C433.689 334.152 437.478 329.297 440.762 326.898" stroke="#263238" stroke-linecap="round" stroke-linejoin="round"/>
<path d="M428.129 342.063C428.129 342.063 428.786 341.035 429.842 339.493" stroke="#263238" stroke-linecap="round" stroke-linejoin="round"/>
<path d="M442.552 327.631C442.552 327.631 446.988 333.181 448.102 339.102" stroke="#263238" stroke-linecap="round" stroke-linejoin="round"/>
<path d="M438.125 331.296C438.125 331.296 439.229 330.553 439.229 337.96" stroke="#263238" stroke-linecap="round" stroke-linejoin="round"/>
<path d="M440.714 324.308C440.714 324.308 442.933 322.081 441.447 318.016" stroke="#263238" stroke-linecap="round" stroke-linejoin="round"/>
<path d="M437.754 328.002L435.897 325.041" stroke="#263238" stroke-linecap="round" stroke-linejoin="round"/>
<path d="M434.422 331.296C434.422 331.296 428.872 327.593 425.54 327.593" stroke="#263238" stroke-linecap="round" stroke-linejoin="round"/>
<path d="M489.181 407.199H460.573V448.373H489.181V407.199Z" fill="#263238" stroke="#263238" stroke-width="2" stroke-linecap="round" stroke-linejoin="round"/>
<path d="M231.513 90.8018C231.513 90.8018 231.856 78.6352 231.427 68.1727C230.999 57.7102 231.865 35.2811 231.865 35.2811" stroke="#263238" stroke-miterlimit="10"/>
<path d="M231.665 48.4758L226.915 44.7345" stroke="#263238" stroke-miterlimit="10"/>
<path d="M231.608 51.0462L233.303 48.314" stroke="#263238" stroke-miterlimit="10"/>
<path d="M231.228 61.8705L235.445 58.3766" stroke="#263238" stroke-miterlimit="10"/>
<path d="M231.865 39.8793L229.638 37.8515" stroke="#263238" stroke-miterlimit="10"/>
<path d="M231.189 63.7649L228.4 60.7757" stroke="#263238" stroke-miterlimit="10"/>
<path d="M231.427 75.5126L225.629 70.2195" stroke="#263238" stroke-miterlimit="10"/>
<path d="M231.58 82.0338C233.057 81.4609 234.495 80.7898 235.883 80.0251" stroke="#263238" stroke-miterlimit="10"/>
<path d="M228.352 50.3513C226.02 48.552 218.194 48.8662 216.69 52.6075C215.186 56.3489 219.975 62.4512 224.544 62.0228C226.343 61.8514 227.124 61.7277 227.829 60.7186L221.403 54.4354L228.362 60.0331C228.557 59.6688 228.717 59.2861 228.838 58.8907C228.914 58.6146 228.99 58.31 229.047 57.9958C229.533 55.7586 230.551 52.0363 228.352 50.3513Z" fill="#8E6CED"/>
<path d="M243.499 46.0102V46.1434C242.871 48.9328 239.691 50.5131 236.997 50.2751C236.623 50.2434 236.253 50.1765 235.892 50.0752C235.263 51.0719 234.873 52.2012 234.754 53.3741C234.635 54.5471 234.79 55.7316 235.207 56.8344C235.319 57.1497 235.47 57.4502 235.654 57.7293C236.445 57.0819 244.898 49.8658 244.898 49.8658L236.121 58.3195C238.767 61.1755 244.974 60.7662 247.136 55.5206C249.297 50.2751 246.545 46.7622 243.499 46.0102Z" fill="#8E6CED"/>
<path d="M239.196 36.2521C234.645 35.3001 230.57 37.3184 230.628 42.0689C230.653 43.1161 230.892 44.1472 231.331 45.0984C231.77 46.0497 232.399 46.901 233.179 47.6L237.872 41.2025L233.931 48.1807C234.814 48.783 235.837 49.15 236.901 49.2469C239.586 49.4754 242.775 47.8951 243.403 45.1057C244.06 41.9927 243.746 37.2517 239.196 36.2521Z" fill="#8E6CED"/>
<path d="M233.884 19.735C233.884 19.735 233.417 19.8778 230.504 21.2962C228.798 22.2366 227.535 23.814 226.989 25.6836C226.443 27.5532 226.659 29.5628 227.591 31.2732C228.398 32.8712 229.794 34.0932 231.485 34.6814L232.656 23.3621L232.16 34.8337C232.382 34.8565 232.605 34.8565 232.827 34.8337C234.731 34.6433 237.711 32.3775 237.996 27.7413C238.282 23.105 233.884 19.735 233.884 19.735Z" fill="#8E6CED"/>
<path d="M220.584 30.0261L229.371 37.0518C229.458 36.7425 229.487 36.4197 229.456 36.0998C229.047 32.0824 225.039 29.75 222.393 28.9122C219.746 28.0745 217.909 29.5691 219.613 33.4152C221.317 37.2613 225.782 39.1272 227.771 38.5465C228.244 38.43 228.67 38.1707 228.99 37.8039L220.584 30.0261Z" fill="#8E6CED"/>
<path d="M226.629 39.032C225.282 38.9348 223.975 38.533 222.806 37.8569C221.636 37.1808 220.636 36.2479 219.88 35.1288C218.946 35.0402 218.016 35.3203 217.286 35.9092C216.557 36.4981 216.087 37.349 215.977 38.2799C215.082 42.4687 218.109 46.8479 222.479 46.3148C223.851 46.2433 225.153 45.6866 226.153 44.744L218.347 37.6135L226.706 43.9824C226.869 43.6885 226.973 43.3648 227.01 43.0304C227.28 41.6892 227.148 40.2981 226.629 39.032Z" fill="#8E6CED"/>
<path d="M226.582 62.3274C225.872 62.6315 225.115 62.8118 224.344 62.8605C221.488 63.1271 218.575 60.8899 217.128 58.2624C216.278 58.3199 215.472 58.6606 214.839 59.2301C214.206 59.7996 213.781 60.565 213.634 61.404C212.768 66.3068 217.309 72.7709 221.898 71.7427C223.091 71.5105 224.195 70.95 225.087 70.1243L215.072 60.4901L225.668 69.496C226.273 68.7191 226.664 67.7965 226.801 66.8209C227.302 65.3498 227.224 63.7427 226.582 62.3274Z" fill="#8E6CED"/>
<path d="M246.735 72.352C243.365 68.4488 239.357 71.9426 239.357 71.9426C239.357 71.9426 236.901 72.7518 235.968 76.2362C235.683 77.2933 235.726 78.4124 236.092 79.4444L246.221 73.542L236.34 79.9966C237.292 81.7482 239.272 82.8526 242.052 82.0434C246.488 80.8248 250.096 76.2838 246.735 72.352Z" fill="#8E6CED"/>
<path d="M238.339 87.127H224.316V107.89H238.339V87.127Z" fill="#263238"/>
<path d="M393.115 107.719H208.16V449.706H393.115V107.719Z" fill="#8E6CED" stroke="#263238" stroke-miterlimit="10"/>
<path d="M367.03 112.05H212.006V444.498H367.03V112.05Z" fill="#263238" stroke="#263238" stroke-linecap="round" stroke-linejoin="round"/>
<path d="M367.03 163.611H212.006V168.514H367.03V163.611Z" fill="#8E6CED" stroke="#263238" stroke-miterlimit="10"/>
<path d="M367.03 220.293H212.006V225.196H367.03V220.293Z" fill="#8E6CED" stroke="#263238" stroke-miterlimit="10"/>
<path d="M317.069 112.108H313.775V163.601H317.069V112.108Z" fill="#8E6CED" stroke="#263238" stroke-miterlimit="10"/>
<path d="M264.366 112.108H261.072V163.601H264.366V112.108Z" fill="#8E6CED" stroke="#263238" stroke-miterlimit="10"/>
<path d="M317.069 225.253H313.775V276.746H317.069V225.253Z" fill="#8E6CED" stroke="#263238" stroke-miterlimit="10"/>
<path d="M264.366 225.253H261.072V276.746H264.366V225.253Z" fill="#8E6CED" stroke="#263238" stroke-miterlimit="10"/>
<path d="M290.46 168.79H287.167V220.283H290.46V168.79Z" fill="#8E6CED" stroke="#263238" stroke-miterlimit="10"/>
<path d="M367.03 276.756H212.006V281.659H367.03V276.756Z" fill="#8E6CED" stroke="#263238" stroke-miterlimit="10"/>
<path d="M367.03 333.248H212.006V446.231H367.03V333.248Z" fill="#8E6CED" stroke="#263238" stroke-miterlimit="10"/>
<path d="M290.46 281.744H287.167V333.238H290.46V281.744Z" fill="#8E6CED" stroke="#263238" stroke-miterlimit="10"/>
<path d="M370.828 107.69V449.63L393.124 449.706V107.69H370.828Z" fill="#263238" stroke="#263238" stroke-linecap="round" stroke-linejoin="round"/>
<path d="M327.312 116.106H319.354V163.487H327.312V116.106Z" fill="white" stroke="#263238" stroke-miterlimit="10"/>
<path d="M327.312 153.31H319.354V157.194H327.312V153.31Z" fill="white" stroke="#263238" stroke-miterlimit="10"/>
<path d="M327.312 120.914H319.354V124.798H327.312V120.914Z" fill="white" stroke="#263238" stroke-miterlimit="10"/>
<path d="M335.452 116.106H327.493V163.487H335.452V116.106Z" fill="white" stroke="#263238" stroke-miterlimit="10"/>
<path d="M335.452 153.31H327.493V157.194H335.452V153.31Z" fill="white" stroke="#263238" stroke-miterlimit="10"/>
<path d="M335.452 120.914H327.493V124.798H335.452V120.914Z" fill="white" stroke="#263238" stroke-miterlimit="10"/>
<path d="M343.601 116.106H335.643V163.487H343.601V116.106Z" fill="white" stroke="#263238" stroke-miterlimit="10"/>
<path d="M343.601 153.31H335.643V157.194H343.601V153.31Z" fill="white" stroke="#263238" stroke-miterlimit="10"/>
<path d="M343.601 120.914H335.643V124.798H343.601V120.914Z" fill="white" stroke="#263238" stroke-miterlimit="10"/>
<path d="M351.741 116.106H343.782V163.487H351.741V116.106Z" fill="white" stroke="#263238" stroke-miterlimit="10"/>
<path d="M365.002 116.106H351.674V163.487H365.002V116.106Z" fill="white" stroke="#263238" stroke-miterlimit="10"/>
<path d="M351.741 153.31H343.782V157.194H351.741V153.31Z" fill="white" stroke="#263238" stroke-miterlimit="10"/>
<path d="M351.741 120.914H343.782V124.798H351.741V120.914Z" fill="white" stroke="#263238" stroke-miterlimit="10"/>
<path d="M274.067 116.106H266.108V163.487H274.067V116.106Z" fill="white" stroke="#263238" stroke-miterlimit="10"/>
<path d="M274.067 153.31H266.108V157.194H274.067V153.31Z" fill="white" stroke="#263238" stroke-miterlimit="10"/>
<path d="M274.067 120.914H266.108V124.798H274.067V120.914Z" fill="white" stroke="#263238" stroke-miterlimit="10"/>
<path d="M282.207 116.106H274.248V163.487H282.207V116.106Z" fill="white" stroke="#263238" stroke-miterlimit="10"/>
<path d="M282.207 153.31H274.248V157.194H282.207V153.31Z" fill="white" stroke="#263238" stroke-miterlimit="10"/>
<path d="M282.207 120.914H274.248V124.798H282.207V120.914Z" fill="white" stroke="#263238" stroke-miterlimit="10"/>
<path d="M290.356 116.106H282.397V163.487H290.356V116.106Z" fill="white" stroke="#263238" stroke-miterlimit="10"/>
<path d="M290.356 153.31H282.397V157.194H290.356V153.31Z" fill="white" stroke="#263238" stroke-miterlimit="10"/>
<path d="M290.356 120.914H282.397V124.798H290.356V120.914Z" fill="white" stroke="#263238" stroke-miterlimit="10"/>
<path d="M298.495 116.106H290.537V163.487H298.495V116.106Z" fill="white" stroke="#263238" stroke-miterlimit="10"/>
<path d="M311.757 116.106H298.429V163.487H311.757V116.106Z" fill="white" stroke="#263238" stroke-miterlimit="10"/>
<path d="M298.495 153.31H290.537V157.194H298.495V153.31Z" fill="white" stroke="#263238" stroke-miterlimit="10"/>
<path d="M298.495 120.914H290.537V124.798H298.495V120.914Z" fill="white" stroke="#263238" stroke-miterlimit="10"/>
<path d="M274.067 229.422H266.108V276.804H274.067V229.422Z" fill="white" stroke="#263238" stroke-miterlimit="10"/>
<path d="M274.067 266.627H266.108V270.511H274.067V266.627Z" fill="white" stroke="#263238" stroke-miterlimit="10"/>
<path d="M274.067 234.24H266.108V238.124H274.067V234.24Z" fill="white" stroke="#263238" stroke-miterlimit="10"/>
<path d="M282.207 229.422H274.248V276.804H282.207V229.422Z" fill="white" stroke="#263238" stroke-miterlimit="10"/>
<path d="M282.207 266.627H274.248V270.511H282.207V266.627Z" fill="white" stroke="#263238" stroke-miterlimit="10"/>
<path d="M282.207 234.24H274.248V238.124H282.207V234.24Z" fill="white" stroke="#263238" stroke-miterlimit="10"/>
<path d="M290.356 229.422H282.397V276.804H290.356V229.422Z" fill="white" stroke="#263238" stroke-miterlimit="10"/>
<path d="M290.356 266.627H282.397V270.511H290.356V266.627Z" fill="white" stroke="#263238" stroke-miterlimit="10"/>
<path d="M290.356 234.24H282.397V238.124H290.356V234.24Z" fill="white" stroke="#263238" stroke-miterlimit="10"/>
<path d="M298.495 229.422H290.537V276.804H298.495V229.422Z" fill="white" stroke="#263238" stroke-miterlimit="10"/>
<path d="M311.757 229.422H298.429V276.804H311.757V229.422Z" fill="white" stroke="#263238" stroke-miterlimit="10"/>
<path d="M298.495 266.627H290.537V270.511H298.495V266.627Z" fill="white" stroke="#263238" stroke-miterlimit="10"/>
<path d="M298.495 234.24H290.537V238.124H298.495V234.24Z" fill="white" stroke="#263238" stroke-miterlimit="10"/>
<path d="M326.627 229.422H318.668V276.804H326.627V229.422Z" fill="white" stroke="#263238" stroke-miterlimit="10"/>
<path d="M326.627 266.627H318.668V270.511H326.627V266.627Z" fill="white" stroke="#263238" stroke-miterlimit="10"/>
<path d="M326.627 234.24H318.668V238.124H326.627V234.24Z" fill="white" stroke="#263238" stroke-miterlimit="10"/>
<path d="M334.776 229.422H326.817V276.804H334.776V229.422Z" fill="white" stroke="#263238" stroke-miterlimit="10"/>
<path d="M334.776 266.627H326.817V270.511H334.776V266.627Z" fill="white" stroke="#263238" stroke-miterlimit="10"/>
<path d="M334.776 234.24H326.817V238.124H334.776V234.24Z" fill="white" stroke="#263238" stroke-miterlimit="10"/>
<path d="M342.916 229.422H334.957V276.804H342.916V229.422Z" fill="white" stroke="#263238" stroke-miterlimit="10"/>
<path d="M342.916 266.627H334.957V270.511H342.916V266.627Z" fill="white" stroke="#263238" stroke-miterlimit="10"/>
<path d="M342.916 234.24H334.957V238.124H342.916V234.24Z" fill="white" stroke="#263238" stroke-miterlimit="10"/>
<path d="M351.065 229.422H343.106V276.804H351.065V229.422Z" fill="white" stroke="#263238" stroke-miterlimit="10"/>
<path d="M364.317 229.422H350.989V276.804H364.317V229.422Z" fill="white" stroke="#263238" stroke-miterlimit="10"/>
<path d="M351.065 266.627H343.106V270.511H351.065V266.627Z" fill="white" stroke="#263238" stroke-miterlimit="10"/>
<path d="M351.065 234.24H343.106V238.124H351.065V234.24Z" fill="white" stroke="#263238" stroke-miterlimit="10"/>
<path d="M221.841 229.422H213.882V276.804H221.841V229.422Z" fill="white" stroke="#263238" stroke-miterlimit="10"/>
<path d="M221.841 266.627H213.882V270.511H221.841V266.627Z" fill="white" stroke="#263238" stroke-miterlimit="10"/>
<path d="M221.841 234.24H213.882V238.124H221.841V234.24Z" fill="white" stroke="#263238" stroke-miterlimit="10"/>
<path d="M229.99 229.422H222.031V276.804H229.99V229.422Z" fill="white" stroke="#263238" stroke-miterlimit="10"/>
<path d="M229.99 266.627H222.031V270.511H229.99V266.627Z" fill="white" stroke="#263238" stroke-miterlimit="10"/>
<path d="M229.99 234.24H222.031V238.124H229.99V234.24Z" fill="white" stroke="#263238" stroke-miterlimit="10"/>
<path d="M238.129 229.422H230.17V276.804H238.129V229.422Z" fill="white" stroke="#263238" stroke-miterlimit="10"/>
<path d="M238.129 266.627H230.17V270.511H238.129V266.627Z" fill="white" stroke="#263238" stroke-miterlimit="10"/>
<path d="M238.129 234.24H230.17V238.124H238.129V234.24Z" fill="white" stroke="#263238" stroke-miterlimit="10"/>
<path d="M246.278 229.422H238.319V276.804H246.278V229.422Z" fill="white" stroke="#263238" stroke-miterlimit="10"/>
<path d="M259.53 229.422H246.202V276.804H259.53V229.422Z" fill="white" stroke="#263238" stroke-miterlimit="10"/>
<path d="M246.278 266.627H238.319V270.511H246.278V266.627Z" fill="white" stroke="#263238" stroke-miterlimit="10"/>
<path d="M246.278 234.24H238.319V238.124H246.278V234.24Z" fill="white" stroke="#263238" stroke-miterlimit="10"/>
<path d="M220.822 116.106H212.863V163.487H220.822V116.106Z" fill="white" stroke="#263238" stroke-miterlimit="10"/>
<path d="M220.822 153.31H212.863V157.194H220.822V153.31Z" fill="white" stroke="#263238" stroke-miterlimit="10"/>
<path d="M220.822 120.914H212.863V124.798H220.822V120.914Z" fill="white" stroke="#263238" stroke-miterlimit="10"/>
<path d="M228.961 116.106H221.002V163.487H228.961V116.106Z" fill="white" stroke="#263238" stroke-miterlimit="10"/>
<path d="M228.961 153.31H221.002V157.194H228.961V153.31Z" fill="white" stroke="#263238" stroke-miterlimit="10"/>
<path d="M228.961 120.914H221.002V124.798H228.961V120.914Z" fill="white" stroke="#263238" stroke-miterlimit="10"/>
<path d="M237.111 116.106H229.152V163.487H237.111V116.106Z" fill="white" stroke="#263238" stroke-miterlimit="10"/>
<path d="M237.111 153.31H229.152V157.194H237.111V153.31Z" fill="white" stroke="#263238" stroke-miterlimit="10"/>
<path d="M237.111 120.914H229.152V124.798H237.111V120.914Z" fill="white" stroke="#263238" stroke-miterlimit="10"/>
<path d="M245.25 116.106H237.292V163.487H245.25V116.106Z" fill="white" stroke="#263238" stroke-miterlimit="10"/>
<path d="M258.512 116.106H245.184V163.487H258.512V116.106Z" fill="white" stroke="#263238" stroke-miterlimit="10"/>
<path d="M245.25 153.31H237.292V157.194H245.25V153.31Z" fill="white" stroke="#263238" stroke-miterlimit="10"/>
<path d="M245.25 120.914H237.292V124.798H245.25V120.914Z" fill="white" stroke="#263238" stroke-miterlimit="10"/>
<path d="M244.374 172.569H236.416V219.95H244.374V172.569Z" fill="white" stroke="#263238" stroke-miterlimit="10"/>
<path d="M244.374 209.773H236.416V213.657H244.374V209.773Z" fill="white" stroke="#263238" stroke-miterlimit="10"/>
<path d="M244.374 177.386H236.416V181.27H244.374V177.386Z" fill="white" stroke="#263238" stroke-miterlimit="10"/>
<path d="M236.52 172.569H228.562V219.95H236.52V172.569Z" fill="white" stroke="#263238" stroke-miterlimit="10"/>
<path d="M236.52 209.773H228.562V213.657H236.52V209.773Z" fill="white" stroke="#263238" stroke-miterlimit="10"/>
<path d="M236.52 177.386H228.562V181.27H236.52V177.386Z" fill="white" stroke="#263238" stroke-miterlimit="10"/>
<path d="M228.666 172.569H220.708V219.95H228.666V172.569Z" fill="white" stroke="#263238" stroke-miterlimit="10"/>
<path d="M228.666 209.773H220.708V213.657H228.666V209.773Z" fill="white" stroke="#263238" stroke-miterlimit="10"/>
<path d="M228.666 177.386H220.708V181.27H228.666V177.386Z" fill="white" stroke="#263238" stroke-miterlimit="10"/>
<path d="M220.822 172.569H212.863V219.95H220.822V172.569Z" fill="white" stroke="#263238" stroke-miterlimit="10"/>
<path d="M220.822 209.773H212.863V213.657H220.822V209.773Z" fill="white" stroke="#263238" stroke-miterlimit="10"/>
<path d="M220.822 177.386H212.863V181.27H220.822V177.386Z" fill="white" stroke="#263238" stroke-miterlimit="10"/>
<path d="M252.514 172.569H244.555V219.95H252.514V172.569Z" fill="white" stroke="#263238" stroke-miterlimit="10"/>
<path d="M252.514 209.773H244.555V213.657H252.514V209.773Z" fill="white" stroke="#263238" stroke-miterlimit="10"/>
<path d="M252.514 177.386H244.555V181.27H252.514V177.386Z" fill="white" stroke="#263238" stroke-miterlimit="10"/>
<path d="M260.654 172.569H252.695V219.95H260.654V172.569Z" fill="white" stroke="#263238" stroke-miterlimit="10"/>
<path d="M260.654 209.773H252.695V213.657H260.654V209.773Z" fill="white" stroke="#263238" stroke-miterlimit="10"/>
<path d="M260.654 177.386H252.695V181.27H260.654V177.386Z" fill="white" stroke="#263238" stroke-miterlimit="10"/>
<path d="M268.802 172.569H260.844V219.95H268.802V172.569Z" fill="white" stroke="#263238" stroke-miterlimit="10"/>
<path d="M282.064 172.569H268.736V219.95H282.064V172.569Z" fill="white" stroke="#263238" stroke-miterlimit="10"/>
<path d="M268.802 209.773H260.844V213.657H268.802V209.773Z" fill="white" stroke="#263238" stroke-miterlimit="10"/>
<path d="M268.802 177.386H260.844V181.27H268.802V177.386Z" fill="white" stroke="#263238" stroke-miterlimit="10"/>
<path d="M300.961 172.569H293.002V219.95H300.961V172.569Z" fill="white" stroke="#263238" stroke-miterlimit="10"/>
<path d="M300.961 209.773H293.002V213.657H300.961V209.773Z" fill="white" stroke="#263238" stroke-miterlimit="10"/>
<path d="M300.961 177.386H293.002V181.27H300.961V177.386Z" fill="white" stroke="#263238" stroke-miterlimit="10"/>
<path d="M309.11 172.569H301.151V219.95H309.11V172.569Z" fill="white" stroke="#263238" stroke-miterlimit="10"/>
<path d="M309.11 209.773H301.151V213.657H309.11V209.773Z" fill="white" stroke="#263238" stroke-miterlimit="10"/>
<path d="M309.11 177.386H301.151V181.27H309.11V177.386Z" fill="white" stroke="#263238" stroke-miterlimit="10"/>
<path d="M325.405 172.557L317.985 175.69L336.644 219.884L344.064 216.751L325.405 172.557Z" fill="white" stroke="#263238" stroke-miterlimit="10"/>
<path d="M340.057 207.255L332.638 210.388L334.167 214.01L341.587 210.877L340.057 207.255Z" fill="white" stroke="#263238" stroke-miterlimit="10"/>
<path d="M327.304 177.049L319.884 180.181L321.414 183.803L328.833 180.671L327.304 177.049Z" fill="white" stroke="#263238" stroke-miterlimit="10"/>
<path d="M336.651 219.864H353.264L360.737 216.751L344.067 216.732L336.651 219.864Z" fill="white" stroke="#263238" stroke-miterlimit="10"/>
<path d="M325.409 172.54H341.012L360.737 216.751L344.068 216.732L325.409 172.54Z" fill="white" stroke="#263238" stroke-miterlimit="10"/>
<path d="M316.964 172.569H309.005V219.95H316.964V172.569Z" fill="white" stroke="#263238" stroke-miterlimit="10"/>
<path d="M316.964 209.773H309.005V213.657H316.964V209.773Z" fill="white" stroke="#263238" stroke-miterlimit="10"/>
<path d="M316.964 177.386H309.005V181.27H316.964V177.386Z" fill="white" stroke="#263238" stroke-miterlimit="10"/>
<path d="M316.964 172.569H325.409L317.983 175.673L336.652 219.864H316.964V172.569Z" fill="white" stroke="#263238" stroke-miterlimit="10"/>
<path d="M244.374 285.686H236.416V333.067H244.374V285.686Z" fill="white" stroke="#263238" stroke-miterlimit="10"/>
<path d="M244.374 322.89H236.416V326.774H244.374V322.89Z" fill="white" stroke="#263238" stroke-miterlimit="10"/>
<path d="M244.374 290.493H236.416V294.377H244.374V290.493Z" fill="white" stroke="#263238" stroke-miterlimit="10"/>
<path d="M236.52 285.686H228.562V333.067H236.52V285.686Z" fill="white" stroke="#263238" stroke-miterlimit="10"/>
<path d="M236.52 322.89H228.562V326.774H236.52V322.89Z" fill="white" stroke="#263238" stroke-miterlimit="10"/>
<path d="M236.52 290.493H228.562V294.377H236.52V290.493Z" fill="white" stroke="#263238" stroke-miterlimit="10"/>
<path d="M228.666 285.686H220.708V333.067H228.666V285.686Z" fill="white" stroke="#263238" stroke-miterlimit="10"/>
<path d="M228.666 322.89H220.708V326.774H228.666V322.89Z" fill="white" stroke="#263238" stroke-miterlimit="10"/>
<path d="M228.666 290.493H220.708V294.377H228.666V290.493Z" fill="white" stroke="#263238" stroke-miterlimit="10"/>
<path d="M220.822 285.686H212.863V333.067H220.822V285.686Z" fill="white" stroke="#263238" stroke-miterlimit="10"/>
<path d="M220.822 322.89H212.863V326.774H220.822V322.89Z" fill="white" stroke="#263238" stroke-miterlimit="10"/>
<path d="M220.822 290.493H212.863V294.377H220.822V290.493Z" fill="white" stroke="#263238" stroke-miterlimit="10"/>
<path d="M252.514 285.686H244.555V333.067H252.514V285.686Z" fill="white" stroke="#263238" stroke-miterlimit="10"/>
<path d="M252.514 322.89H244.555V326.774H252.514V322.89Z" fill="white" stroke="#263238" stroke-miterlimit="10"/>
<path d="M252.514 290.493H244.555V294.377H252.514V290.493Z" fill="white" stroke="#263238" stroke-miterlimit="10"/>
<path d="M260.654 285.686H252.695V333.067H260.654V285.686Z" fill="white" stroke="#263238" stroke-miterlimit="10"/>
<path d="M260.654 322.89H252.695V326.774H260.654V322.89Z" fill="white" stroke="#263238" stroke-miterlimit="10"/>
<path d="M260.654 290.493H252.695V294.377H260.654V290.493Z" fill="white" stroke="#263238" stroke-miterlimit="10"/>
<path d="M268.802 285.686H260.844V333.067H268.802V285.686Z" fill="white" stroke="#263238" stroke-miterlimit="10"/>
<path d="M282.064 285.686H268.736V333.067H282.064V285.686Z" fill="white" stroke="#263238" stroke-miterlimit="10"/>
<path d="M268.802 322.89H260.844V326.774H268.802V322.89Z" fill="white" stroke="#263238" stroke-miterlimit="10"/>
<path d="M268.802 290.493H260.844V294.377H268.802V290.493Z" fill="white" stroke="#263238" stroke-miterlimit="10"/>
<path d="M300.961 285.686H293.002V333.067H300.961V285.686Z" fill="white" stroke="#263238" stroke-miterlimit="10"/>
<path d="M300.961 322.89H293.002V326.774H300.961V322.89Z" fill="white" stroke="#263238" stroke-miterlimit="10"/>
<path d="M300.961 290.493H293.002V294.377H300.961V290.493Z" fill="white" stroke="#263238" stroke-miterlimit="10"/>
<path d="M309.11 285.686H301.151V333.067H309.11V285.686Z" fill="white" stroke="#263238" stroke-miterlimit="10"/>
<path d="M309.11 322.89H301.151V326.774H309.11V322.89Z" fill="white" stroke="#263238" stroke-miterlimit="10"/>
<path d="M309.11 290.493H301.151V294.377H309.11V290.493Z" fill="white" stroke="#263238" stroke-miterlimit="10"/>
<path d="M325.398 285.668L317.978 288.801L336.637 332.995L344.057 329.862L325.398 285.668Z" fill="white" stroke="#263238" stroke-miterlimit="10"/>
<path d="M339.863 319.524L332.454 322.665L333.987 326.282L341.397 323.141L339.863 319.524Z" fill="white" stroke="#263238" stroke-width="0.99925" stroke-miterlimit="10"/>
<path d="M327.297 290.16L319.877 293.292L321.407 296.915L328.826 293.782L327.297 290.16Z" fill="white" stroke="#263238" stroke-miterlimit="10"/>
<path d="M336.651 332.981H353.264L360.737 329.868L344.067 329.839L336.651 332.981Z" fill="white" stroke="#263238" stroke-miterlimit="10"/>
<path d="M325.409 285.648H341.012L360.737 329.868L344.068 329.839L325.409 285.648Z" fill="white" stroke="#263238" stroke-miterlimit="10"/>
<path d="M316.964 285.686H309.005V333.067H316.964V285.686Z" fill="white" stroke="#263238" stroke-miterlimit="10"/>
<path d="M316.964 322.89H309.005V326.774H316.964V322.89Z" fill="white" stroke="#263238" stroke-miterlimit="10"/>
<path d="M316.964 290.493H309.005V294.377H316.964V290.493Z" fill="white" stroke="#263238" stroke-miterlimit="10"/>
<path d="M316.964 285.686H325.409L317.983 288.78L336.652 332.981H316.964V285.686Z" fill="white" stroke="#263238" stroke-miterlimit="10"/>
<path d="M287.167 333.238V444.336" stroke="#263238" stroke-miterlimit="10"/>
<path d="M213.263 346.995H366.992" stroke="#263238" stroke-miterlimit="10"/>
<path d="M244.812 356.391V376.535" stroke="#263238" stroke-width="2" stroke-miterlimit="10"/>
<path d="M251.524 356.391V376.535" stroke="#263238" stroke-width="2" stroke-miterlimit="10"/>
<path d="M322.02 356.391V376.535" stroke="#263238" stroke-width="2" stroke-miterlimit="10"/>
<path d="M328.731 356.391V376.535" stroke="#263238" stroke-width="2" stroke-miterlimit="10"/>
<path d="M409.841 109.49V75.3318H459.517" stroke="#263238" stroke-miterlimit="10"/>
<path d="M463.172 75.3318H484.097V160.06H409.841V114.668" stroke="#263238" stroke-miterlimit="10"/>
<path d="M457.079 148.636H419.847V86.7557H474.082V148.636H461.344" stroke="#263238" stroke-miterlimit="10"/>
<path d="M457.393 105.796H436.535V129.596H457.393V105.796Z" stroke="#263238" stroke-miterlimit="10"/>
<path d="M490.695 148.978V127.673H521.682" stroke="#263238" stroke-miterlimit="10"/>
<path d="M523.958 127.673H537.01V180.518H490.695V152.206" stroke="#263238" stroke-miterlimit="10"/>
<path d="M520.159 173.397H496.94V134.794H530.764V173.397H522.815" stroke="#263238" stroke-miterlimit="10"/>
<path d="M520.359 146.675H507.345V161.516H520.359V146.675Z" stroke="#263238" stroke-miterlimit="10"/>
<path d="M-0.318359 449.706H536.61" stroke="#263238" stroke-linecap="round" stroke-linejoin="round"/>
<path d="M37.7616 316.426C37.7616 316.426 32.0496 240.266 34.9056 231.698C37.7616 223.13 55.3736 223.606 58.7056 223.606C62.0376 223.606 131.534 223.606 141.53 228.366C151.526 233.126 152.954 350.222 152.954 350.222H42.5216L37.7616 316.426Z" fill="#263238" stroke="#263238" stroke-miterlimit="10"/>
<path d="M156.752 310.238C156.752 310.238 145.328 310.238 143.043 321.662C140.758 333.086 149.755 380.21 150.421 393.538C151.087 406.866 153.429 425.43 153.429 425.43H193.889L202.933 310.238H156.752Z" fill="#263238" stroke="#263238" stroke-miterlimit="10"/>
<path d="M202.933 310.238C202.933 310.238 191.509 310.238 188.653 321.662C185.797 333.086 192.461 380.21 192.461 393.538C192.461 406.866 193.889 425.43 193.889 425.43H208.169C208.169 425.43 209.597 391.158 209.597 386.398C209.597 381.638 215.309 332.134 212.453 322.138C209.597 312.142 207.217 311.19 202.933 310.238Z" fill="#636363" stroke="#263238" stroke-miterlimit="10"/>
<path d="M82.2673 228.604C82.2673 228.604 44.4253 244.074 44.4253 245.74C44.4253 247.406 57.2773 292.15 62.0373 299.052C66.7973 305.954 70.1293 313.57 71.5573 316.426C72.9853 319.282 79.1733 326.422 84.1713 326.422C89.1693 326.422 95.1193 320.472 111.065 318.092C127.011 315.712 141.291 315.95 144.147 313.808C147.003 311.666 143.433 305.954 142.957 304.764C142.481 303.574 140.577 299.29 140.577 299.29C140.577 299.29 156.047 312.142 162.235 312.618C168.423 313.094 172.945 310 173.897 305.954C174.849 301.908 171.279 292.15 168.899 286.914C166.519 281.678 155.333 273.348 150.335 266.922C145.337 260.496 138.911 252.88 134.389 247.644C130.449 243.034 125.584 239.305 120.109 236.696C115.825 234.792 104.877 230.032 97.9753 229.318C91.0733 228.604 82.2673 228.604 82.2673 228.604Z" fill="#8E6CED" stroke="#263238" stroke-miterlimit="10"/>
<path d="M156.438 284.372C156.438 284.372 151.049 299.29 152.953 303.098C154.857 306.906 159.931 308.172 159.931 308.172" stroke="#263238" stroke-miterlimit="10"/>
<path d="M76.5557 233.602L107.972 264.066L112.732 241.218" stroke="#263238" stroke-miterlimit="10"/>
<path d="M157.951 286.2C157.951 286.2 165.567 291.674 168.185 289.77C170.803 287.866 170.089 284.296 168.423 280.488C166.757 276.68 161.283 274.538 159.141 276.204C156.999 277.87 156.285 284.534 157.951 286.2Z" fill="white" stroke="#263238" stroke-miterlimit="10"/>
<path d="M79.8877 218.608L81.0777 232.888L106.306 257.64L110.114 240.028L111.78 232.65C111.78 232.65 95.3577 229.794 90.1217 226.224C84.8857 222.654 79.8877 218.608 79.8877 218.608Z" fill="white" stroke="#263238" stroke-miterlimit="10"/>
<path d="M111.78 232.65C111.78 232.65 95.3577 229.794 90.1217 226.224C84.8857 222.654 79.8877 218.608 79.8877 218.608L81.0777 232.888L87.4561 239.142C92.416 240.542 97.3569 241.218 100.717 239.923C104.446 238.567 108.01 236.795 111.342 234.639L111.78 232.65Z" fill="#263238" stroke="#263238" stroke-miterlimit="10"/>
<path d="M72.3477 207.584C72.3477 207.584 67.9019 187.268 67.9019 183.784C67.9019 180.299 79.9637 162.516 96.4619 165.372C112.96 168.228 122.166 177.748 122.804 180.604C123.442 183.46 120.9 189.172 120.9 189.172C121.402 190.827 121.721 192.531 121.852 194.256C121.852 196.16 118.996 204.404 118.996 204.404L118.044 195.836C118.044 195.836 110.114 198.064 105.668 198.064C101.222 198.064 93.6059 195.208 93.6059 195.208C93.6059 195.208 95.1957 200.282 93.6059 202.824C92.016 205.365 87.2655 207.584 87.2655 207.584C87.2655 207.584 86.6277 212.658 84.7237 212.658C82.3749 212.539 80.0404 212.22 77.7455 211.706C76.4699 211.392 72.3477 207.584 72.3477 207.584Z" fill="#263238" stroke="#263238" stroke-miterlimit="10"/>
<path d="M79.6496 209.802C79.6496 209.802 79.0117 202.186 72.6619 204.09C66.3121 205.994 70.4437 212.972 73.9376 216.466C77.4314 219.96 78.3739 217.418 78.3739 217.418C78.3739 217.418 79.3259 224.72 84.0859 228.842C88.8459 232.964 96.1477 240.58 103.764 239.628C111.38 238.676 116.778 229.156 117.73 222.178C118.682 215.2 119.31 198.692 119.31 196.788C119.081 194.641 118.657 192.518 118.044 190.448C118.044 190.448 111.38 195.208 105.354 193.932C99.3274 192.656 92.9776 190.124 90.1216 190.124C87.2656 190.124 87.8939 194.256 88.8459 195.522C89.7979 196.788 92.3397 199.33 89.4837 200.92C86.6277 202.509 82.8197 204.09 82.8197 204.09V210.754L79.6496 209.802Z" fill="white" stroke="#263238" stroke-miterlimit="10"/>
<path d="M110.009 206.336L108.447 223.539L100.631 221.273" stroke="#263238" stroke-miterlimit="10"/>
<path d="M103.411 222.663C103.411 222.663 99.6033 222.663 97.5089 222.844C96.2509 223.052 94.9725 223.11 93.7009 223.016C92.8346 222.844 91.7969 222.149 93.5296 223.882C95.2622 225.615 100.479 227.69 103.259 228.052C106.039 228.413 107.952 227.528 110.028 226.148C112.103 224.767 113.836 223.368 112.808 223.025C111.375 222.77 109.921 222.652 108.466 222.673V223.549L103.411 222.663Z" fill="#263238" stroke="#263238" stroke-miterlimit="10"/>
<path d="M97.9376 212.239C98.5632 212.239 99.0704 211.19 99.0704 209.897C99.0704 208.604 98.5632 207.555 97.9376 207.555C97.3119 207.555 96.8047 208.604 96.8047 209.897C96.8047 211.19 97.3119 212.239 97.9376 212.239Z" fill="#263238"/>
<path d="M114.873 209.554C114.873 210.849 114.369 211.896 113.75 211.896C113.131 211.896 112.617 210.849 112.617 209.554C112.617 208.26 113.122 207.203 113.75 207.203C114.378 207.203 114.873 208.26 114.873 209.554Z" fill="#263238"/>
<path d="M93.6821 206.337C93.6821 206.337 98.3755 203.033 102.193 204.433" stroke="#263238" stroke-miterlimit="10"/>
<path d="M110.885 204.604C110.885 204.604 115.749 202.338 117.834 204.423" stroke="#263238" stroke-miterlimit="10"/>
<path d="M100.984 214.2C100.984 214.2 99.9367 215.419 96.4619 216.456" stroke="#263238" stroke-miterlimit="10"/>
<path d="M110.532 213.457C111.56 214.167 112.669 214.752 113.836 215.2" stroke="#263238" stroke-miterlimit="10"/>
<path d="M125.346 258.592L127.012 254.308C127.012 254.308 129.154 256.45 134.866 256.45C140.578 256.45 149.86 260.496 149.86 260.496L150.574 261.686C150.574 261.686 152.24 256.688 155.334 255.736C158.428 254.784 163.426 251.452 164.14 250.5L164.854 249.548L168.186 252.404L153.43 271.92L125.822 261.21L125.346 258.592Z" fill="white" stroke="#263238" stroke-miterlimit="10"/>
<path d="M125.583 256.926L118.443 294.768L143.195 300.48L152.239 263.828L125.583 256.926Z" fill="white" stroke="#263238" stroke-miterlimit="10"/>
<path d="M152.239 263.828L168.185 252.404L158.665 289.056L143.195 300.48L152.239 263.828Z" fill="white" stroke="#263238" stroke-miterlimit="10"/>
<path d="M94.8813 287.866L105.668 283.42C105.668 283.42 115.188 273.272 116.14 272.32C117.092 271.368 126.612 270.416 126.612 270.416L137.084 277.394C137.084 277.394 138.988 278.984 137.084 279.612C135.18 280.24 131.057 278.346 131.057 278.346L126.926 275.804L124.393 277.08L129.782 281.516C129.782 281.516 131.372 285.648 131.372 287.866C131.342 289.291 131.018 290.694 130.42 291.988L127.249 296.434L117.729 291.674C117.729 291.674 112.017 295.796 110.742 296.434C109.466 297.072 97.4137 296.12 97.4137 296.12L94.8813 287.866Z" fill="white" stroke="#263238" stroke-miterlimit="10"/>
<path d="M117.644 276.746L121.014 276.109L123.908 276.908" stroke="#263238" stroke-miterlimit="10"/>
<path d="M114.436 283.011C114.436 283.011 121.975 280.916 122.461 280.916C122.946 280.916 128.563 286.695 128.563 286.695L129.201 292.959" stroke="#263238" stroke-miterlimit="10"/>
<path d="M114.759 287.018L120.852 287.18L126.469 290.874C127.039 292.671 127.303 294.55 127.25 296.434" stroke="#263238" stroke-miterlimit="10"/>
<path d="M51.0893 241.218C51.0893 241.218 44.1016 242.17 43.1496 248.196C42.1976 254.222 35.8573 305.002 37.7613 310.714C39.6653 316.426 74.8893 306.592 76.1554 305.954C77.4216 305.316 97.4136 299.29 97.7373 298.024C98.061 296.757 98.6893 286.276 95.8333 285.648C92.9773 285.019 65.6834 285.962 65.6834 285.962L61.8754 252.956" fill="#8E6CED"/>
<path d="M51.0893 241.218C51.0893 241.218 44.1016 242.17 43.1496 248.196C42.1976 254.222 35.8573 305.002 37.7613 310.714C39.6653 316.426 74.8893 306.592 76.1554 305.954C77.4216 305.316 97.4136 299.29 97.7373 298.024C98.061 296.757 98.6893 286.276 95.8333 285.648C92.9773 285.019 65.6834 285.962 65.6834 285.962L61.8754 252.956" stroke="#263238" stroke-miterlimit="10"/>
<path d="M65.6837 285.962L48.8618 288.818" stroke="#263238" stroke-miterlimit="10"/>
<path d="M45.6914 285.01L60.2856 286.914" stroke="#263238" stroke-miterlimit="10"/>
<path d="M163.901 268.112C163.901 268.112 157.475 274.776 157.713 276.442C157.951 278.108 161.283 275.49 161.997 274.776C162.711 274.062 166.043 272.158 166.043 270.254C166.043 268.35 165.329 266.208 163.901 268.112Z" fill="white" stroke="#263238" stroke-miterlimit="10"/>
<path d="M164.615 272.158C164.615 272.158 166.519 274.062 166.519 275.728C166.519 277.394 162.473 282.868 160.569 282.868C158.665 282.868 160.093 279.06 161.045 277.394C161.997 275.728 164.615 272.158 164.615 272.158Z" fill="white" stroke="#263238" stroke-miterlimit="10"/>
<path d="M166.52 275.728C166.52 275.728 168.9 276.442 168.9 278.584C168.9 280.726 164.378 284.296 163.188 284.534C161.998 284.772 162.236 282.63 163.188 280.964C164.14 279.298 166.52 275.728 166.52 275.728Z" fill="white" stroke="#263238" stroke-miterlimit="10"/>
<path d="M168.9 278.584C169.387 279.79 169.551 281.103 169.376 282.392C169.138 284.772 165.568 286.2 164.378 286.2C163.188 286.2 163.188 284.534 163.188 284.534C165.202 282.659 167.109 280.673 168.9 278.584Z" fill="white" stroke="#263238" stroke-miterlimit="10"/>
<path d="M94.0439 449.706H89.5219L87.2656 419.718H96.3096L94.0439 449.706Z" fill="white" stroke="#263238" stroke-miterlimit="10"/>
<path d="M52.6318 449.706H48.1098L45.8535 419.718H54.8975L52.6318 449.706Z" fill="white" stroke="#263238" stroke-miterlimit="10"/>
<path d="M202.096 449.706H197.574L195.317 419.718H204.361L202.096 449.706Z" fill="white" stroke="#263238" stroke-miterlimit="10"/>
<path d="M160.684 449.706H156.162L153.905 419.718H162.949L160.684 449.706Z" fill="white" stroke="#263238" stroke-miterlimit="10"/>
<path d="M195.794 362.341H87.7417V425.173H195.794V362.341Z" fill="#263238" stroke="#263238" stroke-miterlimit="10"/>
<path d="M274.172 352.288C274.172 352.288 285.596 347.528 288.137 345.624C290.679 343.72 294.164 347.842 292.574 352.288C290.984 356.733 286.862 364.664 280.521 368.472C274.181 372.28 269.097 375.45 267.822 376.716C266.546 377.982 266.87 382.752 261.481 384.656C256.093 386.56 249.42 382.752 245.612 376.716C241.804 370.68 239.262 366.568 239.262 366.568C239.262 366.568 239.585 362.122 245.926 359.904C252.266 357.685 263.062 356.724 263.062 356.724L274.172 352.288Z" fill="white" stroke="#263238" stroke-miterlimit="10"/>
<path d="M144.147 313.808C144.147 313.808 151.678 311.98 153.582 312.932C155.486 313.884 161.836 319.92 161.836 319.92C161.836 319.92 200.23 320.548 203.086 321.824C205.942 323.099 235.454 345.624 241.804 348.794C248.153 351.964 253.542 354.82 253.542 354.82L248.782 375.764V377.668L249.105 380.848C249.105 380.848 232.598 375.764 228.476 374.812C224.353 373.86 207.217 364.978 205.628 364.978C204.038 364.978 191.033 361.17 191.033 361.17C191.033 361.17 189.129 359.904 168.5 358C147.87 356.096 124.708 353.868 116.454 353.554C108.2 353.24 97.4138 352.602 93.2916 351.012C89.1694 349.422 81.8676 338.322 80.6014 331.658C79.3353 324.994 92.6538 319.282 98.3658 316.74C104.078 314.198 125.345 311.028 129.153 311.028C132.961 311.028 144.147 313.808 144.147 313.808Z" fill="white" stroke="#263238" stroke-miterlimit="10"/>
<path d="M151.364 323.09L145.014 332.296L153.582 326.584" fill="white"/>
<path d="M151.364 323.09L145.014 332.296L153.582 326.584" stroke="#263238" stroke-miterlimit="10"/>
<path d="M248.782 350.698C248.782 350.698 257.987 343.396 259.892 341.178C261.796 338.96 268.145 326.898 269.412 323.09C270.678 319.282 273.857 317.378 276.076 320.234C278.294 323.09 279.884 328.802 281.15 331.344C282.416 333.885 280.521 346.252 276.713 350.384C272.905 354.515 267.641 364.521 266.556 366.568C263.7 371.956 259.254 372.594 256.398 372.908C253.542 373.222 246.563 365.616 246.563 365.616L248.782 350.698Z" fill="white" stroke="#263238" stroke-miterlimit="10"/>
<path d="M107.572 329.44C107.572 329.44 117.092 327.536 125.66 328.488C134.228 329.44 151.678 334.828 158.98 336.732C166.282 338.636 179.286 339.588 185.322 341.816C191.357 344.043 207.218 346.89 219.27 346.89C231.322 346.89 249.734 348.48 249.734 348.48C249.734 348.48 247.202 366.882 247.83 370.376C248.456 373.187 249.306 375.944 250.372 378.62C250.372 378.62 225.934 380.524 218.956 381.476C211.978 382.428 183.732 377.992 178.972 376.716C174.212 375.44 167.234 373.546 162.788 373.546C158.342 373.546 149.774 375.45 137.398 376.716C125.022 377.982 107.572 372.594 105.354 372.28C103.135 371.965 95.1958 369.1 93.2918 367.834C91.3878 366.568 80.278 346.89 84.086 338.636C87.894 330.382 92.654 329.116 92.654 329.116" fill="white"/>
<path d="M107.572 329.44C107.572 329.44 117.092 327.536 125.66 328.488C134.228 329.44 151.678 334.828 158.98 336.732C166.282 338.636 179.286 339.588 185.322 341.816C191.357 344.043 207.218 346.89 219.27 346.89C231.322 346.89 249.734 348.48 249.734 348.48C249.734 348.48 247.202 366.882 247.83 370.376C248.456 373.187 249.306 375.944 250.372 378.62C250.372 378.62 225.934 380.524 218.956 381.476C211.978 382.428 183.732 377.992 178.972 376.716C174.212 375.44 167.234 373.546 162.788 373.546C158.342 373.546 149.774 375.45 137.398 376.716C125.022 377.982 107.572 372.594 105.354 372.28C103.135 371.965 95.1958 369.1 93.2918 367.834C91.3878 366.568 80.278 346.89 84.086 338.636C87.894 330.382 92.654 329.116 92.654 329.116" stroke="#263238" stroke-miterlimit="10"/>
<path d="M165.948 361.455C172.07 362.674 178.553 366.387 187.321 369.823C199.021 374.403 222.44 373.984 225.458 374.403C228.476 374.821 236.139 374.403 236.139 374.403" fill="white"/>
<path d="M165.948 361.455C172.07 362.674 178.553 366.387 187.321 369.823C199.021 374.403 222.44 373.984 225.458 374.403C228.476 374.821 236.139 374.403 236.139 374.403" stroke="#263238" stroke-miterlimit="10"/>
<path d="M118.748 365.758L122.242 366.263C132.409 367.786 151.754 362.198 159.865 361.179" fill="white"/>
<path d="M118.748 365.758L122.242 366.263C132.409 367.786 151.754 362.198 159.865 361.179" stroke="#263238" stroke-miterlimit="10"/>
<path d="M108.514 364.74C108.514 364.74 110.342 364.74 115.112 365.301L108.514 364.74Z" fill="white"/>
<path d="M108.514 364.74C108.514 364.74 110.342 364.74 115.112 365.301" stroke="#263238" stroke-miterlimit="10"/>
<path d="M46.796 310.238C46.796 310.238 35.372 310.238 33.0872 321.662C30.8024 333.086 39.7512 380.21 40.4652 393.538C41.1792 406.866 43.4735 425.43 43.4735 425.43H83.9335L92.9775 310.238H46.796Z" fill="#263238" stroke="#263238" stroke-miterlimit="10"/>
<path d="M92.9774 310.238C92.9774 310.238 81.5534 310.238 78.6974 321.662C75.8414 333.086 82.5054 380.21 82.5054 393.538C82.5054 406.866 83.9334 425.43 83.9334 425.43H98.2134C98.2134 425.43 99.6414 391.158 99.6414 386.398C99.6414 381.638 105.353 332.134 102.497 322.138C99.6414 312.142 97.2614 311.19 92.9774 310.238Z" fill="#636363" stroke="#263238" stroke-miterlimit="10"/>
<path d="M185.912 449.706H181.39L179.133 419.718H188.177L185.912 449.706Z" fill="white" stroke="#263238" stroke-miterlimit="10"/>
<path d="M224.468 449.706H219.946L217.689 419.718H226.733L224.468 449.706Z" fill="white" stroke="#263238" stroke-miterlimit="10"/>
<path d="M242.556 449.706H238.034L235.777 419.718H244.821L242.556 449.706Z" fill="white" stroke="#263238" stroke-miterlimit="10"/>
<path d="M280.636 449.706H276.114L273.857 419.718H282.901L280.636 449.706Z" fill="white" stroke="#263238" stroke-miterlimit="10"/>
<path d="M180.324 380.686H279.76C281.591 380.686 283.346 381.413 284.641 382.707C285.935 384.002 286.662 385.757 286.662 387.588V436.378H173.374V387.588C173.374 386.677 173.554 385.776 173.904 384.935C174.254 384.095 174.766 383.332 175.412 382.69C176.058 382.049 176.825 381.541 177.668 381.197C178.511 380.853 179.413 380.679 180.324 380.686Z" fill="#263238" stroke="#263238" stroke-miterlimit="10"/>
<path d="M279.808 380.686H243.631C241.801 380.686 240.045 381.413 238.751 382.707C237.457 384.002 236.729 385.757 236.729 387.588V436.378H286.71V387.588C286.707 385.758 285.979 384.004 284.685 382.71C283.391 381.416 281.637 380.688 279.808 380.686Z" fill="#636363" stroke="#263238" stroke-miterlimit="10"/>
</g>
<defs>
<clipPath id="clip0_43_4927">
<rect width="543" height="476" fill="white"/>
</clipPath>
</defs>
</svg>
