<svg width="506" height="443" viewBox="0 0 506 443" fill="none" xmlns="http://www.w3.org/2000/svg">
<path d="M209.199 66.4818H231.279" stroke="#263238" stroke-width="2" stroke-miterlimit="10"/>
<path d="M219.554 62.3319L216.098 72.6932C216.098 72.6932 112.584 83.7461 103.611 68.5434C94.6379 53.3406 109.832 47.8341 145.71 53.3539C181.589 58.8737 219.554 62.3319 219.554 62.3319Z" fill="white" stroke="#263238" stroke-miterlimit="10"/>
<path d="M298.463 66.4818H276.383" stroke="#263238" stroke-width="2" stroke-miterlimit="10"/>
<path d="M288.107 62.3319L291.564 72.6932C291.564 72.6932 395.078 83.7461 404.038 68.5434C412.997 53.3406 397.896 47.8341 362.004 53.3539C326.113 58.8737 288.107 62.3319 288.107 62.3319Z" fill="white" stroke="#263238" stroke-miterlimit="10"/>
<path d="M241.036 86.7787C241.036 86.7787 237.141 109.084 244.147 111.185C251.152 113.287 267.862 112.821 272.515 106.597C277.167 100.372 274.043 94.1473 268.886 84.7836C263.728 75.4199 250.182 74.8612 241.036 86.7787Z" fill="white" stroke="#263238" stroke-miterlimit="10"/>
<path d="M250.66 0.204231V70.1261H256.948V3.35651" fill="white"/>
<path d="M250.66 0.204231V70.1261H256.948V3.35651" stroke="#263238" stroke-miterlimit="10"/>
<path d="M234.988 74.409C247.574 78.3992 261.085 78.3992 273.671 74.409H283.575V65.431C283.575 58.7806 270.481 53.4603 254.329 53.4603C238.178 53.4603 225.084 58.7806 225.084 65.431V74.409H234.988Z" fill="white" stroke="#263238" stroke-miterlimit="10"/>
<path d="M254.329 86.3796C270.481 86.3796 283.575 81.0202 283.575 74.409C283.575 67.7978 270.481 62.4383 254.329 62.4383C238.178 62.4383 225.084 67.7978 225.084 74.409C225.084 81.0202 238.178 86.3796 254.329 86.3796Z" fill="white" stroke="#263238" stroke-miterlimit="10"/>
<path d="M254.329 86.3796C270.481 86.3796 283.575 81.0202 283.575 74.409C283.575 67.7978 270.481 62.4383 254.329 62.4383C238.178 62.4383 225.084 67.7978 225.084 74.409C225.084 81.0202 238.178 86.3796 254.329 86.3796Z" fill="white" stroke="#263238" stroke-miterlimit="10"/>
<g opacity="0.3">
<path d="M358.256 312.638H339.366V365.495H358.256V312.638Z" fill="#8E6CED"/>
<path d="M353.536 316.974H344.098V348.391H353.536V316.974Z" fill="#7055BC"/>
<path d="M348.818 360.893C350.367 360.893 351.622 359.637 351.622 358.087C351.622 356.537 350.367 355.28 348.818 355.28C347.268 355.28 346.013 356.537 346.013 358.087C346.013 359.637 347.268 360.893 348.818 360.893Z" fill="#7055BC"/>
<path d="M385.228 312.638H366.338V365.495H385.228V312.638Z" fill="#7055BC"/>
<path d="M380.495 316.974H371.057V348.391H380.495V316.974Z" fill="#8E6CED"/>
<path d="M375.789 360.893C377.339 360.893 378.594 359.637 378.594 358.087C378.594 356.537 377.339 355.28 375.789 355.28C374.24 355.28 372.985 356.537 372.985 358.087C372.985 359.637 374.24 360.893 375.789 360.893Z" fill="#8E6CED"/>
<path d="M412.2 312.638H393.31V365.495H412.2V312.638Z" fill="#7055BC"/>
<path d="M407.467 316.974H398.029V348.391H407.467V316.974Z" fill="#8E6CED"/>
<path d="M405.566 358.047C405.566 357.489 405.401 356.943 405.09 356.479C404.78 356.015 404.339 355.654 403.823 355.441C403.308 355.228 402.74 355.173 402.193 355.282C401.646 355.392 401.144 355.662 400.751 356.058C400.357 356.454 400.09 356.957 399.982 357.505C399.875 358.053 399.933 358.62 400.148 359.135C400.364 359.65 400.727 360.09 401.192 360.398C401.657 360.706 402.203 360.869 402.761 360.867C403.507 360.863 404.22 360.565 404.746 360.036C405.271 359.508 405.566 358.792 405.566 358.047Z" fill="#8E6CED"/>
<path d="M439.171 312.638H420.282V365.495H439.171V312.638Z" fill="#8E6CED"/>
<path d="M434.439 316.974H425.001V348.391H434.439V316.974Z" fill="#7055BC"/>
<path d="M432.538 358.047C432.538 357.489 432.373 356.944 432.063 356.48C431.754 356.017 431.313 355.655 430.798 355.442C430.283 355.228 429.717 355.173 429.17 355.281C428.624 355.39 428.121 355.659 427.727 356.053C427.333 356.447 427.065 356.95 426.956 357.497C426.847 358.044 426.903 358.611 427.116 359.126C427.33 359.641 427.691 360.082 428.154 360.392C428.618 360.701 429.163 360.867 429.72 360.867C430.467 360.867 431.184 360.57 431.713 360.041C432.241 359.512 432.538 358.795 432.538 358.047Z" fill="#7055BC"/>
<path d="M469.879 177.942V174.111H462.727V159.866H457.117V174.111H331.549V159.866H325.94V174.111H316.488V177.942H325.94V237.689H316.488V241.519H325.94V301.279H316.488V305.11H325.94V364.857H316.488V368.688H325.94V434.1H331.549V368.688H457.117V434.1H462.727V368.688H469.879V364.857H462.727V305.11H469.879V301.279H462.727V241.519H469.879V237.689H462.727V177.942H469.879ZM457.117 364.857H331.549V305.11H457.117V364.857ZM457.117 301.279H331.549V241.519H457.117V301.279ZM457.117 237.689H331.549V177.942H457.117V237.689Z" fill="#8E6CED"/>
<path d="M422.622 184.832H403.732V237.689H422.622V184.832Z" fill="#7055BC"/>
<path d="M417.889 189.168H408.451V220.584H417.889V189.168Z" fill="#7055BC"/>
<path d="M415.988 230.28C415.988 229.722 415.822 229.176 415.512 228.712C415.202 228.248 414.761 227.887 414.245 227.674C413.73 227.461 413.162 227.406 412.615 227.516C412.068 227.626 411.566 227.895 411.173 228.291C410.779 228.687 410.512 229.19 410.404 229.738C410.297 230.286 410.355 230.854 410.57 231.369C410.786 231.884 411.149 232.323 411.614 232.631C412.079 232.939 412.625 233.103 413.183 233.1C413.928 233.096 414.642 232.798 415.167 232.269C415.693 231.741 415.988 231.026 415.988 230.28Z" fill="#7055BC"/>
<path d="M400.462 184.832H381.572V237.689H400.462V184.832Z" fill="#7055BC"/>
<path d="M395.743 189.168H386.304V220.584H395.743V189.168Z" fill="#7055BC"/>
<path d="M391.023 233.087C392.572 233.087 393.828 231.83 393.828 230.28C393.828 228.73 392.572 227.474 391.023 227.474C389.474 227.474 388.219 228.73 388.219 230.28C388.219 231.83 389.474 233.087 391.023 233.087Z" fill="#7055BC"/>
<path d="M378.315 184.832H359.426V237.689H378.315V184.832Z" fill="#8E6CED"/>
<path d="M373.583 189.168H364.145V220.584H373.583V189.168Z" fill="#7055BC"/>
<path d="M368.864 233.087C370.413 233.087 371.669 231.83 371.669 230.28C371.669 228.73 370.413 227.474 368.864 227.474C367.315 227.474 366.059 228.73 366.059 230.28C366.059 231.83 367.315 233.087 368.864 233.087Z" fill="#7055BC"/>
<path d="M448.65 184.832H429.76V237.689H448.65V184.832Z" fill="#7055BC"/>
<path d="M443.931 189.168H434.492V220.584H443.931V189.168Z" fill="#7055BC"/>
<path d="M439.211 233.087C440.76 233.087 442.016 231.83 442.016 230.28C442.016 228.73 440.76 227.474 439.211 227.474C437.662 227.474 436.406 228.73 436.406 230.28C436.406 231.83 437.662 233.087 439.211 233.087Z" fill="#7055BC"/>
<path d="M354.72 184.832H335.83V237.689H354.72V184.832Z" fill="#8E6CED"/>
<path d="M349.987 189.168H340.549V220.584H349.987V189.168Z" fill="#7055BC"/>
<path d="M345.268 233.087C346.817 233.087 348.073 231.83 348.073 230.28C348.073 228.73 346.817 227.474 345.268 227.474C343.719 227.474 342.463 228.73 342.463 230.28C342.463 231.83 343.719 233.087 345.268 233.087Z" fill="#7055BC"/>
<path d="M430.85 157.698H374.075C375.974 159.915 376.983 162.759 376.906 165.679C376.978 168.597 375.97 171.439 374.075 173.659H430.85C432.965 173.659 434.994 172.818 436.49 171.322C437.986 169.825 438.826 167.795 438.826 165.679C438.826 163.562 437.986 161.532 436.49 160.036C434.994 158.539 432.965 157.698 430.85 157.698Z" fill="#8E6CED" stroke="white" stroke-miterlimit="10"/>
<path d="M433.083 158.017V173.167C434.719 172.677 436.155 171.675 437.179 170.308C438.203 168.941 438.762 167.281 438.773 165.572C438.754 163.87 438.191 162.22 437.168 160.86C436.144 159.501 434.713 158.505 433.083 158.017Z" fill="#7055BC" stroke="white" stroke-miterlimit="10"/>
<path d="M430.85 140.846H374.075C375.97 143.066 376.978 145.908 376.906 148.827C376.978 151.745 375.97 154.587 374.075 156.807H430.85C432.965 156.807 434.994 155.966 436.49 154.47C437.986 152.973 438.826 150.943 438.826 148.827C438.826 146.71 437.986 144.68 436.49 143.184C434.994 141.687 432.965 140.846 430.85 140.846Z" fill="#8E6CED" stroke="white" stroke-miterlimit="10"/>
<path d="M433.083 141.165V156.381C434.722 155.891 436.159 154.887 437.183 153.517C438.208 152.147 438.765 150.484 438.773 148.773C438.765 147.063 438.208 145.4 437.183 144.03C436.159 142.66 434.722 141.656 433.083 141.165Z" fill="#7055BC" stroke="white" stroke-miterlimit="10"/>
<path d="M373.33 119.219H354.441V172.076H373.33V119.219Z" fill="#8E6CED"/>
<path d="M368.598 123.555H359.16V154.972H368.598V123.555Z" fill="#8E6CED"/>
<path d="M366.683 164.668C366.683 164.113 366.519 163.57 366.211 163.109C365.903 162.647 365.464 162.287 364.952 162.075C364.439 161.862 363.875 161.807 363.331 161.915C362.787 162.023 362.288 162.291 361.895 162.683C361.503 163.076 361.236 163.576 361.128 164.12C361.019 164.665 361.075 165.229 361.287 165.742C361.5 166.255 361.859 166.693 362.32 167.001C362.782 167.31 363.324 167.474 363.879 167.474C364.247 167.476 364.613 167.405 364.954 167.264C365.295 167.124 365.605 166.917 365.866 166.656C366.127 166.395 366.333 166.085 366.474 165.744C366.614 165.402 366.685 165.037 366.683 164.668Z" fill="#8E6CED"/>
<path d="M448.65 247.904H429.76V300.761H448.65V247.904Z" fill="#8E6CED"/>
<path d="M443.931 252.253H434.492V283.669H443.931V252.253Z" fill="#7055BC"/>
<path d="M442.016 293.366C442.016 292.81 441.852 292.268 441.544 291.806C441.235 291.345 440.797 290.985 440.285 290.773C439.772 290.56 439.208 290.505 438.664 290.613C438.12 290.721 437.62 290.989 437.228 291.381C436.836 291.774 436.569 292.274 436.46 292.818C436.352 293.362 436.408 293.927 436.62 294.44C436.832 294.952 437.192 295.391 437.653 295.699C438.114 296.007 438.657 296.172 439.211 296.172C439.954 296.168 440.666 295.872 441.191 295.346C441.716 294.821 442.013 294.109 442.016 293.366Z" fill="#7055BC"/>
<path d="M426.756 247.904H407.866V300.761H426.756V247.904Z" fill="#8E6CED"/>
<path d="M422.023 252.253H412.585V283.669H422.023V252.253Z" fill="#7055BC"/>
<path d="M420.109 293.366C420.109 292.81 419.944 292.268 419.636 291.806C419.328 291.345 418.89 290.985 418.377 290.773C417.865 290.56 417.301 290.505 416.757 290.613C416.213 290.721 415.713 290.989 415.321 291.381C414.929 291.774 414.661 292.274 414.553 292.818C414.445 293.362 414.5 293.927 414.713 294.44C414.925 294.952 415.285 295.391 415.746 295.699C416.207 296.007 416.749 296.172 417.304 296.172C417.672 296.172 418.037 296.099 418.377 295.958C418.718 295.817 419.027 295.611 419.287 295.35C419.548 295.089 419.754 294.78 419.895 294.44C420.036 294.099 420.109 293.734 420.109 293.366Z" fill="#7055BC"/>
<path d="M381.559 247.904H362.669V300.761H381.559V247.904Z" fill="#8E6CED"/>
<path d="M376.826 252.253H367.388V283.669H376.826V252.253Z" fill="#7055BC"/>
<path d="M374.912 293.366C374.912 292.81 374.748 292.268 374.439 291.806C374.131 291.345 373.693 290.985 373.181 290.773C372.668 290.56 372.104 290.505 371.56 290.613C371.016 290.721 370.516 290.989 370.124 291.381C369.732 291.774 369.464 292.274 369.356 292.818C369.248 293.362 369.303 293.927 369.516 294.44C369.728 294.952 370.088 295.391 370.549 295.699C371.01 296.007 371.552 296.172 372.107 296.172C372.475 296.172 372.84 296.099 373.181 295.958C373.521 295.817 373.83 295.611 374.091 295.35C374.351 295.089 374.558 294.78 374.699 294.44C374.839 294.099 374.912 293.734 374.912 293.366Z" fill="#7055BC"/>
<path d="M404.848 247.904H385.959V300.761H404.848V247.904Z" fill="#8E6CED"/>
<path d="M400.116 252.253H390.678V283.669H400.116V252.253Z" fill="#7055BC"/>
<path d="M398.202 293.366C398.202 292.81 398.037 292.268 397.729 291.806C397.421 291.345 396.983 290.985 396.47 290.773C395.958 290.56 395.394 290.505 394.85 290.613C394.306 290.721 393.806 290.989 393.414 291.381C393.021 291.774 392.754 292.274 392.646 292.818C392.538 293.362 392.593 293.927 392.806 294.44C393.018 294.952 393.377 295.391 393.839 295.699C394.3 296.007 394.842 296.172 395.397 296.172C395.765 296.172 396.13 296.099 396.47 295.958C396.811 295.817 397.12 295.611 397.38 295.35C397.641 295.089 397.847 294.78 397.988 294.44C398.129 294.099 398.202 293.734 398.202 293.366Z" fill="#7055BC"/>
<path d="M206.288 312.638H187.398V365.495H206.288V312.638Z" fill="#8E6CED"/>
<path d="M201.555 316.974H192.117V348.391H201.555V316.974Z" fill="#8E6CED"/>
<path d="M196.836 360.893C198.385 360.893 199.641 359.637 199.641 358.087C199.641 356.537 198.385 355.28 196.836 355.28C195.287 355.28 194.031 356.537 194.031 358.087C194.031 359.637 195.287 360.893 196.836 360.893Z" fill="#8E6CED"/>
<path d="M233.246 312.638H214.357V365.495H233.246V312.638Z" fill="#8E6CED"/>
<path d="M228.527 316.974H219.089V348.391H228.527V316.974Z" fill="#8E6CED"/>
<path d="M223.808 360.893C225.357 360.893 226.613 359.637 226.613 358.087C226.613 356.537 225.357 355.28 223.808 355.28C222.259 355.28 221.003 356.537 221.003 358.087C221.003 359.637 222.259 360.893 223.808 360.893Z" fill="#8E6CED"/>
<path d="M260.218 312.638H241.329V365.495H260.218V312.638Z" fill="#8E6CED"/>
<path d="M255.499 316.974H246.061V348.391H255.499V316.974Z" fill="#8E6CED"/>
<path d="M250.78 360.893C252.329 360.893 253.585 359.637 253.585 358.087C253.585 356.537 252.329 355.28 250.78 355.28C249.231 355.28 247.975 356.537 247.975 358.087C247.975 359.637 249.231 360.893 250.78 360.893Z" fill="#8E6CED"/>
<path d="M287.19 312.638H268.301V365.495H287.19V312.638Z" fill="#8E6CED"/>
<path d="M282.458 316.974H273.02V348.391H282.458V316.974Z" fill="#8E6CED"/>
<path d="M280.557 358.047C280.557 357.489 280.391 356.943 280.081 356.479C279.771 356.015 279.33 355.654 278.814 355.441C278.298 355.228 277.731 355.173 277.184 355.282C276.637 355.392 276.135 355.662 275.741 356.058C275.348 356.454 275.08 356.957 274.973 357.505C274.866 358.053 274.923 358.62 275.139 359.135C275.354 359.65 275.717 360.09 276.183 360.398C276.648 360.706 277.194 360.869 277.752 360.867C278.497 360.863 279.21 360.565 279.736 360.036C280.262 359.508 280.557 358.792 280.557 358.047Z" fill="#8E6CED"/>
<path d="M179.568 159.866H173.958V434.1H179.568V159.866Z" fill="#8E6CED"/>
<path d="M310.746 159.866H305.136V434.1H310.746V159.866Z" fill="#8E6CED"/>
<path d="M317.897 174.111H164.507V177.942H317.897V174.111Z" fill="#8E6CED"/>
<path d="M317.897 237.689H164.507V241.519H317.897V237.689Z" fill="#8E6CED"/>
<path d="M317.897 301.279H164.507V305.11H317.897V301.279Z" fill="#8E6CED"/>
<path d="M317.897 364.857H164.507V368.688H317.897V364.857Z" fill="#8E6CED"/>
<path d="M270.64 184.832H251.75V237.689H270.64V184.832Z" fill="#8E6CED"/>
<path d="M265.908 189.168H256.469V220.584H265.908V189.168Z" fill="#8E6CED"/>
<path d="M264.007 230.28C264.007 229.722 263.841 229.176 263.531 228.712C263.221 228.248 262.78 227.887 262.264 227.674C261.748 227.461 261.181 227.406 260.634 227.516C260.087 227.626 259.585 227.895 259.191 228.291C258.797 228.687 258.53 229.19 258.423 229.738C258.316 230.286 258.373 230.854 258.589 231.369C258.804 231.884 259.167 232.323 259.633 232.631C260.098 232.939 260.644 233.103 261.202 233.1C261.947 233.096 262.66 232.798 263.186 232.269C263.712 231.741 264.007 231.026 264.007 230.28Z" fill="#8E6CED"/>
<path d="M248.494 184.832H229.604V237.689H248.494V184.832Z" fill="#8E6CED"/>
<path d="M243.761 189.168H234.323V220.584H243.761V189.168Z" fill="#7055BC"/>
<path d="M239.042 233.087C240.591 233.087 241.847 231.83 241.847 230.28C241.847 228.73 240.591 227.474 239.042 227.474C237.493 227.474 236.237 228.73 236.237 230.28C236.237 231.83 237.493 233.087 239.042 233.087Z" fill="#7055BC"/>
<path d="M226.334 184.832H207.444V237.689H226.334V184.832Z" fill="#8E6CED"/>
<path d="M221.601 189.168H212.163V220.584H221.601V189.168Z" fill="#7055BC"/>
<path d="M216.882 233.087C218.431 233.087 219.687 231.83 219.687 230.28C219.687 228.73 218.431 227.474 216.882 227.474C215.333 227.474 214.077 228.73 214.077 230.28C214.077 231.83 215.333 233.087 216.882 233.087Z" fill="#7055BC"/>
<path d="M296.681 184.832H277.792V237.689H296.681V184.832Z" fill="#8E6CED"/>
<path d="M291.949 189.168H282.511V220.584H291.949V189.168Z" fill="#7055BC"/>
<path d="M287.23 233.087C288.779 233.087 290.035 231.83 290.035 230.28C290.035 228.73 288.779 227.474 287.23 227.474C285.681 227.474 284.425 228.73 284.425 230.28C284.425 231.83 285.681 233.087 287.23 233.087Z" fill="#8E6CED"/>
<path d="M202.738 184.832H183.849V237.689H202.738V184.832Z" fill="#8E6CED"/>
<path d="M198.006 189.168H188.568V220.584H198.006V189.168Z" fill="#7055BC"/>
<path d="M193.287 233.087C194.836 233.087 196.092 231.83 196.092 230.28C196.092 228.73 194.836 227.474 193.287 227.474C191.738 227.474 190.482 228.73 190.482 230.28C190.482 231.83 191.738 233.087 193.287 233.087Z" fill="#7055BC"/>
<path d="M202.738 120.988H183.849V173.845H202.738V120.988Z" fill="#8E6CED"/>
<path d="M198.006 125.324H188.568V156.74H198.006V125.324Z" fill="#7055BC"/>
<path d="M193.287 169.243C194.836 169.243 196.092 167.987 196.092 166.437C196.092 164.887 194.836 163.63 193.287 163.63C191.738 163.63 190.482 164.887 190.482 166.437C190.482 167.987 191.738 169.243 193.287 169.243Z" fill="#7055BC"/>
<path d="M223.489 120.988H204.599V173.845H223.489V120.988Z" fill="#8E6CED"/>
<path d="M218.77 125.324H209.332V156.74H218.77V125.324Z" fill="#7055BC"/>
<path d="M214.051 169.243C215.6 169.243 216.856 167.987 216.856 166.437C216.856 164.887 215.6 163.63 214.051 163.63C212.502 163.63 211.246 164.887 211.246 166.437C211.246 167.987 212.502 169.243 214.051 169.243Z" fill="#7055BC"/>
<path d="M277.087 174.896V155.996H224.26V174.896H277.087Z" fill="#8E6CED"/>
<path d="M272.754 170.161V160.717H241.368V170.161H272.754Z" fill="#7055BC"/>
<path d="M231.731 168.246C232.286 168.246 232.828 168.081 233.289 167.773C233.75 167.464 234.11 167.026 234.322 166.513C234.534 166 234.59 165.436 234.482 164.892C234.374 164.347 234.106 163.847 233.714 163.455C233.322 163.062 232.822 162.795 232.278 162.687C231.734 162.578 231.17 162.634 230.657 162.846C230.145 163.059 229.707 163.418 229.399 163.88C229.09 164.341 228.926 164.884 228.926 165.439C228.929 166.182 229.226 166.894 229.751 167.42C230.277 167.945 230.988 168.242 231.731 168.246Z" fill="#7055BC"/>
<path d="M296.681 247.904H277.792V300.761H296.681V247.904Z" fill="#8E6CED"/>
<path d="M291.949 252.253H282.511V283.669H291.949V252.253Z" fill="#8E6CED"/>
<path d="M290.035 293.366C290.035 292.81 289.87 292.268 289.562 291.806C289.254 291.345 288.816 290.985 288.303 290.773C287.791 290.56 287.227 290.505 286.683 290.613C286.139 290.721 285.639 290.989 285.247 291.381C284.854 291.774 284.587 292.274 284.479 292.818C284.371 293.362 284.426 293.927 284.639 294.44C284.851 294.952 285.21 295.391 285.672 295.699C286.133 296.007 286.675 296.172 287.23 296.172C287.598 296.172 287.963 296.099 288.303 295.958C288.644 295.817 288.953 295.611 289.213 295.35C289.474 295.089 289.68 294.78 289.821 294.44C289.962 294.099 290.035 293.734 290.035 293.366Z" fill="#8E6CED"/>
<path d="M274.774 247.904H255.885V300.761H274.774V247.904Z" fill="#8E6CED"/>
<path d="M270.042 252.253H260.604V283.669H270.042V252.253Z" fill="#8E6CED"/>
<path d="M268.128 293.366C268.128 292.81 267.963 292.268 267.655 291.806C267.347 291.345 266.909 290.985 266.396 290.773C265.884 290.56 265.32 290.505 264.776 290.613C264.232 290.721 263.732 290.989 263.34 291.381C262.947 291.774 262.68 292.274 262.572 292.818C262.464 293.362 262.519 293.927 262.732 294.44C262.944 294.952 263.303 295.391 263.765 295.699C264.226 296.007 264.768 296.172 265.323 296.172C265.691 296.172 266.056 296.099 266.396 295.958C266.737 295.817 267.046 295.611 267.306 295.35C267.567 295.089 267.773 294.78 267.914 294.44C268.055 294.099 268.128 293.734 268.128 293.366Z" fill="#8E6CED"/>
<path d="M229.577 247.904H210.688V300.761H229.577V247.904Z" fill="#8E6CED"/>
<path d="M224.845 252.253H215.407V283.669H224.845V252.253Z" fill="#8E6CED"/>
<path d="M222.931 293.366C222.931 292.81 222.766 292.268 222.458 291.806C222.15 291.345 221.712 290.985 221.199 290.773C220.687 290.56 220.123 290.505 219.579 290.613C219.034 290.721 218.535 290.989 218.142 291.381C217.75 291.774 217.483 292.274 217.375 292.818C217.267 293.362 217.322 293.927 217.534 294.44C217.747 294.952 218.106 295.391 218.567 295.699C219.029 296.007 219.571 296.172 220.126 296.172C220.494 296.172 220.859 296.099 221.199 295.958C221.54 295.817 221.849 295.611 222.109 295.35C222.37 295.089 222.576 294.78 222.717 294.44C222.858 294.099 222.931 293.734 222.931 293.366Z" fill="#8E6CED"/>
<path d="M252.867 247.904H233.977V300.761H252.867V247.904Z" fill="#8E6CED"/>
<path d="M248.135 252.253H238.697V283.669H248.135V252.253Z" fill="#8E6CED"/>
<path d="M246.22 293.366C246.22 292.81 246.056 292.268 245.748 291.806C245.439 291.345 245.001 290.985 244.489 290.773C243.976 290.56 243.412 290.505 242.868 290.613C242.324 290.721 241.824 290.989 241.432 291.381C241.04 291.774 240.773 292.274 240.664 292.818C240.556 293.362 240.612 293.927 240.824 294.44C241.036 294.952 241.396 295.391 241.857 295.699C242.318 296.007 242.861 296.172 243.415 296.172C243.784 296.172 244.149 296.099 244.489 295.958C244.829 295.817 245.138 295.611 245.399 295.35C245.659 295.089 245.866 294.78 246.007 294.44C246.148 294.099 246.22 293.734 246.22 293.366Z" fill="#8E6CED"/>
<path d="M53.2162 312.638H34.3265V365.495H53.2162V312.638Z" fill="#8E6CED"/>
<path d="M48.4837 316.974H39.0455V348.391H48.4837V316.974Z" fill="#7055BC"/>
<path d="M43.778 360.893C45.3271 360.893 46.5829 359.637 46.5829 358.087C46.5829 356.537 45.3271 355.28 43.778 355.28C42.2289 355.28 40.9731 356.537 40.9731 358.087C40.9731 359.637 42.2289 360.893 43.778 360.893Z" fill="#7055BC"/>
<path d="M80.1881 312.638H61.2985V365.495H80.1881V312.638Z" fill="#8E6CED"/>
<path d="M75.4558 316.974H66.0176V348.391H75.4558V316.974Z" fill="#7055BC"/>
<path d="M70.7499 360.893C72.299 360.893 73.5548 359.637 73.5548 358.087C73.5548 356.537 72.299 355.28 70.7499 355.28C69.2009 355.28 67.9451 356.537 67.9451 358.087C67.9451 359.637 69.2009 360.893 70.7499 360.893Z" fill="#7055BC"/>
<path d="M107.16 312.638H88.2704V365.495H107.16V312.638Z" fill="#7055BC"/>
<path d="M102.428 316.974H92.9895V348.391H102.428V316.974Z" fill="#8E6CED"/>
<path d="M97.7085 360.893C99.2576 360.893 100.513 359.637 100.513 358.087C100.513 356.537 99.2576 355.28 97.7085 355.28C96.1595 355.28 94.9037 356.537 94.9037 358.087C94.9037 359.637 96.1595 360.893 97.7085 360.893Z" fill="#8E6CED"/>
<path d="M134.132 312.638H115.242V365.495H134.132V312.638Z" fill="#8E6CED"/>
<path d="M129.4 316.974H119.961V348.391H129.4V316.974Z" fill="#7055BC"/>
<path d="M124.68 360.893C126.23 360.893 127.485 359.637 127.485 358.087C127.485 356.537 126.23 355.28 124.68 355.28C123.131 355.28 121.876 356.537 121.876 358.087C121.876 359.637 123.131 360.893 124.68 360.893Z" fill="#7055BC"/>
<path d="M26.4968 159.866H20.8871V434.1H26.4968V159.866Z" fill="#8E6CED"/>
<path d="M157.688 159.866H152.078V434.1H157.688V159.866Z" fill="#8E6CED"/>
<path d="M164.839 174.111H11.4489V177.942H164.839V174.111Z" fill="#8E6CED"/>
<path d="M164.839 237.689H11.4489V241.519H164.839V237.689Z" fill="#8E6CED"/>
<path d="M164.839 301.279H11.4489V305.11H164.839V301.279Z" fill="#8E6CED"/>
<path d="M164.839 364.857H11.4489V368.688H164.839V364.857Z" fill="#8E6CED"/>
<path d="M117.582 184.832H98.6923V237.689H117.582V184.832Z" fill="#7055BC"/>
<path d="M112.85 189.168H103.411V220.584H112.85V189.168Z" fill="#8E6CED"/>
<path d="M110.949 230.28C110.949 229.723 110.783 229.177 110.474 228.714C110.164 228.25 109.724 227.888 109.209 227.675C108.694 227.462 108.127 227.406 107.581 227.515C107.034 227.623 106.532 227.892 106.138 228.286C105.744 228.681 105.475 229.183 105.366 229.73C105.258 230.277 105.313 230.844 105.527 231.359C105.74 231.875 106.101 232.315 106.565 232.625C107.028 232.935 107.573 233.1 108.13 233.1C108.878 233.1 109.595 232.803 110.123 232.274C110.652 231.745 110.949 231.028 110.949 230.28Z" fill="#8E6CED"/>
<path d="M95.4221 184.832H76.5325V237.689H95.4221V184.832Z" fill="#8E6CED"/>
<path d="M90.6898 189.168H81.2516V220.584H90.6898V189.168Z" fill="#7055BC"/>
<path d="M85.9839 233.087C87.533 233.087 88.7888 231.83 88.7888 230.28C88.7888 228.73 87.533 227.474 85.9839 227.474C84.4349 227.474 83.1791 228.73 83.1791 230.28C83.1791 231.83 84.4349 233.087 85.9839 233.087Z" fill="#7055BC"/>
<path d="M73.2757 184.832H54.386V237.689H73.2757V184.832Z" fill="#8E6CED"/>
<path d="M68.5432 189.168H59.105V220.584H68.5432V189.168Z" fill="#7055BC"/>
<path d="M63.8242 233.087C65.3732 233.087 66.629 231.83 66.629 230.28C66.629 228.73 65.3732 227.474 63.8242 227.474C62.2751 227.474 61.0193 228.73 61.0193 230.28C61.0193 231.83 62.2751 233.087 63.8242 233.087Z" fill="#7055BC"/>
<path d="M143.61 184.832H124.72V237.689H143.61V184.832Z" fill="#8E6CED"/>
<path d="M138.878 189.168H129.439V220.584H138.878V189.168Z" fill="#7055BC"/>
<path d="M134.172 233.087C135.721 233.087 136.977 231.83 136.977 230.28C136.977 228.73 135.721 227.474 134.172 227.474C132.623 227.474 131.367 228.73 131.367 230.28C131.367 231.83 132.623 233.087 134.172 233.087Z" fill="#7055BC"/>
<path d="M90.0649 155.637V174.537H142.892V155.637H90.0649Z" fill="#8E6CED"/>
<path d="M94.4119 160.358V169.802H125.81V160.358H94.4119Z" fill="#7055BC"/>
<path d="M135.501 162.274C134.943 162.271 134.397 162.434 133.932 162.742C133.467 163.051 133.103 163.49 132.888 164.005C132.673 164.52 132.615 165.087 132.722 165.635C132.829 166.183 133.097 166.687 133.49 167.082C133.884 167.478 134.386 167.748 134.933 167.858C135.48 167.968 136.048 167.913 136.563 167.7C137.079 167.487 137.52 167.125 137.83 166.661C138.14 166.197 138.306 165.652 138.306 165.093C138.306 164.348 138.011 163.633 137.485 163.104C136.96 162.576 136.246 162.277 135.501 162.274Z" fill="#7055BC"/>
<path d="M88.0975 137.069V155.969H140.925V137.069H88.0975Z" fill="#8E6CED"/>
<path d="M92.4312 141.79V151.234H123.83V141.79H92.4312Z" fill="#7055BC"/>
<path d="M133.52 143.706C132.966 143.706 132.423 143.87 131.962 144.179C131.501 144.487 131.141 144.925 130.929 145.438C130.717 145.951 130.661 146.515 130.769 147.06C130.878 147.604 131.145 148.104 131.537 148.497C131.929 148.889 132.429 149.156 132.973 149.265C133.517 149.373 134.081 149.317 134.594 149.105C135.106 148.893 135.544 148.533 135.853 148.071C136.161 147.61 136.325 147.067 136.325 146.512C136.327 146.143 136.256 145.777 136.115 145.436C135.975 145.095 135.769 144.785 135.508 144.524C135.247 144.263 134.937 144.056 134.596 143.916C134.255 143.775 133.889 143.704 133.52 143.706Z" fill="#7055BC"/>
<path d="M49.6802 184.832H30.7905V237.689H49.6802V184.832Z" fill="#8E6CED"/>
<path d="M44.9477 189.168H35.5095V220.584H44.9477V189.168Z" fill="#7055BC"/>
<path d="M40.2287 233.087C41.7778 233.087 43.0336 231.83 43.0336 230.28C43.0336 228.73 41.7778 227.474 40.2287 227.474C38.6796 227.474 37.4238 228.73 37.4238 230.28C37.4238 231.83 38.6796 233.087 40.2287 233.087Z" fill="#7055BC"/>
<path d="M143.61 247.904H124.72V300.761H143.61V247.904Z" fill="#8E6CED"/>
<path d="M138.878 252.253H129.439V283.669H138.878V252.253Z" fill="#7055BC"/>
<path d="M136.977 293.366C136.979 292.807 136.816 292.26 136.507 291.794C136.199 291.328 135.759 290.965 135.243 290.75C134.728 290.535 134.16 290.478 133.612 290.586C133.064 290.694 132.561 290.963 132.166 291.358C131.771 291.754 131.502 292.257 131.394 292.805C131.286 293.354 131.343 293.922 131.558 294.437C131.772 294.953 132.136 295.394 132.601 295.702C133.067 296.011 133.613 296.175 134.172 296.172C134.915 296.168 135.626 295.872 136.151 295.346C136.677 294.821 136.973 294.109 136.977 293.366Z" fill="#7055BC"/>
<path d="M121.703 247.904H102.813V300.761H121.703V247.904Z" fill="#7055BC"/>
<path d="M116.984 252.253H107.546V283.669H116.984V252.253Z" fill="#8E6CED"/>
<path d="M115.069 293.366C115.069 292.81 114.905 292.268 114.597 291.806C114.289 291.345 113.851 290.985 113.338 290.773C112.825 290.56 112.261 290.505 111.717 290.613C111.173 290.721 110.674 290.989 110.281 291.381C109.889 291.774 109.622 292.274 109.514 292.818C109.405 293.362 109.461 293.927 109.673 294.44C109.886 294.952 110.245 295.391 110.706 295.699C111.168 296.007 111.71 296.172 112.265 296.172C113.007 296.168 113.719 295.872 114.244 295.346C114.769 294.821 115.066 294.109 115.069 293.366Z" fill="#8E6CED"/>
<path d="M54.1599 247.904H35.2703V300.761H54.1599V247.904Z" fill="#7055BC"/>
<path d="M49.4409 252.253H40.0027V283.669H49.4409V252.253Z" fill="#8E6CED"/>
<path d="M47.5266 293.366C47.5266 292.81 47.3621 292.268 47.0539 291.806C46.7457 291.345 46.3076 290.985 45.7951 290.773C45.2826 290.56 44.7186 290.505 44.1745 290.613C43.6304 290.721 43.1307 290.989 42.7384 291.381C42.3461 291.774 42.079 292.274 41.9708 292.818C41.8625 293.362 41.9181 293.927 42.1304 294.44C42.3427 294.952 42.7022 295.391 43.1634 295.699C43.6247 296.007 44.167 296.172 44.7217 296.172C45.4646 296.168 46.176 295.872 46.7012 295.346C47.2265 294.821 47.5231 294.109 47.5266 293.366Z" fill="#8E6CED"/>
<path d="M76.5059 247.904H57.6162V300.761H76.5059V247.904Z" fill="#7055BC"/>
<path d="M71.7868 252.253H62.3486V283.669H71.7868V252.253Z" fill="#8E6CED"/>
<path d="M69.8726 293.366C69.8726 292.81 69.7081 292.268 69.3999 291.806C69.0917 291.345 68.6536 290.985 68.1411 290.773C67.6285 290.56 67.0646 290.505 66.5205 290.613C65.9764 290.721 65.4766 290.989 65.0844 291.381C64.6921 291.774 64.4249 292.274 64.3167 292.818C64.2085 293.362 64.264 293.927 64.4763 294.44C64.6886 294.952 65.0481 295.391 65.5094 295.699C65.9707 296.007 66.5129 296.172 67.0677 296.172C67.8105 296.168 68.5219 295.872 69.0472 295.346C69.5724 294.821 69.8691 294.109 69.8726 293.366Z" fill="#8E6CED"/>
<path d="M99.7956 247.904H80.9059V300.761H99.7956V247.904Z" fill="#7055BC"/>
<path d="M95.0765 252.253H85.6383V283.669H95.0765V252.253Z" fill="#8E6CED"/>
<path d="M93.1622 293.366C93.1622 292.81 92.9977 292.268 92.6895 291.806C92.3813 291.345 91.9433 290.985 91.4307 290.773C90.9182 290.56 90.3542 290.505 89.8102 290.613C89.2661 290.721 88.7663 290.989 88.374 291.381C87.9817 291.774 87.7146 292.274 87.6064 292.818C87.4982 293.362 87.5537 293.927 87.766 294.44C87.9783 294.952 88.3378 295.391 88.7991 295.699C89.2603 296.007 89.8026 296.172 90.3574 296.172C91.1002 296.168 91.8116 295.872 92.3368 295.346C92.8621 294.821 93.1587 294.109 93.1622 293.366Z" fill="#8E6CED"/>
</g>
<path d="M85.4257 434.633H57.0978L52.844 387.641H89.6795L85.4257 434.633Z" fill="#8E6CED" stroke="#263238" stroke-linecap="round" stroke-linejoin="round"/>
<path d="M89.613 385.939H52.8971C51.8252 385.939 50.9563 386.808 50.9563 387.881V388.067C50.9563 389.139 51.8252 390.009 52.8971 390.009H89.613C90.6849 390.009 91.5538 389.139 91.5538 388.067V387.881C91.5538 386.808 90.6849 385.939 89.613 385.939Z" fill="white" stroke="#263238" stroke-linecap="round" stroke-linejoin="round"/>
<path d="M54.6385 320.339C55.2035 319.068 56.0542 317.943 57.1244 317.054" stroke="#263238" stroke-linecap="round" stroke-linejoin="round"/>
<path d="M64.4489 383.398C64.4489 383.398 72.8236 382.002 78.7524 372.226C84.6812 362.45 76.3197 357.595 62.7075 346.036C54.2397 338.867 52.3919 330.741 53.2959 324.755" stroke="#263238" stroke-linecap="round" stroke-linejoin="round"/>
<path d="M82.2751 381.802C85.3792 379.867 87.6173 376.808 88.5229 373.263C90.2776 366.613 87.8317 358.951 78.0612 352.673C68.2907 346.396 63.0531 344.693 58.5201 338.708" stroke="#263238" stroke-linecap="round" stroke-linejoin="round"/>
<path d="M75.2697 384.436C76.8117 384.196 78.3142 383.749 79.7362 383.106" stroke="#263238" stroke-linecap="round" stroke-linejoin="round"/>
<path d="M197.753 308.914C191.426 301.851 188.847 293.991 190.761 283.204C194.085 264.583 214.503 243.874 214.503 230.852C214.503 217.831 223.609 187.505 251.432 185.709C279.254 183.914 293.372 197.906 299.287 228.551C305.203 259.196 304.91 264.556 311.796 278.854C314.627 284.747 317.831 290.692 319.001 297.196C321.327 310.098 307.329 316.402 297.426 319.954C269.617 329.903 234.815 336.473 208.627 318.451C204.635 315.718 200.985 312.516 197.753 308.914Z" fill="#263238" stroke="#263238" stroke-linecap="round" stroke-linejoin="round"/>
<path d="M298.516 252.24C300.032 252.941 301.619 253.481 303.248 253.849" stroke="white" stroke-miterlimit="10" stroke-linecap="round"/>
<path d="M260.365 209.943C260.365 209.943 271.331 235.88 284.292 244.366C287.204 246.268 289.756 247.784 291.962 249.008" stroke="white" stroke-miterlimit="10" stroke-linecap="round"/>
<path d="M243.442 217.937C237.141 228.83 225.137 246.095 209 253.344" stroke="white" stroke-miterlimit="10" stroke-linecap="round"/>
<path d="M248.387 208.44C248.387 208.44 247.616 210.196 246.141 213.029" stroke="white" stroke-miterlimit="10" stroke-linecap="round"/>
<path d="M218.969 253.849C218.969 253.849 198.498 274.252 201.024 298.194" stroke="white" stroke-miterlimit="10" stroke-linecap="round"/>
<path d="M224.46 258.292C224.46 258.292 214.981 284.241 217.972 300.708" stroke="white" stroke-miterlimit="10" stroke-linecap="round"/>
<path d="M233.393 284.228C233.393 284.228 186.175 296.983 182.599 298.26C179.023 299.537 179.542 307.717 179.542 309.499C179.542 311.282 169.08 364.91 169.08 364.91C165.732 367.022 162.57 369.416 159.629 372.066C155.548 375.897 157.076 381.004 157.076 382.281C157.076 383.558 157.329 384.063 156.053 385.34C154.777 386.617 151.972 384.329 152.49 392.243C153.009 400.157 150.19 418.845 157.329 419.816C164.467 420.786 168.056 420.082 178.518 416.504C184.678 414.45 189.86 410.185 193.061 404.533V434.672H321.181C321.181 434.672 334.195 396.619 334.966 371.6C335.737 346.582 339.047 309.792 334.461 302.902C329.875 296.012 305.615 288.351 284.173 285.797C262.731 283.244 237.221 283.204 233.393 284.228Z" fill="#8E6CED"/>
<g style="mix-blend-mode:multiply" opacity="0.24">
<path d="M329.582 298.726C330.247 299.51 330.526 300.175 329.954 300.442C328.2 301.279 319.958 303.94 318.961 307.438C317.964 310.936 318.376 296.797 316.462 300.934C314.547 305.07 311.955 321.443 301.467 354.456C293.079 380.804 288.533 414.482 291.364 434.633H321.181C321.181 434.633 334.195 396.579 334.966 371.561C335.737 346.542 339.047 309.752 334.461 302.862C333.132 301.166 331.472 299.758 329.582 298.726Z" fill="black"/>
</g>
<path d="M235.174 277.072C233.387 278.277 231.973 279.959 231.093 281.927C229.312 285.491 214.25 313.33 212.974 314.607C211.698 315.884 219.86 315.631 223.183 314.101C226.507 312.572 232.622 312.572 232.622 312.572L238.497 317.161L256.616 324.316C256.616 324.316 264.778 318.437 268.859 315.126C272.94 311.814 274.734 310.523 274.734 310.523C278.278 311.723 281.697 313.265 284.944 315.126C289.025 317.679 287.496 318.956 289.025 317.679C290.553 316.402 289.796 313.849 287.695 310.271C285.595 306.693 279.281 287.034 271.358 279.679C263.435 272.324 244.612 269.916 235.174 277.072Z" fill="#8E6CED" stroke="#263238" stroke-linecap="round" stroke-linejoin="round"/>
<path d="M272.182 340.663L307.409 340.916L306.638 350.878L288.52 360.069L272.182 351.131V340.663Z" fill="#8E6CED" stroke="#263238" stroke-linecap="round" stroke-linejoin="round"/>
<path d="M193.061 337.59L228.288 337.843L227.517 347.805L209.398 356.996L193.061 348.058V337.59Z" fill="#8E6CED" stroke="#263238" stroke-linecap="round" stroke-linejoin="round"/>
<g style="mix-blend-mode:multiply" opacity="0.24">
<path d="M193.486 413.977C193.486 413.977 191.492 338.455 192.994 329.943C194.497 321.43 183.995 295.933 184.487 309.446C184.979 322.96 188.475 343.323 188.767 348.391C189.06 353.458 176.989 350.958 177.986 357.462C178.983 363.966 185.962 363.953 187.996 373.968C190.03 383.983 172.988 383.465 172.988 388.971C172.988 394.478 178.997 401.966 173.998 406.475C169 410.984 166.182 404.945 166.182 404.945C167.961 409.689 168.303 414.852 167.166 419.789C171.036 418.992 174.843 417.916 178.558 416.57C184.718 414.517 189.899 410.252 193.101 404.6V415.453L193.486 413.977Z" fill="black"/>
</g>
<path d="M233.393 284.228C233.393 284.228 186.175 296.983 182.599 298.26C179.023 299.537 179.542 307.717 179.542 309.499C179.542 311.282 169.08 364.91 169.08 364.91C165.732 367.022 162.57 369.416 159.629 372.066C155.548 375.897 157.076 381.004 157.076 382.281C157.076 383.558 157.329 384.063 156.053 385.34C154.777 386.617 151.972 384.329 152.49 392.243C153.009 400.157 150.19 418.845 157.329 419.816C164.467 420.786 168.056 420.082 178.518 416.504C184.678 414.45 189.86 410.185 193.061 404.533V434.672H321.181C321.181 434.672 334.195 396.619 334.966 371.6C335.737 346.582 339.047 309.792 334.461 302.902C329.875 296.012 305.615 288.351 284.173 285.797C262.731 283.244 237.221 283.204 233.393 284.228Z" stroke="#263238" stroke-linecap="round" stroke-linejoin="round"/>
<path d="M193.061 360.827V405.012C193.061 405.012 190.761 376.921 184.646 369.765" stroke="#263238" stroke-linecap="round" stroke-linejoin="round"/>
<path d="M158.618 384.648C158.618 384.648 172.151 389.503 174.956 399.452C177.761 409.401 174.451 415.799 174.451 415.799" stroke="#263238" stroke-linecap="round" stroke-linejoin="round"/>
<path d="M142.427 401.394C142.427 401.394 152.304 396.898 153.062 396.074C153.819 395.249 162.513 395.661 166.142 404.919C169.771 414.176 167.139 418.618 165.331 419.616C163.523 420.614 154.045 423.38 151.427 423.38C148.808 423.38 137.801 404.826 142.427 401.394Z" fill="#8E6CED" stroke="#263238" stroke-linecap="round" stroke-linejoin="round"/>
<path d="M236.703 281.674C236.703 281.674 232.369 434.273 234.15 434.273H265.296C265.296 434.273 265.549 323.039 267.583 312.572C269.617 302.104 274.482 283.456 273.711 278.349C272.94 273.242 238.245 276.048 238.245 276.048C237.463 277.839 236.944 279.734 236.703 281.674Z" fill="white"/>
<path d="M236.703 281.674C236.703 281.674 232.369 434.273 234.15 434.273H265.296C265.296 434.273 265.549 323.039 267.583 312.572C269.617 302.104 274.482 283.456 273.711 278.349C272.94 273.242 238.245 276.048 238.245 276.048C237.463 277.839 236.944 279.734 236.703 281.674Z" fill="#8E6CED"/>
<path opacity="0.7" d="M236.703 281.674C236.703 281.674 232.369 434.273 234.15 434.273H265.296C265.296 434.273 265.549 323.039 267.583 312.572C269.617 302.104 274.482 283.456 273.711 278.349C272.94 273.242 238.245 276.048 238.245 276.048C237.463 277.839 236.944 279.734 236.703 281.674Z" fill="white"/>
<path d="M236.703 281.674C236.703 281.674 232.369 434.273 234.15 434.273H265.296C265.296 434.273 265.549 323.039 267.583 312.572C269.617 302.104 274.482 283.456 273.711 278.349C272.94 273.242 238.245 276.048 238.245 276.048C237.463 277.839 236.944 279.734 236.703 281.674Z" stroke="#263238" stroke-linecap="round" stroke-linejoin="round"/>
<path d="M267.397 313.835C257.18 317.121 246.255 317.521 235.825 314.993C234.655 360.614 232.901 434.273 234.15 434.273H265.296C265.296 434.273 265.536 330.022 267.397 313.835Z" fill="white"/>
<path d="M265.363 418.765C265.363 414.588 265.363 409.867 265.442 404.799H233.898C233.898 409.907 233.778 414.615 233.751 418.765H265.363Z" fill="#263238"/>
<path d="M234.39 378.198C234.296 382.986 234.203 387.654 234.124 392.163H265.575C265.575 387.601 265.655 382.919 265.708 378.198H234.39Z" fill="#263238"/>
<path d="M234.935 351.596C234.828 356.238 234.722 360.907 234.629 365.562H265.828C265.894 360.8 265.961 356.105 266.041 351.596H234.935Z" fill="#263238"/>
<path d="M235.573 324.995C235.466 329.477 235.347 334.159 235.227 338.96H266.293C266.413 333.733 266.559 328.998 266.719 324.995H235.573Z" fill="#263238"/>
<path d="M267.397 313.835C257.18 317.121 246.255 317.521 235.825 314.993C234.655 360.614 232.901 434.273 234.15 434.273H265.296C265.296 434.273 265.536 330.022 267.397 313.835Z" stroke="#263238" stroke-linecap="round" stroke-linejoin="round"/>
<path d="M251.511 215.729C251.511 215.729 246.912 230.28 227.012 243.315C227.012 243.315 225.683 261.444 231.093 274.971C236.503 288.497 250.74 299.231 256.868 297.954C262.997 296.677 274.987 282.885 279.068 273.188C283.149 263.492 283.162 246.121 283.162 246.121C283.162 246.121 262.478 232.634 251.511 215.729Z" fill="white" stroke="#263238" stroke-linecap="round" stroke-linejoin="round"/>
<path d="M249.983 265.075C249.983 265.075 249.464 273.494 250.74 274.266C252.016 275.037 254.316 274.771 254.569 271.965" stroke="#263238" stroke-linecap="round" stroke-linejoin="round"/>
<path d="M247.43 279.573C247.43 279.573 255.34 281.102 259.673 278.549" stroke="#263238" stroke-linecap="round" stroke-linejoin="round"/>
<path d="M247.271 239.87C247.271 239.87 236.556 237.01 231.957 244.991" stroke="#263238" stroke-linecap="round" stroke-linejoin="round"/>
<path d="M257.573 245.988C257.573 245.988 265.004 238.5 275.479 245.257" stroke="#263238" stroke-linecap="round" stroke-linejoin="round"/>
<path d="M234.921 255.871C234.921 255.871 239.773 260.473 247.683 257.201" stroke="#263238" stroke-linecap="round" stroke-linejoin="round"/>
<path d="M259.128 256.961C259.128 256.961 265.775 260.034 271.371 256.456" stroke="#263238" stroke-linecap="round" stroke-linejoin="round"/>
<path d="M239.933 268.639C245.85 268.639 250.647 263.84 250.647 257.919C250.647 251.998 245.85 247.199 239.933 247.199C234.015 247.199 229.219 251.998 229.219 257.919C229.219 263.84 234.015 268.639 239.933 268.639Z" stroke="#263238" stroke-width="0.75" stroke-linecap="round" stroke-linejoin="round"/>
<path d="M265.509 268.639C271.426 268.639 276.223 263.84 276.223 257.919C276.223 251.998 271.426 247.199 265.509 247.199C259.592 247.199 254.795 251.998 254.795 257.919C254.795 263.84 259.592 268.639 265.509 268.639Z" stroke="#263238" stroke-width="0.75" stroke-linecap="round" stroke-linejoin="round"/>
<path d="M250.647 257.919H254.781" stroke="#263238" stroke-width="0.75" stroke-linecap="round" stroke-linejoin="round"/>
<path d="M276.223 257.919H282.498" stroke="#263238" stroke-width="0.75" stroke-linecap="round" stroke-linejoin="round"/>
<path d="M226.347 257.919H229.192" stroke="#263238" stroke-width="0.75" stroke-linecap="round" stroke-linejoin="round"/>
<path d="M243.961 258.584C243.961 258.584 246.686 258.704 244.133 259.648C241.581 260.593 239.002 260.127 236.357 257.879C236.357 257.879 241.422 258.544 243.961 258.584Z" fill="#263238" stroke="#263238" stroke-linecap="round" stroke-linejoin="round"/>
<path d="M262.438 257.946C262.438 257.946 259.78 257.706 262.133 258.97C264.485 260.233 267.157 260.127 270.108 258.225C270.069 258.292 264.964 258.292 262.438 257.946Z" fill="#263238" stroke="#263238" stroke-linecap="round" stroke-linejoin="round"/>
<path d="M302.81 346.781L298.729 304.645C298.729 304.645 290.048 302.862 286.991 300.814C283.933 298.766 280.344 296.225 280.344 296.225C280.344 296.225 278.31 298.007 276.782 296.225C275.253 294.443 270.401 290.905 269.63 288.045C268.859 285.186 274.229 281.395 277.539 276.819C280.849 272.244 284.439 267.881 286.991 268.134C289.543 268.387 300.51 279.573 306.173 288.311C311.836 297.05 314.082 299.284 314.335 302.357C314.588 305.429 319.652 320.978 319.652 320.978L320.982 347.287L302.81 346.781Z" fill="white" stroke="#263238" stroke-linecap="round" stroke-linejoin="round"/>
<path d="M280.344 296.225C280.344 296.225 275.319 291.264 275.319 289.774" stroke="#263238" stroke-linecap="round" stroke-linejoin="round"/>
<path d="M294.129 322.401L298.981 349.468L304.299 319.329L324.97 317.041C324.97 317.041 324.784 349.215 324.784 357.382C324.784 365.549 328.359 402.844 329.383 415.905C330.407 428.966 323.507 433.196 314.069 433.515C304.631 433.834 296.961 425.096 293.903 407.472C290.846 389.849 294.408 357.675 292.88 352.314C291.351 346.954 284.904 324.995 284.904 324.995L294.129 322.401Z" fill="#8E6CED"/>
<g style="mix-blend-mode:multiply" opacity="0.24">
<path d="M317.313 433.196C325.009 432.052 330.247 427.33 329.356 415.905C328.333 402.884 324.757 365.602 324.757 357.382C324.757 349.162 325.009 317.041 325.009 317.041L321.66 317.413C319.732 323.838 308.991 361.545 314.455 388.466C320.463 417.98 325.461 420.973 317.459 432.983L317.313 433.196Z" fill="black"/>
</g>
<path d="M294.129 322.401L298.981 349.468L304.299 319.329L324.97 317.041C324.97 317.041 324.784 349.215 324.784 357.382C324.784 365.549 328.359 402.844 329.383 415.905C330.407 428.966 323.507 433.196 314.069 433.515C304.631 433.834 296.961 425.096 293.903 407.472C290.846 389.849 294.408 357.675 292.88 352.314C291.351 346.954 284.904 324.995 284.904 324.995L294.129 322.401Z" stroke="#263238" stroke-linecap="round" stroke-linejoin="round"/>
<path d="M131.859 427.876C131.859 427.876 131.247 431.986 134.97 432.917C138.692 433.848 147.638 431.52 148.382 429.605C148.604 429.08 148.666 428.501 148.562 427.941C148.458 427.381 148.192 426.863 147.797 426.453H139.635C139.635 426.453 133.481 424.551 131.859 427.876Z" fill="white" stroke="#263238" stroke-linecap="round" stroke-linejoin="round"/>
<path d="M95.3159 383.558L129.147 407.073L131.673 403.708L97.6821 379.993L95.3159 383.558Z" fill="#263238" stroke="#263238" stroke-linecap="round" stroke-linejoin="round"/>
<path d="M103.172 389.011L105.804 385.659L97.6821 379.993L95.3159 383.558L103.172 389.011Z" fill="white" stroke="#263238" stroke-linecap="round" stroke-linejoin="round"/>
<path d="M137.163 427.517C142.459 427.267 147.498 425.163 151.4 421.571C157.462 415.666 157.874 411.715 149.685 403.23C141.496 394.744 123.591 404.679 123.019 408.43C122.447 412.181 137.163 427.517 137.163 427.517Z" fill="white" stroke="#263238" stroke-linecap="round" stroke-linejoin="round"/>
<path d="M155.282 412.181C155.282 412.181 152.969 417.009 150.775 418.831C148.582 420.653 145.099 421.146 143.039 418.206C140.978 415.267 138.864 406.142 137.07 405.956C135.275 405.77 126.329 402.83 123.777 399.306C121.224 395.781 121.357 393.054 126.98 394.73C132.603 396.406 147.651 398.361 147.651 398.361C147.651 398.361 151.214 400.503 153.686 408.018" fill="white"/>
<path d="M155.282 412.181C155.282 412.181 152.969 417.009 150.775 418.831C148.582 420.653 145.099 421.146 143.039 418.206C140.978 415.267 138.864 406.142 137.07 405.956C135.275 405.77 126.329 402.83 123.777 399.306C121.224 395.781 121.357 393.054 126.98 394.73C132.603 396.406 147.651 398.361 147.651 398.361C147.651 398.361 151.214 400.503 153.686 408.018" stroke="#263238" stroke-linecap="round" stroke-linejoin="round"/>
<path d="M126.342 423.487C127.14 424.471 129.759 428.927 130.995 429.232C132.231 429.538 139.822 424.71 142.746 421.026C145.671 417.342 140.22 412.234 138.665 411.516C137.11 410.798 126.342 423.487 126.342 423.487Z" fill="white" stroke="#263238" stroke-linecap="round" stroke-linejoin="round"/>
<path d="M122.474 410.186C122.474 410.186 115.827 414.176 117.409 416.916C118.991 419.656 124.308 423.819 126.01 423.088C127.712 422.356 139.17 417.022 139.117 414.11C139.064 411.197 138.878 407.725 133.016 408.204C129.443 408.503 125.911 409.167 122.474 410.186Z" fill="white" stroke="#263238" stroke-linecap="round" stroke-linejoin="round"/>
<path d="M115.827 399.133C115.827 399.133 112.597 405.704 115.562 408.55C118.526 411.396 136.831 411.33 137.761 407.978C138.692 404.626 131.832 403.908 126.794 401.74C121.756 399.572 116.532 397.577 115.827 399.133Z" fill="white" stroke="#263238" stroke-linecap="round" stroke-linejoin="round"/>
<path d="M186.813 433.356C186.813 433.356 186.308 424.67 178.651 421.611C170.994 418.552 166.9 419.816 149.805 424.418C139.031 427.237 127.998 428.948 116.878 429.525V433.356H186.813Z" fill="white" stroke="#263238" stroke-linecap="round" stroke-linejoin="round"/>
<path d="M186.534 433.356C186.534 433.356 187.039 424.67 194.696 421.611C202.353 418.552 206.434 419.816 223.542 424.418C234.311 427.237 245.34 428.948 256.456 429.525V433.356H186.534Z" fill="white" stroke="#263238" stroke-linecap="round" stroke-linejoin="round"/>
<path d="M259.301 431.826H115.096V434.633H259.301V431.826Z" fill="#263238" stroke="#263238" stroke-linecap="round" stroke-linejoin="round"/>
<path d="M31.0033 434.633H494.485" stroke="#263238" stroke-linecap="round" stroke-linejoin="round"/>
<path d="M489.167 357.515H390.904L357.471 434.885H455.735L489.167 357.515Z" fill="white" stroke="#263238" stroke-linecap="round" stroke-linejoin="round"/>
<path d="M492.996 357.515H394.732L361.3 434.885H459.564L492.996 357.515Z" fill="#263238" stroke="#263238" stroke-linecap="round" stroke-linejoin="round"/>
<path d="M435.011 404.6C432.485 408.59 427.753 410.159 424.443 408.058C421.133 405.956 420.455 401.022 423.007 397.018C425.559 393.015 430.265 391.472 433.641 393.56C437.018 395.648 437.536 400.609 435.011 404.6Z" fill="white" stroke="#8E6CED" stroke-linecap="round" stroke-linejoin="round"/>
<path d="M358.748 431.826H287.031V434.633H358.748V431.826Z" fill="white" stroke="#263238" stroke-linecap="round" stroke-linejoin="round"/>
</svg>
