<svg width="663" height="604" viewBox="0 0 663 604" fill="none" xmlns="http://www.w3.org/2000/svg">
<path d="M284.498 372.886C284.498 372.886 264.599 374.697 257.369 361.998C250.139 349.299 262.795 333.865 249.23 328.421C235.666 322.976 219.388 341.133 192.259 325.699C165.131 310.264 179.59 290.311 186.834 274.89C194.077 259.47 197.685 252.202 180.499 242.225C163.313 232.249 144.323 203.204 156.083 175.084C167.844 146.965 197.685 159.65 213.054 145.141C228.422 130.632 214.858 113.374 213.963 89.7869C213.067 66.1999 244.7 48.0434 275.45 52.5893C306.201 57.1352 312.522 89.7869 312.522 110.652C312.522 131.517 345.076 136.975 360.458 113.374C375.84 89.7733 388.483 84.3427 411.094 94.3192C433.706 104.296 414.716 137.873 425.568 143.317C436.419 148.761 445.453 122.452 478.008 137.873C510.562 153.294 492.481 194.125 476.204 204.116C452.52 218.665 480.449 246.88 484.939 264.152C491.518 289.399 471.266 309.597 446.362 308.468C406.577 306.644 396.621 300.301 388.482 312.088C380.344 323.875 405.669 326.611 402.047 345.665C398.425 364.72 391.195 371.974 374.918 371.974C358.641 371.974 348.698 357.466 331.512 364.72C314.326 371.974 292.636 377.419 284.498 372.886Z" fill="#263238" stroke="#263238" stroke-linecap="round" stroke-linejoin="round"/>
<path d="M253.069 502.867C250.152 513.724 249.12 525.004 250.017 536.213C251.712 553.566 260.529 562.754 298.849 568.538C337.168 574.323 363.619 569.559 384.983 559.351C406.347 549.143 401.504 512.517 395.957 504.119C390.409 495.722 369.045 494.02 334.455 497.083C299.866 500.145 278.502 494.701 265.955 496.742C253.408 498.784 253.069 502.867 253.069 502.867Z" fill="#1B2327"/>
<path d="M244.428 399.359L242.177 444.818C242.177 444.818 238.107 455.38 245.432 462.158C252.757 468.936 262.198 466.935 267.135 458.143C272.073 449.35 271.394 429.003 272.642 420.959C273.89 412.915 264.137 404.626 256.121 401.618C248.104 398.61 244.428 399.359 244.428 399.359Z" fill="white"/>
<path d="M403.051 399.359L405.303 444.818C405.303 444.818 409.304 455.38 402.047 462.158C394.79 468.936 385.268 466.935 380.263 458.143C375.257 449.35 376.003 429.003 374.755 420.959C373.508 412.915 383.274 404.626 391.277 401.618C399.28 398.61 403.051 399.359 403.051 399.359Z" fill="white"/>
<path d="M305.726 331.619C305.726 331.619 306.581 350.538 302.009 358.554C297.438 366.571 282.87 366.081 273.456 366.081C264.043 366.081 250.03 373.812 245.459 381.556C242.011 387.906 239.054 394.514 236.615 401.319L268.03 418.223C268.03 418.223 264.599 424.824 268.03 434.556C271.462 444.287 276.59 448.03 275.165 452.903C273.741 457.775 255.171 492.441 253.462 497.886C252.598 500.407 251.932 502.991 251.468 505.616C251.468 505.616 291.158 513.361 325.706 512.218C360.255 511.074 395.957 504.187 395.957 504.187C395.957 504.187 385.39 485.568 379.679 474.965C373.969 464.363 368.828 453.474 369.967 449.745C371.107 446.016 377.685 435.998 377.4 418.509C377.4 418.509 402.807 411.921 412.234 401.319C412.234 401.319 401.098 373.526 389.676 368.939C378.255 364.353 365.125 368.939 355.765 366.367C346.406 363.794 341.482 359.194 340.058 355.764C338.633 352.334 337.195 336.274 337.765 332.558L305.726 331.619Z" fill="#8E6CED"/>
<path opacity="0.1" d="M276.807 442.3C276.807 442.3 267.311 432.092 278.163 430.731C289.015 429.37 304.614 440.259 321.569 444.342C338.525 448.425 358.871 430.051 367.688 432.773C376.505 435.495 371.079 449.105 361.584 455.23C352.089 461.355 325.639 460.674 310.718 459.994C295.797 459.313 288.336 455.23 276.807 442.3Z" fill="black"/>
<path d="M323.997 401.251C346.338 400.366 353.35 378.793 355.548 366.258C346.229 363.672 341.414 359.112 339.989 355.696C338.565 352.28 337.127 336.206 337.697 332.49L305.726 331.619C305.726 331.619 306.58 350.538 302.009 358.554C299.676 362.638 294.711 364.516 289.164 365.36C291.28 374.356 299.866 402.217 323.997 401.251Z" fill="white"/>
<path opacity="0.3" d="M338.253 345.747C337.684 341.353 337.498 336.917 337.697 332.49L305.726 331.619C305.894 336.493 305.726 341.373 305.224 346.223C310.84 349.912 322.22 354.322 338.253 345.747Z" fill="black"/>
<path d="M292.161 292.584C292.161 292.584 288.092 285.929 284.091 289.985C280.089 294.041 284.091 302.125 286.681 305.882C289.272 309.638 294.169 312.524 295.322 311.081C296.475 309.638 292.161 292.584 292.161 292.584Z" fill="white" stroke="#263238" stroke-linecap="round" stroke-linejoin="round"/>
<path d="M354.667 291.985C354.667 291.985 360.431 284.472 363.606 291.699C366.78 298.927 358.18 309.91 354.11 311.938C350.041 313.966 352.089 307.311 352.374 304.997C352.659 302.683 354.667 291.985 354.667 291.985Z" fill="white" stroke="#263238" stroke-linecap="round" stroke-linejoin="round"/>
<path d="M289.015 267.132C289.015 267.132 291.036 294.599 292.474 308.468C293.911 322.337 299.066 334.777 314.909 338.86C330.752 342.943 343.394 337.417 348.047 328.162C352.7 318.907 355.25 301.281 355.25 286.827V263.689C355.25 263.689 314.339 252.106 289.015 267.132Z" fill="white"/>
<path d="M319.521 306.44C320.986 307.415 322.668 308.014 324.418 308.182C326.252 307.991 328.021 307.396 329.599 306.44" stroke="#263238" stroke-linecap="round" stroke-linejoin="round"/>
<path d="M315.777 315.409C315.777 315.409 322.98 320.037 333.411 314.824" stroke="#263238" stroke-linecap="round" stroke-linejoin="round"/>
<path d="M304.261 291.985C304.261 291.985 310.311 291.128 313.756 293.442" stroke="#263238" stroke-width="2" stroke-linecap="round" stroke-linejoin="round"/>
<path d="M332.489 293.142C332.489 293.142 338.254 290.257 343.72 292.856" stroke="#263238" stroke-width="2" stroke-linecap="round" stroke-linejoin="round"/>
<path d="M290.724 289.358C292.699 286.016 294.245 282.435 295.322 278.701C297.074 273.815 297.618 268.575 296.909 263.43C294.171 264.421 291.528 265.66 289.015 267.132C289.015 267.132 289.774 277.898 290.724 289.358Z" fill="#263238" stroke="#263238" stroke-linecap="round" stroke-linejoin="round"/>
<path d="M355.236 287.058C355.236 286.963 355.236 286.881 355.236 286.786V263.648C355.236 263.648 352.415 262.859 347.816 261.96C348.115 266.452 349.458 279.994 355.236 287.058Z" fill="#263238" stroke="#263238" stroke-linecap="round" stroke-linejoin="round"/>
<path d="M301.955 281.873C301.955 281.873 306.852 275.231 317.215 277.245" stroke="#263238" stroke-linecap="round" stroke-linejoin="round"/>
<path d="M331.905 278.116C334.27 277.248 336.823 277.031 339.299 277.489C341.775 277.946 344.084 279.06 345.985 280.716" stroke="#263238" stroke-linecap="round" stroke-linejoin="round"/>
<path d="M326.656 552.546C326.656 552.546 313.431 552.546 289.693 529.068C265.955 505.589 251.034 485.854 232.722 477.688C214.41 469.521 196.777 487.555 197.794 506.95C198.811 526.345 213.054 553.567 255.443 569.219C297.832 584.871 334.116 578.406 337.847 578.406C341.577 578.406 359.889 587.593 370.74 588.614C376.714 589.255 382.739 589.255 388.713 588.614C388.713 588.614 391.765 588.954 393.461 588.954C395.156 588.954 397.191 586.912 397.191 586.912C397.191 586.912 400.623 587.811 401.979 585.429C403.336 583.047 402.278 582.149 402.278 582.149C402.278 582.149 408.083 582.652 410.118 578.909C412.153 575.166 409.25 575.316 409.25 575.316C409.25 575.316 413.224 574.54 413.129 571.328C413.204 570.132 412.97 568.937 412.451 567.858C412.451 567.858 414.825 564.115 413.808 561.052C412.79 557.99 409.06 556.969 405.33 558.67C401.6 560.372 383.627 559.691 369.045 558.67C354.463 557.65 326.656 552.546 326.656 552.546Z" fill="white"/>
<path d="M320.756 551.185C314.706 548.993 304.153 543.413 289.693 529.108C265.955 505.589 251.034 485.854 232.722 477.688C214.41 469.521 196.777 487.555 197.794 506.95C198.811 526.345 213.054 553.567 255.443 569.219C271.252 575.013 287.824 578.448 304.627 579.413C320.037 572.962 321.474 559.351 320.756 551.185Z" fill="#263238"/>
<path opacity="0.3" d="M314.991 572.063C308.303 569.518 300.49 566.796 291.728 564.115C260.529 554.587 237.47 543.018 221.871 525.325C206.272 507.631 211.697 485.173 211.697 485.173L208.103 481.907C204.651 485.061 201.937 488.941 200.155 493.271C198.373 497.6 197.567 502.272 197.794 506.95C198.811 526.345 213.054 553.566 255.443 569.219C271.252 575.013 287.824 578.448 304.627 579.413C308.615 577.824 312.167 575.305 314.991 572.063Z" fill="black"/>
<path d="M412.451 567.858C411.41 567.388 410.277 567.159 409.136 567.187C407.995 567.215 406.875 567.5 405.858 568.021" fill="white"/>
<path d="M412.451 567.858C411.41 567.388 410.277 567.159 409.136 567.187C407.995 567.215 406.875 567.5 405.858 568.021" stroke="#263238" stroke-linecap="round" stroke-linejoin="round"/>
<path d="M409.25 575.316C407.497 574.679 405.577 574.679 403.824 575.316H409.25Z" fill="white"/>
<path d="M409.25 575.316C407.497 574.679 405.577 574.679 403.824 575.316" stroke="#263238" stroke-linecap="round" stroke-linejoin="round"/>
<path d="M402.277 582.149C401.025 581.203 399.473 580.744 397.91 580.856L402.277 582.149Z" fill="white"/>
<path d="M402.277 582.149C401.025 581.203 399.473 580.744 397.91 580.856" stroke="#263238" stroke-linecap="round" stroke-linejoin="round"/>
<path d="M396.838 586.572C396.838 586.572 395.387 583.945 393.257 583.945L396.838 586.572Z" fill="white"/>
<path d="M396.838 586.572C396.838 586.572 395.387 583.945 393.257 583.945" stroke="#263238" stroke-linecap="round" stroke-linejoin="round"/>
<path d="M311.613 552.546C311.613 552.546 324.838 552.546 348.576 529.068C372.314 505.589 387.235 485.854 405.547 477.688C423.859 469.521 441.492 487.555 440.475 506.95C439.458 526.345 425.215 553.567 382.826 569.219C340.437 584.871 304.152 578.406 300.422 578.406C296.692 578.406 278.38 587.593 267.529 588.614C261.555 589.255 255.53 589.255 249.556 588.614C249.556 588.614 246.504 588.954 244.808 588.954C243.113 588.954 241.078 586.912 241.078 586.912C241.078 586.912 237.646 587.811 236.29 585.429C234.933 583.047 235.991 582.149 235.991 582.149C235.991 582.149 230.172 582.652 228.137 578.909C226.103 575.166 229.006 575.316 229.006 575.316C229.006 575.316 225.031 574.54 225.126 571.328C225.048 570.13 225.286 568.933 225.818 567.858C225.818 567.858 223.444 564.115 224.461 561.052C225.479 557.99 229.209 556.969 232.939 558.67C236.669 560.372 254.642 559.691 269.224 558.67C283.806 557.65 311.613 552.546 311.613 552.546Z" fill="white"/>
<path d="M317.5 551.185C323.536 548.993 334.089 543.413 348.563 529.108C372.3 505.63 387.221 485.895 405.533 477.728C423.845 469.562 441.479 487.596 440.462 506.991C439.444 526.386 425.202 553.607 382.813 569.259C366.999 575.055 350.423 578.49 333.615 579.454C318.219 572.962 316.795 559.351 317.5 551.185Z" fill="#263238"/>
<path opacity="0.3" d="M440.475 506.95C441.18 493.435 432.825 480.6 421.485 476.803L416.52 480.41C416.52 480.41 433.476 490.618 429.407 510.353C425.337 530.088 392.104 550.504 365.654 561.393C352.484 566.572 338.968 570.816 325.205 574.091C327.677 576.351 330.529 578.153 333.628 579.413C350.436 578.449 367.013 575.014 382.826 569.219C425.215 553.567 439.458 526.345 440.475 506.95Z" fill="black"/>
<path d="M225.818 567.858C226.859 567.388 227.992 567.159 229.133 567.187C230.274 567.215 231.394 567.5 232.41 568.021" fill="white"/>
<path d="M225.818 567.858C226.859 567.388 227.992 567.159 229.133 567.187C230.274 567.215 231.394 567.5 232.41 568.021" stroke="#263238" stroke-linecap="round" stroke-linejoin="round"/>
<path d="M229.005 575.316C230.758 574.679 232.678 574.679 234.431 575.316H229.005Z" fill="white"/>
<path d="M229.005 575.316C230.758 574.679 232.678 574.679 234.431 575.316" stroke="#263238" stroke-linecap="round" stroke-linejoin="round"/>
<path d="M235.991 582.149C237.244 581.203 238.795 580.744 240.359 580.856L235.991 582.149Z" fill="white"/>
<path d="M235.991 582.149C237.244 581.203 238.795 580.744 240.359 580.856" stroke="#263238" stroke-linecap="round" stroke-linejoin="round"/>
<path d="M241.431 586.572C241.431 586.572 242.896 583.85 245.012 583.85L241.431 586.572Z" fill="white"/>
<path d="M241.431 586.572C241.431 586.572 242.896 583.85 245.012 583.85" stroke="#263238" stroke-linecap="round" stroke-linejoin="round"/>
<path d="M250.18 447.84C250.18 447.84 245.175 446.832 236.168 451.351C227.161 455.87 218.887 463.914 214.126 466.677C209.364 469.44 206.123 471.209 201.918 466.935C197.713 462.662 188.652 450.848 180.133 451.106C171.615 451.365 168.617 463.165 170.123 465.669C171.628 468.174 173.88 468.691 175.63 466.677C177.379 464.662 179.631 460.647 181.883 462.158C184.135 463.669 182.887 470.705 179.387 471.958C175.887 473.21 166.365 479.239 168.617 482.764C170.869 486.289 183.646 491.053 193.155 491.802C202.664 492.55 214.438 486.031 222.196 484.765C229.955 483.499 250.994 482.043 260.746 473.972C263.555 471.679 265.708 468.679 266.985 465.279C268.262 461.88 268.618 458.201 268.017 454.618" fill="white"/>
<path d="M169.81 477.483C169.81 477.483 168.82 466.432 165.565 465.669C162.309 464.907 161.807 472.475 162.309 479.743C162.811 487.011 166.813 489.039 169.309 487.024C171.804 485.01 169.81 477.483 169.81 477.483Z" fill="white" stroke="#263238" stroke-linecap="round" stroke-linejoin="round"/>
<path d="M177.637 480.6C177.637 480.6 178.586 469.535 175.521 468.215C172.455 466.894 170.638 474.231 169.837 481.485C169.037 488.739 172.645 491.434 175.467 489.91C178.288 488.386 177.637 480.6 177.637 480.6Z" fill="white" stroke="#263238" stroke-linecap="round" stroke-linejoin="round"/>
<path d="M184.392 483.132C184.392 483.132 185.355 472.08 182.276 470.76C179.197 469.44 177.393 476.776 176.606 484.03C175.819 491.285 179.4 493.979 182.222 492.441C185.043 490.903 184.392 483.132 184.392 483.132Z" fill="white" stroke="#263238" stroke-linecap="round" stroke-linejoin="round"/>
<path d="M202.107 491.298C197.562 493.402 192.597 494.435 187.593 494.32C187.303 492.235 187.136 490.136 187.091 488.032C187.091 485.309 192.843 473.972 201.361 474.72" fill="white"/>
<path d="M202.107 491.298C197.562 493.402 192.597 494.435 187.593 494.32C187.303 492.235 187.136 490.136 187.091 488.032C187.091 485.31 192.843 473.972 201.361 474.72" stroke="#263238" stroke-linecap="round" stroke-linejoin="round"/>
<path d="M191.568 487.446C191.568 487.446 194.755 478.79 192.124 476.776C189.492 474.761 186.251 480.124 183.985 485.759C181.72 491.394 184.582 494.687 187.566 494.32C190.55 493.952 191.568 487.446 191.568 487.446Z" fill="white" stroke="#263238" stroke-linecap="round" stroke-linejoin="round"/>
<path d="M397.286 447.84C397.286 447.84 402.291 446.832 411.311 451.351C420.332 455.87 428.579 463.914 433.34 466.677C438.101 469.44 441.357 471.209 445.616 466.935C449.875 462.662 458.882 450.848 467.387 451.106C475.892 451.365 478.903 463.165 477.411 465.669C475.919 468.174 473.653 468.691 471.904 466.677C470.154 464.662 467.834 460.647 465.637 462.158C463.439 463.669 464.633 470.705 468.146 471.958C471.66 473.21 481.168 479.239 478.903 482.764C476.638 486.289 463.887 491.053 454.378 491.802C444.87 492.55 433.096 486.031 425.323 484.765C417.551 483.499 396.54 482.043 386.773 473.972C383.965 471.679 381.813 468.679 380.538 465.279C379.263 461.879 378.911 458.2 379.516 454.618" fill="white"/>
<path d="M477.655 477.483C477.655 477.483 478.659 466.432 481.915 465.669C485.17 464.907 485.672 472.475 485.17 479.743C484.668 487.011 480.667 489.039 478.157 487.024C475.648 485.01 477.655 477.483 477.655 477.483Z" fill="white" stroke="#263238" stroke-linecap="round" stroke-linejoin="round"/>
<path d="M469.842 480.6C469.842 480.6 468.879 469.535 471.945 468.215C475.01 466.894 476.841 474.231 477.628 481.485C478.415 488.739 474.847 491.434 472.012 489.937C469.177 488.44 469.842 480.6 469.842 480.6Z" fill="white" stroke="#263238" stroke-linecap="round" stroke-linejoin="round"/>
<path d="M463.074 483.132C463.074 483.132 462.124 472.08 465.19 470.76C468.255 469.44 470.086 476.776 470.873 484.03C471.66 491.285 468.065 493.979 465.257 492.441C462.45 490.903 463.074 483.132 463.074 483.132Z" fill="white" stroke="#263238" stroke-linecap="round" stroke-linejoin="round"/>
<path d="M445.358 491.298C449.921 493.408 454.904 494.442 459.927 494.32C460.216 492.235 460.384 490.136 460.428 488.032C460.428 485.309 454.664 473.972 446.145 474.72" fill="white"/>
<path d="M445.358 491.298C449.921 493.408 454.904 494.442 459.927 494.32C460.216 492.235 460.384 490.136 460.428 488.032C460.428 485.309 454.664 473.972 446.145 474.72" stroke="#263238" stroke-linecap="round" stroke-linejoin="round"/>
<path d="M455.857 487.446C455.857 487.446 452.669 478.79 455.301 476.776C457.932 474.761 461.161 480.124 463.439 485.759C465.718 491.394 462.843 494.687 459.858 494.32C456.874 493.952 455.857 487.446 455.857 487.446Z" fill="white" stroke="#263238" stroke-linecap="round" stroke-linejoin="round"/>
<path d="M317.025 254.556C313.043 249.178 307.679 244.986 301.507 242.429C291.578 238.537 298.048 230.751 302.362 232.902C305.145 234.274 308.029 235.429 310.989 236.359C310.989 236.359 299.771 227.267 299.351 219.482C298.93 211.697 310.989 221.646 310.989 221.646C310.989 221.646 296.326 201.393 301.073 197.855C305.821 194.316 310.121 200.89 313.146 206.511C315.293 210.712 317.165 215.049 318.748 219.495C318.748 219.495 317.893 205.218 322.641 209.546C327.388 213.874 324.363 235.515 324.363 235.515C324.363 235.515 330.834 217.821 333.859 227.349C336.883 236.876 318.327 253.25 317.025 254.556Z" stroke="#8E6CED" stroke-linecap="round" stroke-linejoin="round"/>
<path d="M317.025 254.556C317.025 254.556 323.93 233.773 309.701 206.919" stroke="#8E6CED" stroke-linecap="round" stroke-linejoin="round"/>
<path d="M293.355 116.586C288.41 116.548 283.548 117.861 279.289 120.383C272.507 124.467 270.879 117.212 274.08 115.62C276.128 114.579 278.095 113.387 279.967 112.054C279.967 112.054 269.604 114.64 264.829 111.414C260.055 108.188 271.3 105.48 271.3 105.48C271.3 105.48 252.784 105.099 252.866 100.743C252.947 96.388 258.685 96.6602 263.351 97.4496C266.782 98.0524 270.171 98.8753 273.497 99.9132C273.497 99.9132 264.707 94.047 269.36 93.1079C274.012 92.1688 285.42 103.67 285.42 103.67C285.42 103.67 277.865 91.9238 284.81 94.3737C291.755 96.8236 293.165 115.239 293.355 116.586Z" stroke="#8E6CED" stroke-linecap="round" stroke-linejoin="round"/>
<path d="M293.356 116.586C293.356 116.586 284.213 103.221 262.062 99.6818" stroke="#8E6CED" stroke-linecap="round" stroke-linejoin="round"/>
<path d="M379.028 202.578C378.644 202.585 378.262 202.636 377.889 202.727C378.463 202.178 378.897 201.499 379.154 200.747C379.412 199.994 379.486 199.191 379.37 198.404C379.254 197.617 378.951 196.87 378.487 196.225C378.023 195.58 377.411 195.056 376.704 194.697C375.996 194.339 375.213 194.156 374.42 194.164C373.627 194.173 372.848 194.372 372.148 194.746C371.448 195.119 370.848 195.656 370.397 196.31C369.947 196.965 369.66 197.719 369.56 198.508C369.243 197.836 368.778 197.243 368.202 196.775C367.625 196.307 366.952 195.975 366.23 195.803C365.508 195.631 364.757 195.624 364.033 195.782C363.308 195.941 362.628 196.261 362.043 196.718C361.458 197.176 360.983 197.759 360.653 198.425C360.323 199.092 360.146 199.824 360.136 200.568C360.126 201.312 360.283 202.049 360.594 202.724C360.906 203.4 361.365 203.996 361.937 204.469C361.297 204.791 360.734 205.248 360.287 205.809C359.84 206.37 359.52 207.022 359.348 207.719C359.176 208.417 359.157 209.143 359.293 209.848C359.428 210.554 359.713 211.221 360.13 211.805C360.547 212.389 361.086 212.875 361.708 213.23C362.33 213.585 363.022 213.8 363.735 213.861C364.449 213.922 365.166 213.827 365.84 213.582C366.513 213.338 367.125 212.95 367.634 212.445C367.746 213.692 368.325 214.851 369.254 215.687C370.182 216.524 371.392 216.977 372.64 216.954C373.888 216.932 375.081 216.436 375.979 215.567C376.878 214.697 377.415 213.519 377.482 212.268C377.981 212.436 378.502 212.527 379.028 212.54C380.345 212.54 381.608 212.016 382.539 211.081C383.47 210.147 383.993 208.88 383.993 207.559C383.993 206.238 383.47 204.971 382.539 204.037C381.608 203.102 380.345 202.578 379.028 202.578V202.578Z" stroke="#8E6CED" stroke-linecap="round" stroke-linejoin="round"/>
<path d="M370.578 209.941C372.473 209.941 374.01 208.399 374.01 206.497C374.01 204.596 372.473 203.054 370.578 203.054C368.682 203.054 367.146 204.596 367.146 206.497C367.146 208.399 368.682 209.941 370.578 209.941Z" stroke="#8E6CED" stroke-linecap="round" stroke-linejoin="round"/>
<path d="M279.764 241.762C279.376 241.769 278.989 241.82 278.611 241.912C279.188 241.365 279.626 240.686 279.887 239.933C280.147 239.18 280.224 238.375 280.109 237.586C279.995 236.798 279.693 236.048 279.229 235.401C278.765 234.754 278.153 234.229 277.444 233.869C276.735 233.509 275.951 233.326 275.156 233.335C274.362 233.343 273.582 233.543 272.881 233.918C272.18 234.293 271.579 234.832 271.129 235.489C270.679 236.146 270.394 236.902 270.296 237.693C269.81 236.677 268.994 235.857 267.982 235.368C266.97 234.879 265.823 234.75 264.728 235.002C263.633 235.253 262.656 235.871 261.957 236.753C261.259 237.636 260.88 238.73 260.882 239.857C260.884 240.583 261.045 241.3 261.354 241.957C261.664 242.613 262.114 243.193 262.673 243.654C262.033 243.976 261.47 244.433 261.023 244.994C260.576 245.555 260.256 246.207 260.084 246.904C259.912 247.601 259.893 248.328 260.028 249.033C260.163 249.739 260.449 250.406 260.866 250.99C261.283 251.574 261.822 252.06 262.444 252.415C263.066 252.77 263.758 252.985 264.471 253.046C265.184 253.107 265.902 253.012 266.575 252.767C267.249 252.523 267.861 252.135 268.37 251.63C268.502 252.861 269.088 253.997 270.013 254.816C270.938 255.635 272.135 256.077 273.368 256.055C274.601 256.032 275.781 255.548 276.677 254.696C277.572 253.845 278.117 252.688 278.204 251.453C278.706 251.628 279.233 251.72 279.764 251.725C281.081 251.725 282.344 251.2 283.275 250.266C284.206 249.332 284.729 248.065 284.729 246.744C284.729 245.423 284.206 244.156 283.275 243.221C282.344 242.287 281.081 241.762 279.764 241.762V241.762Z" stroke="#8E6CED" stroke-linecap="round" stroke-linejoin="round"/>
<path d="M271.3 249.126C273.195 249.126 274.732 247.584 274.732 245.682C274.732 243.78 273.195 242.239 271.3 242.239C269.405 242.239 267.868 243.78 267.868 245.682C267.868 247.584 269.405 249.126 271.3 249.126Z" stroke="#8E6CED" stroke-linecap="round" stroke-linejoin="round"/>
<path d="M277.051 179.862C276.809 179.866 276.567 179.897 276.332 179.957C276.637 179.672 276.881 179.326 277.046 178.942C277.212 178.558 277.297 178.143 277.295 177.725C277.332 176.916 277.051 176.124 276.513 175.521C275.974 174.918 275.221 174.551 274.416 174.499C273.611 174.447 272.817 174.715 272.206 175.245C271.596 175.774 271.216 176.523 271.151 177.33C270.952 176.912 270.663 176.544 270.304 176.253C269.945 175.963 269.525 175.757 269.076 175.65C268.627 175.544 268.16 175.541 267.71 175.64C267.259 175.739 266.836 175.939 266.473 176.224C266.11 176.509 265.815 176.873 265.61 177.288C265.406 177.703 265.297 178.158 265.291 178.621C265.286 179.084 265.384 179.542 265.579 179.962C265.774 180.382 266.06 180.752 266.417 181.046C265.907 181.294 265.477 181.681 265.175 182.162C264.873 182.643 264.711 183.199 264.707 183.768C264.689 184.394 264.86 185.011 265.197 185.538C265.535 186.064 266.024 186.476 266.599 186.719C267.174 186.962 267.809 187.025 268.421 186.899C269.032 186.773 269.591 186.464 270.025 186.014C270.11 186.779 270.478 187.485 271.055 187.993C271.633 188.501 272.378 188.774 273.146 188.758C273.914 188.743 274.648 188.44 275.205 187.91C275.761 187.379 276.101 186.659 276.156 185.891C276.464 186.006 276.79 186.066 277.119 186.068C277.939 186.068 278.726 185.741 279.306 185.159C279.886 184.577 280.212 183.788 280.212 182.965C280.212 182.142 279.886 181.352 279.306 180.77C278.726 180.188 277.939 179.862 277.119 179.862H277.051Z" stroke="#8E6CED" stroke-linecap="round" stroke-linejoin="round"/>
<path d="M271.788 184.448C272.971 184.448 273.931 183.485 273.931 182.298C273.931 181.11 272.971 180.147 271.788 180.147C270.604 180.147 269.645 181.11 269.645 182.298C269.645 183.485 270.604 184.448 271.788 184.448Z" stroke="#8E6CED" stroke-linecap="round" stroke-linejoin="round"/>
<path d="M249.095 274.89C248.857 274.894 248.62 274.926 248.39 274.986C248.691 274.698 248.93 274.351 249.093 273.968C249.256 273.584 249.34 273.171 249.339 272.754C249.336 271.971 249.036 271.219 248.501 270.649C247.966 270.079 247.236 269.735 246.457 269.685C245.679 269.634 244.91 269.883 244.307 270.379C243.704 270.875 243.311 271.583 243.208 272.359C243.008 271.944 242.718 271.58 242.359 271.292C242 271.004 241.582 270.801 241.135 270.696C240.688 270.592 240.223 270.589 239.774 270.688C239.326 270.787 238.905 270.986 238.543 271.269C238.181 271.552 237.886 271.914 237.681 272.326C237.476 272.738 237.366 273.191 237.358 273.652C237.35 274.113 237.445 274.569 237.636 274.989C237.827 275.408 238.108 275.779 238.46 276.075C238.064 276.275 237.716 276.56 237.44 276.909C237.163 277.257 236.965 277.662 236.859 278.094C236.754 278.527 236.742 278.978 236.826 279.415C236.91 279.852 237.087 280.267 237.345 280.629C237.603 280.991 237.936 281.293 238.322 281.514C238.707 281.735 239.136 281.87 239.578 281.909C240.02 281.949 240.466 281.892 240.884 281.742C241.302 281.592 241.683 281.354 242.001 281.042C242.086 281.808 242.454 282.514 243.031 283.022C243.609 283.529 244.354 283.802 245.122 283.787C245.89 283.772 246.624 283.469 247.181 282.939C247.738 282.408 248.077 281.688 248.132 280.92C248.441 281.033 248.766 281.093 249.095 281.097C249.915 281.097 250.702 280.77 251.282 280.188C251.862 279.606 252.188 278.817 252.188 277.994C252.188 277.171 251.862 276.381 251.282 275.799C250.702 275.217 249.915 274.89 249.095 274.89V274.89Z" stroke="#8E6CED" stroke-linecap="round" stroke-linejoin="round"/>
<path d="M243.832 279.477C245.015 279.477 245.975 278.514 245.975 277.327C245.975 276.139 245.015 275.176 243.832 275.176C242.648 275.176 241.688 276.139 241.688 277.327C241.688 278.514 242.648 279.477 243.832 279.477Z" stroke="#8E6CED" stroke-linecap="round" stroke-linejoin="round"/>
<path d="M309.131 128.291C308.893 128.295 308.656 128.327 308.425 128.386C308.781 128.045 309.049 127.623 309.209 127.156C309.368 126.689 309.414 126.191 309.342 125.703C309.27 125.214 309.082 124.751 308.795 124.35C308.507 123.949 308.129 123.624 307.69 123.4C307.251 123.177 306.766 123.062 306.274 123.065C305.782 123.069 305.298 123.191 304.863 123.42C304.427 123.65 304.053 123.981 303.772 124.386C303.49 124.79 303.309 125.257 303.244 125.746C302.942 125.11 302.434 124.596 301.802 124.29C301.17 123.984 300.452 123.904 299.768 124.062C299.085 124.221 298.476 124.61 298.042 125.163C297.608 125.717 297.376 126.403 297.384 127.107C297.383 127.558 297.483 128.003 297.675 128.41C297.868 128.817 298.148 129.177 298.496 129.462C297.87 129.768 297.366 130.279 297.067 130.91C296.767 131.541 296.69 132.256 296.847 132.936C297.005 133.617 297.388 134.225 297.934 134.659C298.479 135.093 299.156 135.329 299.853 135.328C300.253 135.328 300.65 135.249 301.02 135.095C301.391 134.941 301.727 134.715 302.009 134.429C302.094 135.195 302.46 135.901 303.036 136.41C303.612 136.919 304.357 137.193 305.124 137.18C305.892 137.166 306.627 136.865 307.184 136.336C307.742 135.808 308.083 135.089 308.141 134.321C308.451 134.428 308.776 134.487 309.104 134.498C309.924 134.498 310.71 134.171 311.29 133.589C311.87 133.007 312.196 132.217 312.196 131.394C312.196 130.571 311.87 129.782 311.29 129.2C310.71 128.618 309.924 128.291 309.104 128.291H309.131Z" stroke="#8E6CED" stroke-linecap="round" stroke-linejoin="round"/>
<path d="M303.868 132.878C305.051 132.878 306.011 131.915 306.011 130.727C306.011 129.54 305.051 128.577 303.868 128.577C302.684 128.577 301.725 129.54 301.725 130.727C301.725 131.915 302.684 132.878 303.868 132.878Z" stroke="#8E6CED" stroke-linecap="round" stroke-linejoin="round"/>
<path d="M375.393 147.877C375.15 147.881 374.909 147.913 374.674 147.972C374.979 147.687 375.222 147.341 375.388 146.957C375.554 146.573 375.639 146.158 375.637 145.74C375.674 144.931 375.393 144.14 374.855 143.536C374.316 142.933 373.563 142.566 372.758 142.514C371.953 142.463 371.159 142.73 370.548 143.26C369.938 143.789 369.558 144.538 369.492 145.345C369.294 144.927 369.005 144.559 368.646 144.268C368.287 143.978 367.867 143.772 367.418 143.665C366.969 143.559 366.502 143.556 366.052 143.655C365.601 143.754 365.178 143.954 364.815 144.239C364.452 144.524 364.157 144.888 363.952 145.303C363.748 145.718 363.639 146.174 363.633 146.636C363.628 147.099 363.726 147.557 363.921 147.977C364.116 148.397 364.402 148.767 364.758 149.061C364.249 149.31 363.819 149.696 363.517 150.177C363.215 150.658 363.053 151.214 363.049 151.783C363.05 152.393 363.23 152.988 363.567 153.496C363.904 154.004 364.382 154.401 364.942 154.637C365.501 154.874 366.119 154.94 366.716 154.827C367.313 154.714 367.863 154.427 368.299 154.001C368.384 154.767 368.752 155.473 369.329 155.981C369.907 156.488 370.652 156.761 371.42 156.746C372.188 156.731 372.922 156.428 373.479 155.898C374.036 155.367 374.375 154.647 374.43 153.879C374.738 153.994 375.064 154.054 375.393 154.056C376.213 154.056 377 153.729 377.58 153.147C378.16 152.565 378.486 151.776 378.486 150.953C378.486 150.13 378.16 149.34 377.58 148.758C377 148.176 376.213 147.849 375.393 147.849V147.877Z" stroke="#8E6CED" stroke-linecap="round" stroke-linejoin="round"/>
<path d="M370.13 152.464C371.314 152.464 372.273 151.501 372.273 150.313C372.273 149.125 371.314 148.163 370.13 148.163C368.946 148.163 367.987 149.125 367.987 150.313C367.987 151.501 368.946 152.464 370.13 152.464Z" stroke="#8E6CED" stroke-linecap="round" stroke-linejoin="round"/>
<path d="M335.134 187.783C336.86 183.075 338.979 178.522 341.468 174.172C344.629 169.177 355.928 168.279 355.928 168.279C355.928 168.279 350.055 177.806 347.342 182.339C344.629 186.871 335.134 187.783 335.134 187.783Z" stroke="#8E6CED" stroke-linecap="round" stroke-linejoin="round"/>
<path d="M335.134 187.783C335.134 187.783 343.72 175.533 353.676 169.64" stroke="#8E6CED" stroke-linecap="round" stroke-linejoin="round"/>
<path d="M204.739 231.936C209.615 230.827 214.574 230.131 219.565 229.853C225.452 229.853 232.384 238.809 232.384 238.809C232.384 238.809 221.206 239.054 215.943 239.244C210.68 239.435 204.739 231.936 204.739 231.936Z" stroke="#8E6CED" stroke-linecap="round" stroke-linejoin="round"/>
<path d="M204.739 231.936C204.739 231.936 219.66 232.494 230.01 237.638" stroke="#8E6CED" stroke-linecap="round" stroke-linejoin="round"/>
<path d="M405.981 221.578C405.981 221.578 403.784 211.329 398.995 211.928C394.207 212.527 398.073 224.586 398.073 224.586C398.073 224.586 391.779 226.382 392.078 229.091C392.376 231.799 396.852 229.54 400.732 228.941C400.732 228.941 399.172 235.978 403.363 237.107C407.555 238.237 406.754 227.825 406.754 227.825C406.754 227.825 416.114 229.744 418.745 225.539C421.797 220.707 409.874 220.965 405.981 221.578Z" stroke="#8E6CED" stroke-linecap="round" stroke-linejoin="round"/>
<path d="M405.981 218.42C405.981 218.42 397.246 231.745 397.761 233.147C398.277 234.549 407.731 221.578 409.304 219.999C410.878 218.42 408.084 216.134 405.981 218.42Z" fill="#263238" stroke="#8E6CED" stroke-linecap="round" stroke-linejoin="round"/>
<path d="M409.305 219.999C409.305 219.999 415.07 214.732 417.864 216.841C420.658 218.951 417.348 219.291 416.996 218.597" stroke="#8E6CED" stroke-linecap="round" stroke-linejoin="round"/>
<path d="M406.51 217.359C406.51 217.359 408.084 209.641 406.334 208.063C404.584 206.484 403.879 208.593 405.113 209.818" stroke="#8E6CED" stroke-linecap="round" stroke-linejoin="round"/>
<path d="M322.926 157.241C318.26 150.436 311.043 157.064 309.104 159.092C307.15 157.064 299.934 150.408 295.268 157.241C290.181 164.659 308.927 180.12 309.104 180.052C309.28 179.984 327.985 164.645 322.926 157.241Z" stroke="#8E6CED" stroke-linecap="round" stroke-linejoin="round"/>
<path d="M258.183 130.7C253.354 127.815 250.79 133.98 250.153 135.777C248.376 135.083 242.014 133.055 241.078 138.581C240.047 144.61 255.999 148.829 256.094 148.734C256.189 148.639 263.419 133.831 258.183 130.7Z" stroke="#8E6CED" stroke-linecap="round" stroke-linejoin="round"/>
<path d="M213.163 186.83C207.56 186.408 207.994 193.077 208.239 194.997C206.34 195.173 199.747 196.167 201.361 201.557C203.111 207.423 219.28 204.048 219.307 203.925C219.334 203.803 219.239 187.293 213.163 186.83Z" stroke="#8E6CED" stroke-linecap="round" stroke-linejoin="round"/>
<path d="M390.979 274.999C395.428 271.556 390.667 266.833 389.229 265.635C390.586 264.274 394.777 259.075 389.989 256.108C384.78 252.909 374.987 266.248 375.068 266.357C375.149 266.465 386.15 278.729 390.979 274.999Z" stroke="#8E6CED" stroke-linecap="round" stroke-linejoin="round"/>
<path d="M365.043 183.4C368.083 180.57 371.481 178.154 375.149 176.214" stroke="#8E6CED" stroke-linecap="round" stroke-linejoin="round"/>
<path d="M339.881 238.142C339.881 238.142 343.055 211.043 357.922 191.308" stroke="#8E6CED" stroke-linecap="round" stroke-linejoin="round"/>
<path d="M299.785 249.643C301.067 251.634 302.227 253.702 303.258 255.836" stroke="#8E6CED" stroke-linecap="round" stroke-linejoin="round"/>
<path d="M249.285 217.481C251.237 219.046 253.432 220.278 255.782 221.129C266.511 225.212 281.487 229.295 293.138 241.3" stroke="#8E6CED" stroke-linecap="round" stroke-linejoin="round"/>
<path d="M244.252 204.796C243.725 207.651 244.204 210.601 245.609 213.139" stroke="#8E6CED" stroke-linecap="round" stroke-linejoin="round"/>
<path d="M369.602 134.103C373.011 130.994 375.813 127.273 377.862 123.133" stroke="#8E6CED" stroke-linecap="round" stroke-linejoin="round"/>
<path d="M329.41 173.873C331.62 168.303 334.696 163.121 338.525 158.52C346.244 149.306 354.559 144.91 361.951 139.942" stroke="#8E6CED" stroke-linecap="round" stroke-linejoin="round"/>
<path d="M324.96 195.949C324.96 192.753 325.255 189.563 325.842 186.422" stroke="#8E6CED" stroke-linecap="round" stroke-linejoin="round"/>
<path d="M367.255 251.181C372.898 248.323 380.819 246.172 391.427 246.989C417.877 249.03 430.085 257.197 441.615 241.545" stroke="#8E6CED" stroke-linecap="round" stroke-linejoin="round"/>
<path d="M355.48 261.28C356.698 259.391 358.178 257.686 359.875 256.217" stroke="#8E6CED" stroke-linecap="round" stroke-linejoin="round"/>
<path d="M411.719 189.62H408.097C405.913 189.62 401.925 187.075 403.743 184.884C405.561 182.692 411.719 187.796 411.719 187.796L406.293 170.688L417.904 165.244L422.625 181.263C422.625 181.263 415.368 178.351 414.635 181.617C413.903 184.884 419.356 184.53 422.625 183.074" stroke="#8E6CED" stroke-linecap="round" stroke-linejoin="round"/>
<path d="M407.365 174.322L418.61 168.864" stroke="#8E6CED" stroke-linecap="round" stroke-linejoin="round"/>
<path d="M436.664 184.176H434.276C432.825 184.176 430.207 182.488 431.387 181.046C432.567 179.603 436.664 182.965 436.664 182.965L433.069 171.654L440.746 168.048L443.866 178.637C443.866 178.637 439.065 176.718 438.59 178.882C438.115 181.046 441.71 180.801 443.866 179.834" stroke="#8E6CED" stroke-linecap="round" stroke-linejoin="round"/>
<path d="M433.788 174.063L441.221 170.457" stroke="#8E6CED" stroke-linecap="round" stroke-linejoin="round"/>
<path d="M225.737 171.927H223.35C221.898 171.927 219.28 170.239 220.46 168.796C221.64 167.353 225.737 170.715 225.737 170.715L222.142 159.405L229.82 155.798L232.94 166.387C232.94 166.387 228.138 164.468 227.663 166.632C227.188 168.796 230.783 168.551 232.94 167.585" stroke="#8E6CED" stroke-linecap="round" stroke-linejoin="round"/>
<path d="M222.861 161.814L230.295 158.207" stroke="#8E6CED" stroke-linecap="round" stroke-linejoin="round"/>
<path d="M453.145 210.186C453.145 210.186 462.965 207.219 461.405 201.393C460.049 196.466 455.464 201.393 455.464 201.393C455.464 201.393 458.313 196.766 454.108 194.588C449.903 192.41 448.682 198.372 448.682 198.372C448.682 198.372 447.841 192.846 444.016 195.391C440.191 197.936 448.261 211.574 448.261 211.574L453.145 210.186Z" stroke="#8E6CED" stroke-linecap="round" stroke-linejoin="round"/>
<path d="M440.557 231.214C444.397 225.267 446.995 218.599 448.193 211.615L452.371 198.658" stroke="#8E6CED" stroke-linecap="round" stroke-linejoin="round"/>
<path d="M445.644 220.993C446.051 218.311 445.446 215.574 443.948 213.316C442.451 210.792 440.595 208.5 438.441 206.511C438.441 206.511 437.166 211.193 438.007 214.174C438.848 217.154 445.644 220.993 445.644 220.993Z" stroke="#8E6CED" stroke-linecap="round" stroke-linejoin="round"/>
<path d="M444.382 224.395C446.032 222.973 448.149 222.217 450.323 222.272H458.38C458.38 222.272 448.193 230.357 444.382 224.395Z" stroke="#8E6CED" stroke-linecap="round" stroke-linejoin="round"/>
<path d="M446.892 200.849L448.167 210.921L455.288 205.613" stroke="#8E6CED" stroke-linecap="round" stroke-linejoin="round"/>
<path d="M224.543 254.107C224.543 254.107 218.113 246.104 213.325 249.738C209.256 252.828 215.563 255.264 215.563 255.264C215.563 255.264 210.205 254.366 209.839 259.116C209.473 263.866 215.36 262.641 215.36 262.641C215.36 262.641 210.572 265.513 214.37 268.085C218.168 270.658 227.717 258.041 227.717 258.041L224.543 254.107Z" stroke="#8E6CED" stroke-linecap="round" stroke-linejoin="round"/>
<path d="M248.674 257.85C241.742 256.514 234.612 256.607 227.717 258.122L214.153 259.129" stroke="#8E6CED" stroke-linecap="round" stroke-linejoin="round"/>
<path d="M237.321 256.965C234.694 257.597 232.397 259.189 230.878 261.43C229.112 263.775 227.695 266.365 226.673 269.12C226.673 269.12 231.475 268.548 233.903 266.629C236.331 264.71 237.321 256.965 237.321 256.965Z" stroke="#8E6CED" stroke-linecap="round" stroke-linejoin="round"/>
<path d="M240.943 256.87C239.006 255.873 237.507 254.19 236.738 252.147C235.314 248.595 233.713 244.648 233.713 244.648C233.713 244.648 245.012 251.072 240.943 256.87Z" stroke="#8E6CED" stroke-linecap="round" stroke-linejoin="round"/>
<path d="M218.263 263.389L227.08 258.408L219.497 253.794" stroke="#8E6CED" stroke-linecap="round" stroke-linejoin="round"/>
<path d="M290.154 219.89C289.749 218.96 289.296 218.052 288.798 217.168C286.37 212.69 282.803 208.757 277.2 209.56C267.705 210.921 285.339 225.892 288.513 226.342C292.42 226.9 291.416 222.912 290.154 219.89Z" fill="#8E6CED"/>
<path d="M282.925 163.638C282.436 162.481 281.921 161.474 281.568 160.916C279.126 156.424 275.573 152.504 269.97 153.307C260.475 154.668 278.109 169.64 281.283 170.089C285.19 170.647 284.186 166.646 282.925 163.638Z" fill="#8E6CED"/>
<path d="M378.364 225.416C377.156 225.77 376.098 226.178 375.515 226.41C370.795 228.315 366.495 231.418 366.644 237.094C366.902 246.717 383.749 230.86 384.563 227.743C385.553 223.973 381.483 224.531 378.364 225.416Z" fill="#8E6CED"/>
<path d="M390.572 174.608C389.605 174.889 388.655 175.221 387.723 175.601C383.003 177.507 378.703 180.597 378.852 186.272C379.11 195.895 395.957 180.038 396.771 176.935C397.761 173.152 393.691 173.696 390.572 174.608Z" fill="#8E6CED"/>
<path d="M460.089 171.45C459.126 171.727 458.18 172.059 457.254 172.444C452.534 174.349 448.234 177.439 448.383 183.114C448.641 192.737 465.488 176.881 466.302 173.778C467.292 169.953 463.223 170.497 460.089 171.45Z" fill="#8E6CED"/>
<path d="M269.468 217.726C269.28 217.261 269.067 216.807 268.831 216.365C267.651 214.187 265.914 212.282 263.174 212.649C258.535 213.316 267.149 220.625 268.695 220.816C270.581 221.142 270.092 219.196 269.468 217.726Z" fill="#8E6CED"/>
<path d="M236.358 182.42C235.897 182.026 235.436 181.699 235.191 181.522C233.143 180.093 230.742 179.167 228.477 180.746C224.625 183.468 235.585 186.082 237.063 185.592C238.827 184.979 237.565 183.468 236.358 182.42Z" fill="#8E6CED"/>
<path d="M285.298 199.12C285.111 198.655 284.898 198.201 284.661 197.759C283.467 195.568 281.731 193.676 279.005 194.044C274.365 194.711 282.979 202.006 284.525 202.21C286.397 202.55 285.909 200.59 285.298 199.12Z" fill="#8E6CED"/>
<path d="M205.444 168.469C205.259 168.004 205.046 167.549 204.807 167.108C203.627 164.917 201.891 163.025 199.151 163.393C194.511 164.06 203.125 171.369 204.671 171.559C206.557 171.886 206.068 169.939 205.444 168.469Z" fill="#8E6CED"/>
<path d="M227.025 216.147C226.587 215.881 226.135 215.64 225.669 215.426C223.444 214.337 220.921 213.793 218.887 215.698C215.496 218.951 226.741 219.876 228.124 219.155C229.915 218.284 228.382 216.977 227.025 216.147Z" fill="#8E6CED"/>
<path d="M281.229 145.59C281.041 145.126 280.828 144.671 280.592 144.229C279.398 142.051 277.662 140.146 274.935 140.513C270.296 141.18 278.91 148.489 280.456 148.68C282.328 149.006 281.839 147.06 281.229 145.59Z" fill="#8E6CED"/>
<path d="M332.244 200.903C331.878 201.38 331.566 201.843 331.404 202.101C330.047 204.197 329.22 206.661 330.888 208.907C333.709 212.663 335.934 201.57 335.378 200.1C334.7 198.277 333.235 199.651 332.244 200.903Z" fill="#8E6CED"/>
<path d="M353.948 229.486C353.581 229.962 353.269 230.425 353.107 230.683C351.75 232.779 350.923 235.243 352.591 237.489C355.413 241.245 357.637 230.153 357.081 228.683C356.403 226.859 354.938 228.233 353.948 229.486Z" fill="#8E6CED"/>
<path d="M384.17 155.118C383.71 155.243 383.257 155.393 382.813 155.567C380.494 156.451 378.364 157.921 378.378 160.684C378.378 165.38 386.787 157.826 387.221 156.315C387.696 154.41 385.716 154.628 384.17 155.118Z" fill="#8E6CED"/>
<path d="M331.783 138.009C331.349 138.431 330.969 138.839 330.766 139.071C329.125 140.935 327.917 143.236 329.233 145.672C331.444 149.755 335.324 139.193 335.012 137.669C334.618 135.791 332.95 136.92 331.783 138.009Z" fill="#8E6CED"/>
<path d="M238.257 234.059C238.609 234.397 238.981 234.715 239.369 235.011C241.336 236.549 243.696 237.597 246.043 236.141C250.017 233.678 239.26 230.438 237.714 230.86C235.883 231.337 237.104 232.929 238.257 234.059Z" fill="#8E6CED"/>
<path d="M407.731 155.621C407.134 155.621 406.578 155.621 406.266 155.621C403.784 155.771 401.315 156.533 400.501 159.173C399.145 163.665 409.386 158.969 410.24 157.663C411.285 156.07 409.331 155.689 407.731 155.621Z" fill="#8E6CED"/>
<path d="M23.1868 361H23.1127C23.0142 360.984 22.9208 360.945 22.8394 360.888C22.7581 360.83 22.6911 360.754 22.6434 360.667L0.045907 317.499C-0.0153023 317.344 -0.0153023 317.172 0.045907 317.018C0.0983965 316.863 0.20911 316.735 0.354617 316.66L2.91073 315.427C3.05465 315.367 3.21591 315.363 3.36213 315.417C3.50836 315.471 3.62873 315.579 3.69907 315.718C3.76941 315.857 3.78453 316.017 3.74137 316.167C3.69821 316.316 3.59998 316.444 3.46641 316.524L1.47831 317.523L23.372 359.372L60.6271 319.731C60.6973 319.655 60.7869 319.6 60.8864 319.571L106.291 305.572L83.8297 269.804L82.175 269.928C82.0936 269.936 82.0112 269.928 81.933 269.904C81.8548 269.879 81.7823 269.84 81.72 269.786C81.6576 269.733 81.6067 269.668 81.5703 269.595C81.5339 269.522 81.5128 269.442 81.5082 269.36C81.498 269.199 81.5518 269.039 81.6581 268.917C81.7644 268.795 81.9146 268.719 82.0762 268.706L84.1137 268.546C84.2256 268.535 84.3384 268.555 84.439 268.606C84.5396 268.656 84.6237 268.734 84.6817 268.83L107.761 305.621C107.802 305.706 107.824 305.799 107.824 305.893C107.824 305.987 107.802 306.08 107.761 306.164C107.727 306.253 107.675 306.333 107.606 306.4C107.538 306.466 107.456 306.516 107.366 306.546L61.3433 320.718L23.6437 360.827C23.5201 360.942 23.3559 361.005 23.1868 361Z" fill="white"/>
<path d="M23.6809 355.117H23.5821C23.4902 355.1 23.4033 355.063 23.3284 355.007C23.2534 354.951 23.1923 354.879 23.1499 354.796L1.54026 313.589C1.47207 313.463 1.45077 313.317 1.48016 313.177C1.50956 313.037 1.58774 312.912 1.70079 312.824C1.79957 312.738 11.9499 304.437 16.7411 292.942C21.1618 282.335 28.7685 277.069 37.0913 278.845C37.1776 278.863 37.2588 278.901 37.3292 278.954C37.3996 279.007 37.4575 279.075 37.4988 279.153L57.639 315.451C57.697 315.556 57.7235 315.675 57.7153 315.794C57.707 315.913 57.6644 316.027 57.5925 316.122C57.5206 316.217 57.4225 316.29 57.3102 316.331C57.1979 316.371 57.0762 316.379 56.9598 316.352C56.6264 316.278 48.6864 314.637 46.8959 322.272C44.9695 330.437 36.5356 340.945 32.4853 345.99L32.0408 346.557C29.6183 349.564 26.9635 352.376 24.1008 354.969C23.9835 355.067 23.8342 355.12 23.6809 355.117ZM2.84919 313.441L23.8414 353.501C26.4284 351.1 28.8385 348.515 31.0529 345.768L31.4975 345.2C35.4983 340.267 43.8458 329.869 45.6611 321.976C47.2787 315.118 53.2924 314.773 55.9349 314.97L36.5479 279.98C28.966 278.512 22.0015 283.507 17.8648 293.411C13.4935 303.895 4.78788 311.776 2.84919 313.441Z" fill="white"/>
<path d="M57.0828 316.315C56.9729 316.316 56.8647 316.288 56.7692 316.234C56.6737 316.18 56.5944 316.101 56.5394 316.006L36.3992 279.696C36.3565 279.559 36.3565 279.413 36.3992 279.277C37.8563 272.493 45.3148 269.41 60.5774 269.41C73.9013 269.41 79.2975 265.179 79.3469 265.142C79.4155 265.087 79.4948 265.046 79.5797 265.023C79.6647 265 79.7536 264.994 79.8408 265.006C79.9267 265.022 80.0083 265.055 80.0806 265.104C80.1529 265.153 80.2142 265.216 80.2607 265.29L102.858 302.082C102.94 302.219 102.966 302.382 102.931 302.537C102.897 302.693 102.805 302.83 102.673 302.92C102.611 302.92 101.018 303.981 91.7076 306.916C85.2494 308.964 78.1244 308.68 72.3824 308.458C70.1039 308.33 67.8199 308.33 65.5414 308.458C60.1328 308.902 57.7496 315.858 57.7249 315.858C57.6869 315.972 57.6164 316.073 57.5221 316.147C57.4277 316.222 57.3137 316.267 57.1939 316.278L57.0828 316.315ZM37.597 279.314L56.9963 314.292C58.0089 312.072 60.6268 307.644 65.3809 307.249C67.7088 307.121 70.0421 307.121 72.3701 307.249C78.0009 307.471 85.0148 307.743 91.2754 305.769C94.71 304.764 98.0863 303.57 101.389 302.193L79.4951 266.524C77.7663 267.646 72.0243 270.668 60.5156 270.668C46.1174 270.68 39.0294 273.393 37.597 279.314Z" fill="white"/>
<path d="M39.4 340.39C39.2622 340.393 39.1275 340.349 39.0172 340.267C38.8892 340.163 38.8071 340.013 38.7886 339.849C38.7702 339.685 38.8168 339.521 38.9184 339.391C41.3017 336.406 43.191 333.767 44.858 331.436C46.6968 328.596 48.8508 325.973 51.2792 323.616C53.4043 321.793 55.7732 320.273 58.3178 319.102C58.3914 319.07 58.4708 319.052 58.5513 319.051C58.6318 319.049 58.7118 319.064 58.7865 319.094C58.8613 319.124 58.9293 319.168 58.9867 319.225C59.044 319.281 59.0894 319.349 59.1204 319.423C59.1831 319.574 59.1847 319.743 59.1248 319.895C59.0648 320.047 58.9482 320.169 58.7993 320.237C56.3733 321.363 54.1131 322.815 52.0818 324.554C49.7425 326.849 47.6713 329.402 45.9076 332.164C44.2282 334.507 42.3266 337.097 39.9187 340.168C39.8561 340.244 39.7764 340.303 39.6862 340.342C39.596 340.38 39.4979 340.397 39.4 340.39Z" fill="white"/>
<path d="M62.4792 317.338C62.3433 317.34 62.2115 317.292 62.1088 317.203C61.9797 317.103 61.8955 316.956 61.8747 316.794C61.8538 316.632 61.8981 316.469 61.9976 316.339C64.3297 313.519 67.6417 311.682 71.2713 311.196L73.4816 311.023C82.955 310.504 92.2768 308.42 101.068 304.857C101.222 304.798 101.393 304.802 101.543 304.869C101.694 304.936 101.812 305.061 101.871 305.214C101.93 305.368 101.925 305.539 101.858 305.689C101.791 305.84 101.666 305.957 101.512 306.016C92.6069 309.61 83.1705 311.719 73.5804 312.257L71.3824 312.43C68.0949 312.889 65.0968 314.556 62.9732 317.104C62.9126 317.176 62.8371 317.235 62.7519 317.275C62.6666 317.316 62.5736 317.337 62.4792 317.338Z" fill="white"/>
<path d="M9.44292 319.3C9.32242 319.3 9.20432 319.266 9.10317 319.201C9.00203 319.135 8.92225 319.042 8.87368 318.931C8.8251 318.821 8.80986 318.699 8.82982 318.581C8.84978 318.462 8.90408 318.352 8.98602 318.263C13.1838 313.444 17.1006 308.387 20.717 303.118C27.6938 293.177 32.8184 289.119 38.4122 289.119C38.576 289.119 38.733 289.184 38.8488 289.3C38.9646 289.415 39.0296 289.572 39.0296 289.736C39.0296 289.899 38.9646 290.056 38.8488 290.172C38.733 290.287 38.576 290.352 38.4122 290.352C33.2753 290.352 28.4347 294.262 21.7296 303.833C18.0761 309.14 14.1266 314.238 9.8998 319.102C9.84153 319.165 9.77081 319.215 9.69215 319.249C9.61349 319.283 9.52861 319.3 9.44292 319.3Z" fill="white"/>
<path d="M13.3695 325.676C13.2144 325.677 13.0645 325.62 12.9497 325.516C12.8922 325.459 12.8465 325.392 12.8153 325.318C12.7841 325.244 12.7681 325.164 12.7681 325.084C12.7681 325.003 12.7841 324.924 12.8153 324.85C12.8465 324.776 12.8922 324.708 12.9497 324.652C17.1435 319.822 21.0641 314.761 24.693 309.494C31.6575 299.553 36.7821 295.495 42.3882 295.495C42.551 295.498 42.7062 295.564 42.8213 295.679C42.9364 295.794 43.0025 295.949 43.0057 296.112C43.0057 296.275 42.9406 296.432 42.8248 296.548C42.709 296.664 42.552 296.729 42.3882 296.729C37.239 296.729 32.4107 300.638 25.6932 310.209C22.0397 315.517 18.0902 320.614 13.8635 325.479C13.8011 325.546 13.7243 325.599 13.6389 325.633C13.5534 325.667 13.4614 325.682 13.3695 325.676Z" fill="white"/>
<path d="M17.2965 332.053C17.1784 332.051 17.0631 332.016 16.9644 331.951C16.8657 331.886 16.7876 331.795 16.7395 331.687C16.6914 331.579 16.6753 331.46 16.693 331.343C16.7108 331.227 16.7617 331.117 16.8396 331.029C21.0319 326.201 24.9524 321.145 28.583 315.883C35.5474 305.93 40.672 301.872 46.2782 301.872C46.441 301.875 46.5962 301.941 46.7113 302.056C46.8264 302.171 46.8925 302.326 46.8956 302.489C46.8956 302.652 46.8306 302.809 46.7148 302.925C46.599 303.04 46.4419 303.105 46.2782 303.105C41.1289 303.105 36.3007 307.015 29.5955 316.586C25.9359 321.892 21.9824 326.99 17.7534 331.855C17.6956 331.919 17.625 331.969 17.5462 332.003C17.4675 332.037 17.3823 332.054 17.2965 332.053Z" fill="white"/>
<path d="M21.2234 338.429C21.1482 338.43 21.0735 338.417 21.0035 338.39C20.9336 338.362 20.8698 338.321 20.8159 338.269C20.7584 338.212 20.7127 338.145 20.6815 338.071C20.6503 337.997 20.6343 337.917 20.6343 337.837C20.6343 337.756 20.6503 337.677 20.6815 337.603C20.7127 337.529 20.7584 337.461 20.8159 337.405C25.0128 332.582 28.9335 327.525 32.5592 322.259C39.5237 312.306 44.6483 308.261 50.2545 308.261C50.4182 308.261 50.5752 308.326 50.691 308.441C50.8068 308.557 50.8719 308.714 50.8719 308.877C50.8719 309.041 50.8068 309.198 50.691 309.313C50.5752 309.429 50.4182 309.494 50.2545 309.494C45.1052 309.494 40.2769 313.391 33.5718 322.962C29.921 328.275 25.9671 333.373 21.7297 338.232C21.6665 338.302 21.5879 338.356 21.5 338.39C21.412 338.424 21.3173 338.438 21.2234 338.429Z" fill="white"/>
<path d="M45.2906 287.417H45.0806C44.9288 287.358 44.8054 287.244 44.7363 287.097C44.6672 286.949 44.6579 286.781 44.7102 286.627C44.7102 286.566 46.9205 280.818 54.5889 280.818C68.9748 280.818 78.3101 278.598 79.545 274.861C79.5974 274.697 79.7127 274.561 79.8655 274.483C79.9412 274.444 80.0238 274.42 80.1086 274.413C80.1935 274.406 80.2789 274.416 80.36 274.442C80.441 274.468 80.5162 274.509 80.5812 274.564C80.6462 274.619 80.6997 274.686 80.7387 274.762C80.7777 274.837 80.8014 274.92 80.8084 275.005C80.8155 275.089 80.8058 275.175 80.7798 275.256C78.8164 281.176 63.5662 282.052 54.6506 282.052C47.8343 282.052 46.0068 286.837 45.8956 287.047C45.8451 287.163 45.7599 287.261 45.6516 287.327C45.5433 287.393 45.4173 287.425 45.2906 287.417Z" fill="white"/>
<path d="M49.711 294.768C49.5735 294.769 49.4393 294.725 49.3282 294.644C49.201 294.543 49.1192 294.395 49.1007 294.233C49.0822 294.071 49.1285 293.909 49.2294 293.781C49.3776 293.584 52.9339 289.119 62.4792 289.119C72.7407 289.119 80.3597 286.714 85.1385 281.941C85.2539 281.828 85.4091 281.764 85.5707 281.764C85.7323 281.764 85.8875 281.828 86.0029 281.941C86.0608 281.998 86.1067 282.066 86.138 282.141C86.1694 282.216 86.1855 282.297 86.1855 282.378C86.1855 282.46 86.1694 282.54 86.138 282.616C86.1067 282.691 86.0608 282.759 86.0029 282.816C81.0018 287.824 73.0865 290.414 62.4792 290.414C53.6131 290.414 50.2296 294.558 50.2049 294.595C50.1403 294.658 50.0625 294.706 49.9772 294.736C49.8918 294.766 49.801 294.777 49.711 294.768Z" fill="white"/>
<path d="M52.6623 302.131C52.5726 302.128 52.4844 302.107 52.403 302.069C52.3293 302.036 52.263 301.988 52.208 301.929C52.153 301.87 52.1104 301.801 52.0828 301.725C52.0552 301.649 52.0431 301.568 52.0472 301.488C52.0513 301.407 52.0715 301.328 52.1067 301.255C53.249 299.133 54.9671 297.376 57.0639 296.185C59.1607 294.993 61.5512 294.417 63.9611 294.521C74.2844 294.521 83.3234 292.363 88.1516 288.761C88.2158 288.711 88.2896 288.674 88.3684 288.653C88.4472 288.632 88.5294 288.627 88.6101 288.639C88.6909 288.65 88.7684 288.678 88.8382 288.72C88.9079 288.762 88.9684 288.818 89.016 288.884C89.1111 289.016 89.1514 289.18 89.1284 289.341C89.1054 289.502 89.0208 289.648 88.8925 289.748C81.644 295.162 69.0363 295.754 63.9611 295.754C61.7859 295.653 59.6257 296.163 57.7265 297.227C55.8272 298.291 54.2651 299.866 53.218 301.773C53.1701 301.88 53.0921 301.971 52.9934 302.035C52.8947 302.098 52.7797 302.132 52.6623 302.131Z" fill="white"/>
<path d="M56.0951 307.521C56.038 307.532 55.9793 307.532 55.9222 307.521C55.7668 307.472 55.6363 307.365 55.558 307.223C55.4798 307.08 55.4598 306.913 55.5024 306.756C55.5764 306.534 57.2064 301.428 65.8873 300.922C74.9215 300.445 83.8138 298.473 92.2018 295.088C92.2769 295.045 92.3603 295.018 92.4466 295.009C92.5329 295 92.6202 295.009 92.7026 295.036C92.7851 295.063 92.8609 295.107 92.9252 295.166C92.9894 295.224 93.0407 295.295 93.0756 295.374C93.1105 295.454 93.1283 295.539 93.1278 295.626C93.1273 295.713 93.1085 295.798 93.0726 295.877C93.0368 295.956 92.9847 296.027 92.9197 296.084C92.8548 296.142 92.7785 296.185 92.6957 296.211C84.1786 299.668 75.1425 301.677 65.9614 302.156C58.1943 302.612 56.7495 306.929 56.6878 307.089C56.6482 307.215 56.5692 307.325 56.4626 307.402C56.3559 307.48 56.2271 307.522 56.0951 307.521Z" fill="white"/>
<g opacity="0.2">
<path d="M91.4512 487.803C91.3971 487.816 91.3408 487.816 91.2868 487.803L63.1887 476.562C63.1213 476.537 63.0613 476.495 63.0136 476.441C62.9659 476.387 62.9319 476.322 62.9146 476.252C62.898 476.183 62.8976 476.111 62.9134 476.041C62.9293 475.971 62.9609 475.906 63.006 475.851L65.9565 472.201C66.0208 472.125 66.1079 472.072 66.2049 472.049C66.3019 472.026 66.4037 472.034 66.4954 472.074L91.7435 483.396L104.441 459.674C104.487 459.594 104.556 459.53 104.639 459.488C104.721 459.446 104.814 459.428 104.906 459.437L108.277 459.93C108.349 459.939 108.417 459.965 108.476 460.006C108.535 460.048 108.583 460.103 108.615 460.167C108.649 460.232 108.666 460.304 108.666 460.377C108.666 460.45 108.649 460.522 108.615 460.587L95.8267 485.896C95.7722 486.005 95.6766 486.088 95.5609 486.126C95.4453 486.165 95.3191 486.156 95.2101 486.101C95.1011 486.047 95.0182 485.951 94.9796 485.836C94.9411 485.72 94.9501 485.594 95.0046 485.486L107.501 460.742L105.08 460.386L92.3647 484.153C92.3084 484.255 92.2164 484.331 92.1066 484.368C91.9968 484.406 91.8771 484.4 91.7709 484.354L66.4589 473.004L64.1204 475.942L91.643 486.891C91.7542 486.937 91.843 487.025 91.8907 487.136C91.9384 487.246 91.9413 487.371 91.8988 487.484C91.8678 487.577 91.8077 487.659 91.7272 487.716C91.6467 487.774 91.5501 487.804 91.4512 487.803Z" fill="white"/>
<path d="M91.963 484.418C91.8626 484.42 91.7644 484.389 91.6835 484.33C91.6025 484.27 91.5435 484.186 91.5154 484.09L81.0197 445.596L60.7317 436.591L66.9798 470.304C67.0011 470.422 66.9747 470.544 66.9062 470.643C66.8378 470.742 66.7329 470.811 66.6144 470.833C66.4957 470.854 66.3734 470.828 66.2742 470.759C66.175 470.691 66.1068 470.586 66.0846 470.468L59.6903 435.907C59.6724 435.826 59.6783 435.741 59.7075 435.664C59.7367 435.586 59.7878 435.518 59.8548 435.469C59.9193 435.417 59.9968 435.384 60.0788 435.373C60.1609 435.361 60.2445 435.373 60.3206 435.405L81.5952 444.857C81.6567 444.884 81.7115 444.924 81.7557 444.975C81.7999 445.025 81.8324 445.085 81.8509 445.149L92.3649 483.843C92.3936 483.96 92.3766 484.084 92.3172 484.189C92.2578 484.294 92.1605 484.373 92.0452 484.409L91.963 484.418Z" fill="white"/>
<path d="M63.3806 476.544C63.2722 476.545 63.1671 476.507 63.0847 476.437C63.0024 476.366 62.9485 476.268 62.933 476.161L57.0138 442.403C56.9954 442.322 56.9954 442.238 57.0138 442.157L59.6811 435.67C59.7343 435.57 59.823 435.493 59.9298 435.454C60.0367 435.416 60.154 435.419 60.259 435.462C60.3639 435.505 60.449 435.586 60.4975 435.689C60.546 435.791 60.5546 435.908 60.5215 436.016L57.909 442.403L63.8008 476.052C63.8113 476.111 63.8099 476.172 63.7967 476.231C63.7835 476.289 63.7588 476.345 63.724 476.394C63.6892 476.443 63.6449 476.485 63.5939 476.517C63.5428 476.549 63.4858 476.571 63.4263 476.581L63.3806 476.544Z" fill="white"/>
<path d="M103.326 457.184C103.229 457.183 103.134 457.152 103.055 457.094C102.977 457.037 102.918 456.957 102.887 456.864L92.9855 426.555L81.823 445.505C81.7602 445.607 81.6598 445.68 81.5435 445.709C81.4272 445.737 81.3043 445.719 81.2013 445.658C81.0983 445.597 81.0234 445.498 80.9927 445.382C80.9621 445.267 80.9782 445.144 81.0375 445.04L92.7115 425.223C92.756 425.146 92.8223 425.085 92.902 425.046C92.9817 425.007 93.0712 424.992 93.1591 425.004C93.2461 425.014 93.3285 425.048 93.3965 425.103C93.4645 425.158 93.5153 425.231 93.5428 425.314L103.755 456.581C103.775 456.638 103.783 456.699 103.779 456.759C103.775 456.819 103.759 456.877 103.732 456.931C103.704 456.985 103.666 457.032 103.62 457.071C103.574 457.11 103.521 457.139 103.463 457.156L103.326 457.184Z" fill="white"/>
<path d="M108.232 460.824C108.135 460.825 108.041 460.796 107.962 460.74C107.883 460.684 107.824 460.605 107.793 460.514L96.4846 425.944H93.0773C92.9562 425.944 92.84 425.896 92.7544 425.81C92.6687 425.725 92.6206 425.609 92.6206 425.488C92.6253 425.367 92.6761 425.252 92.7627 425.167C92.8493 425.082 92.9652 425.034 93.0865 425.031H96.8225C96.9186 425.033 97.0119 425.064 97.089 425.122C97.166 425.179 97.2231 425.259 97.2519 425.351L108.661 460.231C108.681 460.288 108.689 460.348 108.685 460.408C108.681 460.468 108.665 460.527 108.637 460.581C108.61 460.634 108.572 460.682 108.526 460.721C108.48 460.759 108.426 460.788 108.369 460.806L108.232 460.824Z" fill="white"/>
<path d="M89.7707 470.979C89.6899 470.98 89.6105 470.958 89.5423 470.915C89.4388 470.854 89.363 470.755 89.3307 470.639C89.2983 470.524 89.312 470.4 89.3687 470.294L98.5034 454.456C98.5645 454.352 98.6633 454.276 98.7791 454.244C98.8948 454.212 99.0186 454.225 99.1245 454.282C99.2287 454.345 99.3047 454.445 99.337 454.562C99.3693 454.679 99.3554 454.805 99.2981 454.912L90.1178 470.751C90.0821 470.813 90.032 470.867 89.9717 470.906C89.9113 470.946 89.8425 470.971 89.7707 470.979Z" fill="white"/>
<path d="M88.245 464.081C88.1641 464.084 88.0844 464.062 88.0167 464.017C87.9114 463.958 87.8341 463.859 87.8015 463.743C87.769 463.627 87.7839 463.502 87.8431 463.397L97.0234 447.567C97.0498 447.509 97.088 447.457 97.1357 447.414C97.1834 447.372 97.2395 447.34 97.3004 447.321C97.3612 447.301 97.4255 447.295 97.489 447.302C97.5526 447.308 97.6139 447.329 97.6692 447.361C97.7244 447.393 97.7723 447.436 97.8098 447.488C97.8472 447.539 97.8734 447.598 97.8866 447.661C97.8997 447.723 97.8996 447.788 97.8863 447.85C97.8729 447.913 97.8466 447.972 97.809 448.023L88.6744 463.862C88.6304 463.935 88.5669 463.994 88.491 464.033C88.4151 464.072 88.3299 464.088 88.245 464.081Z" fill="white"/>
<path d="M86.7103 457.202C86.6297 457.202 86.5505 457.18 86.4819 457.138C86.4297 457.109 86.3839 457.069 86.3472 457.022C86.3105 456.975 86.2837 456.92 86.2683 456.863C86.253 456.805 86.2494 456.744 86.2579 456.685C86.2663 456.626 86.2866 456.569 86.3175 456.518L95.4978 440.679C95.5643 440.587 95.6624 440.524 95.773 440.501C95.8836 440.477 95.999 440.496 96.0968 440.553C96.1945 440.609 96.2677 440.7 96.3022 440.808C96.3366 440.915 96.33 441.032 96.2834 441.135L87.1488 456.974C87.1045 457.049 87.0399 457.11 86.9623 457.151C86.8848 457.191 86.7975 457.209 86.7103 457.202Z" fill="white"/>
<path d="M85.1849 450.313C85.1043 450.314 85.0252 450.292 84.9566 450.25C84.9043 450.22 84.8585 450.181 84.8218 450.134C84.7851 450.086 84.7583 450.032 84.7429 449.974C84.7276 449.916 84.7241 449.856 84.7325 449.797C84.741 449.737 84.7612 449.68 84.7921 449.629L93.9268 433.79C93.9895 433.686 94.0906 433.611 94.2084 433.58C94.3262 433.549 94.4514 433.566 94.5571 433.626C94.6093 433.655 94.6552 433.695 94.6919 433.742C94.7285 433.789 94.7554 433.844 94.7707 433.902C94.786 433.959 94.7896 434.02 94.7811 434.079C94.7727 434.138 94.7524 434.195 94.7215 434.247L85.5412 450.085C85.5046 450.149 85.4531 450.203 85.3911 450.243C85.3291 450.283 85.2583 450.307 85.1849 450.313Z" fill="white"/>
<path d="M85.2122 471.024C85.1486 471.023 85.0861 471.007 85.0295 470.979L69.8295 464.236C69.7741 464.213 69.7242 464.178 69.6825 464.135C69.6409 464.091 69.6084 464.04 69.5871 463.984C69.5658 463.927 69.5561 463.867 69.5585 463.807C69.5609 463.747 69.5753 463.688 69.6011 463.634C69.6249 463.579 69.6595 463.529 69.7027 463.487C69.746 463.445 69.7971 463.412 69.8531 463.39C69.9092 463.368 69.969 463.357 70.0292 463.358C70.0894 463.36 70.1488 463.373 70.204 463.397L85.3949 470.148C85.516 470.173 85.6225 470.244 85.6911 470.347C85.7596 470.449 85.7845 470.575 85.7602 470.696C85.736 470.817 85.6647 470.923 85.5619 470.992C85.4591 471.06 85.3333 471.085 85.2122 471.061V471.024Z" fill="white"/>
<path d="M84.5455 464.465C84.485 464.474 84.4234 464.474 84.3628 464.465L69.1628 457.695C69.1045 457.673 69.0513 457.639 69.0066 457.596C68.9618 457.552 68.9264 457.5 68.9025 457.443C68.8786 457.385 68.8668 457.323 68.8677 457.261C68.8687 457.199 68.8824 457.137 68.908 457.081C68.9336 457.024 68.9706 456.973 69.0167 456.931C69.0627 456.889 69.1169 456.857 69.1759 456.837C69.2348 456.816 69.2973 456.808 69.3595 456.813C69.4217 456.818 69.4822 456.835 69.5374 456.864L84.7282 463.607C84.8494 463.631 84.9559 463.702 85.0244 463.805C85.0929 463.908 85.1178 464.033 85.0936 464.154C85.0694 464.275 84.998 464.382 84.8952 464.45C84.7925 464.519 84.6667 464.543 84.5455 464.519V464.465Z" fill="white"/>
<path d="M81.7869 457.694C81.7233 457.693 81.6608 457.678 81.6042 457.649L66.4042 450.906C66.3488 450.883 66.2989 450.848 66.2572 450.805C66.2156 450.761 66.1831 450.71 66.1618 450.654C66.1405 450.598 66.1308 450.538 66.1332 450.478C66.1356 450.418 66.1501 450.359 66.1758 450.304C66.1996 450.249 66.2342 450.199 66.2774 450.157C66.3207 450.115 66.3718 450.082 66.4278 450.06C66.4839 450.038 66.5437 450.028 66.6039 450.029C66.6641 450.03 66.7235 450.043 66.7787 450.067L81.9695 456.819C82.0248 456.842 82.0749 456.877 82.1168 456.92C82.1587 456.963 82.1916 457.014 82.2137 457.07C82.2358 457.126 82.2466 457.186 82.2454 457.246C82.2443 457.306 82.2312 457.366 82.2071 457.421C82.1705 457.502 82.1114 457.57 82.037 457.619C81.9625 457.667 81.8758 457.694 81.7869 457.694Z" fill="white"/>
<path d="M80.6721 450.77C80.612 450.783 80.5495 450.783 80.4894 450.77L65.2894 444.009C65.2281 443.99 65.1717 443.958 65.1236 443.915C65.0756 443.873 65.0371 443.821 65.0105 443.762C64.984 443.704 64.9701 443.641 64.9697 443.576C64.9694 443.512 64.9825 443.449 65.0083 443.39C65.0342 443.331 65.0721 443.279 65.1196 443.236C65.1672 443.193 65.2233 443.16 65.2843 443.14C65.3453 443.12 65.4098 443.113 65.4736 443.12C65.5374 443.127 65.5992 443.147 65.6548 443.179L80.8548 449.93C80.9101 449.954 80.9601 449.989 81.002 450.032C81.0439 450.075 81.0769 450.126 81.0989 450.182C81.121 450.238 81.1318 450.298 81.1307 450.358C81.1295 450.418 81.1165 450.477 81.0923 450.532C81.0498 450.606 80.9885 450.667 80.9146 450.708C80.8407 450.75 80.757 450.771 80.6721 450.77Z" fill="white"/>
</g>
<path d="M42.6337 141.645C42.8031 141.938 60.0561 170.616 60.5064 171.396C60.9567 172.176 62.386 174.652 64.1834 175.14C65.9807 175.629 70.8015 176.09 71.0012 176.089C71.0603 176.093 71.1195 176.085 71.1755 176.066C71.2315 176.047 71.2831 176.016 71.3273 175.977L98.293 150.391C98.372 150.316 98.4181 150.212 98.4212 150.103C98.4243 149.994 98.3842 149.888 98.3096 149.809C98.273 149.769 98.2287 149.736 98.1793 149.714C98.1299 149.691 98.0765 149.678 98.0222 149.677C97.968 149.675 97.9139 149.684 97.8633 149.704C97.8128 149.724 97.7667 149.754 97.7279 149.792L70.8905 175.237C69.9603 175.144 65.8174 174.703 64.3934 174.332C62.9693 173.962 61.6424 171.713 61.2169 170.976C60.7914 170.239 45.5113 144.83 43.5332 141.535L78.2069 113.884C78.294 113.816 78.3505 113.716 78.364 113.606C78.3774 113.497 78.3468 113.386 78.2787 113.299C78.2107 113.212 78.1108 113.155 78.0011 113.141C77.8914 113.128 77.7808 113.158 77.6937 113.226L42.7262 141.095C42.645 141.158 42.5904 141.25 42.5733 141.352C42.5562 141.453 42.5777 141.558 42.6337 141.645Z" fill="white"/>
<path d="M99.9346 140.608L101.353 142.966C101.41 143.061 101.502 143.129 101.609 143.157C101.716 143.184 101.829 143.169 101.924 143.114C102.012 143.052 102.074 142.96 102.1 142.856C102.125 142.752 102.113 142.642 102.064 142.546L100.641 140.181C100.586 140.086 100.496 140.017 100.39 139.989C100.285 139.96 100.172 139.975 100.077 140.03C99.9824 140.085 99.9132 140.175 99.8849 140.281C99.8567 140.386 99.8716 140.499 99.9264 140.594L99.9346 140.608Z" fill="white"/>
<path d="M69.2665 174.619C69.3213 174.714 69.4115 174.783 69.5172 174.812C69.623 174.84 69.7356 174.825 69.8304 174.771C69.9252 174.716 69.9943 174.626 70.0226 174.52C70.0509 174.414 70.036 174.302 69.9812 174.207L52.0073 142.844L84.6435 115.196L98.1993 137.718C98.2552 137.81 98.3452 137.877 98.4498 137.904C98.5545 137.931 98.6655 137.916 98.759 137.862C98.8461 137.799 98.9084 137.707 98.9352 137.603C98.962 137.499 98.9515 137.388 98.9057 137.291L85.1031 114.358C85.0715 114.306 85.0289 114.262 84.9783 114.228C84.9277 114.195 84.8704 114.173 84.8104 114.164C84.7522 114.155 84.6927 114.158 84.6357 114.173C84.5787 114.188 84.5254 114.214 84.479 114.251L51.2026 142.44C51.1278 142.502 51.0776 142.588 51.061 142.683C51.0444 142.779 51.0624 142.877 51.112 142.96L69.2522 174.628L69.2665 174.619Z" fill="white"/>
<path d="M45.3498 142.156L63.6172 172.014C63.6813 172.107 63.7775 172.174 63.8874 172.201L68.2417 173.141C68.3478 173.168 68.4601 173.152 68.5548 173.098C68.6495 173.043 68.7192 172.953 68.7491 172.848C68.7635 172.796 68.7675 172.742 68.7607 172.689C68.7539 172.635 68.7366 172.584 68.7096 172.537C68.6827 172.49 68.6467 172.45 68.6039 172.417C68.561 172.384 68.512 172.361 68.4599 172.347L64.2921 171.433L46.3004 142.037L75.9172 117.725L80.3252 118.147C80.3794 118.154 80.4345 118.15 80.4871 118.135C80.5397 118.12 80.5888 118.095 80.6313 118.061C80.6738 118.026 80.7089 117.984 80.7345 117.935C80.76 117.887 80.7756 117.834 80.7801 117.78C80.7853 117.725 80.7797 117.67 80.7637 117.618C80.7476 117.566 80.7214 117.518 80.6865 117.476C80.6516 117.434 80.6088 117.399 80.5606 117.374C80.5123 117.348 80.4594 117.333 80.4051 117.328L75.7531 116.847C75.6424 116.838 75.5329 116.874 75.4485 116.946L45.4228 141.59C45.3399 141.656 45.286 141.753 45.2724 141.858C45.2588 141.964 45.2866 142.071 45.3498 142.156Z" fill="white"/>
<path d="M63.6165 168.398L61.0841 164.012C61.0841 164.012 58.0238 166.733 54.9623 169.006C51.9009 171.279 47.7905 173.881 47.7905 173.881L54.018 173.692L51.7914 179.127L63.6165 168.398Z" fill="white"/>
<path d="M573.237 72.0355L573.286 72.0073C573.344 71.9593 573.391 71.8985 573.423 71.8295C573.455 71.7606 573.47 71.6854 573.468 71.6096L571.937 34.59C571.918 34.4649 571.853 34.3517 571.754 34.2732C571.66 34.1912 571.539 34.1488 571.414 34.155L569.262 34.3146C569.145 34.3299 569.037 34.3891 568.961 34.4802C568.886 34.5714 568.847 34.6878 568.854 34.806C568.86 34.9243 568.911 35.0357 568.997 35.1178C569.082 35.1999 569.195 35.2467 569.314 35.2488L571.003 35.1508L572.496 71.0338L532.89 59.0936C532.815 59.0702 532.735 59.0677 532.659 59.0866L497.435 67.1312L498.628 35.0365L499.764 34.4886C499.821 34.4632 499.872 34.4266 499.915 34.3808C499.957 34.3351 499.989 34.2813 500.01 34.2227C500.031 34.1641 500.04 34.1018 500.036 34.0397C500.032 33.9776 500.016 33.917 499.988 33.8614C499.933 33.7511 499.837 33.6668 499.721 33.6266C499.604 33.5865 499.476 33.5938 499.365 33.6469L497.962 34.316C497.884 34.351 497.818 34.4075 497.771 34.4788C497.724 34.5501 497.698 34.6334 497.696 34.7188L496.486 67.7224C496.491 67.7937 496.512 67.8631 496.548 67.925C496.584 67.987 496.633 68.0399 496.692 68.0798C496.748 68.1257 496.814 68.1586 496.884 68.1761C496.954 68.1937 497.027 68.1955 497.098 68.1813L532.794 60.0157L572.87 72.0955C572.996 72.1245 573.127 72.103 573.237 72.0355Z" fill="white"/>
<path d="M570.675 68.349L570.74 68.3114C570.794 68.2656 570.837 68.2079 570.865 68.1427C570.894 68.0776 570.906 68.0068 570.903 67.9359L569.466 32.5833C569.463 32.4745 569.422 32.3703 569.349 32.2893C569.277 32.2083 569.178 32.1556 569.07 32.1408C568.972 32.1215 559.132 30.5145 551.606 24.7662C544.662 19.4618 537.65 18.8857 532.845 23.2197C532.795 23.2648 532.755 23.3202 532.729 23.382C532.703 23.4439 532.691 23.5107 532.693 23.5777L533.231 55.139C533.233 55.2298 533.26 55.3181 533.311 55.3934C533.362 55.4686 533.433 55.5276 533.517 55.563C533.6 55.5984 533.692 55.6089 533.782 55.593C533.871 55.5771 533.954 55.5357 534.021 55.4737C534.212 55.2982 538.817 51.1991 542.899 55.546C547.272 60.1905 556.822 63.904 561.407 65.686L561.915 65.8906C564.654 66.9498 567.471 67.7925 570.342 68.4112C570.457 68.4316 570.575 68.4095 570.675 68.349ZM568.548 32.9835L569.955 67.346C567.338 66.7484 564.769 65.9627 562.266 64.9952L561.757 64.7906C557.247 63.0629 547.796 59.3896 543.6 54.8815C539.927 50.9806 535.836 53.0396 534.17 54.1743L533.634 23.7604C538.069 19.9111 544.554 20.5527 551.044 25.502C557.909 30.7439 566.638 32.6241 568.548 32.9835Z" fill="white"/>
<path d="M533.925 55.4963C533.998 55.4556 534.059 55.3961 534.101 55.3241C534.144 55.2521 534.166 55.1701 534.166 55.0867L533.624 23.5173C533.6 23.4111 533.544 23.3148 533.464 23.2411C529.925 19.3279 523.841 20.1331 513.79 25.9361C505.016 31.0019 499.854 30.2677 499.807 30.2621C499.741 30.2518 499.673 30.2552 499.609 30.2722C499.544 30.2891 499.483 30.3192 499.43 30.3606C499.38 30.4035 499.339 30.4565 499.31 30.5161C499.281 30.5758 499.264 30.6408 499.262 30.707L498.369 63.5275C498.367 63.6487 498.412 63.766 498.494 63.8554C498.576 63.9449 498.689 63.9999 498.81 64.0094C498.85 63.9859 500.303 64.0787 507.55 62.4718C512.582 61.3647 517.166 58.4689 520.863 56.1395C522.315 55.1887 523.819 54.3203 525.368 53.5385C529.098 51.7745 533.313 55.4493 533.329 55.4399C533.397 55.5005 533.482 55.5398 533.572 55.553C533.663 55.5662 533.755 55.5527 533.838 55.5142L533.925 55.4963ZM532.689 23.7209L533.213 54.1314C531.702 53.0544 528.295 51.1338 525.014 52.6815C523.432 53.4821 521.896 54.3692 520.411 55.3388C516.788 57.6259 512.272 60.4714 507.399 61.5521C504.755 62.1961 502.077 62.6934 499.379 63.0419L500.235 31.2282C501.8 31.31 506.73 31.1168 514.309 26.7411C523.796 21.2749 529.495 20.3669 532.689 23.7209Z" fill="white"/>
<path d="M554.724 64.6277C554.816 64.5771 554.888 64.4973 554.929 64.401C554.974 64.2838 554.971 64.1539 554.921 64.039C554.871 63.9241 554.777 63.8335 554.661 63.7867C551.957 62.7273 549.709 61.7074 547.725 60.8062C545.434 59.6352 543.019 58.7267 540.523 58.098C538.43 57.7051 536.293 57.6052 534.172 57.8014C534.111 57.808 534.052 57.8268 533.999 57.8565C533.945 57.8861 533.898 57.9262 533.86 57.9743C533.822 58.0224 533.794 58.0775 533.778 58.1365C533.762 58.1955 533.757 58.2571 533.765 58.3178C533.781 58.4409 533.845 58.5529 533.942 58.6302C534.039 58.7074 534.162 58.7439 534.286 58.7317C536.312 58.5507 538.352 58.6479 540.351 59.0205C542.764 59.6428 545.099 60.5365 547.31 61.6844C549.307 62.5892 551.544 63.5718 554.298 64.6787C554.368 64.7047 554.443 64.7136 554.517 64.7047C554.591 64.6958 554.662 64.6694 554.724 64.6277Z" fill="white"/>
<path d="M530.761 58.2221C530.851 58.1714 530.919 58.0895 530.953 57.9919C531 57.877 531 57.7482 530.952 57.6337C530.904 57.5192 530.813 57.4284 530.698 57.3811C528.09 56.4106 525.211 56.4602 522.635 57.52L521.114 58.2467C514.678 61.5067 507.747 63.6786 500.603 64.6741C500.479 64.6938 500.368 64.7619 500.295 64.8633C500.221 64.9647 500.191 65.0912 500.21 65.2148C500.23 65.3385 500.298 65.4492 500.399 65.5227C500.501 65.5962 500.627 65.6263 500.751 65.6066C507.982 64.5878 514.998 62.3884 521.518 59.0965L523.031 58.3745C525.371 57.4272 527.979 57.3848 530.346 58.2555C530.414 58.2801 530.486 58.2899 530.557 58.2841C530.629 58.2783 530.698 58.2572 530.761 58.2221Z" fill="white"/>
<path d="M566.433 39.3487C566.512 39.3034 566.577 39.2359 566.619 39.1543C566.661 39.0728 566.678 38.9809 566.668 38.8899C566.658 38.7989 566.621 38.7128 566.563 38.6422C566.505 38.5716 566.427 38.5197 566.34 38.4927C561.743 36.9147 557.241 35.0737 552.856 32.9788C544.482 29.0849 539.564 28.3611 535.88 30.4879C535.773 30.5502 535.694 30.6527 535.662 30.7729C535.629 30.893 535.646 31.0211 535.708 31.1288C535.77 31.2365 535.873 31.315 535.993 31.3472C536.113 31.3793 536.241 31.3624 536.349 31.3001C539.732 29.347 544.406 30.0814 552.461 33.8349C556.885 35.9408 561.424 37.7963 566.057 39.3924C566.119 39.4116 566.185 39.4176 566.249 39.4101C566.314 39.4026 566.377 39.3817 566.433 39.3487Z" fill="white"/>
<path d="M566.271 45.0408C566.374 44.9826 566.451 44.8879 566.487 44.7756C566.503 44.7167 566.508 44.6551 566.5 44.5945C566.492 44.5338 566.473 44.4752 566.442 44.4223C566.412 44.3693 566.371 44.323 566.322 44.2861C566.273 44.2491 566.218 44.2223 566.159 44.2071C561.56 42.6206 557.054 40.7786 552.662 38.6897C544.296 34.7912 539.378 34.0673 535.686 36.1989C535.58 36.2628 535.503 36.3653 535.471 36.4848C535.439 36.6042 535.454 36.7315 535.514 36.8397C535.576 36.9474 535.679 37.026 535.799 37.0581C535.919 37.0903 536.047 37.0733 536.155 37.0111C539.546 35.0533 544.212 35.7923 552.275 39.5411C556.699 41.6471 561.238 43.5025 565.871 45.0987C565.938 45.1195 566.008 45.1251 566.078 45.1151C566.147 45.1051 566.213 45.0797 566.271 45.0408Z" fill="white"/>
<path d="M566.11 50.7331C566.187 50.6873 566.25 50.6204 566.29 50.5401C566.331 50.4599 566.347 50.3699 566.338 50.2806C566.329 50.1913 566.294 50.1067 566.238 50.0366C566.182 49.9665 566.107 49.914 566.022 49.8852C561.425 48.3001 556.921 46.4609 552.53 44.376C544.159 40.4693 539.241 39.7455 535.549 41.877C535.443 41.941 535.366 42.0435 535.334 42.163C535.302 42.2825 535.318 42.4096 535.377 42.5179C535.44 42.6256 535.542 42.7042 535.662 42.7363C535.782 42.7685 535.911 42.7515 536.018 42.6893C539.409 40.7315 544.076 41.4705 552.13 45.224C556.558 47.3268 561.099 49.1806 565.734 50.7769C565.796 50.7966 565.862 50.803 565.927 50.7954C565.992 50.7879 566.054 50.7666 566.11 50.7331Z" fill="white"/>
<path d="M565.948 56.4252C565.998 56.3977 566.042 56.3604 566.078 56.3157C566.113 56.271 566.14 56.2197 566.155 56.1647C566.172 56.1058 566.176 56.0442 566.169 55.9835C566.161 55.9229 566.141 55.8643 566.111 55.8114C566.08 55.7584 566.039 55.7121 565.991 55.6752C565.942 55.6382 565.886 55.6114 565.827 55.5962C561.229 54.0153 556.725 52.176 552.335 50.0869C543.964 46.1803 539.052 45.4646 535.36 47.5961C535.252 47.6583 535.173 47.7608 535.141 47.881C535.109 48.0012 535.125 48.1292 535.188 48.2369C535.25 48.3446 535.352 48.4232 535.472 48.4553C535.593 48.4875 535.721 48.4706 535.829 48.4083C539.22 46.4505 543.881 47.1814 551.936 50.9349C556.36 53.0453 560.902 54.8993 565.54 56.4878C565.608 56.5099 565.68 56.5158 565.751 56.5049C565.822 56.494 565.889 56.4668 565.948 56.4252Z" fill="white"/>
<path d="M530.704 31.9821L530.842 31.9023C530.92 31.8062 530.958 31.6837 530.947 31.5605C530.937 31.4374 530.879 31.3231 530.786 31.2416C530.762 31.201 527.122 28.2564 522.072 31.172C512.598 36.6416 505.606 38.729 503.372 36.7375C503.275 36.6497 503.148 36.6039 503.017 36.6103C502.953 36.6134 502.889 36.6292 502.831 36.6568C502.772 36.6844 502.72 36.7233 502.676 36.7712C502.632 36.8191 502.599 36.8751 502.577 36.936C502.555 36.9968 502.545 37.0614 502.548 37.126C502.551 37.1906 502.567 37.254 502.595 37.3125C502.622 37.3709 502.661 37.4234 502.709 37.4669C506.253 40.6191 516.629 35.3975 522.5 32.0077C526.989 29.4161 530.012 31.8727 530.165 31.9685C530.242 32.0259 530.336 32.058 530.432 32.0604C530.528 32.0629 530.623 32.0355 530.704 31.9821Z" fill="white"/>
<path d="M530.587 38.5038C530.678 38.4521 530.75 38.3726 530.792 38.2771C530.838 38.1617 530.835 38.0332 530.786 37.9197C530.737 37.8061 530.644 37.7167 530.529 37.6709C530.357 37.5973 526.317 36.0092 520.031 39.6384C513.274 43.5399 507.342 44.8529 502.38 43.5265C502.261 43.496 502.135 43.5133 502.028 43.5748C501.922 43.6362 501.844 43.7369 501.811 43.8552C501.794 43.9149 501.79 43.9773 501.798 44.0387C501.806 44.1001 501.826 44.1593 501.857 44.213C501.888 44.2666 501.929 44.3135 501.978 44.3511C502.028 44.3887 502.084 44.4161 502.144 44.4319C507.341 45.828 513.538 44.5242 520.524 40.4913C526.362 37.1203 530.166 38.5629 530.196 38.5779C530.263 38.5949 530.332 38.5971 530.4 38.5843C530.468 38.5715 530.531 38.544 530.587 38.5038Z" fill="white"/>
<path d="M531.443 44.4749C531.501 44.4388 531.551 44.3915 531.591 44.3356C531.627 44.2858 531.652 44.2293 531.666 44.1694C531.68 44.1095 531.681 44.0475 531.67 43.987C531.66 43.9265 531.637 43.8688 531.604 43.8173C531.57 43.7657 531.527 43.7214 531.476 43.6869C529.917 42.7238 528.118 42.2197 526.284 42.2325C524.45 42.2453 522.657 42.7745 521.109 43.7593C514.311 47.6843 507.538 49.6996 502.989 49.1637C502.928 49.155 502.865 49.1589 502.805 49.175C502.745 49.1911 502.689 49.2191 502.64 49.2574C502.592 49.2957 502.551 49.3434 502.521 49.3978C502.491 49.4521 502.473 49.5119 502.467 49.5735C502.454 49.6966 502.49 49.8197 502.566 49.9169C502.642 50.0142 502.754 50.078 502.876 50.0952C509.708 50.9049 518.236 46.5012 521.578 44.5715C522.972 43.6775 524.589 43.1922 526.244 43.1708C527.899 43.1494 529.527 43.5928 530.941 44.4506C531.014 44.5029 531.1 44.533 531.189 44.5373C531.278 44.5416 531.366 44.5199 531.443 44.4749Z" fill="white"/>
<path d="M531.232 49.3295C531.274 49.3153 531.313 49.2929 531.346 49.2638C531.43 49.1728 531.475 49.0529 531.472 48.9292C531.47 48.8056 531.419 48.6878 531.332 48.6006C531.198 48.4826 528.184 45.7397 522.275 48.7072C516.144 51.8278 509.538 53.9105 502.727 54.8704C502.661 54.8704 502.596 54.8843 502.536 54.9113C502.476 54.9382 502.422 54.9775 502.378 55.0266C502.334 55.0757 502.301 55.1336 502.28 55.1963C502.26 55.2591 502.253 55.3254 502.261 55.3909C502.268 55.4565 502.289 55.5197 502.322 55.5766C502.355 55.6335 502.4 55.6827 502.454 55.721C502.507 55.7594 502.569 55.786 502.633 55.7991C502.698 55.8123 502.764 55.8116 502.829 55.7973C509.752 54.8357 516.467 52.7233 522.695 49.5476C527.983 46.895 530.576 49.1885 530.678 49.2706C530.751 49.3384 530.845 49.3807 530.945 49.3913C531.045 49.4019 531.145 49.3803 531.232 49.3295Z" fill="white"/>
<path d="M645.374 229.967C644.944 230.215 602.017 253.979 600.874 254.64C599.73 255.3 596.101 257.395 593.461 256.698C590.82 256.001 584.362 253.052 584.109 252.905C584.031 252.867 583.962 252.813 583.905 252.748C583.848 252.682 583.804 252.606 583.777 252.524L568.296 200.272C568.25 200.119 568.268 199.954 568.344 199.813C568.42 199.672 568.548 199.567 568.701 199.521C568.777 199.497 568.857 199.488 568.937 199.495C569.016 199.503 569.093 199.526 569.163 199.564C569.233 199.601 569.295 199.653 569.344 199.715C569.394 199.777 569.431 199.849 569.452 199.925L584.874 251.904C586.123 252.469 591.707 254.945 593.786 255.518C595.866 256.092 599.199 254.21 600.279 253.586C601.36 252.962 639.386 231.902 644.312 229.169L620.558 168.645C620.498 168.495 620.499 168.327 620.562 168.177C620.626 168.028 620.746 167.91 620.896 167.849C621.047 167.788 621.215 167.79 621.364 167.853C621.513 167.916 621.631 168.036 621.692 168.186L645.66 229.201C645.716 229.342 645.719 229.498 645.666 229.639C645.613 229.781 645.509 229.898 645.374 229.967Z" fill="white"/>
<path d="M573.382 186.648L569.852 188.602C569.71 188.68 569.544 188.7 569.388 188.656C569.232 188.613 569.1 188.51 569.019 188.37C568.953 188.228 568.941 188.066 568.985 187.915C569.029 187.764 569.126 187.634 569.258 187.548L572.798 185.588C572.937 185.508 573.102 185.486 573.257 185.527C573.412 185.569 573.544 185.67 573.625 185.809C573.705 185.948 573.727 186.113 573.685 186.268C573.643 186.423 573.542 186.556 573.403 186.636L573.382 186.648Z" fill="white"/>
<path d="M587.389 252.311C587.25 252.391 587.084 252.413 586.929 252.371C586.774 252.33 586.642 252.228 586.562 252.089C586.482 251.951 586.46 251.785 586.502 251.63C586.543 251.475 586.645 251.343 586.784 251.263L632.594 224.619L611.425 165.592L577.704 184.25C577.566 184.327 577.402 184.346 577.25 184.303C577.097 184.261 576.967 184.16 576.888 184.023C576.824 183.879 576.812 183.717 576.854 183.565C576.897 183.413 576.991 183.28 577.121 183.19L611.455 164.191C611.533 164.149 611.62 164.124 611.709 164.118C611.797 164.113 611.886 164.127 611.969 164.16C612.049 164.191 612.123 164.239 612.184 164.299C612.246 164.36 612.294 164.432 612.326 164.513L633.911 224.696C633.961 224.829 633.962 224.975 633.913 225.109C633.864 225.242 633.769 225.353 633.646 225.423L587.401 252.331L587.389 252.311Z" fill="white"/>
<path d="M641.551 228.626L596.471 253.144C596.321 253.216 596.15 253.23 595.991 253.184L589.774 251.185C589.619 251.141 589.488 251.039 589.408 250.9C589.328 250.761 589.305 250.597 589.344 250.441C589.364 250.365 589.398 250.293 589.446 250.23C589.494 250.167 589.554 250.115 589.622 250.075C589.691 250.036 589.766 250.01 589.844 250C589.923 249.99 590.002 249.996 590.078 250.017L596.04 251.912L640.431 227.777L620.65 175.2L614.744 172.505C614.67 172.474 614.603 172.429 614.547 172.371C614.491 172.314 614.447 172.246 614.419 172.171C614.39 172.096 614.377 172.016 614.379 171.936C614.382 171.856 614.402 171.777 614.436 171.705C614.469 171.632 614.516 171.567 614.575 171.512C614.633 171.458 614.702 171.415 614.777 171.388C614.852 171.36 614.932 171.347 615.012 171.351C615.092 171.354 615.17 171.373 615.243 171.407L621.502 174.205C621.649 174.276 621.762 174.401 621.816 174.555L641.874 227.853C641.93 227.998 641.928 228.16 641.868 228.304C641.807 228.448 641.694 228.563 641.551 228.626Z" fill="white"/>
<path d="M599.123 248.554L605.553 244.841C605.553 244.841 607.444 250.539 609.665 255.669C611.885 260.799 615.197 267.116 615.197 267.116L607.429 262.311L606.271 270.844L599.123 248.554Z" fill="white"/>
<g opacity="0.2">
<path d="M601.83 440.502L601.886 440.517C601.963 440.525 602.041 440.515 602.114 440.488C602.187 440.46 602.253 440.417 602.307 440.361L628.072 412.372C628.15 412.267 628.184 412.138 628.169 412.009C628.161 411.882 628.103 411.762 628.009 411.677L626.33 410.23C626.234 410.156 626.113 410.121 625.992 410.132C625.871 410.143 625.758 410.2 625.677 410.29C625.596 410.381 625.552 410.499 625.554 410.62C625.557 410.742 625.605 410.858 625.689 410.946L626.987 412.101L602.019 439.237L581.933 401.813C581.896 401.742 581.839 401.682 581.77 401.64L550.357 381.907L574.524 359.472L575.747 359.899C575.807 359.922 575.87 359.933 575.934 359.93C575.998 359.928 576.061 359.912 576.119 359.885C576.176 359.857 576.228 359.819 576.27 359.771C576.312 359.723 576.344 359.667 576.364 359.606C576.405 359.486 576.396 359.355 576.341 359.242C576.285 359.128 576.188 359.04 576.068 358.998L574.564 358.466C574.482 358.434 574.393 358.427 574.307 358.445C574.221 358.462 574.141 358.504 574.078 358.565L549.238 381.648C549.19 381.703 549.155 381.769 549.136 381.84C549.117 381.91 549.114 381.985 549.129 382.057C549.136 382.131 549.159 382.202 549.198 382.266C549.236 382.329 549.288 382.384 549.349 382.425L581.194 402.413L601.52 440.279C601.59 440.391 601.701 440.471 601.83 440.502Z" fill="white"/>
<path d="M602.646 435.965L602.721 435.985C602.793 435.991 602.866 435.981 602.934 435.954C603.002 435.927 603.063 435.885 603.111 435.831L627.735 409.121C627.812 409.04 627.858 408.934 627.864 408.823C627.87 408.711 627.836 408.601 627.769 408.512C627.712 408.427 621.734 400.116 620.444 390.479C619.253 381.586 614.581 376.077 607.945 375.735C607.876 375.731 607.808 375.743 607.744 375.769C607.68 375.795 607.623 375.834 607.576 375.885L585.052 399.189C584.987 399.256 584.943 399.341 584.925 399.432C584.907 399.524 584.916 399.618 584.951 399.705C584.986 399.791 585.046 399.866 585.122 399.919C585.198 399.972 585.289 400.002 585.382 400.006C585.648 400.017 591.968 400.385 591.775 406.504C591.578 413.051 595.815 422.68 597.851 427.303L598.071 427.821C599.29 430.578 600.724 433.235 602.359 435.769C602.428 435.867 602.53 435.937 602.646 435.965ZM626.778 408.745L602.852 434.714C601.386 432.381 600.09 429.945 598.976 427.425L598.755 426.907C596.735 422.378 592.54 412.85 592.767 406.53C592.932 401.032 588.467 399.556 586.434 399.171L608.126 376.7C614.14 377.125 618.383 382.3 619.502 390.605C620.68 399.395 625.652 407.097 626.778 408.745Z" fill="white"/>
<path d="M585.296 399.953C585.379 399.976 585.466 399.977 585.549 399.955C585.632 399.934 585.708 399.891 585.768 399.83L608.295 376.516C608.355 376.422 608.384 376.311 608.379 376.2C608.651 370.79 603.65 366.957 592.139 363.873C582.091 361.18 578.876 356.899 578.846 356.862C578.806 356.806 578.754 356.759 578.695 356.725C578.636 356.69 578.57 356.668 578.501 356.659C578.433 356.654 578.365 356.663 578.301 356.685C578.236 356.707 578.177 356.742 578.127 356.789L553.651 379.969C553.562 380.056 553.509 380.173 553.503 380.298C553.498 380.422 553.54 380.544 553.621 380.639C553.667 380.651 554.654 381.773 561.083 385.868C565.54 388.717 570.97 389.943 575.346 390.936C577.09 391.3 578.812 391.761 580.505 392.318C584.494 393.746 584.886 399.474 584.904 399.479C584.91 399.572 584.943 399.662 584.999 399.738C585.055 399.813 585.132 399.87 585.22 399.902L585.296 399.953ZM607.469 375.986L585.77 398.445C585.455 396.566 584.376 392.698 580.87 391.439C579.14 390.872 577.381 390.401 575.599 390.027C571.308 389.057 565.963 387.844 561.641 385.09C559.254 383.638 556.949 382.056 554.736 380.349L578.456 357.873C579.532 359.069 583.252 362.508 591.932 364.834C602.788 367.753 607.585 371.232 607.469 375.986Z" fill="white"/>
<path d="M593.767 421.683C593.87 421.713 593.981 421.707 594.08 421.667C594.198 421.615 594.29 421.518 594.337 421.398C594.384 421.279 594.382 421.145 594.332 421.027C593.138 418.294 592.246 415.922 591.46 413.827C590.647 411.314 589.553 408.9 588.198 406.632C586.963 404.827 585.484 403.203 583.802 401.805C583.753 401.766 583.696 401.737 583.636 401.72C583.575 401.702 583.512 401.697 583.45 401.705C583.387 401.712 583.327 401.732 583.272 401.763C583.218 401.794 583.17 401.835 583.131 401.885C583.054 401.986 583.018 402.113 583.033 402.24C583.047 402.367 583.111 402.483 583.209 402.564C584.811 403.903 586.222 405.455 587.403 407.177C588.703 409.381 589.749 411.725 590.521 414.164C591.314 416.27 592.225 418.608 593.42 421.411C593.452 421.48 593.5 421.541 593.561 421.588C593.621 421.636 593.692 421.668 593.767 421.683Z" fill="white"/>
<path d="M581.02 399.635C581.122 399.663 581.231 399.653 581.327 399.607C581.444 399.558 581.538 399.464 581.586 399.346C581.634 399.228 581.634 399.096 581.585 398.978C580.396 396.38 578.27 394.326 575.631 393.226L573.999 392.649C566.959 390.343 560.35 386.888 554.44 382.424C554.336 382.348 554.206 382.317 554.079 382.337C553.952 382.357 553.838 382.427 553.763 382.531C553.687 382.635 553.656 382.765 553.676 382.892C553.697 383.019 553.767 383.133 553.871 383.208C559.861 387.718 566.551 391.215 573.675 393.559L575.298 394.133C577.684 395.144 579.608 397.007 580.695 399.358C580.726 399.425 580.771 399.484 580.827 399.532C580.883 399.58 580.949 399.615 581.02 399.635Z" fill="white"/>
<path d="M620.621 411.831C620.712 411.856 620.808 411.853 620.898 411.825C620.987 411.796 621.066 411.741 621.125 411.668C621.184 411.595 621.22 411.506 621.229 411.412C621.238 411.319 621.219 411.225 621.175 411.142C618.984 406.658 617.052 402.053 615.389 397.349C612.136 388.442 609.091 384.346 604.873 383.216C604.749 383.183 604.618 383.2 604.507 383.264C604.396 383.328 604.316 383.433 604.283 383.556C604.249 383.679 604.267 383.811 604.331 383.921C604.395 384.032 604.5 384.113 604.624 384.146C608.498 385.184 611.358 389.111 614.481 397.684C616.164 402.424 618.112 407.067 620.317 411.589C620.348 411.649 620.391 411.701 620.444 411.742C620.496 411.784 620.557 411.814 620.621 411.831Z" fill="white"/>
<path d="M616.371 415.846C616.488 415.878 616.613 415.865 616.72 415.81C616.775 415.779 616.823 415.738 616.862 415.688C616.9 415.639 616.928 415.582 616.945 415.521C616.961 415.46 616.965 415.397 616.956 415.335C616.948 415.273 616.927 415.213 616.895 415.159C614.708 410.668 612.774 406.06 611.102 401.354C607.858 392.45 604.814 388.354 600.586 387.221C600.462 387.191 600.332 387.209 600.222 387.272C600.112 387.336 600.031 387.44 599.995 387.561C599.962 387.685 599.98 387.816 600.044 387.927C600.108 388.037 600.213 388.118 600.336 388.151C604.22 389.192 607.071 393.116 610.203 401.692C611.886 406.432 613.834 411.075 616.039 415.597C616.072 415.661 616.119 415.716 616.177 415.759C616.235 415.802 616.301 415.832 616.371 415.846Z" fill="white"/>
<path d="M612.121 419.861C612.211 419.884 612.305 419.881 612.392 419.852C612.48 419.823 612.557 419.77 612.615 419.698C612.673 419.627 612.71 419.54 612.72 419.448C612.73 419.357 612.714 419.264 612.673 419.182C610.487 414.694 608.552 410.088 606.877 405.386C603.636 396.473 600.591 392.377 596.364 391.244C596.24 391.214 596.11 391.232 596 391.295C595.89 391.359 595.809 391.462 595.773 391.584C595.74 391.708 595.758 391.839 595.822 391.95C595.886 392.06 595.991 392.141 596.114 392.174C599.998 393.215 602.849 397.139 605.972 405.712C607.659 410.453 609.611 415.096 611.817 419.62C611.848 419.68 611.891 419.732 611.943 419.774C611.996 419.815 612.056 419.845 612.121 419.861Z" fill="white"/>
<path d="M607.872 423.877C607.928 423.893 607.987 423.898 608.045 423.892C608.104 423.885 608.16 423.867 608.211 423.838C608.266 423.807 608.314 423.766 608.353 423.716C608.391 423.667 608.419 423.61 608.435 423.549C608.452 423.489 608.456 423.425 608.447 423.363C608.439 423.301 608.418 423.241 608.386 423.187C606.195 418.701 604.26 414.095 602.59 409.392C599.349 400.478 596.302 396.392 592.074 395.259C591.95 395.226 591.819 395.243 591.708 395.307C591.597 395.371 591.517 395.476 591.484 395.599C591.451 395.722 591.468 395.854 591.532 395.964C591.596 396.075 591.701 396.156 591.825 396.189C595.708 397.229 598.562 401.144 601.684 409.717C603.364 414.462 605.316 419.105 607.53 423.626C607.563 423.691 607.611 423.748 607.671 423.792C607.73 423.835 607.799 423.864 607.872 423.877Z" fill="white"/>
<path d="M600.03 380.542L600.188 380.585C600.314 380.572 600.43 380.51 600.512 380.413C600.594 380.316 600.635 380.191 600.627 380.064C600.639 380.018 600.134 375.237 594.351 373.687C583.501 370.78 576.91 367.219 576.734 364.151C576.727 364.017 576.668 363.892 576.568 363.801C576.519 363.757 576.462 363.722 576.399 363.7C576.336 363.677 576.27 363.667 576.204 363.67C576.137 363.674 576.072 363.69 576.012 363.718C575.952 363.746 575.898 363.786 575.853 363.835C575.809 363.884 575.774 363.942 575.752 364.004C575.729 364.067 575.719 364.133 575.723 364.2C576.007 369.061 587.331 372.803 594.055 374.605C599.195 375.982 599.607 379.96 599.648 380.141C599.663 380.239 599.707 380.33 599.775 380.402C599.844 380.474 599.932 380.523 600.03 380.542Z" fill="white"/>
<path d="M595.21 385.193C595.313 385.221 595.423 385.216 595.523 385.177C595.64 385.126 595.732 385.031 595.778 384.913C595.825 384.795 595.823 384.663 595.772 384.546C595.701 384.367 593.921 380.281 586.722 378.352C578.983 376.279 573.723 372.925 571.084 368.36C571.02 368.251 570.916 368.172 570.794 368.14C570.672 368.107 570.542 368.123 570.432 368.185C570.377 368.217 570.328 368.259 570.29 368.309C570.251 368.36 570.222 368.417 570.206 368.479C570.189 368.54 570.185 368.604 570.194 368.667C570.202 368.73 570.223 368.791 570.255 368.846C573.015 373.633 578.461 377.186 586.46 379.329C593.147 381.121 594.861 384.93 594.872 384.963C594.908 385.023 594.957 385.075 595.015 385.115C595.074 385.155 595.14 385.181 595.21 385.193Z" fill="white"/>
<path d="M591.497 390.149C591.565 390.165 591.636 390.167 591.705 390.155C591.767 390.145 591.827 390.123 591.88 390.089C591.934 390.056 591.98 390.012 592.016 389.96C592.052 389.909 592.078 389.85 592.091 389.789C592.104 389.727 592.105 389.663 592.093 389.601C591.66 387.77 590.72 386.098 589.379 384.776C588.038 383.454 586.352 382.536 584.514 382.127C576.728 380.041 570.347 376.587 567.434 372.895C567.396 372.844 567.348 372.802 567.292 372.77C567.237 372.738 567.176 372.718 567.113 372.71C567.05 372.702 566.986 372.708 566.924 372.725C566.863 372.743 566.806 372.773 566.757 372.813C566.659 372.894 566.595 373.009 566.58 373.135C566.565 373.261 566.599 373.388 566.676 373.489C571.048 379.038 580.437 382.032 584.264 383.057C585.925 383.42 587.451 384.241 588.669 385.428C589.886 386.614 590.746 388.118 591.15 389.767C591.164 389.858 591.205 389.942 591.267 390.01C591.328 390.078 591.408 390.126 591.497 390.149Z" fill="white"/>
<path d="M587.819 393.52C587.859 393.541 587.904 393.552 587.949 393.555C588.076 393.55 588.196 393.496 588.284 393.404C588.372 393.313 588.42 393.191 588.42 393.064C588.409 392.881 588.212 388.701 581.767 386.565C575.05 384.38 568.743 381.096 563.101 376.848C563.053 376.8 562.995 376.763 562.932 376.739C562.869 376.715 562.801 376.704 562.734 376.708C562.666 376.712 562.6 376.729 562.54 376.76C562.479 376.791 562.426 376.835 562.384 376.887C562.342 376.94 562.311 377.001 562.294 377.067C562.277 377.132 562.273 377.2 562.285 377.267C562.296 377.334 562.321 377.398 562.358 377.454C562.395 377.511 562.444 377.559 562.501 377.595C568.226 381.923 574.635 385.265 581.462 387.481C587.227 389.394 587.445 392.942 587.459 393.075C587.463 393.178 587.501 393.277 587.565 393.357C587.63 393.437 587.719 393.494 587.819 393.52Z" fill="white"/>
</g>
</svg>
