<svg width="214" height="332" viewBox="0 0 214 332" fill="none" xmlns="http://www.w3.org/2000/svg">
<path d="M82.1688 198.452C82.1688 198.452 69.9099 199.566 65.4559 191.755C61.0019 183.944 68.7985 174.45 60.442 171.101C52.0856 167.752 42.0579 178.92 25.345 169.426C8.63207 159.932 17.54 147.659 22.0024 138.173C26.4647 128.688 28.6875 124.217 18.0999 118.08C7.51231 111.943 -4.18671 94.0772 3.05832 76.7804C10.3034 59.4836 28.6875 67.2864 38.1554 58.3617C47.6232 49.437 39.2668 38.8212 38.7153 24.3123C38.1638 9.8034 57.651 -1.36502 76.595 1.43127C95.5391 4.22756 99.4332 24.3123 99.4332 37.1468C99.4332 49.9812 119.489 53.3385 128.965 38.8212C138.441 24.3039 146.229 20.9634 160.16 27.1002C174.09 33.237 162.391 53.891 169.076 57.2399C175.761 60.5887 181.326 44.4054 201.382 53.891C221.437 63.3766 210.298 88.493 200.27 94.6381C185.68 103.588 202.886 120.943 205.652 131.568C209.705 147.098 197.229 159.522 181.886 158.827C157.377 157.705 151.243 153.804 146.229 161.054C141.215 168.304 156.817 169.987 154.586 181.708C152.355 193.429 147.901 197.892 137.873 197.892C127.845 197.892 121.72 188.967 111.132 193.429C100.545 197.892 87.1827 201.24 82.1688 198.452Z" fill="#263238" stroke="#263238" stroke-linecap="round" stroke-linejoin="round"/>
<path d="M62.8071 278.406C61.0104 285.085 60.3744 292.023 60.9269 298.918C61.9714 309.592 67.4031 315.244 91.0101 318.802C114.617 322.36 130.912 319.43 144.074 313.151C157.235 306.872 154.252 284.342 150.834 279.177C147.416 274.011 134.255 272.964 112.946 274.848C91.6368 276.732 78.4754 273.383 70.7457 274.639C63.016 275.895 62.8071 278.406 62.8071 278.406Z" fill="#1B2327"/>
<path d="M57.484 214.736L56.0968 242.699C56.0968 242.699 53.5898 249.196 58.1023 253.365C62.6148 257.535 68.4309 256.304 71.4726 250.895C74.5144 245.487 74.0966 232.971 74.8653 228.023C75.6341 223.075 69.6259 217.976 64.6872 216.126C59.7486 214.276 57.484 214.736 57.484 214.736Z" fill="white"/>
<path d="M155.204 214.736L156.591 242.699C156.591 242.699 159.056 249.196 154.586 253.365C150.115 257.535 144.249 256.304 141.165 250.895C138.082 245.487 138.541 232.971 137.772 228.023C137.004 223.075 143.02 217.976 147.951 216.126C152.881 214.276 155.204 214.736 155.204 214.736Z" fill="white"/>
<path d="M95.247 173.068C95.247 173.068 95.7735 184.706 92.9573 189.637C90.1412 194.568 81.1664 194.266 75.367 194.266C69.5676 194.266 60.9354 199.022 58.1193 203.786C55.9947 207.692 54.1732 211.756 52.6709 215.942L72.0244 226.34C72.0244 226.34 69.9103 230.401 72.0244 236.387C74.1386 242.373 77.2973 244.675 76.4199 247.672C75.5425 250.67 64.1025 271.993 63.0496 275.342C62.5174 276.893 62.1067 278.483 61.8212 280.098C61.8212 280.098 86.2722 284.861 107.556 284.158C128.84 283.455 150.834 279.218 150.834 279.218C150.834 279.218 144.324 267.765 140.806 261.243C137.288 254.722 134.121 248.024 134.823 245.73C135.525 243.436 139.578 237.274 139.402 226.516C139.402 226.516 155.054 222.464 160.862 215.942C160.862 215.942 154.001 198.846 146.965 196.025C139.929 193.203 131.84 196.025 126.074 194.442C120.308 192.86 117.275 190.03 116.397 187.92C115.52 185.811 114.634 175.932 114.985 173.646L95.247 173.068Z" fill="#8E6CED"/>
<path opacity="0.1" d="M77.4303 241.15C77.4303 241.15 71.5808 234.871 78.266 234.034C84.9511 233.197 94.5611 239.895 105.007 242.406C115.452 244.918 127.987 233.615 133.419 235.29C138.85 236.964 135.508 245.336 129.658 249.104C123.809 252.871 107.514 252.453 98.3215 252.034C89.1294 251.616 84.5333 249.104 77.4303 241.15Z" fill="black"/>
<path d="M106.503 215.9C120.266 215.356 124.586 202.086 125.94 194.375C120.199 192.785 117.232 189.98 116.355 187.879C115.478 185.777 114.592 175.89 114.943 173.604L95.2467 173.068C95.2467 173.068 95.7731 184.705 92.957 189.637C91.5197 192.148 88.4612 193.304 85.0435 193.823C86.3471 199.357 91.6367 216.494 106.503 215.9Z" fill="white"/>
<path opacity="0.3" d="M115.285 181.758C114.935 179.055 114.82 176.327 114.943 173.604L95.2467 173.068C95.35 176.066 95.2467 179.068 94.9375 182.052C98.3971 184.32 105.408 187.033 115.285 181.758Z" fill="black"/>
<path d="M86.8904 149.057C86.8904 149.057 84.3834 144.963 81.9183 147.458C79.4531 149.953 81.9183 154.926 83.5143 157.237C85.1104 159.547 88.1271 161.322 88.8374 160.435C89.5477 159.547 86.8904 149.057 86.8904 149.057Z" fill="white" stroke="#263238" stroke-linecap="round" stroke-linejoin="round"/>
<path d="M125.397 148.689C125.397 148.689 128.948 144.067 130.904 148.513C132.859 152.958 127.561 159.715 125.054 160.962C122.547 162.21 123.809 158.116 123.985 156.692C124.16 155.269 125.397 148.689 125.397 148.689Z" fill="white" stroke="#263238" stroke-linecap="round" stroke-linejoin="round"/>
<path d="M84.9517 133.401C84.9517 133.401 86.1968 150.296 87.0826 158.827C87.9683 167.358 91.1438 175.011 100.904 177.522C110.664 180.034 118.453 176.635 121.319 170.942C124.185 165.249 125.756 154.407 125.756 145.516V131.283C125.756 131.283 100.553 124.158 84.9517 133.401Z" fill="white"/>
<path d="M103.745 157.58C104.648 158.18 105.684 158.548 106.762 158.651C107.892 158.534 108.982 158.168 109.954 157.58" stroke="#263238" stroke-linecap="round" stroke-linejoin="round"/>
<path d="M101.438 163.097C101.438 163.097 105.876 165.943 112.302 162.737" stroke="#263238" stroke-linecap="round" stroke-linejoin="round"/>
<path d="M94.3442 148.689C94.3442 148.689 98.0712 148.161 100.194 149.584" stroke="#263238" stroke-width="2" stroke-linecap="round" stroke-linejoin="round"/>
<path d="M111.734 149.4C111.734 149.4 115.285 147.625 118.653 149.224" stroke="#263238" stroke-width="2" stroke-linecap="round" stroke-linejoin="round"/>
<path d="M86.0046 147.073C87.2217 145.016 88.1736 142.814 88.8374 140.517C89.9165 137.511 90.252 134.288 89.8151 131.124C88.1282 131.733 86.5003 132.495 84.9517 133.401C84.9517 133.401 85.4196 140.023 86.0046 147.073Z" fill="#263238" stroke="#263238" stroke-linecap="round" stroke-linejoin="round"/>
<path d="M125.748 145.658C125.748 145.599 125.748 145.549 125.748 145.49V131.258C125.748 131.258 124.01 130.772 121.177 130.22C121.361 132.983 122.188 141.313 125.748 145.658Z" fill="#263238" stroke="#263238" stroke-linecap="round" stroke-linejoin="round"/>
<path d="M92.9233 142.468C92.9233 142.468 95.94 138.382 102.324 139.622" stroke="#263238" stroke-linecap="round" stroke-linejoin="round"/>
<path d="M111.375 140.157C112.831 139.623 114.404 139.49 115.929 139.771C117.455 140.053 118.877 140.738 120.049 141.756" stroke="#263238" stroke-linecap="round" stroke-linejoin="round"/>
<path d="M108.141 308.965C108.141 308.965 99.9931 308.965 85.3693 294.523C70.7455 280.081 61.5534 267.941 50.2722 262.918C38.991 257.895 28.1277 268.988 28.7544 280.918C29.3811 292.848 38.1554 309.592 64.2693 319.22C90.3832 328.848 112.737 324.872 115.035 324.872C117.333 324.872 128.614 330.523 135.299 331.151C138.979 331.545 142.691 331.545 146.371 331.151C146.371 331.151 148.252 331.36 149.296 331.36C150.341 331.36 151.594 330.104 151.594 330.104C151.594 330.104 153.708 330.657 154.544 329.192C155.38 327.727 154.728 327.174 154.728 327.174C154.728 327.174 158.304 327.484 159.558 325.181C160.811 322.879 159.023 322.971 159.023 322.971C159.023 322.971 161.472 322.494 161.413 320.518C161.459 319.782 161.315 319.047 160.995 318.383C160.995 318.383 162.458 316.081 161.831 314.197C161.204 312.313 158.906 311.686 156.608 312.732C154.31 313.779 143.238 313.36 134.255 312.732C125.271 312.104 108.141 308.965 108.141 308.965Z" fill="white"/>
<path d="M104.506 308.127C100.779 306.779 94.2773 303.347 85.3693 294.548C70.7455 280.081 61.5534 267.941 50.2722 262.918C38.991 257.895 28.1277 268.988 28.7544 280.918C29.3811 292.848 38.1554 309.593 64.2693 319.22C74.0088 322.785 84.148 324.021 94.5 324.615C103.993 320.647 104.948 313.151 104.506 308.127Z" fill="#263238"/>
<path opacity="0.3" d="M100.954 320.97C96.8345 319.405 92.0212 317.73 86.623 316.081C67.4031 310.22 53.1972 303.104 43.5873 292.22C33.9773 281.337 37.3199 267.522 37.3199 267.522L35.1055 265.513C32.9792 267.453 31.3072 269.84 30.2093 272.503C29.1114 275.167 28.6146 278.04 28.7546 280.918C29.3813 292.848 38.1556 309.592 64.2695 319.22C74.009 322.785 84.1483 323.521 94.5002 324.115C96.9567 323.138 99.215 322.964 100.954 320.97Z" fill="black"/>
<path d="M160.995 318.383C160.354 318.094 159.656 317.953 158.953 317.971C158.25 317.988 157.56 318.163 156.934 318.484" fill="white"/>
<path d="M160.995 318.383C160.354 318.094 159.656 317.953 158.953 317.971C158.25 317.988 157.56 318.163 156.934 318.484" stroke="#263238" stroke-linecap="round" stroke-linejoin="round"/>
<path d="M159.023 322.971C157.943 322.579 156.76 322.579 155.681 322.971H159.023Z" fill="white"/>
<path d="M159.023 322.971C157.943 322.579 156.76 322.579 155.681 322.971" stroke="#263238" stroke-linecap="round" stroke-linejoin="round"/>
<path d="M154.728 327.174C153.956 326.592 153 326.31 152.037 326.379L154.728 327.174Z" fill="white"/>
<path d="M154.728 327.174C153.956 326.592 153 326.31 152.037 326.379" stroke="#263238" stroke-linecap="round" stroke-linejoin="round"/>
<path d="M151.377 329.895C151.377 329.895 150.483 328.279 149.171 328.279L151.377 329.895Z" fill="white"/>
<path d="M151.377 329.895C151.377 329.895 150.483 328.279 149.171 328.279" stroke="#263238" stroke-linecap="round" stroke-linejoin="round"/>
<path d="M98.8732 308.965C98.8732 308.965 107.021 308.965 121.644 294.523C136.268 280.081 145.46 267.941 156.742 262.918C168.023 257.895 178.886 268.988 178.259 280.918C177.633 292.848 168.858 309.592 142.744 319.22C116.631 328.848 94.2771 324.872 91.9791 324.872C89.6811 324.872 78.3999 330.523 71.7147 331.151C68.0345 331.545 64.3227 331.545 60.6424 331.151C60.6424 331.151 58.7622 331.36 57.7177 331.36C56.6731 331.36 55.4196 330.104 55.4196 330.104C55.4196 330.104 53.3055 330.657 52.4698 329.192C51.6342 327.727 52.286 327.174 52.286 327.174C52.286 327.174 48.7011 327.484 47.4476 325.181C46.1941 322.879 47.9824 322.971 47.9824 322.971C47.9824 322.971 45.534 322.494 45.5925 320.518C45.5441 319.781 45.6911 319.045 46.0186 318.383C46.0186 318.383 44.5563 316.081 45.183 314.197C45.8097 312.313 48.1078 311.686 50.4058 312.732C52.7038 313.779 63.7761 313.36 72.7593 312.732C81.7424 312.104 98.8732 308.965 98.8732 308.965Z" fill="white"/>
<path d="M102.5 308.127C106.218 306.779 112.72 303.347 121.636 294.548C136.26 280.106 145.452 267.966 156.733 262.943C168.014 257.92 178.878 269.013 178.251 280.943C177.624 292.873 168.85 309.618 142.736 319.246C132.994 322.811 122.782 324.923 112.427 325.516C102.943 321.523 102.065 313.151 102.5 308.127Z" fill="#263238"/>
<path opacity="0.3" d="M178.26 280.918C178.694 272.604 173.547 264.709 166.561 262.374L163.502 264.592C163.502 264.592 173.948 270.871 171.441 283.011C168.934 295.151 148.461 307.709 132.166 314.406C124.052 317.593 115.725 320.203 107.247 322.218C108.77 323.608 110.527 324.716 112.436 325.491C122.791 324.898 133.003 322.786 142.745 319.22C168.859 309.592 177.633 292.848 178.26 280.918Z" fill="black"/>
<path d="M46.019 318.383C46.6603 318.094 47.3582 317.953 48.0611 317.971C48.764 317.988 49.454 318.163 50.0803 318.484" fill="white"/>
<path d="M46.019 318.383C46.6603 318.094 47.3582 317.953 48.0611 317.971C48.764 317.988 49.454 318.163 50.0803 318.484" stroke="#263238" stroke-linecap="round" stroke-linejoin="round"/>
<path d="M47.9824 322.971C49.0623 322.579 50.2452 322.579 51.325 322.971H47.9824Z" fill="white"/>
<path d="M47.9824 322.971C49.0623 322.579 50.2452 322.579 51.325 322.971" stroke="#263238" stroke-linecap="round" stroke-linejoin="round"/>
<path d="M52.2861 327.174C53.0579 326.592 54.0136 326.31 54.9769 326.379L52.2861 327.174Z" fill="white"/>
<path d="M52.2861 327.174C53.0579 326.592 54.0136 326.31 54.9769 326.379" stroke="#263238" stroke-linecap="round" stroke-linejoin="round"/>
<path d="M55.6372 329.895C55.6372 329.895 56.5397 328.22 57.8433 328.22L55.6372 329.895Z" fill="white"/>
<path d="M55.6372 329.895C55.6372 329.895 56.5397 328.22 57.8433 328.22" stroke="#263238" stroke-linecap="round" stroke-linejoin="round"/>
<path d="M61.0269 244.558C61.0269 244.558 57.9434 243.938 52.3947 246.718C46.846 249.497 41.7486 254.445 38.8155 256.145C35.8824 257.844 33.8852 258.933 31.2947 256.304C28.7042 253.675 23.1221 246.408 17.8742 246.567C12.6264 246.726 10.7796 253.985 11.7072 255.525C12.6347 257.066 14.0219 257.384 15.0999 256.145C16.1779 254.906 17.565 252.436 18.9522 253.365C20.3394 254.295 19.5706 258.623 17.4146 259.393C15.2586 260.163 9.39243 263.872 10.7796 266.041C12.1668 268.209 20.0385 271.139 25.8964 271.6C31.7543 272.06 39.0077 268.05 43.7876 267.271C48.5675 266.493 61.5283 265.597 67.5366 260.632C69.2669 259.222 70.5931 257.377 71.3799 255.285C72.1667 253.194 72.3861 250.931 72.0156 248.727" fill="white"/>
<path d="M11.5151 262.792C11.5151 262.792 10.9051 255.994 8.89956 255.525C6.89402 255.056 6.58482 259.711 6.89401 264.182C7.2032 268.653 9.66835 269.9 11.2059 268.661C12.7435 267.422 11.5151 262.792 11.5151 262.792Z" fill="white" stroke="#263238" stroke-linecap="round" stroke-linejoin="round"/>
<path d="M16.3366 264.71C16.3366 264.71 16.9216 257.903 15.033 257.091C13.1444 256.279 12.0247 260.791 11.5317 265.254C11.0386 269.716 13.2614 271.374 14.9996 270.436C16.7377 269.498 16.3366 264.71 16.3366 264.71Z" fill="white" stroke="#263238" stroke-linecap="round" stroke-linejoin="round"/>
<path d="M20.4984 266.267C20.4984 266.267 21.0917 259.469 19.1948 258.656C17.2979 257.844 16.1865 262.357 15.7018 266.819C15.2171 271.282 17.4232 272.939 19.1613 271.993C20.8995 271.047 20.4984 266.267 20.4984 266.267Z" fill="white" stroke="#263238" stroke-linecap="round" stroke-linejoin="round"/>
<path d="M31.4117 271.29C28.6115 272.584 25.5532 273.22 22.4703 273.149C22.2917 271.866 22.1885 270.575 22.1611 269.281C22.1611 267.606 25.7043 260.632 30.9521 261.093" fill="white"/>
<path d="M31.4117 271.29C28.6115 272.584 25.5532 273.22 22.4703 273.149C22.2917 271.866 22.1885 270.575 22.1611 269.281C22.1611 267.606 25.7043 260.632 30.9521 261.093" stroke="#263238" stroke-linecap="round" stroke-linejoin="round"/>
<path d="M24.919 268.921C24.919 268.921 26.8827 263.596 25.2616 262.357C23.6404 261.118 21.6432 264.416 20.2477 267.883C18.8522 271.349 20.6154 273.375 22.4538 273.149C24.2922 272.923 24.919 268.921 24.919 268.921Z" fill="white" stroke="#263238" stroke-linecap="round" stroke-linejoin="round"/>
<path d="M151.653 244.558C151.653 244.558 154.736 243.938 160.293 246.718C165.85 249.497 170.931 254.445 173.864 256.145C176.797 257.844 178.803 258.933 181.427 256.304C184.051 253.675 189.599 246.408 194.839 246.567C200.078 246.726 201.934 253.985 201.014 255.525C200.095 257.066 198.7 257.384 197.622 256.145C196.544 254.906 195.115 252.436 193.761 253.365C192.407 254.295 193.143 258.623 195.307 259.393C197.471 260.163 203.329 263.872 201.934 266.041C200.538 268.209 192.683 271.139 186.825 271.6C180.967 272.06 173.714 268.05 168.926 267.271C164.137 266.493 151.193 265.597 145.177 260.632C143.446 259.222 142.121 257.377 141.335 255.285C140.55 253.193 140.333 250.93 140.706 248.727" fill="white"/>
<path d="M201.165 262.792C201.165 262.792 201.783 255.994 203.789 255.525C205.794 255.056 206.103 259.711 205.794 264.182C205.485 268.653 203.02 269.9 201.474 268.661C199.928 267.422 201.165 262.792 201.165 262.792Z" fill="white" stroke="#263238" stroke-linecap="round" stroke-linejoin="round"/>
<path d="M196.352 264.71C196.352 264.71 195.758 257.903 197.647 257.091C199.535 256.279 200.663 260.791 201.148 265.254C201.633 269.716 199.435 271.374 197.689 270.453C195.942 269.532 196.352 264.71 196.352 264.71Z" fill="white" stroke="#263238" stroke-linecap="round" stroke-linejoin="round"/>
<path d="M192.181 266.267C192.181 266.267 191.596 259.469 193.485 258.656C195.373 257.844 196.502 262.357 196.986 266.819C197.471 271.282 195.256 272.939 193.527 271.993C191.797 271.047 192.181 266.267 192.181 266.267Z" fill="white" stroke="#263238" stroke-linecap="round" stroke-linejoin="round"/>
<path d="M181.268 271.29C184.079 272.588 187.149 273.224 190.243 273.149C190.421 271.866 190.525 270.575 190.552 269.281C190.552 267.606 187.001 260.632 181.753 261.093" fill="white"/>
<path d="M181.268 271.29C184.079 272.588 187.149 273.224 190.243 273.149C190.421 271.866 190.525 270.575 190.552 269.281C190.552 267.606 187.001 260.632 181.753 261.093" stroke="#263238" stroke-linecap="round" stroke-linejoin="round"/>
<path d="M187.736 268.921C187.736 268.921 185.772 263.596 187.393 262.357C189.014 261.118 191.003 264.416 192.407 267.883C193.811 271.349 192.039 273.375 190.201 273.149C188.363 272.923 187.736 268.921 187.736 268.921Z" fill="white" stroke="#263238" stroke-linecap="round" stroke-linejoin="round"/>
</svg>
