<svg width="635" height="464" viewBox="0 0 635 471" fill="none" xmlns="http://www.w3.org/2000/svg">
<path d="M288.667 250.915C288.667 250.915 273.09 252.327 267.431 242.421C261.772 232.515 271.678 220.475 261.06 216.228C250.442 211.981 237.701 226.145 216.465 214.105C195.229 202.065 206.548 186.5 212.218 174.471C217.888 162.442 220.712 156.772 207.259 148.99C193.806 141.207 178.941 118.55 188.147 96.6153C197.353 74.6803 220.712 84.5755 232.742 73.2576C244.772 61.9397 234.154 48.4771 233.454 30.0775C232.753 11.678 257.514 -2.4853 281.585 1.06083C305.656 4.60697 310.603 30.0776 310.603 46.3537C310.603 62.6298 336.086 66.8873 348.127 48.4771C360.168 30.0669 370.064 25.8307 387.764 33.6131C405.464 41.3955 390.599 67.588 399.093 71.8349C407.588 76.0817 414.659 55.5587 440.142 67.588C465.625 79.6172 451.471 111.469 438.73 119.262C420.191 130.611 442.053 152.621 445.568 166.094C450.718 185.789 434.865 201.545 415.371 200.664C384.228 199.241 376.435 194.293 370.064 203.488C363.693 212.682 383.517 214.816 380.682 229.68C377.847 244.544 372.187 250.203 359.446 250.203C346.704 250.203 338.921 238.885 325.469 244.544C312.016 250.203 295.038 254.45 288.667 250.915Z" fill="#263238" stroke="#263238" stroke-linecap="round" stroke-linejoin="round"/>
<path d="M264.065 352.309C261.782 360.778 260.974 369.577 261.676 378.321C263.003 391.857 269.905 399.024 299.9 403.536C329.896 408.049 350.601 404.333 367.324 396.37C384.047 388.407 380.257 359.836 375.914 353.285C371.571 346.735 354.848 345.407 327.772 347.796C300.697 350.185 283.974 345.938 274.152 347.531C264.33 349.123 264.065 352.309 264.065 352.309Z" fill="#1B2327"/>
<path d="M257.302 271.565L255.539 307.026C255.539 307.026 252.354 315.265 258.087 320.553C263.821 325.84 271.211 324.279 275.076 317.421C278.941 310.562 278.41 294.689 279.387 288.414C280.364 282.14 272.73 275.674 266.454 273.327C260.179 270.981 257.302 271.565 257.302 271.565Z" fill="white"/>
<path d="M381.467 271.565L383.23 307.026C383.23 307.026 386.362 315.265 380.682 320.553C375.001 325.84 367.547 324.279 363.629 317.421C359.711 310.562 360.295 294.689 359.318 288.414C358.341 282.14 365.986 275.674 372.251 273.327C378.516 270.981 381.467 271.565 381.467 271.565Z" fill="white"/>
<path d="M305.284 218.723C305.284 218.723 305.953 233.481 302.375 239.735C298.796 245.988 287.393 245.606 280.024 245.606C272.655 245.606 261.687 251.637 258.108 257.678C255.409 262.631 253.094 267.785 251.186 273.094L275.777 286.28C275.777 286.28 273.09 291.43 275.777 299.021C278.463 306.612 282.477 309.532 281.362 313.333C280.247 317.134 265.711 344.176 264.373 348.423C263.697 350.389 263.175 352.406 262.812 354.453C262.812 354.453 293.88 360.494 320.924 359.603C347.968 358.711 375.914 353.338 375.914 353.338C375.914 353.338 367.643 338.814 363.173 330.543C358.703 322.273 354.678 313.779 355.57 310.87C356.462 307.961 361.612 300.146 361.389 286.503C361.389 286.503 381.276 281.365 388.656 273.094C388.656 273.094 379.939 251.414 370.998 247.836C362.058 244.258 351.78 247.836 344.453 245.829C337.127 243.822 333.273 240.234 332.158 237.558C331.043 234.883 329.917 222.354 330.363 219.456L305.284 218.723Z" fill="#8E6CED"/>
<path opacity="0.1" d="M282.646 305.062C282.646 305.062 275.214 297.099 283.708 296.038C292.202 294.976 304.413 303.47 317.685 306.655C330.958 309.84 346.885 295.507 353.786 297.63C360.688 299.754 356.441 310.371 349.008 315.148C341.576 319.926 320.871 319.395 309.191 318.864C297.511 318.334 291.671 315.148 282.646 305.062Z" fill="black"/>
<path d="M319.586 273.041C337.074 272.351 342.563 255.522 344.283 245.744C336.989 243.727 333.22 240.17 332.105 237.505C330.99 234.84 329.864 222.301 330.31 219.403L305.284 218.723C305.284 218.723 305.953 233.481 302.375 239.735C300.548 242.92 296.662 244.385 292.319 245.043C293.976 252.061 300.697 273.795 319.586 273.041Z" fill="white"/>
<path opacity="0.3" d="M330.746 229.744C330.3 226.316 330.155 222.856 330.31 219.403L305.284 218.723C305.415 222.525 305.284 226.332 304.891 230.116C309.287 232.993 318.195 236.433 330.746 229.744Z" fill="black"/>
<path d="M294.666 188.273C294.666 188.273 291.481 183.082 288.348 186.245C285.216 189.409 288.348 195.716 290.376 198.646C292.404 201.577 296.237 203.828 297.14 202.702C298.042 201.577 294.666 188.273 294.666 188.273Z" fill="white" stroke="#263238" stroke-linecap="round" stroke-linejoin="round"/>
<path d="M343.593 187.806C343.593 187.806 348.106 181.945 350.591 187.583C353.075 193.221 346.343 201.789 343.158 203.371C339.973 204.953 341.576 199.761 341.799 197.956C342.022 196.151 343.593 187.806 343.593 187.806Z" fill="white" stroke="#263238" stroke-linecap="round" stroke-linejoin="round"/>
<path d="M292.203 168.419C292.203 168.419 293.785 189.845 294.91 200.664C296.036 211.482 300.071 221.187 312.472 224.372C324.874 227.557 334.77 223.246 338.412 216.027C342.054 208.807 344.05 195.058 344.05 183.782V165.733C344.05 165.733 312.026 156.698 292.203 168.419Z" fill="white"/>
<path d="M316.083 199.082C317.229 199.843 318.546 200.309 319.916 200.441C321.351 200.291 322.736 199.827 323.972 199.082" stroke="#263238" stroke-linecap="round" stroke-linejoin="round"/>
<path d="M313.152 206.078C313.152 206.078 318.79 209.688 326.955 205.622" stroke="#263238" stroke-linecap="round" stroke-linejoin="round"/>
<path d="M304.137 187.806C304.137 187.806 308.873 187.137 311.57 188.942" stroke="#263238" stroke-width="2" stroke-linecap="round" stroke-linejoin="round"/>
<path d="M326.233 188.709C326.233 188.709 330.746 186.458 335.025 188.486" stroke="#263238" stroke-width="2" stroke-linecap="round" stroke-linejoin="round"/>
<path d="M293.54 185.757C295.087 183.149 296.296 180.356 297.14 177.444C298.511 173.632 298.937 169.544 298.382 165.531C296.239 166.304 294.17 167.271 292.203 168.419C292.203 168.419 292.797 176.817 293.54 185.757Z" fill="#263238" stroke="#263238" stroke-linecap="round" stroke-linejoin="round"/>
<path d="M344.04 183.963C344.04 183.888 344.04 183.825 344.04 183.75V165.701C344.04 165.701 341.831 165.085 338.231 164.385C338.465 167.888 339.516 178.452 344.04 183.963Z" fill="#263238" stroke="#263238" stroke-linecap="round" stroke-linejoin="round"/>
<path d="M302.332 179.918C302.332 179.918 306.165 174.736 314.277 176.308" stroke="#263238" stroke-linecap="round" stroke-linejoin="round"/>
<path d="M325.776 176.987C327.627 176.31 329.626 176.141 331.564 176.498C333.502 176.854 335.309 177.724 336.798 179.015" stroke="#263238" stroke-linecap="round" stroke-linejoin="round"/>
<path d="M321.667 391.061C321.667 391.061 311.315 391.061 292.733 372.746C274.152 354.432 262.472 339.037 248.138 332.667C233.804 326.296 220.001 340.364 220.797 355.494C221.593 370.623 232.742 391.857 265.923 404.067C299.104 416.277 327.507 411.234 330.427 411.234C333.347 411.234 347.681 418.4 356.176 419.197C360.852 419.697 365.568 419.697 370.244 419.197C370.244 419.197 372.633 419.462 373.961 419.462C375.288 419.462 376.881 417.869 376.881 417.869C376.881 417.869 379.567 418.57 380.629 416.712C381.691 414.854 380.862 414.153 380.862 414.153C380.862 414.153 385.407 414.546 386.999 411.627C388.592 408.707 386.32 408.824 386.32 408.824C386.32 408.824 389.431 408.218 389.357 405.713C389.415 404.78 389.232 403.847 388.826 403.005C388.826 403.005 390.684 400.086 389.888 397.697C389.091 395.308 386.171 394.512 383.251 395.839C380.331 397.166 366.263 396.635 354.848 395.839C343.434 395.043 321.667 391.061 321.667 391.061Z" fill="white"/>
<path d="M317.049 389.999C312.313 388.29 304.052 383.937 292.734 372.778C274.152 354.432 262.472 339.037 248.138 332.667C233.804 326.296 220.001 340.364 220.797 355.494C221.593 370.623 232.742 391.857 265.923 404.067C278.299 408.587 291.182 410.156 304.335 410.909C316.397 405.876 317.611 396.37 317.049 389.999Z" fill="#263238"/>
<path opacity="0.3" d="M312.536 406.286C307.301 404.301 301.185 402.177 294.326 400.086C269.905 392.654 251.854 383.629 239.644 369.827C227.433 356.024 231.68 338.506 231.68 338.506L228.867 335.958C226.165 338.418 224.04 341.446 222.645 344.823C221.25 348.2 220.619 351.844 220.797 355.494C221.593 370.623 232.742 391.857 265.923 404.067C278.298 408.587 291.182 409.521 304.335 410.274C307.456 409.035 310.326 408.815 312.536 406.286Z" fill="black"/>
<path d="M388.826 403.006C388.011 402.639 387.124 402.46 386.231 402.482C385.338 402.504 384.461 402.727 383.666 403.133" fill="white"/>
<path d="M388.826 403.006C388.011 402.639 387.124 402.46 386.231 402.482C385.338 402.504 384.461 402.727 383.666 403.133" stroke="#263238" stroke-linecap="round" stroke-linejoin="round"/>
<path d="M386.32 408.824C384.948 408.326 383.445 408.326 382.073 408.824H386.32Z" fill="white"/>
<path d="M386.32 408.824C384.948 408.326 383.445 408.326 382.073 408.824" stroke="#263238" stroke-linecap="round" stroke-linejoin="round"/>
<path d="M380.862 414.153C379.882 413.416 378.667 413.058 377.443 413.145L380.862 414.153Z" fill="white"/>
<path d="M380.862 414.153C379.882 413.416 378.667 413.058 377.443 413.145" stroke="#263238" stroke-linecap="round" stroke-linejoin="round"/>
<path d="M376.604 417.604C376.604 417.604 375.468 415.555 373.801 415.555L376.604 417.604Z" fill="white"/>
<path d="M376.604 417.604C376.604 417.604 375.468 415.555 373.801 415.555" stroke="#263238" stroke-linecap="round" stroke-linejoin="round"/>
<path d="M309.892 391.061C309.892 391.061 320.245 391.061 338.826 372.746C357.407 354.432 369.087 339.037 383.421 332.667C397.756 326.296 411.559 340.364 410.762 355.494C409.966 370.623 398.817 391.857 365.636 404.067C332.455 416.277 304.052 411.234 301.132 411.234C298.212 411.234 283.878 418.4 275.384 419.197C270.708 419.697 265.991 419.697 261.315 419.197C261.315 419.197 258.926 419.462 257.599 419.462C256.272 419.462 254.679 417.869 254.679 417.869C254.679 417.869 251.993 418.57 250.931 416.712C249.869 414.854 250.697 414.153 250.697 414.153C250.697 414.153 246.142 414.546 244.549 411.627C242.957 408.707 245.229 408.824 245.229 408.824C245.229 408.824 242.118 408.218 242.192 405.713C242.131 404.778 242.318 403.844 242.734 403.005C242.734 403.005 240.876 400.086 241.672 397.697C242.468 395.308 245.388 394.512 248.308 395.839C251.228 397.166 265.297 396.635 276.711 395.839C288.125 395.043 309.892 391.061 309.892 391.061Z" fill="white"/>
<path d="M314.5 389.999C319.225 388.29 327.486 383.937 338.816 372.778C357.397 354.464 369.077 339.069 383.411 332.699C397.745 326.328 411.548 340.396 410.752 355.525C409.956 370.655 398.807 391.889 365.626 404.099C353.247 408.62 340.272 411.3 327.115 412.051C315.063 406.987 313.948 396.37 314.5 389.999Z" fill="#263238"/>
<path opacity="0.3" d="M410.762 355.494C411.315 344.951 404.774 334.939 395.897 331.977L392.011 334.79C392.011 334.79 405.284 342.753 402.098 358.148C398.913 373.543 372.899 389.469 352.194 397.962C341.885 402.003 331.305 405.313 320.531 407.868C322.466 409.631 324.699 411.036 327.125 412.019C340.282 411.268 353.258 408.588 365.636 404.067C398.817 391.857 409.966 370.623 410.762 355.494Z" fill="black"/>
<path d="M242.734 403.006C243.549 402.639 244.435 402.46 245.329 402.482C246.222 402.504 247.098 402.727 247.894 403.133" fill="white"/>
<path d="M242.734 403.006C243.549 402.639 244.435 402.46 245.329 402.482C246.222 402.504 247.098 402.727 247.894 403.133" stroke="#263238" stroke-linecap="round" stroke-linejoin="round"/>
<path d="M245.229 408.824C246.601 408.326 248.104 408.326 249.476 408.824H245.229Z" fill="white"/>
<path d="M245.229 408.824C246.601 408.326 248.104 408.326 249.476 408.824" stroke="#263238" stroke-linecap="round" stroke-linejoin="round"/>
<path d="M250.697 414.153C251.678 413.416 252.892 413.058 254.116 413.145L250.697 414.153Z" fill="white"/>
<path d="M250.697 414.153C251.678 413.416 252.892 413.058 254.116 413.145" stroke="#263238" stroke-linecap="round" stroke-linejoin="round"/>
<path d="M254.955 417.604C254.955 417.604 256.102 415.481 257.758 415.481L254.955 417.604Z" fill="white"/>
<path d="M254.955 417.604C254.955 417.604 256.102 415.481 257.758 415.481" stroke="#263238" stroke-linecap="round" stroke-linejoin="round"/>
<path d="M261.804 309.383C261.804 309.383 257.886 308.598 250.835 312.123C243.785 315.647 237.308 321.922 233.581 324.077C229.854 326.233 227.317 327.613 224.025 324.279C220.733 320.945 213.641 311.73 206.973 311.931C200.305 312.133 197.958 321.338 199.137 323.292C200.315 325.245 202.078 325.649 203.447 324.077C204.817 322.506 206.58 319.374 208.342 320.553C210.105 321.731 209.128 327.22 206.389 328.197C203.649 329.174 196.195 333.877 197.958 336.627C199.721 339.377 209.723 343.093 217.166 343.677C224.609 344.261 233.825 339.175 239.899 338.188C245.972 337.2 262.441 336.064 270.075 329.768C272.274 327.979 273.959 325.64 274.958 322.988C275.958 320.335 276.237 317.466 275.766 314.671" fill="white"/>
<path d="M198.892 332.508C198.892 332.508 198.117 323.886 195.569 323.292C193.021 322.697 192.628 328.6 193.021 334.27C193.413 339.94 196.546 341.521 198.499 339.95C200.453 338.379 198.892 332.508 198.892 332.508Z" fill="white" stroke="#263238" stroke-linecap="round" stroke-linejoin="round"/>
<path d="M205.019 334.939C205.019 334.939 205.762 326.307 203.362 325.277C200.963 324.247 199.54 329.97 198.913 335.629C198.287 341.288 201.111 343.39 203.32 342.201C205.528 341.012 205.019 334.939 205.019 334.939Z" fill="white" stroke="#263238" stroke-linecap="round" stroke-linejoin="round"/>
<path d="M210.307 336.914C210.307 336.914 211.06 328.292 208.65 327.263C206.24 326.233 204.828 331.955 204.212 337.614C203.596 343.273 206.399 345.375 208.608 344.176C210.816 342.976 210.307 336.914 210.307 336.914Z" fill="white" stroke="#263238" stroke-linecap="round" stroke-linejoin="round"/>
<path d="M224.173 343.284C220.615 344.925 216.729 345.731 212.812 345.641C212.585 344.015 212.454 342.377 212.419 340.736C212.419 338.612 216.921 329.768 223.59 330.352" fill="white"/>
<path d="M224.173 343.284C220.615 344.925 216.729 345.731 212.812 345.641C212.585 344.015 212.454 342.377 212.419 340.736C212.419 338.612 216.921 329.768 223.59 330.352" stroke="#263238" stroke-linecap="round" stroke-linejoin="round"/>
<path d="M215.924 340.279C215.924 340.279 218.419 333.527 216.359 331.955C214.299 330.384 211.761 334.567 209.988 338.963C208.215 343.358 210.455 345.928 212.791 345.641C215.127 345.354 215.924 340.279 215.924 340.279Z" fill="white" stroke="#263238" stroke-linecap="round" stroke-linejoin="round"/>
<path d="M376.955 309.383C376.955 309.383 380.873 308.598 387.934 312.123C394.995 315.647 401.451 321.922 405.177 324.077C408.904 326.233 411.453 327.613 414.787 324.279C418.121 320.945 425.171 311.73 431.828 311.931C438.486 312.133 440.843 321.338 439.675 323.292C438.507 325.245 436.734 325.649 435.364 324.077C433.994 322.506 432.179 319.374 430.459 320.553C428.739 321.731 429.673 327.22 432.423 328.197C435.173 329.174 442.616 333.877 440.843 336.627C439.07 339.377 429.089 343.093 421.646 343.677C414.203 344.261 404.986 339.175 398.902 338.188C392.818 337.2 376.371 336.064 368.726 329.768C366.528 327.98 364.843 325.64 363.845 322.987C362.847 320.335 362.571 317.465 363.045 314.671" fill="white"/>
<path d="M439.866 332.508C439.866 332.508 440.652 323.886 443.2 323.292C445.748 322.697 446.141 328.6 445.748 334.27C445.356 339.94 442.223 341.521 440.259 339.95C438.295 338.379 439.866 332.508 439.866 332.508Z" fill="white" stroke="#263238" stroke-linecap="round" stroke-linejoin="round"/>
<path d="M433.75 334.939C433.75 334.939 432.997 326.307 435.396 325.277C437.796 324.247 439.229 329.97 439.845 335.629C440.461 341.288 437.668 343.39 435.449 342.222C433.23 341.054 433.75 334.939 433.75 334.939Z" fill="white" stroke="#263238" stroke-linecap="round" stroke-linejoin="round"/>
<path d="M428.452 336.914C428.452 336.914 427.709 328.292 430.108 327.263C432.508 326.233 433.941 331.955 434.557 337.614C435.173 343.273 432.359 345.375 430.161 344.176C427.964 342.976 428.452 336.914 428.452 336.914Z" fill="white" stroke="#263238" stroke-linecap="round" stroke-linejoin="round"/>
<path d="M414.585 343.284C418.156 344.93 422.057 345.736 425.989 345.641C426.216 344.015 426.347 342.377 426.381 340.736C426.381 338.612 421.869 329.768 415.201 330.352" fill="white"/>
<path d="M414.585 343.284C418.156 344.93 422.057 345.736 425.989 345.641C426.216 344.015 426.347 342.377 426.381 340.736C426.381 338.612 421.869 329.768 415.201 330.352" stroke="#263238" stroke-linecap="round" stroke-linejoin="round"/>
<path d="M422.803 340.279C422.803 340.279 420.308 333.527 422.368 331.955C424.427 330.384 426.955 334.567 428.738 338.963C430.522 343.358 428.271 345.928 425.935 345.641C423.599 345.354 422.803 340.279 422.803 340.279Z" fill="white" stroke="#263238" stroke-linecap="round" stroke-linejoin="round"/>
<path d="M314.128 156.933C311.011 152.738 306.813 149.468 301.982 147.473C294.209 144.437 299.274 138.364 302.65 140.041C304.829 141.111 307.087 142.013 309.403 142.738C309.403 142.738 300.622 135.646 300.293 129.573C299.964 123.5 309.403 131.261 309.403 131.261C309.403 131.261 297.926 115.462 301.642 112.702C305.358 109.942 308.724 115.07 311.092 119.454C312.773 122.731 314.238 126.115 315.477 129.583C315.477 129.583 314.808 118.446 318.524 121.822C322.241 125.198 319.873 142.08 319.873 142.08C319.873 142.08 324.938 128.277 327.305 135.709C329.673 143.141 315.148 155.914 314.128 156.933Z" stroke="#8E6CED" stroke-linecap="round" stroke-linejoin="round"/>
<path d="M314.128 156.933C314.128 156.933 319.533 140.721 308.395 119.773" stroke="#8E6CED" stroke-linecap="round" stroke-linejoin="round"/>
<path d="M295.6 49.3069C291.729 49.2775 287.923 50.3014 284.589 52.269C279.28 55.4542 278.006 49.7952 280.512 48.553C282.115 47.7408 283.655 46.8111 285.12 45.7713C285.12 45.7713 277.008 47.7886 273.27 45.2723C269.533 42.7561 278.335 40.6432 278.335 40.6432C278.335 40.6432 263.842 40.346 263.905 36.9485C263.969 33.551 268.461 33.7633 272.113 34.3791C274.799 34.8493 277.452 35.4912 280.055 36.3008C280.055 36.3008 273.175 31.7248 276.817 30.9922C280.459 30.2597 289.388 39.2312 289.388 39.2312C289.388 39.2312 283.474 30.0686 288.911 31.9796C294.347 33.8907 295.451 48.2558 295.6 49.3069Z" stroke="#8E6CED" stroke-linecap="round" stroke-linejoin="round"/>
<path d="M295.6 49.3069C295.6 49.3069 288.444 38.8808 271.104 36.1204" stroke="#8E6CED" stroke-linecap="round" stroke-linejoin="round"/>
<path d="M362.663 116.386C362.362 116.392 362.063 116.431 361.771 116.503C362.22 116.075 362.56 115.545 362.762 114.958C362.963 114.371 363.021 113.744 362.93 113.131C362.839 112.517 362.602 111.934 362.239 111.431C361.876 110.927 361.397 110.519 360.843 110.239C360.289 109.959 359.676 109.817 359.056 109.823C358.435 109.83 357.825 109.985 357.277 110.277C356.729 110.568 356.259 110.987 355.907 111.497C355.554 112.008 355.33 112.596 355.252 113.212C355.003 112.687 354.639 112.225 354.188 111.86C353.737 111.495 353.209 111.235 352.645 111.101C352.08 110.967 351.492 110.962 350.925 111.085C350.357 111.209 349.825 111.458 349.367 111.815C348.909 112.172 348.538 112.627 348.279 113.147C348.021 113.667 347.883 114.238 347.875 114.819C347.867 115.399 347.989 115.974 348.233 116.501C348.477 117.027 348.836 117.493 349.284 117.862C348.783 118.113 348.343 118.469 347.993 118.907C347.643 119.345 347.392 119.853 347.258 120.397C347.123 120.941 347.108 121.508 347.214 122.058C347.32 122.608 347.544 123.129 347.87 123.584C348.196 124.04 348.618 124.419 349.105 124.696C349.592 124.973 350.133 125.141 350.692 125.188C351.25 125.236 351.812 125.161 352.339 124.971C352.866 124.78 353.345 124.477 353.744 124.084C353.831 125.057 354.284 125.96 355.011 126.613C355.738 127.265 356.686 127.618 357.662 127.601C358.639 127.583 359.573 127.197 360.276 126.518C360.979 125.84 361.4 124.921 361.452 123.946C361.843 124.076 362.251 124.148 362.663 124.158C363.694 124.158 364.682 123.748 365.411 123.02C366.14 122.291 366.549 121.303 366.549 120.272C366.549 119.241 366.14 118.253 365.411 117.524C364.682 116.796 363.694 116.386 362.663 116.386V116.386Z" stroke="#8E6CED" stroke-linecap="round" stroke-linejoin="round"/>
<path d="M356.048 122.13C357.531 122.13 358.734 120.927 358.734 119.444C358.734 117.96 357.531 116.758 356.048 116.758C354.564 116.758 353.361 117.96 353.361 119.444C353.361 120.927 354.564 122.13 356.048 122.13Z" stroke="#8E6CED" stroke-linecap="round" stroke-linejoin="round"/>
<path d="M284.961 146.953C284.656 146.958 284.354 146.998 284.058 147.07C284.51 146.643 284.852 146.113 285.057 145.526C285.261 144.938 285.32 144.311 285.231 143.695C285.141 143.08 284.905 142.495 284.542 141.991C284.179 141.486 283.7 141.076 283.145 140.795C282.59 140.515 281.976 140.372 281.354 140.379C280.732 140.385 280.121 140.542 279.572 140.834C279.024 141.127 278.553 141.547 278.201 142.059C277.849 142.572 277.626 143.161 277.549 143.778C277.169 142.986 276.53 142.347 275.738 141.965C274.946 141.584 274.048 141.483 273.191 141.679C272.334 141.875 271.569 142.357 271.022 143.045C270.475 143.734 270.178 144.587 270.181 145.466C270.181 146.033 270.307 146.592 270.55 147.104C270.792 147.617 271.145 148.069 271.582 148.429C271.081 148.68 270.641 149.036 270.291 149.474C269.941 149.912 269.69 150.42 269.556 150.964C269.421 151.508 269.406 152.074 269.512 152.625C269.618 153.175 269.841 153.696 270.168 154.151C270.494 154.606 270.916 154.986 271.403 155.263C271.89 155.539 272.431 155.707 272.99 155.755C273.548 155.802 274.11 155.728 274.637 155.537C275.164 155.347 275.643 155.044 276.042 154.65C276.145 155.61 276.603 156.497 277.327 157.136C278.051 157.774 278.988 158.119 279.954 158.102C280.919 158.084 281.843 157.706 282.544 157.042C283.244 156.378 283.671 155.475 283.74 154.512C284.132 154.649 284.545 154.721 284.961 154.725C285.991 154.725 286.98 154.315 287.709 153.586C288.437 152.858 288.847 151.869 288.847 150.839C288.847 149.808 288.437 148.82 287.709 148.091C286.98 147.362 285.991 146.953 284.961 146.953V146.953Z" stroke="#8E6CED" stroke-linecap="round" stroke-linejoin="round"/>
<path d="M278.335 152.697C279.819 152.697 281.022 151.494 281.022 150.011C281.022 148.527 279.819 147.324 278.335 147.324C276.852 147.324 275.649 148.527 275.649 150.011C275.649 151.494 276.852 152.697 278.335 152.697Z" stroke="#8E6CED" stroke-linecap="round" stroke-linejoin="round"/>
<path d="M282.837 98.6661C282.647 98.6692 282.459 98.6941 282.274 98.7404C282.513 98.5178 282.704 98.2482 282.833 97.9486C282.963 97.6489 283.03 97.3257 283.028 96.9992C283.057 96.3681 282.838 95.7509 282.416 95.2803C281.994 94.8097 281.405 94.5234 280.775 94.4831C280.144 94.4427 279.523 94.6515 279.045 95.0645C278.567 95.4775 278.27 96.0617 278.218 96.6913C278.063 96.3652 277.837 96.0782 277.556 95.8514C277.275 95.6246 276.946 95.4638 276.595 95.381C276.243 95.2982 275.878 95.2954 275.525 95.3729C275.172 95.4504 274.841 95.6061 274.557 95.8286C274.273 96.051 274.042 96.3346 273.882 96.6583C273.721 96.982 273.636 97.3375 273.632 97.6985C273.628 98.0596 273.705 98.4171 273.857 98.7444C274.01 99.0717 274.234 99.3606 274.513 99.5898C274.114 99.7838 273.777 100.085 273.541 100.461C273.304 100.836 273.178 101.27 273.175 101.713C273.16 102.202 273.294 102.683 273.559 103.094C273.823 103.505 274.205 103.826 274.656 104.016C275.106 104.205 275.603 104.254 276.082 104.156C276.56 104.057 276.998 103.817 277.337 103.465C277.404 104.062 277.692 104.613 278.144 105.009C278.596 105.405 279.179 105.618 279.78 105.606C280.381 105.594 280.956 105.358 281.392 104.944C281.828 104.531 282.093 103.969 282.136 103.369C282.378 103.459 282.633 103.506 282.89 103.507C283.532 103.507 284.148 103.252 284.602 102.798C285.056 102.345 285.311 101.729 285.311 101.087C285.311 100.445 285.056 99.829 284.602 99.3751C284.148 98.9211 283.532 98.6661 282.89 98.6661H282.837Z" stroke="#8E6CED" stroke-linecap="round" stroke-linejoin="round"/>
<path d="M278.718 102.244C279.644 102.244 280.395 101.493 280.395 100.567C280.395 99.6401 279.644 98.889 278.718 98.889C277.791 98.889 277.04 99.6401 277.04 100.567C277.04 101.493 277.791 102.244 278.718 102.244Z" stroke="#8E6CED" stroke-linecap="round" stroke-linejoin="round"/>
<path d="M260.954 172.795C260.768 172.798 260.582 172.823 260.402 172.869C260.637 172.645 260.825 172.375 260.952 172.075C261.08 171.776 261.146 171.454 261.145 171.128C261.142 170.518 260.908 169.931 260.489 169.487C260.07 169.042 259.499 168.773 258.889 168.734C258.28 168.695 257.678 168.889 257.206 169.276C256.734 169.663 256.427 170.215 256.346 170.82C256.189 170.497 255.962 170.212 255.681 169.988C255.401 169.764 255.073 169.605 254.723 169.523C254.373 169.442 254.009 169.44 253.658 169.517C253.307 169.594 252.977 169.749 252.694 169.97C252.411 170.191 252.18 170.473 252.02 170.795C251.859 171.116 251.773 171.47 251.766 171.829C251.76 172.188 251.835 172.545 251.984 172.872C252.133 173.199 252.354 173.488 252.63 173.719C252.319 173.876 252.047 174.098 251.83 174.37C251.614 174.642 251.459 174.957 251.376 175.294C251.293 175.632 251.284 175.983 251.35 176.325C251.416 176.666 251.554 176.989 251.756 177.272C251.958 177.554 252.219 177.79 252.521 177.962C252.823 178.135 253.158 178.24 253.504 178.27C253.851 178.301 254.199 178.256 254.527 178.14C254.854 178.023 255.152 177.837 255.401 177.594C255.468 178.191 255.755 178.742 256.207 179.138C256.659 179.534 257.243 179.747 257.844 179.735C258.445 179.723 259.02 179.487 259.456 179.073C259.891 178.66 260.157 178.098 260.2 177.499C260.442 177.587 260.697 177.634 260.954 177.637C261.596 177.637 262.212 177.381 262.666 176.928C263.12 176.474 263.375 175.858 263.375 175.216C263.375 174.574 263.12 173.958 262.666 173.504C262.212 173.05 261.596 172.795 260.954 172.795V172.795Z" stroke="#8E6CED" stroke-linecap="round" stroke-linejoin="round"/>
<path d="M256.834 176.373C257.76 176.373 258.512 175.622 258.512 174.696C258.512 173.769 257.76 173.018 256.834 173.018C255.907 173.018 255.156 173.769 255.156 174.696C255.156 175.622 255.907 176.373 256.834 176.373Z" stroke="#8E6CED" stroke-linecap="round" stroke-linejoin="round"/>
<path d="M307.949 58.4376C307.762 58.4407 307.577 58.4657 307.396 58.5119C307.675 58.2456 307.885 57.9166 308.01 57.5523C308.134 57.1881 308.17 56.7993 308.114 56.4184C308.057 56.0375 307.911 55.6757 307.686 55.3632C307.461 55.0507 307.164 54.7967 306.821 54.6223C306.478 54.448 306.097 54.3584 305.712 54.3611C305.327 54.3639 304.949 54.4588 304.608 54.638C304.267 54.8172 303.974 55.0754 303.754 55.391C303.533 55.7067 303.391 56.0705 303.34 56.4522C303.105 55.956 302.706 55.5554 302.211 55.3165C301.717 55.0777 301.155 55.015 300.62 55.1389C300.085 55.2628 299.608 55.5658 299.268 55.9977C298.929 56.4297 298.747 56.9646 298.753 57.5139C298.753 57.8655 298.831 58.2127 298.982 58.5305C299.132 58.8482 299.352 59.1284 299.624 59.3507C299.134 59.5898 298.74 59.9881 298.505 60.4805C298.271 60.9728 298.21 61.5301 298.333 62.0613C298.457 62.5925 298.756 63.0662 299.184 63.405C299.611 63.7438 300.141 63.9277 300.686 63.9267C301 63.927 301.31 63.8652 301.6 63.7449C301.89 63.6247 302.153 63.4483 302.374 63.2259C302.44 63.8231 302.727 64.3741 303.178 64.7709C303.629 65.1678 304.212 65.3819 304.813 65.3713C305.413 65.3606 305.988 65.126 306.425 64.7135C306.862 64.3009 307.129 63.7401 307.173 63.141C307.416 63.2246 307.671 63.2711 307.927 63.279C308.569 63.279 309.185 63.024 309.639 62.57C310.093 62.116 310.348 61.5003 310.348 60.8583C310.348 60.2163 310.093 59.6006 309.639 59.1466C309.185 58.6926 308.569 58.4376 307.927 58.4376H307.949Z" stroke="#8E6CED" stroke-linecap="round" stroke-linejoin="round"/>
<path d="M303.829 62.0157C304.756 62.0157 305.507 61.2646 305.507 60.3382C305.507 59.4117 304.756 58.6606 303.829 58.6606C302.902 58.6606 302.151 59.4117 302.151 60.3382C302.151 61.2646 302.902 62.0157 303.829 62.0157Z" stroke="#8E6CED" stroke-linecap="round" stroke-linejoin="round"/>
<path d="M359.817 73.7157C359.627 73.7188 359.438 73.7438 359.254 73.7901C359.493 73.5675 359.684 73.2979 359.813 72.9983C359.943 72.6986 360.009 72.3754 360.008 72.0488C360.037 71.4178 359.817 70.8005 359.396 70.33C358.974 69.8594 358.385 69.5731 357.754 69.5328C357.124 69.4924 356.503 69.7012 356.025 70.1142C355.547 70.5272 355.25 71.1113 355.198 71.741C355.043 71.4149 354.817 71.1278 354.536 70.9011C354.255 70.6743 353.926 70.5135 353.575 70.4307C353.223 70.3479 352.858 70.3451 352.505 70.4226C352.152 70.5 351.821 70.6558 351.537 70.8783C351.252 71.1007 351.022 71.3843 350.861 71.708C350.701 72.0316 350.616 72.3872 350.612 72.7482C350.608 73.1093 350.685 73.4667 350.837 73.7941C350.989 74.1214 351.214 74.4103 351.493 74.6394C351.094 74.8335 350.757 75.1351 350.521 75.5103C350.284 75.8856 350.158 76.3194 350.155 76.7629C350.156 77.2385 350.297 77.7033 350.56 78.0992C350.823 78.4952 351.198 78.8048 351.636 78.9894C352.074 79.174 352.557 79.2255 353.025 79.1373C353.492 79.049 353.923 78.8251 354.264 78.4935C354.331 79.0907 354.619 79.6413 355.071 80.0374C355.523 80.4335 356.106 80.6465 356.707 80.6345C357.308 80.6225 357.883 80.3865 358.319 79.9728C358.755 79.559 359.02 78.9973 359.063 78.3979C359.305 78.4875 359.56 78.5342 359.817 78.536C360.459 78.536 361.075 78.2809 361.529 77.8269C361.983 77.373 362.238 76.7572 362.238 76.1152C362.238 75.4732 361.983 74.8575 361.529 74.4035C361.075 73.9495 360.459 73.6945 359.817 73.6945V73.7157Z" stroke="#8E6CED" stroke-linecap="round" stroke-linejoin="round"/>
<path d="M355.698 77.2938C356.624 77.2938 357.375 76.5427 357.375 75.6162C357.375 74.6898 356.624 73.9387 355.698 73.9387C354.771 73.9387 354.02 74.6898 354.02 75.6162C354.02 76.5427 354.771 77.2938 355.698 77.2938Z" stroke="#8E6CED" stroke-linecap="round" stroke-linejoin="round"/>
<path d="M328.303 104.845C329.655 101.173 331.313 97.6215 333.262 94.2281C335.736 90.3316 344.58 89.6309 344.58 89.6309C344.58 89.6309 339.983 97.0629 337.859 100.598C335.736 104.134 328.303 104.845 328.303 104.845Z" stroke="#8E6CED" stroke-linecap="round" stroke-linejoin="round"/>
<path d="M328.303 104.845C328.303 104.845 335.024 95.2899 342.818 90.6926" stroke="#8E6CED" stroke-linecap="round" stroke-linejoin="round"/>
<path d="M226.233 139.287C230.05 138.423 233.932 137.88 237.839 137.663C242.447 137.663 247.873 144.649 247.873 144.649C247.873 144.649 239.124 144.84 235.004 144.989C230.884 145.137 226.233 139.287 226.233 139.287Z" stroke="#8E6CED" stroke-linecap="round" stroke-linejoin="round"/>
<path d="M226.233 139.287C226.233 139.287 237.913 139.723 246.015 143.736" stroke="#8E6CED" stroke-linecap="round" stroke-linejoin="round"/>
<path d="M383.761 131.208C383.761 131.208 382.04 123.213 378.292 123.68C374.544 124.147 377.57 133.554 377.57 133.554C377.57 133.554 372.644 134.956 372.877 137.068C373.111 139.181 376.615 137.419 379.651 136.952C379.651 136.952 378.43 142.441 381.711 143.322C384.992 144.203 384.366 136.081 384.366 136.081C384.366 136.081 391.692 137.578 393.752 134.297C396.141 130.528 386.808 130.73 383.761 131.208Z" stroke="#8E6CED" stroke-linecap="round" stroke-linejoin="round"/>
<path d="M383.761 128.745C383.761 128.745 376.923 139.139 377.326 140.232C377.73 141.326 385.13 131.208 386.362 129.976C387.594 128.745 385.406 126.961 383.761 128.745Z" fill="#263238" stroke="#8E6CED" stroke-linecap="round" stroke-linejoin="round"/>
<path d="M386.362 129.976C386.362 129.976 390.875 125.867 393.062 127.513C395.249 129.159 392.659 129.424 392.383 128.882" stroke="#8E6CED" stroke-linecap="round" stroke-linejoin="round"/>
<path d="M384.175 127.916C384.175 127.916 385.406 121.896 384.037 120.665C382.667 119.433 382.115 121.079 383.081 122.035" stroke="#8E6CED" stroke-linecap="round" stroke-linejoin="round"/>
<path d="M318.747 81.0203C315.095 75.7117 309.446 80.8823 307.928 82.4642C306.399 80.8823 300.75 75.6905 297.097 81.0203C293.116 86.8066 307.79 98.8677 307.928 98.8146C308.066 98.7616 322.708 86.796 318.747 81.0203Z" stroke="#8E6CED" stroke-linecap="round" stroke-linejoin="round"/>
<path d="M268.068 60.3169C264.288 58.066 262.281 62.8756 261.782 64.2771C260.391 63.7356 255.411 62.1537 254.679 66.4642C253.872 71.1676 266.358 74.459 266.433 74.3846C266.507 74.3103 272.166 62.7588 268.068 60.3169Z" stroke="#8E6CED" stroke-linecap="round" stroke-linejoin="round"/>
<path d="M232.827 104.102C228.442 103.773 228.782 108.975 228.973 110.472C227.486 110.61 222.326 111.385 223.589 115.59C224.959 120.166 237.616 117.533 237.637 117.437C237.658 117.342 237.584 104.463 232.827 104.102Z" stroke="#8E6CED" stroke-linecap="round" stroke-linejoin="round"/>
<path d="M372.017 172.88C375.5 170.194 371.773 166.51 370.648 165.575C371.709 164.514 374.99 160.458 371.242 158.143C367.165 155.648 359.499 166.053 359.562 166.138C359.626 166.223 368.237 175.789 372.017 172.88Z" stroke="#8E6CED" stroke-linecap="round" stroke-linejoin="round"/>
<path d="M351.716 101.427C354.095 99.2187 356.755 97.3339 359.626 95.8207" stroke="#8E6CED" stroke-linecap="round" stroke-linejoin="round"/>
<path d="M332.02 144.129C332.02 144.129 334.504 122.99 346.141 107.595" stroke="#8E6CED" stroke-linecap="round" stroke-linejoin="round"/>
<path d="M300.633 153.1C301.636 154.654 302.544 156.267 303.351 157.931" stroke="#8E6CED" stroke-linecap="round" stroke-linejoin="round"/>
<path d="M261.103 128.012C262.631 129.233 264.349 130.194 266.189 130.857C274.587 134.042 286.309 137.228 295.43 146.592" stroke="#8E6CED" stroke-linecap="round" stroke-linejoin="round"/>
<path d="M257.163 118.117C256.75 120.344 257.125 122.645 258.225 124.625" stroke="#8E6CED" stroke-linecap="round" stroke-linejoin="round"/>
<path d="M355.284 62.9711C357.953 60.5457 360.146 57.6436 361.75 54.4137" stroke="#8E6CED" stroke-linecap="round" stroke-linejoin="round"/>
<path d="M323.823 93.9945C325.552 89.65 327.961 85.6076 330.958 82.0183C337 74.8305 343.508 71.4011 349.295 67.5259" stroke="#8E6CED" stroke-linecap="round" stroke-linejoin="round"/>
<path d="M320.34 111.216C320.339 108.722 320.57 106.234 321.03 103.784" stroke="#8E6CED" stroke-linecap="round" stroke-linejoin="round"/>
<path d="M353.447 154.3C357.864 152.07 364.065 150.393 372.368 151.03C393.073 152.622 402.629 158.993 411.654 146.783" stroke="#8E6CED" stroke-linecap="round" stroke-linejoin="round"/>
<path d="M344.23 162.178C345.184 160.705 346.342 159.375 347.671 158.228" stroke="#8E6CED" stroke-linecap="round" stroke-linejoin="round"/>
<path d="M388.252 106.279H385.417C383.708 106.279 380.586 104.293 382.009 102.584C383.432 100.874 388.252 104.856 388.252 104.856L384.005 91.51L393.094 87.2632L396.789 99.7596C396.789 99.7596 391.108 97.4875 390.535 100.036C389.962 102.584 394.23 102.308 396.789 101.172" stroke="#8E6CED" stroke-linecap="round" stroke-linejoin="round"/>
<path d="M384.844 94.3449L393.646 90.0874" stroke="#8E6CED" stroke-linecap="round" stroke-linejoin="round"/>
<path d="M407.779 102.032H405.91C404.774 102.032 402.724 100.715 403.648 99.5899C404.572 98.4644 407.779 101.087 407.779 101.087L404.965 92.264L410.975 89.4504L413.417 97.7106C413.417 97.7106 409.658 96.2136 409.286 97.9017C408.915 99.5899 411.728 99.3987 413.417 98.6449" stroke="#8E6CED" stroke-linecap="round" stroke-linejoin="round"/>
<path d="M405.527 94.1431L411.346 91.3296" stroke="#8E6CED" stroke-linecap="round" stroke-linejoin="round"/>
<path d="M242.67 92.4762H240.801C239.665 92.4762 237.616 91.1597 238.539 90.0343C239.463 88.9089 242.67 91.5313 242.67 91.5313L239.856 82.7084L245.866 79.8949L248.308 88.1551C248.308 88.1551 244.549 86.658 244.177 88.3462C243.806 90.0343 246.62 89.8432 248.308 89.0894" stroke="#8E6CED" stroke-linecap="round" stroke-linejoin="round"/>
<path d="M240.419 84.5877L246.238 81.7742" stroke="#8E6CED" stroke-linecap="round" stroke-linejoin="round"/>
<path d="M420.679 122.321C420.679 122.321 428.367 120.007 427.146 115.462C426.084 111.619 422.495 115.462 422.495 115.462C422.495 115.462 424.725 111.853 421.433 110.154C418.142 108.455 417.186 113.105 417.186 113.105C417.186 113.105 416.528 108.795 413.534 110.78C410.539 112.766 416.857 123.404 416.857 123.404L420.679 122.321Z" stroke="#8E6CED" stroke-linecap="round" stroke-linejoin="round"/>
<path d="M410.826 138.725C413.832 134.085 415.866 128.884 416.804 123.436L420.074 113.328" stroke="#8E6CED" stroke-linecap="round" stroke-linejoin="round"/>
<path d="M414.808 130.751C415.126 128.659 414.653 126.524 413.48 124.763C412.308 122.794 410.856 121.006 409.169 119.454C409.169 119.454 408.171 123.107 408.83 125.432C409.488 127.757 414.808 130.751 414.808 130.751Z" stroke="#8E6CED" stroke-linecap="round" stroke-linejoin="round"/>
<path d="M413.82 133.405C415.112 132.296 416.769 131.706 418.471 131.749H424.778C424.778 131.749 416.804 138.056 413.82 133.405Z" stroke="#8E6CED" stroke-linecap="round" stroke-linejoin="round"/>
<path d="M415.785 115.038L416.783 122.894L422.357 118.754" stroke="#8E6CED" stroke-linecap="round" stroke-linejoin="round"/>
<path d="M241.736 156.583C241.736 156.583 236.703 150.34 232.955 153.175C229.769 155.585 234.706 157.485 234.706 157.485C234.706 157.485 230.512 156.784 230.226 160.49C229.939 164.195 234.547 163.24 234.547 163.24C234.547 163.24 230.799 165.48 233.772 167.486C236.745 169.493 244.22 159.651 244.22 159.651L241.736 156.583Z" stroke="#8E6CED" stroke-linecap="round" stroke-linejoin="round"/>
<path d="M260.625 159.502C255.199 158.46 249.617 158.533 244.22 159.715L233.602 160.5" stroke="#8E6CED" stroke-linecap="round" stroke-linejoin="round"/>
<path d="M251.737 158.812C249.681 159.305 247.883 160.547 246.694 162.295C245.311 164.124 244.203 166.145 243.402 168.293C243.402 168.293 247.161 167.847 249.062 166.35C250.962 164.853 251.737 158.812 251.737 158.812Z" stroke="#8E6CED" stroke-linecap="round" stroke-linejoin="round"/>
<path d="M254.572 158.738C253.056 157.961 251.883 156.647 251.281 155.054C250.166 152.283 248.913 149.204 248.913 149.204C248.913 149.204 257.758 154.215 254.572 158.738Z" stroke="#8E6CED" stroke-linecap="round" stroke-linejoin="round"/>
<path d="M236.819 163.824L243.721 159.938L237.786 156.339" stroke="#8E6CED" stroke-linecap="round" stroke-linejoin="round"/>
<path d="M293.094 129.891C292.777 129.166 292.422 128.457 292.032 127.768C290.132 124.275 287.339 121.206 282.954 121.833C275.521 122.894 289.325 134.573 291.809 134.924C294.867 135.359 294.082 132.248 293.094 129.891Z" fill="#8E6CED"/>
<path d="M287.435 86.0104C287.053 85.1079 286.649 84.3223 286.373 83.887C284.462 80.3833 281.68 77.3256 277.295 77.952C269.862 79.0137 283.666 90.6926 286.15 91.0429C289.208 91.4783 288.422 88.3568 287.435 86.0104Z" fill="#8E6CED"/>
<path d="M362.143 134.202C361.198 134.478 360.369 134.796 359.913 134.977C356.218 136.463 352.852 138.884 352.969 143.311C353.171 150.818 366.358 138.449 366.995 136.017C367.77 133.076 364.585 133.512 362.143 134.202Z" fill="#8E6CED"/>
<path d="M371.699 94.5678C370.943 94.7872 370.198 95.0459 369.469 95.3429C365.774 96.8293 362.408 99.2393 362.525 103.667C362.727 111.173 375.914 98.804 376.551 96.3833C377.326 93.4318 374.141 93.8565 371.699 94.5678Z" fill="#8E6CED"/>
<path d="M426.115 92.1047C425.362 92.3206 424.621 92.5794 423.896 92.8798C420.201 94.3662 416.835 96.7763 416.952 101.204C417.154 108.71 430.341 96.341 430.978 93.9203C431.754 90.9368 428.568 91.3615 426.115 92.1047Z" fill="#8E6CED"/>
<path d="M276.902 128.203C276.754 127.841 276.588 127.486 276.403 127.141C275.479 125.443 274.12 123.956 271.975 124.243C268.344 124.763 275.086 130.464 276.297 130.613C277.773 130.868 277.39 129.35 276.902 128.203Z" fill="#8E6CED"/>
<path d="M250.983 100.662C250.622 100.354 250.261 100.099 250.07 99.9614C248.467 98.8466 246.588 98.1246 244.814 99.3562C241.799 101.48 250.378 103.518 251.536 103.136C252.916 102.658 251.928 101.48 250.983 100.662Z" fill="#8E6CED"/>
<path d="M289.293 113.689C289.146 113.327 288.98 112.972 288.794 112.628C287.86 110.918 286.501 109.443 284.366 109.729C280.735 110.249 287.477 115.94 288.688 116.099C290.153 116.365 289.771 114.836 289.293 113.689Z" fill="#8E6CED"/>
<path d="M226.785 89.7795C226.64 89.4161 226.473 89.0616 226.286 88.7178C225.362 87.0084 224.003 85.5326 221.859 85.8193C218.227 86.3395 224.97 92.041 226.18 92.1896C227.656 92.4444 227.274 90.9262 226.785 89.7795Z" fill="#8E6CED"/>
<path d="M243.678 126.971C243.336 126.764 242.981 126.576 242.617 126.409C240.875 125.559 238.9 125.135 237.308 126.621C234.653 129.159 243.455 129.881 244.538 129.318C245.94 128.638 244.74 127.619 243.678 126.971Z" fill="#8E6CED"/>
<path d="M286.108 71.932C285.96 71.5696 285.793 71.2152 285.608 70.8703C284.674 69.1715 283.315 67.6851 281.181 67.9718C277.55 68.492 284.292 74.1935 285.502 74.3421C286.968 74.5969 286.585 73.0787 286.108 71.932Z" fill="#8E6CED"/>
<path d="M326.042 115.08C325.755 115.452 325.511 115.813 325.383 116.014C324.322 117.65 323.674 119.571 324.98 121.323C327.189 124.253 328.93 115.6 328.495 114.454C327.964 113.031 326.817 114.103 326.042 115.08Z" fill="#8E6CED"/>
<path d="M343.031 137.376C342.744 137.748 342.5 138.109 342.372 138.31C341.31 139.946 340.663 141.867 341.969 143.619C344.177 146.549 345.919 137.896 345.483 136.75C344.952 135.327 343.806 136.399 343.031 137.376Z" fill="#8E6CED"/>
<path d="M366.687 79.364C366.327 79.4619 365.973 79.5788 365.625 79.7144C363.81 80.4045 362.143 81.5511 362.153 83.7064C362.153 87.3693 368.736 81.4768 369.076 80.2983C369.448 78.8119 367.898 78.9818 366.687 79.364Z" fill="#8E6CED"/>
<path d="M325.681 66.0182C325.341 66.3474 325.044 66.6659 324.884 66.8464C323.6 68.3009 322.655 70.0952 323.684 71.9957C325.415 75.1809 328.452 66.9419 328.208 65.7528C327.9 64.2876 326.594 65.1689 325.681 66.0182Z" fill="#8E6CED"/>
<path d="M252.47 140.944C252.746 141.208 253.037 141.456 253.341 141.687C254.88 142.887 256.728 143.704 258.565 142.568C261.676 140.646 253.256 138.119 252.045 138.449C250.612 138.82 251.567 140.062 252.47 140.944Z" fill="#8E6CED"/>
<path d="M385.13 79.7568C384.663 79.7568 384.228 79.7568 383.983 79.7568C382.04 79.8736 380.108 80.4682 379.471 82.5279C378.409 86.0316 386.425 82.3687 387.094 81.3494C387.912 80.1072 386.383 79.8099 385.13 79.7568Z" fill="#8E6CED"/>
<path d="M23.1868 276H23.1127C23.0142 275.984 22.9208 275.945 22.8394 275.888C22.7581 275.83 22.6911 275.754 22.6434 275.667L0.045907 232.499C-0.0153023 232.344 -0.0153023 232.172 0.045907 232.018C0.0983965 231.863 0.20911 231.735 0.354617 231.66L2.91073 230.427C3.05465 230.367 3.21591 230.363 3.36213 230.417C3.50836 230.471 3.62873 230.579 3.69907 230.718C3.76941 230.857 3.78453 231.017 3.74137 231.167C3.69821 231.316 3.59998 231.444 3.46641 231.524L1.47831 232.523L23.372 274.372L60.6271 234.731C60.6973 234.655 60.7869 234.6 60.8864 234.571L106.291 220.572L83.8297 184.804L82.175 184.928C82.0936 184.936 82.0112 184.928 81.933 184.904C81.8548 184.879 81.7823 184.84 81.72 184.786C81.6576 184.733 81.6067 184.668 81.5703 184.595C81.5339 184.522 81.5128 184.442 81.5082 184.36C81.498 184.199 81.5518 184.039 81.6581 183.917C81.7644 183.795 81.9146 183.719 82.0762 183.706L84.1137 183.546C84.2256 183.535 84.3384 183.555 84.439 183.606C84.5396 183.656 84.6237 183.734 84.6817 183.83L107.761 220.621C107.802 220.706 107.824 220.799 107.824 220.893C107.824 220.987 107.802 221.08 107.761 221.164C107.727 221.253 107.675 221.333 107.606 221.4C107.538 221.466 107.456 221.516 107.366 221.546L61.3433 235.718L23.6437 275.827C23.5201 275.942 23.3559 276.005 23.1868 276Z" fill="white"/>
<path d="M23.6809 270.117H23.5821C23.4902 270.1 23.4033 270.063 23.3284 270.007C23.2534 269.951 23.1923 269.879 23.1499 269.796L1.54026 228.589C1.47207 228.463 1.45077 228.317 1.48016 228.177C1.50956 228.037 1.58774 227.912 1.70079 227.824C1.79957 227.738 11.9499 219.437 16.7411 207.942C21.1618 197.335 28.7685 192.069 37.0913 193.845C37.1776 193.863 37.2588 193.901 37.3292 193.954C37.3996 194.007 37.4575 194.075 37.4988 194.153L57.639 230.451C57.697 230.556 57.7235 230.675 57.7153 230.794C57.707 230.913 57.6644 231.027 57.5925 231.122C57.5206 231.217 57.4225 231.29 57.3102 231.331C57.1979 231.371 57.0762 231.379 56.9598 231.352C56.6264 231.278 48.6864 229.637 46.8959 237.272C44.9695 245.437 36.5356 255.945 32.4853 260.99L32.0408 261.557C29.6183 264.564 26.9635 267.376 24.1008 269.969C23.9835 270.067 23.8342 270.12 23.6809 270.117ZM2.84919 228.441L23.8414 268.501C26.4284 266.1 28.8385 263.515 31.0529 260.768L31.4975 260.2C35.4983 255.267 43.8458 244.869 45.6611 236.976C47.2787 230.118 53.2924 229.773 55.9349 229.97L36.5479 194.98C28.966 193.512 22.0015 198.507 17.8648 208.411C13.4935 218.895 4.78788 226.776 2.84919 228.441Z" fill="white"/>
<path d="M57.0828 231.315C56.9729 231.316 56.8647 231.288 56.7692 231.234C56.6737 231.18 56.5944 231.101 56.5394 231.006L36.3992 194.696C36.3565 194.559 36.3565 194.413 36.3992 194.277C37.8563 187.493 45.3148 184.41 60.5774 184.41C73.9013 184.41 79.2975 180.179 79.3469 180.142C79.4155 180.087 79.4948 180.046 79.5797 180.023C79.6647 180 79.7536 179.994 79.8408 180.006C79.9267 180.022 80.0083 180.055 80.0806 180.104C80.1529 180.153 80.2142 180.216 80.2607 180.29L102.858 217.082C102.94 217.219 102.966 217.382 102.931 217.537C102.897 217.693 102.805 217.83 102.673 217.92C102.611 217.92 101.018 218.981 91.7076 221.916C85.2494 223.964 78.1244 223.68 72.3824 223.458C70.1039 223.33 67.8199 223.33 65.5414 223.458C60.1328 223.902 57.7496 230.858 57.7249 230.858C57.6869 230.972 57.6164 231.073 57.5221 231.147C57.4277 231.222 57.3137 231.267 57.1939 231.278L57.0828 231.315ZM37.597 194.314L56.9963 229.292C58.0089 227.072 60.6268 222.644 65.3809 222.249C67.7088 222.121 70.0421 222.121 72.3701 222.249C78.0009 222.471 85.0148 222.743 91.2754 220.769C94.71 219.764 98.0863 218.57 101.389 217.193L79.4951 181.524C77.7663 182.646 72.0243 185.668 60.5156 185.668C46.1174 185.68 39.0294 188.393 37.597 194.314Z" fill="white"/>
<path d="M39.4 255.39C39.2622 255.393 39.1275 255.349 39.0172 255.267C38.8892 255.163 38.8071 255.013 38.7886 254.849C38.7702 254.685 38.8168 254.521 38.9184 254.391C41.3017 251.406 43.191 248.767 44.858 246.436C46.6968 243.596 48.8508 240.973 51.2792 238.616C53.4043 236.793 55.7732 235.273 58.3178 234.102C58.3914 234.07 58.4708 234.052 58.5513 234.051C58.6318 234.049 58.7118 234.064 58.7865 234.094C58.8613 234.124 58.9293 234.168 58.9867 234.225C59.044 234.281 59.0894 234.349 59.1204 234.423C59.1831 234.574 59.1847 234.743 59.1248 234.895C59.0648 235.047 58.9482 235.169 58.7993 235.237C56.3733 236.363 54.1131 237.815 52.0818 239.554C49.7425 241.849 47.6713 244.402 45.9076 247.164C44.2282 249.507 42.3266 252.097 39.9187 255.168C39.8561 255.244 39.7764 255.303 39.6862 255.342C39.596 255.38 39.4979 255.397 39.4 255.39Z" fill="white"/>
<path d="M62.4792 232.338C62.3433 232.34 62.2115 232.292 62.1088 232.203C61.9797 232.103 61.8955 231.956 61.8747 231.794C61.8538 231.632 61.8981 231.469 61.9976 231.339C64.3297 228.519 67.6417 226.682 71.2713 226.196L73.4816 226.023C82.955 225.504 92.2768 223.42 101.068 219.857C101.222 219.798 101.393 219.802 101.543 219.869C101.694 219.936 101.812 220.061 101.871 220.214C101.93 220.368 101.925 220.539 101.858 220.689C101.791 220.84 101.666 220.957 101.512 221.016C92.6069 224.61 83.1705 226.719 73.5804 227.257L71.3824 227.43C68.0949 227.889 65.0968 229.556 62.9732 232.104C62.9126 232.176 62.8371 232.235 62.7519 232.275C62.6666 232.316 62.5736 232.337 62.4792 232.338Z" fill="white"/>
<path d="M9.44292 234.3C9.32242 234.3 9.20432 234.266 9.10317 234.201C9.00203 234.135 8.92225 234.042 8.87368 233.931C8.8251 233.821 8.80986 233.699 8.82982 233.581C8.84978 233.462 8.90408 233.352 8.98602 233.263C13.1838 228.444 17.1006 223.387 20.717 218.118C27.6938 208.177 32.8184 204.119 38.4122 204.119C38.576 204.119 38.733 204.184 38.8488 204.3C38.9646 204.415 39.0296 204.572 39.0296 204.736C39.0296 204.899 38.9646 205.056 38.8488 205.172C38.733 205.287 38.576 205.352 38.4122 205.352C33.2753 205.352 28.4347 209.262 21.7296 218.833C18.0761 224.14 14.1266 229.238 9.8998 234.102C9.84153 234.165 9.77081 234.215 9.69215 234.249C9.61349 234.283 9.52861 234.3 9.44292 234.3Z" fill="white"/>
<path d="M13.3695 240.676C13.2144 240.677 13.0645 240.62 12.9497 240.516C12.8922 240.459 12.8465 240.392 12.8153 240.318C12.7841 240.244 12.7681 240.164 12.7681 240.084C12.7681 240.003 12.7841 239.924 12.8153 239.85C12.8465 239.776 12.8922 239.708 12.9497 239.652C17.1435 234.822 21.0641 229.761 24.693 224.494C31.6575 214.553 36.7821 210.495 42.3882 210.495C42.551 210.498 42.7062 210.564 42.8213 210.679C42.9364 210.794 43.0025 210.949 43.0057 211.112C43.0057 211.275 42.9406 211.432 42.8248 211.548C42.709 211.664 42.552 211.729 42.3882 211.729C37.239 211.729 32.4107 215.638 25.6932 225.209C22.0397 230.517 18.0902 235.614 13.8635 240.479C13.8011 240.546 13.7243 240.599 13.6389 240.633C13.5534 240.667 13.4614 240.682 13.3695 240.676Z" fill="white"/>
<path d="M17.2965 247.053C17.1784 247.051 17.0631 247.016 16.9644 246.951C16.8657 246.886 16.7876 246.795 16.7395 246.687C16.6914 246.579 16.6753 246.46 16.693 246.343C16.7108 246.227 16.7617 246.117 16.8396 246.029C21.0319 241.201 24.9524 236.145 28.583 230.883C35.5474 220.93 40.672 216.872 46.2782 216.872C46.441 216.875 46.5962 216.941 46.7113 217.056C46.8264 217.171 46.8925 217.326 46.8956 217.489C46.8956 217.652 46.8306 217.809 46.7148 217.925C46.599 218.04 46.4419 218.105 46.2782 218.105C41.1289 218.105 36.3007 222.015 29.5955 231.586C25.9359 236.892 21.9824 241.99 17.7534 246.855C17.6956 246.919 17.625 246.969 17.5462 247.003C17.4675 247.037 17.3823 247.054 17.2965 247.053Z" fill="white"/>
<path d="M21.2234 253.429C21.1482 253.43 21.0735 253.417 21.0035 253.39C20.9336 253.362 20.8698 253.321 20.8159 253.269C20.7584 253.212 20.7127 253.145 20.6815 253.071C20.6503 252.997 20.6343 252.917 20.6343 252.837C20.6343 252.756 20.6503 252.677 20.6815 252.603C20.7127 252.529 20.7584 252.461 20.8159 252.405C25.0128 247.582 28.9335 242.525 32.5592 237.259C39.5237 227.306 44.6483 223.261 50.2545 223.261C50.4182 223.261 50.5752 223.326 50.691 223.441C50.8068 223.557 50.8719 223.714 50.8719 223.877C50.8719 224.041 50.8068 224.198 50.691 224.313C50.5752 224.429 50.4182 224.494 50.2545 224.494C45.1052 224.494 40.2769 228.391 33.5718 237.962C29.921 243.275 25.9671 248.373 21.7297 253.232C21.6665 253.302 21.5879 253.356 21.5 253.39C21.412 253.424 21.3173 253.438 21.2234 253.429Z" fill="white"/>
<path d="M45.2906 202.417H45.0806C44.9288 202.358 44.8054 202.244 44.7363 202.097C44.6672 201.949 44.6579 201.781 44.7102 201.627C44.7102 201.566 46.9205 195.818 54.5889 195.818C68.9748 195.818 78.3101 193.598 79.545 189.861C79.5974 189.697 79.7127 189.561 79.8655 189.483C79.9412 189.444 80.0238 189.42 80.1086 189.413C80.1935 189.406 80.2789 189.416 80.36 189.442C80.441 189.468 80.5162 189.509 80.5812 189.564C80.6462 189.619 80.6997 189.686 80.7387 189.762C80.7777 189.837 80.8014 189.92 80.8084 190.005C80.8155 190.089 80.8058 190.175 80.7798 190.256C78.8164 196.176 63.5662 197.052 54.6506 197.052C47.8343 197.052 46.0068 201.837 45.8956 202.047C45.8451 202.163 45.7599 202.261 45.6516 202.327C45.5433 202.393 45.4173 202.425 45.2906 202.417Z" fill="white"/>
<path d="M49.711 209.768C49.5735 209.769 49.4393 209.725 49.3282 209.644C49.201 209.543 49.1192 209.395 49.1007 209.233C49.0822 209.071 49.1285 208.909 49.2294 208.781C49.3776 208.584 52.9339 204.119 62.4792 204.119C72.7407 204.119 80.3597 201.714 85.1385 196.941C85.2539 196.828 85.4091 196.764 85.5707 196.764C85.7323 196.764 85.8875 196.828 86.0029 196.941C86.0608 196.998 86.1067 197.066 86.138 197.141C86.1694 197.216 86.1855 197.297 86.1855 197.378C86.1855 197.46 86.1694 197.54 86.138 197.616C86.1067 197.691 86.0608 197.759 86.0029 197.816C81.0018 202.824 73.0865 205.414 62.4792 205.414C53.6131 205.414 50.2296 209.558 50.2049 209.595C50.1403 209.658 50.0625 209.706 49.9772 209.736C49.8918 209.766 49.801 209.777 49.711 209.768Z" fill="white"/>
<path d="M52.6623 217.131C52.5726 217.128 52.4844 217.107 52.403 217.069C52.3293 217.036 52.263 216.988 52.208 216.929C52.153 216.87 52.1104 216.801 52.0828 216.725C52.0552 216.649 52.0431 216.568 52.0472 216.488C52.0513 216.407 52.0715 216.328 52.1067 216.255C53.249 214.133 54.9671 212.376 57.0639 211.185C59.1607 209.993 61.5512 209.417 63.9611 209.521C74.2844 209.521 83.3234 207.363 88.1516 203.761C88.2158 203.711 88.2896 203.674 88.3684 203.653C88.4472 203.632 88.5294 203.627 88.6101 203.639C88.6909 203.65 88.7684 203.678 88.8382 203.72C88.9079 203.762 88.9684 203.818 89.016 203.884C89.1111 204.016 89.1514 204.18 89.1284 204.341C89.1054 204.502 89.0208 204.648 88.8925 204.748C81.644 210.162 69.0363 210.754 63.9611 210.754C61.7859 210.653 59.6257 211.163 57.7265 212.227C55.8272 213.291 54.2651 214.866 53.218 216.773C53.1701 216.88 53.0921 216.971 52.9934 217.035C52.8947 217.098 52.7797 217.132 52.6623 217.131Z" fill="white"/>
<path d="M56.0951 222.521C56.038 222.532 55.9793 222.532 55.9222 222.521C55.7668 222.472 55.6363 222.365 55.558 222.223C55.4798 222.08 55.4598 221.913 55.5024 221.756C55.5764 221.534 57.2064 216.428 65.8873 215.922C74.9215 215.445 83.8138 213.474 92.2018 210.088C92.2769 210.045 92.3603 210.018 92.4466 210.009C92.5329 210 92.6202 210.009 92.7026 210.036C92.7851 210.063 92.8609 210.107 92.9252 210.166C92.9894 210.224 93.0407 210.295 93.0756 210.374C93.1105 210.454 93.1283 210.539 93.1278 210.626C93.1273 210.713 93.1085 210.798 93.0726 210.877C93.0368 210.956 92.9847 211.027 92.9197 211.084C92.8548 211.142 92.7785 211.185 92.6957 211.211C84.1786 214.668 75.1425 216.677 65.9614 217.156C58.1943 217.612 56.7495 221.929 56.6878 222.089C56.6482 222.215 56.5692 222.325 56.4626 222.402C56.3559 222.48 56.2271 222.522 56.0951 222.521Z" fill="white"/>
<g opacity="0.2">
<path d="M115.451 366.803C115.397 366.816 115.341 366.816 115.287 366.803L87.1887 355.562C87.1213 355.537 87.0613 355.495 87.0136 355.441C86.9659 355.387 86.9319 355.322 86.9146 355.252C86.898 355.183 86.8976 355.111 86.9134 355.041C86.9293 354.971 86.9609 354.906 87.006 354.851L89.9565 351.201C90.0208 351.125 90.1079 351.072 90.2049 351.049C90.3019 351.026 90.4037 351.034 90.4954 351.074L115.744 362.396L128.441 338.674C128.487 338.594 128.556 338.53 128.639 338.488C128.721 338.446 128.814 338.428 128.906 338.437L132.277 338.93C132.349 338.939 132.417 338.965 132.476 339.006C132.535 339.048 132.583 339.103 132.615 339.167C132.649 339.232 132.666 339.304 132.666 339.377C132.666 339.45 132.649 339.522 132.615 339.587L119.827 364.896C119.772 365.005 119.677 365.088 119.561 365.126C119.445 365.165 119.319 365.156 119.21 365.101C119.101 365.047 119.018 364.951 118.98 364.836C118.941 364.72 118.95 364.594 119.005 364.486L131.501 339.742L129.08 339.386L116.365 363.153C116.308 363.255 116.216 363.331 116.107 363.368C115.997 363.406 115.877 363.4 115.771 363.354L90.4589 352.004L88.1204 354.942L115.643 365.891C115.754 365.937 115.843 366.025 115.891 366.136C115.938 366.246 115.941 366.371 115.899 366.484C115.868 366.577 115.808 366.659 115.727 366.716C115.647 366.774 115.55 366.804 115.451 366.803Z" fill="white"/>
<path d="M115.963 363.418C115.863 363.42 115.764 363.389 115.683 363.33C115.603 363.27 115.543 363.186 115.515 363.09L105.02 324.596L84.7317 315.591L90.9798 349.304C91.0011 349.422 90.9747 349.544 90.9062 349.643C90.8378 349.742 90.7329 349.811 90.6144 349.833C90.4957 349.854 90.3734 349.828 90.2742 349.759C90.175 349.691 90.1068 349.586 90.0846 349.468L83.6903 314.907C83.6724 314.826 83.6783 314.741 83.7075 314.664C83.7367 314.586 83.7878 314.518 83.8548 314.469C83.9193 314.417 83.9968 314.384 84.0788 314.373C84.1609 314.361 84.2445 314.373 84.3206 314.405L105.595 323.857C105.657 323.884 105.711 323.924 105.756 323.975C105.8 324.025 105.832 324.085 105.851 324.149L116.365 362.843C116.394 362.96 116.377 363.084 116.317 363.189C116.258 363.294 116.161 363.373 116.045 363.409L115.963 363.418Z" fill="white"/>
<path d="M87.3806 355.544C87.2722 355.545 87.1671 355.507 87.0847 355.437C87.0024 355.366 86.9485 355.268 86.933 355.161L81.0138 321.403C80.9954 321.322 80.9954 321.238 81.0138 321.157L83.6811 314.67C83.7343 314.57 83.823 314.493 83.9298 314.454C84.0367 314.416 84.154 314.419 84.259 314.462C84.3639 314.505 84.449 314.586 84.4975 314.689C84.546 314.791 84.5546 314.908 84.5215 315.017L81.909 321.403L87.8008 355.052C87.8113 355.111 87.8099 355.172 87.7967 355.231C87.7835 355.289 87.7588 355.345 87.724 355.394C87.6892 355.443 87.6449 355.485 87.5939 355.517C87.5428 355.549 87.4858 355.571 87.4263 355.581L87.3806 355.544Z" fill="white"/>
<path d="M127.326 336.184C127.229 336.183 127.134 336.152 127.055 336.094C126.977 336.037 126.918 335.957 126.887 335.864L116.986 305.555L105.823 324.505C105.76 324.607 105.66 324.68 105.544 324.709C105.427 324.737 105.304 324.719 105.201 324.658C105.098 324.597 105.023 324.498 104.993 324.382C104.962 324.267 104.978 324.144 105.037 324.04L116.712 304.223C116.756 304.146 116.822 304.085 116.902 304.046C116.982 304.007 117.071 303.992 117.159 304.004C117.246 304.014 117.328 304.048 117.396 304.103C117.465 304.158 117.515 304.231 117.543 304.314L127.755 335.581C127.775 335.638 127.783 335.699 127.779 335.759C127.775 335.819 127.759 335.877 127.732 335.931C127.704 335.985 127.666 336.032 127.62 336.071C127.574 336.11 127.521 336.139 127.463 336.156L127.326 336.184Z" fill="white"/>
<path d="M132.232 339.824C132.135 339.825 132.041 339.796 131.962 339.74C131.883 339.684 131.824 339.605 131.793 339.514L120.485 304.944H117.077C116.956 304.944 116.84 304.896 116.754 304.81C116.669 304.725 116.621 304.609 116.621 304.488C116.625 304.367 116.676 304.252 116.763 304.167C116.849 304.082 116.965 304.034 117.086 304.031H120.823C120.919 304.033 121.012 304.064 121.089 304.122C121.166 304.179 121.223 304.259 121.252 304.351L132.661 339.231C132.681 339.288 132.689 339.348 132.685 339.408C132.681 339.468 132.665 339.527 132.637 339.581C132.61 339.634 132.572 339.682 132.526 339.721C132.48 339.759 132.426 339.788 132.369 339.806L132.232 339.824Z" fill="white"/>
<path d="M113.771 349.979C113.69 349.98 113.61 349.958 113.542 349.915C113.439 349.854 113.363 349.755 113.331 349.639C113.298 349.524 113.312 349.4 113.369 349.294L122.503 333.456C122.565 333.352 122.663 333.276 122.779 333.244C122.895 333.212 123.019 333.225 123.125 333.282C123.229 333.345 123.305 333.445 123.337 333.562C123.369 333.679 123.355 333.805 123.298 333.912L114.118 349.751C114.082 349.813 114.032 349.867 113.972 349.906C113.911 349.946 113.842 349.971 113.771 349.979Z" fill="white"/>
<path d="M112.245 343.081C112.164 343.084 112.084 343.062 112.017 343.017C111.911 342.958 111.834 342.859 111.802 342.743C111.769 342.627 111.784 342.502 111.843 342.397L121.023 326.567C121.05 326.509 121.088 326.457 121.136 326.414C121.183 326.372 121.239 326.34 121.3 326.321C121.361 326.301 121.425 326.295 121.489 326.302C121.553 326.308 121.614 326.329 121.669 326.361C121.724 326.393 121.772 326.436 121.81 326.488C121.847 326.539 121.873 326.598 121.887 326.661C121.9 326.723 121.9 326.788 121.886 326.85C121.873 326.913 121.847 326.972 121.809 327.023L112.674 342.862C112.63 342.935 112.567 342.994 112.491 343.033C112.415 343.072 112.33 343.088 112.245 343.081Z" fill="white"/>
<path d="M110.71 336.202C110.63 336.203 110.551 336.18 110.482 336.138C110.43 336.109 110.384 336.069 110.347 336.022C110.31 335.975 110.284 335.92 110.268 335.863C110.253 335.805 110.249 335.744 110.258 335.685C110.266 335.626 110.287 335.569 110.318 335.518L119.498 319.679C119.564 319.587 119.662 319.524 119.773 319.501C119.884 319.477 119.999 319.496 120.097 319.553C120.195 319.609 120.268 319.7 120.302 319.808C120.337 319.916 120.33 320.032 120.283 320.135L111.149 335.974C111.104 336.049 111.04 336.11 110.962 336.151C110.885 336.191 110.797 336.209 110.71 336.202Z" fill="white"/>
<path d="M109.185 329.313C109.104 329.314 109.025 329.292 108.957 329.25C108.904 329.22 108.858 329.181 108.822 329.134C108.785 329.086 108.758 329.032 108.743 328.974C108.728 328.916 108.724 328.856 108.733 328.797C108.741 328.737 108.761 328.68 108.792 328.629L117.927 312.79C117.99 312.686 118.091 312.611 118.208 312.58C118.326 312.549 118.451 312.566 118.557 312.626C118.609 312.655 118.655 312.695 118.692 312.742C118.729 312.789 118.755 312.844 118.771 312.902C118.786 312.959 118.79 313.02 118.781 313.079C118.773 313.138 118.752 313.195 118.721 313.247L109.541 329.085C109.505 329.149 109.453 329.203 109.391 329.243C109.329 329.283 109.258 329.307 109.185 329.313Z" fill="white"/>
<path d="M109.212 350.024C109.149 350.023 109.086 350.007 109.029 349.979L93.8295 343.236C93.7741 343.213 93.7242 343.178 93.6825 343.135C93.6409 343.091 93.6084 343.04 93.5871 342.984C93.5658 342.927 93.5561 342.867 93.5585 342.807C93.5609 342.747 93.5753 342.688 93.6011 342.634C93.6249 342.579 93.6595 342.529 93.7027 342.487C93.746 342.445 93.7971 342.412 93.8531 342.39C93.9092 342.368 93.969 342.357 94.0292 342.358C94.0894 342.36 94.1488 342.373 94.204 342.397L109.395 349.148C109.516 349.173 109.623 349.244 109.691 349.347C109.76 349.449 109.784 349.575 109.76 349.696C109.736 349.817 109.665 349.923 109.562 349.992C109.459 350.06 109.333 350.085 109.212 350.061V350.024Z" fill="white"/>
<path d="M108.546 343.465C108.485 343.474 108.423 343.474 108.363 343.465L93.1628 336.695C93.1045 336.673 93.0513 336.639 93.0066 336.596C92.9618 336.552 92.9264 336.5 92.9025 336.443C92.8786 336.385 92.8668 336.323 92.8677 336.261C92.8687 336.199 92.8824 336.137 92.908 336.081C92.9336 336.024 92.9706 335.973 93.0167 335.931C93.0627 335.889 93.1169 335.857 93.1759 335.837C93.2348 335.816 93.2973 335.808 93.3595 335.813C93.4217 335.818 93.4822 335.835 93.5374 335.864L108.728 342.607C108.849 342.631 108.956 342.702 109.024 342.805C109.093 342.908 109.118 343.033 109.094 343.154C109.069 343.275 108.998 343.382 108.895 343.45C108.792 343.519 108.667 343.543 108.546 343.519V343.465Z" fill="white"/>
<path d="M105.787 336.694C105.723 336.693 105.661 336.678 105.604 336.649L90.4042 329.906C90.3488 329.883 90.2989 329.848 90.2572 329.805C90.2156 329.761 90.1831 329.71 90.1618 329.654C90.1405 329.598 90.1308 329.538 90.1332 329.478C90.1356 329.418 90.1501 329.359 90.1758 329.304C90.1996 329.249 90.2342 329.199 90.2774 329.157C90.3207 329.115 90.3718 329.082 90.4278 329.06C90.4839 329.038 90.5437 329.028 90.6039 329.029C90.6641 329.03 90.7235 329.043 90.7787 329.067L105.97 335.819C106.025 335.842 106.075 335.877 106.117 335.92C106.159 335.963 106.192 336.014 106.214 336.07C106.236 336.126 106.247 336.186 106.245 336.246C106.244 336.306 106.231 336.366 106.207 336.421C106.17 336.502 106.111 336.57 106.037 336.619C105.963 336.667 105.876 336.694 105.787 336.694Z" fill="white"/>
<path d="M104.672 329.77C104.612 329.783 104.55 329.783 104.489 329.77L89.2894 323.009C89.2281 322.99 89.1717 322.958 89.1236 322.915C89.0756 322.873 89.0371 322.821 89.0105 322.762C88.984 322.704 88.9701 322.641 88.9697 322.576C88.9694 322.512 88.9825 322.449 89.0083 322.39C89.0342 322.331 89.0721 322.279 89.1196 322.236C89.1672 322.193 89.2233 322.16 89.2843 322.14C89.3453 322.12 89.4098 322.113 89.4736 322.12C89.5374 322.127 89.5992 322.147 89.6548 322.179L104.855 328.93C104.91 328.954 104.96 328.989 105.002 329.032C105.044 329.075 105.077 329.126 105.099 329.182C105.121 329.238 105.132 329.298 105.131 329.358C105.13 329.418 105.116 329.477 105.092 329.532C105.05 329.606 104.988 329.667 104.915 329.708C104.841 329.75 104.757 329.771 104.672 329.77Z" fill="white"/>
</g>
<path d="M59.6337 86.6445C59.8031 86.9379 77.0561 115.616 77.5064 116.396C77.9567 117.176 79.386 119.652 81.1834 120.14C82.9807 120.629 87.8015 121.09 88.0012 121.089C88.0603 121.093 88.1195 121.085 88.1755 121.066C88.2315 121.047 88.2831 121.016 88.3273 120.977L115.293 95.3908C115.372 95.3157 115.418 95.2124 115.421 95.1033C115.424 94.9943 115.384 94.8884 115.31 94.8088C115.273 94.7686 115.229 94.7362 115.179 94.7135C115.13 94.6908 115.077 94.6783 115.022 94.6767C114.968 94.6751 114.914 94.6845 114.863 94.7042C114.813 94.724 114.767 94.7537 114.728 94.7916L87.8905 120.237C86.9603 120.144 82.8174 119.703 81.3934 119.332C79.9693 118.962 78.6424 116.713 78.2169 115.976C77.7914 115.239 62.5113 89.8297 60.5332 86.5354L95.2069 58.8841C95.294 58.8161 95.3505 58.7162 95.364 58.6065C95.3774 58.4967 95.3468 58.3861 95.2787 58.2988C95.2107 58.2116 95.1108 58.155 95.0011 58.1414C94.8914 58.1278 94.7808 58.1583 94.6937 58.2263L59.7262 86.095C59.645 86.1584 59.5904 86.25 59.5733 86.3517C59.5562 86.4534 59.5777 86.5578 59.6337 86.6445Z" fill="white"/>
<path d="M116.935 85.6083L118.353 87.9662C118.41 88.0607 118.502 88.129 118.609 88.1566C118.716 88.1841 118.829 88.1687 118.924 88.1136C119.012 88.0517 119.074 87.9603 119.1 87.8562C119.125 87.752 119.113 87.642 119.064 87.5465L117.641 85.1813C117.586 85.0864 117.496 85.0172 117.39 84.9888C117.285 84.9603 117.172 84.9751 117.077 85.0299C116.982 85.0846 116.913 85.1747 116.885 85.2805C116.857 85.3863 116.872 85.4991 116.926 85.5939L116.935 85.6083Z" fill="white"/>
<path d="M86.2665 119.619C86.3213 119.714 86.4115 119.783 86.5172 119.812C86.623 119.84 86.7356 119.825 86.8304 119.771C86.9252 119.716 86.9943 119.626 87.0226 119.52C87.0509 119.414 87.036 119.302 86.9812 119.207L69.0073 87.844L101.643 60.1956L115.199 82.7176C115.255 82.8102 115.345 82.8772 115.45 82.9041C115.554 82.9311 115.665 82.916 115.759 82.862C115.846 82.7988 115.908 82.7072 115.935 82.6029C115.962 82.4986 115.952 82.3882 115.906 82.2907L102.103 59.3578C102.072 59.306 102.029 59.2618 101.978 59.2284C101.928 59.195 101.87 59.1731 101.81 59.1643C101.752 59.1552 101.693 59.1581 101.636 59.173C101.579 59.1878 101.525 59.2142 101.479 59.2506L68.2026 87.4405C68.1278 87.5019 68.0776 87.5881 68.061 87.6835C68.0444 87.7788 68.0624 87.877 68.112 87.9602L86.2522 119.628L86.2665 119.619Z" fill="white"/>
<path d="M62.3498 87.1564L80.6172 117.014C80.6813 117.107 80.7775 117.174 80.8874 117.201L85.2417 118.141C85.3478 118.168 85.4601 118.152 85.5548 118.098C85.6495 118.043 85.7192 117.953 85.7491 117.848C85.7635 117.796 85.7675 117.742 85.7607 117.689C85.7539 117.635 85.7366 117.584 85.7096 117.537C85.6827 117.49 85.6467 117.45 85.6039 117.417C85.561 117.384 85.512 117.361 85.4599 117.347L81.2921 116.433L63.3004 87.0368L92.9172 62.7249L97.3252 63.1471C97.3794 63.1541 97.4345 63.1501 97.4871 63.1353C97.5397 63.1204 97.5888 63.095 97.6313 63.0607C97.6738 63.0263 97.7089 62.9837 97.7345 62.9354C97.76 62.8871 97.7756 62.834 97.7801 62.7795C97.7853 62.7252 97.7797 62.6704 97.7637 62.6183C97.7476 62.5662 97.7214 62.5177 97.6865 62.4757C97.6516 62.4338 97.6088 62.3991 97.5606 62.3738C97.5123 62.3485 97.4594 62.333 97.4051 62.3282L92.7531 61.8465C92.6424 61.8382 92.5329 61.874 92.4485 61.9461L62.4228 86.5895C62.3399 86.6563 62.286 86.7525 62.2724 86.8581C62.2588 86.9638 62.2866 87.0706 62.3498 87.1564Z" fill="white"/>
<path d="M80.6165 113.398L78.0841 109.012C78.0841 109.012 75.0238 111.733 71.9623 114.006C68.9009 116.279 64.7905 118.881 64.7905 118.881L71.018 118.692L68.7914 124.127L80.6165 113.398Z" fill="white"/>
<path d="M569.759 66.4901L569.799 66.467C569.847 66.4275 569.886 66.3776 569.912 66.3209C569.938 66.2643 569.95 66.2025 569.949 66.1403L568.691 35.7342C568.676 35.6316 568.622 35.5385 568.541 35.4741C568.464 35.4068 568.364 35.3719 568.262 35.377L566.494 35.5081C566.398 35.5207 566.31 35.5693 566.247 35.6441C566.185 35.719 566.153 35.8146 566.159 35.9117C566.164 36.0089 566.206 36.1003 566.276 36.1678C566.346 36.2352 566.439 36.2737 566.537 36.2754L567.924 36.1949L569.15 65.6674L536.62 55.8603C536.559 55.841 536.493 55.8391 536.43 55.8545L507.499 62.4619L508.479 36.101L509.412 35.651C509.459 35.6301 509.501 35.6 509.536 35.5625C509.57 35.525 509.597 35.4808 509.614 35.4326C509.632 35.3844 509.639 35.3333 509.636 35.2823C509.632 35.2313 509.619 35.1815 509.596 35.1359C509.551 35.0453 509.472 34.976 509.376 34.943C509.281 34.9101 509.176 34.916 509.084 34.9597L507.932 35.5093C507.868 35.538 507.814 35.5844 507.775 35.643C507.736 35.7015 507.715 35.7699 507.714 35.8401L506.72 62.9475C506.724 63.0061 506.741 63.0631 506.77 63.114C506.8 63.1648 506.84 63.2083 506.889 63.2411C506.935 63.2788 506.989 63.3058 507.046 63.3202C507.104 63.3347 507.164 63.3361 507.222 63.3245L536.541 56.6176L569.458 66.5394C569.561 66.5632 569.669 66.5455 569.759 66.4901Z" fill="white"/>
<path d="M567.654 63.4622L567.708 63.4313C567.752 63.3937 567.788 63.3463 567.811 63.2928C567.834 63.2393 567.844 63.1811 567.841 63.1229L566.662 34.0861C566.659 33.9967 566.625 33.9112 566.566 33.8446C566.506 33.778 566.425 33.7348 566.336 33.7226C566.256 33.7067 558.173 32.3868 551.992 27.6655C546.289 23.3088 540.53 22.8356 536.582 26.3953C536.542 26.4323 536.509 26.4778 536.488 26.5286C536.466 26.5794 536.456 26.6343 536.458 26.6893L536.9 52.6122C536.901 52.6867 536.924 52.7593 536.966 52.8211C537.007 52.8829 537.066 52.9313 537.135 52.9604C537.203 52.9895 537.279 52.9981 537.352 52.9851C537.426 52.972 537.494 52.938 537.548 52.8871C537.706 52.7429 541.488 49.3761 544.841 52.9464C548.432 56.7612 556.276 59.8113 560.042 61.275L560.46 61.443C562.709 62.3129 565.023 63.0051 567.381 63.5132C567.475 63.53 567.572 63.5119 567.654 63.4622ZM565.907 34.4148L567.063 62.6384C564.914 62.1475 562.803 61.5022 560.747 60.7076L560.33 60.5395C556.625 59.1205 548.863 56.1034 545.416 52.4007C542.4 49.1967 539.039 50.8879 537.671 51.8198L537.231 26.8394C540.873 23.6778 546.2 24.2047 551.531 28.2699C557.169 32.5753 564.339 34.1196 565.907 34.4148Z" fill="white"/>
<path d="M537.47 52.9056C537.53 52.8721 537.58 52.8233 537.615 52.7642C537.65 52.705 537.668 52.6377 537.668 52.5692L537.222 26.6397C537.203 26.5525 537.157 26.4734 537.091 26.4129C534.185 23.1987 529.188 23.8601 520.932 28.6263C513.726 32.7872 509.486 32.1841 509.447 32.1795C509.393 32.1711 509.338 32.1739 509.284 32.1878C509.231 32.2017 509.181 32.2264 509.138 32.2604C509.096 32.2957 509.063 32.3392 509.039 32.3882C509.015 32.4371 509.001 32.4905 508.999 32.545L508.266 59.502C508.265 59.6016 508.302 59.6979 508.369 59.7713C508.436 59.8448 508.529 59.89 508.628 59.8978C508.661 59.8785 509.854 59.9548 515.807 58.635C519.94 57.7256 523.705 55.3471 526.741 53.4339C527.934 52.653 529.169 51.9397 530.442 51.2976C533.506 49.8487 536.967 52.867 536.98 52.8593C537.037 52.9091 537.106 52.9414 537.18 52.9522C537.255 52.963 537.33 52.952 537.399 52.9203L537.47 52.9056ZM536.455 26.8069L536.885 51.7845C535.644 50.8999 532.846 49.3225 530.151 50.5937C528.852 51.2512 527.59 51.9799 526.371 52.7763C523.394 54.6548 519.685 56.9919 515.683 57.8796C513.511 58.4085 511.312 58.817 509.095 59.1031L509.799 32.973C511.084 33.0402 515.134 32.8815 521.359 29.2875C529.15 24.7979 533.832 24.0521 536.455 26.8069Z" fill="white"/>
<path d="M554.553 60.4057C554.629 60.3641 554.688 60.2986 554.722 60.2195C554.759 60.1233 554.756 60.0165 554.715 59.9222C554.674 59.8278 554.597 59.7534 554.502 59.7149C552.281 58.8448 550.434 58.0071 548.805 57.2669C546.923 56.3051 544.939 55.5589 542.89 55.0425C541.171 54.7198 539.415 54.6378 537.673 54.7989C537.623 54.8044 537.575 54.8197 537.531 54.8441C537.487 54.8685 537.448 54.9014 537.417 54.9409C537.386 54.9804 537.363 55.0257 537.349 55.0741C537.336 55.1226 537.332 55.1732 537.339 55.223C537.352 55.3241 537.404 55.4162 537.484 55.4796C537.564 55.5431 537.665 55.573 537.767 55.563C539.431 55.4144 541.107 55.4942 542.748 55.8002C544.73 56.3113 546.648 57.0453 548.464 57.9882C550.105 58.7313 551.942 59.5384 554.203 60.4476C554.261 60.4689 554.323 60.4762 554.383 60.4689C554.444 60.4616 554.502 60.44 554.553 60.4057Z" fill="white"/>
<path d="M534.871 55.1444C534.945 55.1028 535.001 55.0355 535.029 54.9553C535.068 54.8609 535.067 54.7551 535.028 54.6611C534.989 54.5671 534.914 54.4925 534.819 54.4536C532.677 53.6565 530.312 53.6973 528.197 54.5677L526.948 55.1646C521.662 57.8422 515.969 59.6261 510.101 60.4437C509.999 60.46 509.908 60.5159 509.848 60.5992C509.787 60.6824 509.762 60.7863 509.778 60.8879C509.795 60.9894 509.85 61.0804 509.934 61.1407C510.017 61.2011 510.121 61.2259 510.222 61.2097C516.162 60.3728 521.924 58.5664 527.28 55.8626L528.522 55.2696C530.444 54.4915 532.586 54.4567 534.531 55.1719C534.586 55.1921 534.645 55.2001 534.704 55.1953C534.763 55.1906 534.82 55.1732 534.871 55.1444Z" fill="white"/>
<path d="M564.17 39.6427C564.236 39.6055 564.289 39.55 564.323 39.4831C564.357 39.4161 564.371 39.3406 564.363 39.2659C564.355 39.1911 564.325 39.1204 564.277 39.0624C564.23 39.0045 564.166 38.9618 564.094 38.9397C560.318 37.6435 556.62 36.1314 553.019 34.4108C546.141 31.2126 542.102 30.6181 539.076 32.3649C538.987 32.4161 538.923 32.5002 538.896 32.599C538.87 32.6977 538.884 32.8028 538.935 32.8913C538.986 32.9798 539.07 33.0443 539.169 33.0707C539.267 33.0971 539.373 33.0832 539.461 33.032C542.24 31.4279 546.079 32.031 552.695 35.1139C556.328 36.8437 560.056 38.3676 563.861 39.6786C563.913 39.6944 563.966 39.6993 564.02 39.6931C564.073 39.687 564.124 39.6698 564.17 39.6427Z" fill="white"/>
<path d="M564.038 44.3181C564.122 44.2702 564.185 44.1924 564.215 44.1002C564.228 44.0518 564.232 44.0012 564.226 43.9514C564.219 43.9016 564.203 43.8535 564.178 43.81C564.153 43.7665 564.119 43.7285 564.079 43.6981C564.039 43.6678 563.994 43.6457 563.945 43.6332C560.168 42.3302 556.467 40.8172 552.859 39.1016C545.988 35.8995 541.949 35.305 538.917 37.0557C538.83 37.1082 538.766 37.1924 538.74 37.2905C538.714 37.3887 538.726 37.4931 538.775 37.5821C538.826 37.6705 538.911 37.7351 539.009 37.7615C539.108 37.7879 539.213 37.7739 539.302 37.7228C542.087 36.1148 545.92 36.7218 552.542 39.8009C556.175 41.5306 559.904 43.0545 563.709 44.3656C563.764 44.3826 563.822 44.3872 563.879 44.379C563.935 44.3708 563.99 44.35 564.038 44.3181Z" fill="white"/>
<path d="M563.905 48.9934C563.969 48.9558 564.02 48.9007 564.053 48.8349C564.086 48.769 564.1 48.695 564.092 48.6217C564.085 48.5484 564.056 48.4788 564.01 48.4213C563.964 48.3637 563.903 48.3205 563.833 48.297C560.058 46.995 556.358 45.4844 552.751 43.772C545.876 40.5632 541.837 39.9687 538.804 41.7194C538.717 41.772 538.654 41.8561 538.628 41.9543C538.601 42.0524 538.614 42.1569 538.663 42.2458C538.714 42.3343 538.798 42.3988 538.897 42.4252C538.996 42.4516 539.101 42.4377 539.19 42.3865C541.975 40.7785 545.807 41.3855 552.423 44.4684C556.059 46.1956 559.79 47.7182 563.596 49.0293C563.648 49.0455 563.701 49.0507 563.755 49.0445C563.808 49.0383 563.859 49.0209 563.905 48.9934Z" fill="white"/>
<path d="M563.772 53.6686C563.813 53.646 563.85 53.6154 563.879 53.5786C563.908 53.5419 563.93 53.4998 563.943 53.4546C563.956 53.4062 563.96 53.3556 563.954 53.3058C563.947 53.256 563.931 53.2079 563.906 53.1644C563.881 53.1209 563.847 53.0829 563.807 53.0525C563.767 53.0222 563.722 53.0001 563.673 52.9876C559.897 51.6892 556.197 50.1785 552.591 48.4627C545.716 45.2539 541.681 44.6661 538.649 46.4168C538.56 46.4679 538.495 46.5521 538.469 46.6508C538.442 46.7495 538.456 46.8547 538.507 46.9431C538.558 47.0316 538.642 47.0961 538.741 47.1225C538.84 47.1489 538.945 47.135 539.034 47.0839C541.819 45.4759 545.648 46.0762 552.263 49.1591C555.897 50.8925 559.628 52.4153 563.437 53.72C563.493 53.7381 563.552 53.743 563.611 53.734C563.669 53.7251 563.724 53.7027 563.772 53.6686Z" fill="white"/>
<path d="M534.824 33.5923L534.938 33.5267C535.002 33.4478 535.033 33.3472 535.024 33.246C535.015 33.1449 534.968 33.051 534.892 32.9841C534.872 32.9507 531.882 30.5322 527.734 32.9269C519.953 37.4194 514.21 39.1339 512.375 37.4981C512.296 37.426 512.191 37.3884 512.084 37.3936C512.031 37.3962 511.979 37.4092 511.931 37.4319C511.883 37.4545 511.839 37.4865 511.804 37.5258C511.768 37.5651 511.74 37.6111 511.722 37.6611C511.704 37.7111 511.696 37.7642 511.699 37.8172C511.701 37.8703 511.714 37.9223 511.737 37.9704C511.76 38.0184 511.791 38.0615 511.831 38.0972C514.741 40.6863 523.264 36.3975 528.086 33.6133C531.773 31.4847 534.256 33.5024 534.381 33.5811C534.445 33.6283 534.522 33.6546 534.601 33.6566C534.68 33.6586 534.758 33.6362 534.824 33.5923Z" fill="white"/>
<path d="M534.728 38.9489C534.803 38.9064 534.862 38.8411 534.897 38.7626C534.934 38.6678 534.932 38.5623 534.892 38.4691C534.851 38.3758 534.775 38.3024 534.681 38.2648C534.539 38.2043 531.221 36.8999 526.058 39.8808C520.508 43.0853 515.636 44.1637 511.56 43.0743C511.463 43.0492 511.359 43.0634 511.272 43.1139C511.184 43.1643 511.12 43.247 511.093 43.3442C511.079 43.3933 511.076 43.4445 511.082 43.4949C511.089 43.5454 511.105 43.594 511.131 43.6381C511.156 43.6821 511.19 43.7206 511.23 43.7515C511.271 43.7824 511.317 43.8049 511.366 43.8179C515.635 44.9646 520.725 43.8937 526.463 40.5812C531.258 37.8125 534.382 38.9974 534.407 39.0097C534.462 39.0237 534.519 39.0255 534.575 39.015C534.63 39.0045 534.683 38.9819 534.728 38.9489Z" fill="white"/>
<path d="M535.432 43.8531C535.48 43.8236 535.521 43.7847 535.553 43.7388C535.582 43.6979 535.603 43.6514 535.615 43.6022C535.626 43.5531 535.627 43.5021 535.619 43.4525C535.61 43.4028 535.591 43.3554 535.564 43.3131C535.536 43.2707 535.501 43.2343 535.459 43.206C534.178 42.4149 532.7 42.0009 531.194 42.0114C529.688 42.0219 528.215 42.4566 526.944 43.2654C521.36 46.4892 515.797 48.1445 512.061 47.7043C512.01 47.6972 511.959 47.7004 511.91 47.7136C511.861 47.7268 511.815 47.7498 511.775 47.7813C511.735 47.8127 511.701 47.852 511.677 47.8966C511.652 47.9412 511.637 47.9903 511.632 48.0409C511.622 48.142 511.651 48.2431 511.714 48.323C511.776 48.4028 511.868 48.4553 511.968 48.4694C517.58 49.1344 524.584 45.5175 527.329 43.9326C528.474 43.1983 529.802 42.7996 531.161 42.7821C532.521 42.7645 533.858 43.1287 535.02 43.8332C535.079 43.8761 535.15 43.9009 535.223 43.9044C535.296 43.908 535.369 43.8901 535.432 43.8531Z" fill="white"/>
<path d="M535.258 47.8406C535.293 47.8289 535.325 47.8105 535.352 47.7866C535.421 47.7118 535.458 47.6133 535.456 47.5118C535.454 47.4102 535.412 47.3135 535.34 47.2419C535.231 47.1449 532.755 44.892 527.901 47.3294C522.866 49.8925 517.44 51.6031 511.846 52.3915C511.792 52.3916 511.738 52.403 511.689 52.4251C511.639 52.4472 511.595 52.4795 511.559 52.5199C511.523 52.5602 511.496 52.6077 511.479 52.6593C511.462 52.7108 511.457 52.7653 511.463 52.8191C511.469 52.8729 511.486 52.9249 511.513 52.9716C511.541 53.0183 511.577 53.0587 511.621 53.0902C511.666 53.1217 511.716 53.1435 511.769 53.1543C511.822 53.1651 511.877 53.1646 511.93 53.1528C517.616 52.363 523.131 50.628 528.246 48.0197C532.59 45.841 534.72 47.7247 534.803 47.7922C534.864 47.8478 534.941 47.8826 535.023 47.8913C535.105 47.9 535.187 47.8822 535.258 47.8406Z" fill="white"/>
<g opacity="0.2">
<path d="M565.025 383.847L565.071 383.859C565.134 383.866 565.198 383.858 565.258 383.835C565.318 383.813 565.372 383.778 565.415 383.731L586.514 360.812C586.577 360.727 586.606 360.621 586.593 360.515C586.587 360.411 586.54 360.313 586.462 360.243L585.088 359.058C585.009 358.998 584.91 358.969 584.81 358.978C584.711 358.987 584.619 359.034 584.553 359.108C584.486 359.182 584.45 359.278 584.452 359.378C584.454 359.478 584.494 359.573 584.563 359.644L585.625 360.59L565.18 382.811L548.732 352.166C548.702 352.108 548.655 352.059 548.599 352.024L522.875 335.866L542.665 317.494L543.666 317.844C543.715 317.863 543.767 317.871 543.82 317.869C543.872 317.867 543.923 317.855 543.971 317.832C544.018 317.81 544.06 317.778 544.095 317.739C544.129 317.7 544.156 317.654 544.172 317.604C544.205 317.506 544.198 317.399 544.153 317.306C544.107 317.213 544.027 317.141 543.929 317.106L542.698 316.67C542.631 316.645 542.557 316.639 542.487 316.653C542.417 316.668 542.352 316.702 542.3 316.751L521.959 335.653C521.92 335.699 521.891 335.752 521.876 335.81C521.86 335.868 521.858 335.929 521.87 335.988C521.875 336.049 521.895 336.107 521.926 336.159C521.957 336.212 522 336.256 522.05 336.29L548.127 352.657L564.771 383.665C564.828 383.757 564.92 383.822 565.025 383.847Z" fill="white"/>
<path d="M565.694 380.132L565.755 380.149C565.814 380.154 565.874 380.145 565.93 380.123C565.985 380.101 566.035 380.066 566.075 380.022L586.238 358.15C586.301 358.084 586.339 357.997 586.344 357.906C586.349 357.815 586.321 357.725 586.266 357.652C586.219 357.582 581.324 350.776 580.268 342.885C579.293 335.603 575.467 331.092 570.033 330.811C569.977 330.808 569.92 330.818 569.868 330.839C569.816 330.86 569.769 330.893 569.73 330.934L551.286 350.018C551.233 350.072 551.197 350.141 551.182 350.216C551.168 350.291 551.175 350.369 551.204 350.44C551.233 350.51 551.281 350.571 551.344 350.615C551.406 350.659 551.48 350.683 551.557 350.686C551.775 350.696 556.95 350.996 556.792 356.007C556.631 361.368 560.1 369.254 561.767 373.039L561.947 373.463C562.946 375.721 564.12 377.897 565.459 379.971C565.515 380.052 565.598 380.109 565.694 380.132ZM585.455 357.842L565.862 379.108C564.662 377.197 563.601 375.202 562.688 373.139L562.507 372.715C560.853 369.006 557.418 361.204 557.604 356.029C557.739 351.526 554.083 350.318 552.418 350.003L570.181 331.602C575.106 331.95 578.58 336.187 579.496 342.988C580.461 350.186 584.533 356.493 585.455 357.842Z" fill="white"/>
<path d="M551.486 350.643C551.554 350.662 551.625 350.663 551.693 350.645C551.761 350.627 551.823 350.592 551.873 350.542L570.319 331.451C570.368 331.374 570.392 331.284 570.388 331.192C570.611 326.762 566.515 323.624 557.09 321.098C548.861 318.893 546.229 315.388 546.205 315.357C546.171 315.311 546.129 315.273 546.081 315.245C546.032 315.216 545.978 315.198 545.922 315.191C545.866 315.187 545.811 315.194 545.758 315.212C545.705 315.23 545.657 315.259 545.616 315.297L525.573 334.278C525.5 334.35 525.457 334.446 525.452 334.548C525.448 334.65 525.482 334.749 525.548 334.827C525.586 334.837 526.395 335.756 531.659 339.109C535.308 341.442 539.755 342.446 543.338 343.259C544.766 343.557 546.177 343.935 547.563 344.391C550.829 345.56 551.15 350.251 551.165 350.255C551.17 350.331 551.197 350.405 551.243 350.467C551.289 350.528 551.352 350.575 551.424 350.602L551.486 350.643ZM569.643 331.017L551.874 349.408C551.616 347.869 550.732 344.702 547.862 343.671C546.445 343.207 545.004 342.821 543.546 342.515C540.032 341.72 535.655 340.727 532.115 338.472C530.161 337.283 528.273 335.987 526.462 334.59L545.885 316.185C546.766 317.165 549.812 319.981 556.92 321.885C565.809 324.275 569.738 327.124 569.643 331.017Z" fill="white"/>
<path d="M558.422 368.437C558.507 368.461 558.597 368.457 558.679 368.424C558.775 368.381 558.851 368.302 558.889 368.204C558.928 368.106 558.926 367.996 558.885 367.899C557.907 365.662 557.177 363.719 556.533 362.004C555.868 359.946 554.972 357.969 553.862 356.112C552.851 354.634 551.64 353.304 550.262 352.16C550.222 352.128 550.176 352.104 550.126 352.089C550.077 352.075 550.025 352.071 549.974 352.077C549.923 352.083 549.874 352.099 549.829 352.125C549.784 352.15 549.745 352.184 549.714 352.225C549.65 352.308 549.621 352.412 549.633 352.516C549.645 352.619 549.696 352.715 549.777 352.781C551.089 353.878 552.244 355.148 553.211 356.558C554.276 358.363 555.133 360.282 555.765 362.279C556.414 364.005 557.16 365.919 558.139 368.214C558.165 368.271 558.204 368.321 558.254 368.359C558.303 368.398 558.361 368.425 558.422 368.437Z" fill="white"/>
<path d="M547.984 350.382C548.068 350.406 548.158 350.398 548.236 350.36C548.332 350.319 548.408 350.242 548.448 350.146C548.488 350.049 548.487 349.941 548.447 349.845C547.474 347.717 545.732 346.035 543.571 345.134L542.235 344.662C536.47 342.774 531.058 339.944 526.219 336.289C526.134 336.227 526.028 336.201 525.923 336.218C525.819 336.234 525.726 336.291 525.664 336.377C525.603 336.462 525.577 336.568 525.594 336.672C525.61 336.776 525.668 336.869 525.753 336.931C530.658 340.624 536.136 343.488 541.97 345.407L543.299 345.877C545.253 346.705 546.828 348.231 547.718 350.156C547.744 350.21 547.781 350.259 547.827 350.298C547.872 350.337 547.926 350.366 547.984 350.382Z" fill="white"/>
<path d="M580.413 360.369C580.487 360.39 580.566 360.388 580.639 360.364C580.713 360.341 580.777 360.296 580.825 360.236C580.874 360.176 580.903 360.103 580.911 360.027C580.918 359.95 580.903 359.873 580.867 359.805C579.072 356.134 577.49 352.363 576.128 348.51C573.465 341.217 570.971 337.863 567.517 336.937C567.416 336.91 567.308 336.924 567.217 336.977C567.127 337.029 567.061 337.115 567.034 337.216C567.007 337.317 567.021 337.425 567.073 337.515C567.126 337.606 567.212 337.672 567.313 337.699C570.485 338.549 572.828 341.764 575.385 348.785C576.763 352.667 578.358 356.468 580.164 360.172C580.189 360.22 580.225 360.263 580.268 360.297C580.31 360.331 580.36 360.355 580.413 360.369Z" fill="white"/>
<path d="M576.933 363.657C577.028 363.684 577.13 363.673 577.219 363.628C577.263 363.602 577.303 363.569 577.334 363.528C577.366 363.487 577.389 363.441 577.402 363.391C577.416 363.342 577.419 363.29 577.412 363.239C577.405 363.188 577.388 363.139 577.361 363.095C575.571 359.417 573.987 355.644 572.618 351.79C569.962 344.499 567.468 341.145 564.006 340.217C563.905 340.192 563.798 340.207 563.708 340.259C563.618 340.311 563.552 340.396 563.523 340.496C563.496 340.597 563.51 340.705 563.562 340.795C563.615 340.886 563.701 340.952 563.802 340.979C566.982 341.831 569.317 345.044 571.882 352.067C573.26 355.949 574.855 359.75 576.66 363.454C576.688 363.506 576.726 363.551 576.774 363.586C576.821 363.621 576.875 363.646 576.933 363.657Z" fill="white"/>
<path d="M573.453 366.945C573.526 366.964 573.603 366.961 573.674 366.938C573.746 366.914 573.81 366.87 573.857 366.812C573.905 366.753 573.934 366.682 573.943 366.607C573.951 366.532 573.938 366.456 573.904 366.389C572.114 362.714 570.53 358.942 569.158 355.092C566.504 347.793 564.011 344.439 560.549 343.511C560.448 343.486 560.341 343.502 560.251 343.553C560.161 343.605 560.094 343.69 560.066 343.79C560.039 343.891 560.053 343.999 560.105 344.089C560.158 344.18 560.244 344.246 560.345 344.273C563.525 345.125 565.86 348.339 568.417 355.359C569.799 359.241 571.397 363.043 573.203 366.748C573.228 366.797 573.264 366.839 573.307 366.873C573.35 366.907 573.399 366.932 573.453 366.945Z" fill="white"/>
<path d="M569.972 370.233C570.018 370.247 570.067 370.251 570.115 370.245C570.162 370.24 570.209 370.225 570.25 370.202C570.295 370.177 570.335 370.143 570.366 370.102C570.398 370.061 570.421 370.015 570.434 369.965C570.447 369.916 570.451 369.864 570.444 369.813C570.437 369.762 570.42 369.713 570.393 369.669C568.6 365.995 567.015 362.224 565.647 358.372C562.993 351.073 560.498 347.727 557.036 346.799C556.935 346.772 556.827 346.786 556.737 346.838C556.646 346.891 556.58 346.977 556.553 347.078C556.526 347.179 556.54 347.286 556.592 347.377C556.645 347.467 556.731 347.534 556.832 347.561C560.012 348.413 562.349 351.619 564.906 358.639C566.281 362.524 567.879 366.326 569.692 370.028C569.72 370.081 569.759 370.128 569.808 370.164C569.857 370.199 569.913 370.223 569.972 370.233Z" fill="white"/>
<path d="M563.551 334.748L563.68 334.783C563.784 334.772 563.879 334.722 563.946 334.642C564.013 334.563 564.047 334.46 564.04 334.357C564.05 334.319 563.636 330.403 558.901 329.135C550.016 326.754 544.619 323.838 544.475 321.326C544.469 321.216 544.421 321.113 544.339 321.039C544.299 321.003 544.252 320.975 544.201 320.956C544.149 320.938 544.095 320.93 544.041 320.932C543.986 320.935 543.933 320.948 543.884 320.971C543.834 320.994 543.79 321.027 543.754 321.067C543.717 321.108 543.689 321.155 543.67 321.206C543.652 321.257 543.644 321.311 543.647 321.366C543.879 325.346 553.152 328.411 558.658 329.886C562.868 331.014 563.204 334.272 563.238 334.42C563.25 334.5 563.287 334.574 563.343 334.633C563.399 334.692 563.471 334.732 563.551 334.748Z" fill="white"/>
<path d="M559.604 338.556C559.689 338.579 559.779 338.575 559.861 338.543C559.956 338.502 560.031 338.424 560.07 338.327C560.108 338.23 560.106 338.122 560.065 338.027C560.006 337.88 558.549 334.534 552.654 332.955C546.317 331.257 542.01 328.511 539.848 324.772C539.796 324.684 539.71 324.619 539.611 324.592C539.511 324.565 539.404 324.579 539.314 324.629C539.269 324.655 539.23 324.69 539.198 324.731C539.166 324.772 539.143 324.819 539.129 324.87C539.116 324.92 539.112 324.972 539.119 325.024C539.126 325.076 539.143 325.125 539.17 325.17C541.429 329.09 545.889 331.999 552.44 333.755C557.915 335.222 559.319 338.341 559.328 338.368C559.357 338.418 559.397 338.46 559.445 338.493C559.493 338.525 559.547 338.547 559.604 338.556Z" fill="white"/>
<path d="M556.564 342.615C556.62 342.628 556.678 342.63 556.734 342.62C556.785 342.612 556.834 342.593 556.878 342.566C556.921 342.538 556.959 342.502 556.989 342.46C557.018 342.418 557.039 342.37 557.05 342.32C557.061 342.269 557.062 342.217 557.052 342.166C556.698 340.667 555.927 339.297 554.83 338.215C553.732 337.132 552.351 336.38 550.845 336.046C544.47 334.338 539.245 331.509 536.86 328.486C536.828 328.444 536.789 328.409 536.744 328.383C536.698 328.357 536.648 328.341 536.597 328.335C536.545 328.328 536.492 328.333 536.442 328.347C536.392 328.362 536.346 328.386 536.305 328.419C536.225 328.485 536.173 328.579 536.16 328.682C536.148 328.786 536.176 328.89 536.239 328.973C539.819 333.516 547.507 335.968 550.641 336.808C552.001 337.105 553.251 337.777 554.248 338.749C555.245 339.72 555.949 340.951 556.28 342.302C556.292 342.376 556.325 342.445 556.375 342.501C556.426 342.556 556.491 342.596 556.564 342.615Z" fill="white"/>
<path d="M553.552 345.376C553.585 345.392 553.621 345.402 553.658 345.404C553.762 345.4 553.861 345.356 553.932 345.28C554.004 345.205 554.044 345.105 554.044 345.001C554.035 344.852 553.873 341.429 548.596 339.68C543.096 337.891 537.931 335.202 533.311 331.723C533.272 331.684 533.225 331.653 533.173 331.634C533.121 331.614 533.066 331.605 533.01 331.608C532.955 331.611 532.901 331.626 532.851 331.651C532.802 331.676 532.759 331.712 532.724 331.755C532.689 331.798 532.664 331.848 532.65 331.902C532.636 331.956 532.633 332.012 532.643 332.066C532.652 332.121 532.672 332.173 532.703 332.219C532.733 332.265 532.773 332.305 532.82 332.335C537.508 335.879 542.756 338.615 548.346 340.43C553.067 341.997 553.245 344.902 553.257 345.011C553.261 345.095 553.291 345.176 553.344 345.242C553.397 345.307 553.47 345.354 553.552 345.376Z" fill="white"/>
</g>
<path d="M617.374 199.967C616.944 200.215 574.017 223.98 572.874 224.64C571.73 225.3 568.101 227.395 565.461 226.698C562.82 226.002 556.362 223.052 556.109 222.905C556.031 222.867 555.962 222.813 555.905 222.748C555.848 222.682 555.804 222.606 555.777 222.524L540.296 170.272C540.25 170.119 540.268 169.954 540.344 169.813C540.42 169.672 540.548 169.567 540.701 169.521C540.777 169.497 540.857 169.488 540.937 169.495C541.016 169.503 541.093 169.526 541.163 169.564C541.233 169.602 541.295 169.653 541.344 169.715C541.394 169.777 541.431 169.849 541.452 169.925L556.874 221.905C558.123 222.469 563.707 224.945 565.786 225.518C567.866 226.092 571.199 224.21 572.279 223.586C573.36 222.962 611.386 201.902 616.312 199.169L592.558 138.645C592.498 138.495 592.499 138.327 592.562 138.178C592.626 138.028 592.746 137.91 592.896 137.849C593.047 137.789 593.215 137.79 593.364 137.853C593.513 137.916 593.631 138.036 593.692 138.186L617.66 199.202C617.716 199.342 617.719 199.498 617.666 199.64C617.613 199.781 617.509 199.898 617.374 199.967Z" fill="white"/>
<path d="M545.382 156.648L541.852 158.602C541.71 158.68 541.544 158.7 541.388 158.656C541.232 158.613 541.1 158.51 541.019 158.37C540.953 158.228 540.941 158.066 540.985 157.915C541.029 157.764 541.126 157.634 541.258 157.548L544.798 155.588C544.937 155.508 545.102 155.486 545.257 155.527C545.412 155.569 545.544 155.67 545.625 155.809C545.705 155.948 545.727 156.113 545.685 156.268C545.643 156.423 545.542 156.556 545.403 156.636L545.382 156.648Z" fill="white"/>
<path d="M559.389 222.311C559.25 222.391 559.084 222.413 558.929 222.371C558.774 222.33 558.642 222.229 558.562 222.09C558.482 221.951 558.46 221.785 558.502 221.63C558.543 221.475 558.645 221.343 558.784 221.263L604.594 194.619L583.425 135.592L549.704 154.25C549.566 154.327 549.402 154.346 549.25 154.303C549.097 154.261 548.967 154.16 548.888 154.023C548.824 153.879 548.812 153.717 548.854 153.565C548.897 153.413 548.991 153.28 549.121 153.19L583.455 134.191C583.533 134.149 583.62 134.124 583.709 134.119C583.797 134.113 583.886 134.127 583.969 134.16C584.049 134.191 584.123 134.239 584.184 134.299C584.246 134.36 584.294 134.433 584.326 134.513L605.911 194.696C605.961 194.829 605.962 194.975 605.913 195.109C605.864 195.242 605.769 195.353 605.646 195.423L559.401 222.332L559.389 222.311Z" fill="white"/>
<path d="M613.551 198.626L568.471 223.144C568.321 223.216 568.15 223.23 567.991 223.184L561.774 221.185C561.619 221.141 561.488 221.039 561.408 220.9C561.328 220.762 561.305 220.597 561.344 220.441C561.364 220.365 561.398 220.293 561.446 220.23C561.494 220.167 561.554 220.115 561.622 220.075C561.691 220.036 561.766 220.01 561.844 220C561.923 219.99 562.002 219.996 562.078 220.017L568.04 221.912L612.431 197.778L592.65 145.2L586.744 142.505C586.67 142.474 586.603 142.429 586.547 142.371C586.491 142.314 586.447 142.246 586.419 142.171C586.39 142.096 586.377 142.016 586.379 141.936C586.382 141.856 586.402 141.777 586.436 141.705C586.469 141.632 586.516 141.567 586.575 141.512C586.633 141.458 586.702 141.415 586.777 141.388C586.852 141.36 586.932 141.347 587.012 141.351C587.092 141.354 587.17 141.373 587.243 141.407L593.502 144.205C593.649 144.276 593.762 144.401 593.816 144.555L613.874 197.853C613.93 197.998 613.928 198.16 613.868 198.304C613.807 198.448 613.694 198.564 613.551 198.626Z" fill="white"/>
<path d="M571.123 218.554L577.553 214.841C577.553 214.841 579.444 220.539 581.665 225.669C583.885 230.8 587.197 237.116 587.197 237.116L579.429 232.311L578.271 240.844L571.123 218.554Z" fill="white"/>
</svg>
