<svg width="736" height="473" viewBox="0 0 736 473" fill="none" xmlns="http://www.w3.org/2000/svg">
<path d="M138 437.5C96.5101 457.863 60.5124 473 0 473H736C681.014 473 642 461.482 569.5 426C497 390.518 463.756 372.312 368 371.5C268.487 370.656 219.5 397.5 138 437.5Z" fill="white"/>
<path d="M345.667 250.915C345.667 250.915 330.09 252.327 324.431 242.421C318.772 232.515 328.678 220.475 318.06 216.228C307.442 211.981 294.701 226.145 273.465 214.105C252.229 202.065 263.548 186.5 269.218 174.471C274.888 162.442 277.712 156.772 264.259 148.99C250.806 141.207 235.941 118.55 245.147 96.6153C254.353 74.6803 277.712 84.5755 289.742 73.2576C301.772 61.9397 291.154 48.4771 290.454 30.0775C289.753 11.678 314.514 -2.4853 338.585 1.06083C362.656 4.60697 367.603 30.0776 367.603 46.3537C367.603 62.6298 393.086 66.8873 405.127 48.4771C417.168 30.0669 427.064 25.8307 444.764 33.6131C462.464 41.3954 447.599 67.588 456.093 71.8349C464.588 76.0817 471.659 55.5587 497.142 67.588C522.625 79.6172 508.471 111.469 495.73 119.262C477.191 130.611 499.053 152.621 502.568 166.094C507.718 185.789 491.865 201.545 472.371 200.664C441.228 199.241 433.435 194.293 427.064 203.488C420.693 212.682 440.517 214.816 437.682 229.68C434.847 244.544 429.187 250.203 416.446 250.203C403.704 250.203 395.921 238.885 382.469 244.544C369.016 250.203 352.038 254.45 345.667 250.915Z" fill="#263238" stroke="#263238" stroke-linecap="round" stroke-linejoin="round"/>
<path d="M321.065 352.309C318.782 360.778 317.974 369.577 318.676 378.321C320.003 391.857 326.905 399.024 356.9 403.536C386.896 408.049 407.601 404.333 424.324 396.37C441.047 388.407 437.257 359.836 432.914 353.285C428.571 346.735 411.848 345.407 384.772 347.796C357.697 350.185 340.974 345.938 331.152 347.531C321.33 349.123 321.065 352.309 321.065 352.309Z" fill="#1B2327"/>
<path d="M314.302 271.565L312.539 307.026C312.539 307.026 309.354 315.265 315.087 320.553C320.821 325.84 328.211 324.279 332.076 317.421C335.941 310.562 335.41 294.689 336.387 288.414C337.364 282.14 329.73 275.674 323.454 273.327C317.179 270.981 314.302 271.565 314.302 271.565Z" fill="white"/>
<path d="M438.467 271.565L440.23 307.026C440.23 307.026 443.362 315.265 437.682 320.553C432.001 325.84 424.547 324.279 420.629 317.421C416.711 310.562 417.295 294.689 416.318 288.414C415.341 282.14 422.986 275.674 429.251 273.327C435.516 270.981 438.467 271.565 438.467 271.565Z" fill="white"/>
<path d="M362.284 218.723C362.284 218.723 362.953 233.481 359.375 239.735C355.796 245.988 344.393 245.606 337.024 245.606C329.655 245.606 318.687 251.637 315.108 257.678C312.409 262.631 310.094 267.785 308.186 273.094L332.777 286.28C332.777 286.28 330.09 291.43 332.777 299.021C335.463 306.612 339.477 309.532 338.362 313.333C337.247 317.134 322.711 344.176 321.373 348.423C320.697 350.389 320.175 352.406 319.812 354.453C319.812 354.453 350.88 360.494 377.924 359.603C404.968 358.711 432.914 353.338 432.914 353.338C432.914 353.338 424.643 338.814 420.173 330.543C415.703 322.273 411.678 313.779 412.57 310.87C413.462 307.961 418.612 300.146 418.389 286.503C418.389 286.503 438.276 281.365 445.656 273.094C445.656 273.094 436.939 251.414 427.998 247.836C419.058 244.258 408.78 247.836 401.453 245.829C394.127 243.822 390.273 240.234 389.158 237.558C388.043 234.883 386.917 222.354 387.363 219.456L362.284 218.723Z" fill="#8E6CED"/>
<path opacity="0.1" d="M339.646 305.062C339.646 305.062 332.214 297.099 340.708 296.038C349.202 294.976 361.413 303.47 374.685 306.655C387.958 309.84 403.885 295.507 410.786 297.63C417.688 299.754 413.441 310.371 406.008 315.148C398.576 319.926 377.871 319.395 366.191 318.864C354.511 318.334 348.671 315.148 339.646 305.062Z" fill="black"/>
<path d="M376.586 273.041C394.074 272.351 399.563 255.522 401.283 245.744C393.989 243.727 390.22 240.17 389.105 237.505C387.99 234.84 386.864 222.301 387.31 219.403L362.284 218.723C362.284 218.723 362.953 233.481 359.375 239.735C357.548 242.92 353.662 244.385 349.319 245.043C350.976 252.061 357.697 273.795 376.586 273.041Z" fill="white"/>
<path opacity="0.3" d="M387.746 229.744C387.3 226.316 387.155 222.856 387.31 219.403L362.284 218.723C362.415 222.525 362.284 226.332 361.891 230.116C366.287 232.993 375.195 236.433 387.746 229.744Z" fill="black"/>
<path d="M351.666 188.273C351.666 188.273 348.481 183.082 345.348 186.245C342.216 189.409 345.348 195.716 347.376 198.646C349.404 201.577 353.237 203.828 354.14 202.702C355.042 201.577 351.666 188.273 351.666 188.273Z" fill="white" stroke="#263238" stroke-linecap="round" stroke-linejoin="round"/>
<path d="M400.593 187.806C400.593 187.806 405.106 181.945 407.591 187.583C410.075 193.221 403.343 201.789 400.158 203.371C396.973 204.953 398.576 199.761 398.799 197.956C399.022 196.151 400.593 187.806 400.593 187.806Z" fill="white" stroke="#263238" stroke-linecap="round" stroke-linejoin="round"/>
<path d="M349.203 168.419C349.203 168.419 350.785 189.845 351.91 200.664C353.036 211.482 357.071 221.187 369.472 224.372C381.874 227.557 391.77 223.246 395.412 216.027C399.054 208.807 401.05 195.058 401.05 183.782V165.733C401.05 165.733 369.026 156.698 349.203 168.419Z" fill="white"/>
<path d="M373.083 199.082C374.229 199.843 375.546 200.309 376.916 200.441C378.351 200.291 379.736 199.827 380.972 199.082" stroke="#263238" stroke-linecap="round" stroke-linejoin="round"/>
<path d="M370.152 206.078C370.152 206.078 375.79 209.688 383.955 205.622" stroke="#263238" stroke-linecap="round" stroke-linejoin="round"/>
<path d="M361.137 187.806C361.137 187.806 365.873 187.137 368.57 188.942" stroke="#263238" stroke-width="2" stroke-linecap="round" stroke-linejoin="round"/>
<path d="M383.233 188.709C383.233 188.709 387.746 186.458 392.025 188.486" stroke="#263238" stroke-width="2" stroke-linecap="round" stroke-linejoin="round"/>
<path d="M350.54 185.757C352.087 183.149 353.296 180.356 354.14 177.444C355.511 173.632 355.937 169.544 355.382 165.531C353.239 166.304 351.17 167.271 349.203 168.419C349.203 168.419 349.797 176.817 350.54 185.757Z" fill="#263238" stroke="#263238" stroke-linecap="round" stroke-linejoin="round"/>
<path d="M401.04 183.963C401.04 183.888 401.04 183.825 401.04 183.75V165.701C401.04 165.701 398.831 165.085 395.231 164.385C395.465 167.888 396.516 178.452 401.04 183.963Z" fill="#263238" stroke="#263238" stroke-linecap="round" stroke-linejoin="round"/>
<path d="M359.332 179.918C359.332 179.918 363.165 174.736 371.277 176.308" stroke="#263238" stroke-linecap="round" stroke-linejoin="round"/>
<path d="M382.776 176.987C384.627 176.31 386.626 176.141 388.564 176.498C390.502 176.854 392.309 177.724 393.798 179.015" stroke="#263238" stroke-linecap="round" stroke-linejoin="round"/>
<path d="M378.667 391.061C378.667 391.061 368.315 391.061 349.733 372.746C331.152 354.432 319.472 339.037 305.138 332.667C290.804 326.296 277.001 340.364 277.797 355.494C278.593 370.623 289.742 391.857 322.923 404.067C356.104 416.277 384.507 411.234 387.427 411.234C390.347 411.234 404.681 418.4 413.176 419.197C417.852 419.697 422.568 419.697 427.244 419.197C427.244 419.197 429.633 419.462 430.961 419.462C432.288 419.462 433.881 417.869 433.881 417.869C433.881 417.869 436.567 418.57 437.629 416.712C438.691 414.854 437.862 414.153 437.862 414.153C437.862 414.153 442.407 414.546 443.999 411.627C445.592 408.707 443.32 408.824 443.32 408.824C443.32 408.824 446.431 408.218 446.357 405.713C446.415 404.78 446.232 403.847 445.826 403.005C445.826 403.005 447.684 400.086 446.888 397.697C446.091 395.308 443.171 394.512 440.251 395.839C437.331 397.166 423.263 396.635 411.848 395.839C400.434 395.043 378.667 391.061 378.667 391.061Z" fill="white"/>
<path d="M374.049 389.999C369.313 388.29 361.052 383.937 349.734 372.778C331.152 354.432 319.472 339.037 305.138 332.667C290.804 326.296 277.001 340.364 277.797 355.494C278.593 370.623 289.742 391.857 322.923 404.067C335.299 408.587 348.182 410.156 361.335 410.909C373.397 405.876 374.611 396.37 374.049 389.999Z" fill="#263238"/>
<path opacity="0.3" d="M369.536 406.286C364.301 404.301 358.185 402.177 351.326 400.086C326.905 392.654 308.854 383.629 296.644 369.827C284.433 356.024 288.68 338.506 288.68 338.506L285.867 335.958C283.165 338.418 281.04 341.446 279.645 344.823C278.25 348.2 277.619 351.844 277.797 355.494C278.593 370.623 289.742 391.857 322.923 404.067C335.298 408.587 348.182 409.521 361.335 410.274C364.456 409.035 367.326 408.815 369.536 406.286Z" fill="black"/>
<path d="M445.826 403.006C445.011 402.639 444.124 402.46 443.231 402.482C442.338 402.504 441.461 402.727 440.666 403.133" fill="white"/>
<path d="M445.826 403.006C445.011 402.639 444.124 402.46 443.231 402.482C442.338 402.504 441.461 402.727 440.666 403.133" stroke="#263238" stroke-linecap="round" stroke-linejoin="round"/>
<path d="M443.32 408.824C441.948 408.326 440.445 408.326 439.073 408.824Z" fill="white"/>
<path d="M443.32 408.824C441.948 408.326 440.445 408.326 439.073 408.824" stroke="#263238" stroke-linecap="round" stroke-linejoin="round"/>
<path d="M437.862 414.153C436.882 413.416 435.667 413.058 434.443 413.145Z" fill="white"/>
<path d="M437.862 414.153C436.882 413.416 435.667 413.058 434.443 413.145" stroke="#263238" stroke-linecap="round" stroke-linejoin="round"/>
<path d="M433.604 417.604C433.604 417.604 432.468 415.555 430.801 415.555Z" fill="white"/>
<path d="M433.604 417.604C433.604 417.604 432.468 415.555 430.801 415.555" stroke="#263238" stroke-linecap="round" stroke-linejoin="round"/>
<path d="M366.892 391.061C366.892 391.061 377.245 391.061 395.826 372.746C414.407 354.432 426.087 339.037 440.421 332.667C454.756 326.296 468.559 340.364 467.762 355.494C466.966 370.623 455.817 391.857 422.636 404.067C389.455 416.277 361.052 411.234 358.132 411.234C355.212 411.234 340.878 418.4 332.384 419.197C327.708 419.697 322.991 419.697 318.315 419.197C318.315 419.197 315.926 419.462 314.599 419.462C313.272 419.462 311.679 417.869 311.679 417.869C311.679 417.869 308.993 418.57 307.931 416.712C306.869 414.854 307.697 414.153 307.697 414.153C307.697 414.153 303.142 414.546 301.549 411.627C299.957 408.707 302.229 408.824 302.229 408.824C302.229 408.824 299.118 408.218 299.192 405.713C299.131 404.778 299.318 403.844 299.734 403.005C299.734 403.005 297.876 400.086 298.672 397.697C299.468 395.308 302.388 394.512 305.308 395.839C308.228 397.166 322.297 396.635 333.711 395.839C345.125 395.043 366.892 391.061 366.892 391.061Z" fill="white"/>
<path d="M371.5 389.999C376.225 388.29 384.486 383.937 395.816 372.778C414.397 354.464 426.077 339.069 440.411 332.699C454.745 326.328 468.548 340.396 467.752 355.525C466.956 370.655 455.807 391.889 422.626 404.099C410.247 408.62 397.272 411.3 384.115 412.051C372.063 406.987 370.948 396.37 371.5 389.999Z" fill="#263238"/>
<path opacity="0.3" d="M467.762 355.494C468.315 344.951 461.774 334.939 452.897 331.977L449.011 334.79C449.011 334.79 462.284 342.753 459.098 358.148C455.913 373.543 429.899 389.469 409.194 397.962C398.885 402.003 388.305 405.313 377.531 407.868C379.466 409.631 381.699 411.036 384.125 412.019C397.282 411.268 410.258 408.588 422.636 404.067C455.817 391.857 466.966 370.623 467.762 355.494Z" fill="black"/>
<path d="M299.734 403.006C300.549 402.639 301.435 402.46 302.329 402.482C303.222 402.504 304.098 402.727 304.894 403.133" fill="white"/>
<path d="M299.734 403.006C300.549 402.639 301.435 402.46 302.329 402.482C303.222 402.504 304.098 402.727 304.894 403.133" stroke="#263238" stroke-linecap="round" stroke-linejoin="round"/>
<path d="M302.229 408.824C303.601 408.326 305.104 408.326 306.476 408.824Z" fill="white"/>
<path d="M302.229 408.824C303.601 408.326 305.104 408.326 306.476 408.824" stroke="#263238" stroke-linecap="round" stroke-linejoin="round"/>
<path d="M307.697 414.153C308.678 413.416 309.892 413.058 311.116 413.145Z" fill="white"/>
<path d="M307.697 414.153C308.678 413.416 309.892 413.058 311.116 413.145" stroke="#263238" stroke-linecap="round" stroke-linejoin="round"/>
<path d="M311.955 417.604C311.955 417.604 313.102 415.481 314.758 415.481Z" fill="white"/>
<path d="M311.955 417.604C311.955 417.604 313.102 415.481 314.758 415.481" stroke="#263238" stroke-linecap="round" stroke-linejoin="round"/>
<path d="M318.804 309.383C318.804 309.383 314.886 308.598 307.835 312.123C300.785 315.647 294.308 321.922 290.581 324.077C286.854 326.233 284.317 327.613 281.025 324.279C277.733 320.945 270.641 311.73 263.973 311.931C257.305 312.133 254.958 321.338 256.137 323.292C257.315 325.245 259.078 325.649 260.447 324.077C261.817 322.506 263.58 319.374 265.342 320.553C267.105 321.731 266.128 327.22 263.389 328.197C260.649 329.174 253.195 333.877 254.958 336.627C256.721 339.377 266.723 343.093 274.166 343.677C281.609 344.261 290.825 339.175 296.899 338.188C302.972 337.2 319.441 336.064 327.075 329.768C329.274 327.979 330.959 325.64 331.958 322.988C332.958 320.335 333.237 317.466 332.766 314.671" fill="white"/>
<path d="M255.892 332.508C255.892 332.508 255.117 323.886 252.569 323.292C250.021 322.697 249.628 328.6 250.021 334.27C250.413 339.94 253.546 341.521 255.499 339.95C257.453 338.379 255.892 332.508 255.892 332.508Z" fill="white" stroke="#263238" stroke-linecap="round" stroke-linejoin="round"/>
<path d="M262.019 334.939C262.019 334.939 262.762 326.307 260.362 325.277C257.963 324.247 256.54 329.97 255.913 335.629C255.287 341.288 258.111 343.39 260.32 342.201C262.528 341.012 262.019 334.939 262.019 334.939Z" fill="white" stroke="#263238" stroke-linecap="round" stroke-linejoin="round"/>
<path d="M267.307 336.914C267.307 336.914 268.06 328.292 265.65 327.263C263.24 326.233 261.828 331.955 261.212 337.614C260.596 343.273 263.399 345.375 265.608 344.176C267.816 342.976 267.307 336.914 267.307 336.914Z" fill="white" stroke="#263238" stroke-linecap="round" stroke-linejoin="round"/>
<path d="M281.173 343.284C277.615 344.925 273.729 345.731 269.812 345.641C269.585 344.015 269.454 342.377 269.419 340.736C269.419 338.612 273.921 329.768 280.59 330.352" fill="white"/>
<path d="M281.173 343.284C277.615 344.925 273.729 345.731 269.812 345.641C269.585 344.015 269.454 342.377 269.419 340.736C269.419 338.612 273.921 329.768 280.59 330.352" stroke="#263238" stroke-linecap="round" stroke-linejoin="round"/>
<path d="M272.924 340.279C272.924 340.279 275.419 333.527 273.359 331.955C271.299 330.384 268.761 334.567 266.988 338.963C265.215 343.358 267.455 345.928 269.791 345.641C272.127 345.354 272.924 340.279 272.924 340.279Z" fill="white" stroke="#263238" stroke-linecap="round" stroke-linejoin="round"/>
<path d="M433.955 309.383C433.955 309.383 437.873 308.598 444.934 312.123C451.995 315.647 458.451 321.922 462.177 324.077C465.904 326.233 468.453 327.613 471.787 324.279C475.121 320.945 482.171 311.73 488.828 311.931C495.486 312.133 497.843 321.338 496.675 323.292C495.507 325.245 493.734 325.649 492.364 324.077C490.994 322.506 489.179 319.374 487.459 320.553C485.739 321.731 486.673 327.22 489.423 328.197C492.173 329.174 499.616 333.877 497.843 336.627C496.07 339.377 486.089 343.093 478.646 343.677C471.203 344.261 461.986 339.175 455.902 338.188C449.818 337.2 433.371 336.064 425.726 329.768C423.528 327.98 421.843 325.64 420.845 322.987C419.847 320.335 419.571 317.465 420.045 314.671" fill="white"/>
<path d="M496.866 332.508C496.866 332.508 497.652 323.886 500.2 323.292C502.748 322.697 503.141 328.6 502.748 334.27C502.356 339.94 499.223 341.521 497.259 339.95C495.295 338.379 496.866 332.508 496.866 332.508Z" fill="white" stroke="#263238" stroke-linecap="round" stroke-linejoin="round"/>
<path d="M490.75 334.939C490.75 334.939 489.997 326.307 492.396 325.277C494.796 324.247 496.229 329.97 496.845 335.629C497.461 341.288 494.668 343.39 492.449 342.222C490.23 341.054 490.75 334.939 490.75 334.939Z" fill="white" stroke="#263238" stroke-linecap="round" stroke-linejoin="round"/>
<path d="M485.452 336.914C485.452 336.914 484.709 328.292 487.108 327.263C489.508 326.233 490.941 331.955 491.557 337.614C492.173 343.273 489.359 345.375 487.161 344.176C484.964 342.976 485.452 336.914 485.452 336.914Z" fill="white" stroke="#263238" stroke-linecap="round" stroke-linejoin="round"/>
<path d="M471.585 343.284C475.156 344.93 479.057 345.736 482.989 345.641C483.216 344.015 483.347 342.377 483.381 340.736C483.381 338.612 478.869 329.768 472.201 330.352" fill="white"/>
<path d="M471.585 343.284C475.156 344.93 479.057 345.736 482.989 345.641C483.216 344.015 483.347 342.377 483.381 340.736C483.381 338.612 478.869 329.768 472.201 330.352" stroke="#263238" stroke-linecap="round" stroke-linejoin="round"/>
<path d="M479.803 340.279C479.803 340.279 477.308 333.527 479.368 331.955C481.427 330.384 483.955 334.567 485.738 338.963C487.522 343.358 485.271 345.928 482.935 345.641C480.599 345.354 479.803 340.279 479.803 340.279Z" fill="white" stroke="#263238" stroke-linecap="round" stroke-linejoin="round"/>
<path d="M371.128 156.933C368.011 152.738 363.813 149.468 358.982 147.473C351.209 144.437 356.274 138.364 359.65 140.041C361.829 141.111 364.087 142.013 366.403 142.738C366.403 142.738 357.622 135.646 357.293 129.573C356.964 123.5 366.403 131.261 366.403 131.261C366.403 131.261 354.926 115.462 358.642 112.702C362.358 109.942 365.724 115.07 368.092 119.454C369.773 122.731 371.238 126.115 372.477 129.583C372.477 129.583 371.808 118.446 375.524 121.822C379.241 125.198 376.873 142.08 376.873 142.08C376.873 142.08 381.938 128.277 384.305 135.709C386.673 143.141 372.148 155.914 371.128 156.933Z" stroke="#8E6CED" stroke-linecap="round" stroke-linejoin="round"/>
<path d="M371.128 156.933C371.128 156.933 376.533 140.721 365.395 119.773" stroke="#8E6CED" stroke-linecap="round" stroke-linejoin="round"/>
<path d="M352.6 49.3069C348.729 49.2775 344.923 50.3014 341.589 52.269C336.28 55.4542 335.006 49.7952 337.512 48.553C339.115 47.7408 340.655 46.8111 342.12 45.7713C342.12 45.7713 334.008 47.7886 330.27 45.2723C326.533 42.7561 335.335 40.6432 335.335 40.6432C335.335 40.6432 320.842 40.346 320.905 36.9485C320.969 33.551 325.461 33.7633 329.113 34.3791C331.799 34.8493 334.452 35.4912 337.055 36.3008C337.055 36.3008 330.175 31.7248 333.817 30.9922C337.459 30.2597 346.388 39.2312 346.388 39.2312C346.388 39.2312 340.474 30.0686 345.911 31.9796C351.347 33.8907 352.451 48.2558 352.6 49.3069Z" stroke="#8E6CED" stroke-linecap="round" stroke-linejoin="round"/>
<path d="M352.6 49.3069C352.6 49.3069 345.444 38.8808 328.104 36.1204" stroke="#8E6CED" stroke-linecap="round" stroke-linejoin="round"/>
<path d="M419.663 116.386C419.362 116.392 419.063 116.431 418.771 116.503C419.22 116.075 419.56 115.545 419.762 114.958C419.963 114.371 420.021 113.744 419.93 113.131C419.839 112.517 419.602 111.934 419.239 111.431C418.876 110.927 418.397 110.519 417.843 110.239C417.289 109.959 416.676 109.817 416.056 109.823C415.435 109.83 414.825 109.985 414.277 110.277C413.729 110.568 413.259 110.987 412.907 111.497C412.554 112.008 412.33 112.596 412.252 113.212C412.003 112.687 411.639 112.225 411.188 111.86C410.737 111.495 410.209 111.235 409.645 111.101C409.08 110.967 408.492 110.962 407.925 111.085C407.357 111.209 406.825 111.458 406.367 111.815C405.909 112.172 405.538 112.627 405.279 113.147C405.021 113.667 404.883 114.238 404.875 114.819C404.867 115.399 404.989 115.974 405.233 116.501C405.477 117.027 405.836 117.493 406.284 117.862C405.783 118.113 405.343 118.469 404.993 118.907C404.643 119.345 404.392 119.853 404.258 120.397C404.123 120.941 404.108 121.508 404.214 122.058C404.32 122.608 404.544 123.129 404.87 123.584C405.196 124.04 405.618 124.419 406.105 124.696C406.592 124.973 407.133 125.141 407.692 125.188C408.25 125.236 408.812 125.161 409.339 124.971C409.866 124.78 410.345 124.477 410.744 124.084C410.831 125.057 411.284 125.96 412.011 126.613C412.738 127.265 413.686 127.618 414.662 127.601C415.639 127.583 416.573 127.197 417.276 126.518C417.979 125.84 418.4 124.921 418.452 123.946C418.843 124.076 419.251 124.148 419.663 124.158C420.694 124.158 421.682 123.748 422.411 123.02C423.14 122.291 423.549 121.303 423.549 120.272C423.549 119.241 423.14 118.253 422.411 117.524C421.682 116.796 420.694 116.386 419.663 116.386V116.386Z" stroke="#8E6CED" stroke-linecap="round" stroke-linejoin="round"/>
<path d="M413.048 122.13C414.531 122.13 415.734 120.927 415.734 119.444C415.734 117.96 414.531 116.758 413.048 116.758C411.564 116.758 410.361 117.96 410.361 119.444C410.361 120.927 411.564 122.13 413.048 122.13Z" stroke="#8E6CED" stroke-linecap="round" stroke-linejoin="round"/>
<path d="M341.961 146.953C341.656 146.958 341.354 146.998 341.058 147.07C341.51 146.643 341.852 146.113 342.057 145.526C342.261 144.938 342.32 144.311 342.231 143.695C342.141 143.08 341.905 142.495 341.542 141.991C341.179 141.486 340.7 141.076 340.145 140.795C339.59 140.515 338.976 140.372 338.354 140.379C337.732 140.385 337.121 140.542 336.572 140.834C336.024 141.127 335.553 141.547 335.201 142.059C334.849 142.572 334.626 143.161 334.549 143.778C334.169 142.986 333.53 142.347 332.738 141.965C331.946 141.584 331.048 141.483 330.191 141.679C329.334 141.875 328.569 142.357 328.022 143.045C327.475 143.734 327.178 144.587 327.181 145.466C327.181 146.033 327.307 146.592 327.55 147.104C327.792 147.617 328.145 148.069 328.582 148.429C328.081 148.68 327.641 149.036 327.291 149.474C326.941 149.912 326.69 150.42 326.556 150.964C326.421 151.508 326.406 152.074 326.512 152.625C326.618 153.175 326.841 153.696 327.168 154.151C327.494 154.606 327.916 154.986 328.403 155.263C328.89 155.539 329.431 155.707 329.99 155.755C330.548 155.802 331.11 155.728 331.637 155.537C332.164 155.347 332.643 155.044 333.042 154.65C333.145 155.61 333.603 156.497 334.327 157.136C335.051 157.774 335.988 158.119 336.954 158.102C337.919 158.084 338.843 157.706 339.544 157.042C340.244 156.378 340.671 155.475 340.74 154.512C341.132 154.649 341.545 154.721 341.961 154.725C342.991 154.725 343.98 154.315 344.709 153.586C345.437 152.858 345.847 151.869 345.847 150.839C345.847 149.808 345.437 148.82 344.709 148.091C343.98 147.362 342.991 146.953 341.961 146.953V146.953Z" stroke="#8E6CED" stroke-linecap="round" stroke-linejoin="round"/>
<path d="M335.335 152.697C336.819 152.697 338.022 151.494 338.022 150.011C338.022 148.527 336.819 147.324 335.335 147.324C333.852 147.324 332.649 148.527 332.649 150.011C332.649 151.494 333.852 152.697 335.335 152.697Z" stroke="#8E6CED" stroke-linecap="round" stroke-linejoin="round"/>
<path d="M339.837 98.6661C339.647 98.6692 339.459 98.6941 339.274 98.7404C339.513 98.5178 339.704 98.2482 339.833 97.9486C339.963 97.6489 340.03 97.3257 340.028 96.9992C340.057 96.3681 339.838 95.7509 339.416 95.2803C338.994 94.8097 338.405 94.5234 337.775 94.4831C337.144 94.4427 336.523 94.6515 336.045 95.0645C335.567 95.4775 335.27 96.0617 335.218 96.6913C335.063 96.3652 334.837 96.0782 334.556 95.8514C334.275 95.6246 333.946 95.4638 333.595 95.381C333.243 95.2982 332.878 95.2954 332.525 95.3729C332.172 95.4504 331.841 95.6061 331.557 95.8286C331.273 96.051 331.042 96.3346 330.882 96.6583C330.721 96.982 330.636 97.3375 330.632 97.6985C330.628 98.0596 330.705 98.4171 330.857 98.7444C331.01 99.0717 331.234 99.3606 331.513 99.5898C331.114 99.7838 330.777 100.085 330.541 100.461C330.304 100.836 330.178 101.27 330.175 101.713C330.16 102.202 330.294 102.683 330.559 103.094C330.823 103.505 331.205 103.826 331.656 104.016C332.106 104.205 332.603 104.254 333.082 104.156C333.56 104.057 333.998 103.817 334.337 103.465C334.404 104.062 334.692 104.613 335.144 105.009C335.596 105.405 336.179 105.618 336.78 105.606C337.381 105.594 337.956 105.358 338.392 104.944C338.828 104.531 339.093 103.969 339.136 103.369C339.378 103.459 339.633 103.506 339.89 103.507C340.532 103.507 341.148 103.252 341.602 102.798C342.056 102.345 342.311 101.729 342.311 101.087C342.311 100.445 342.056 99.829 341.602 99.3751C341.148 98.9211 340.532 98.6661 339.89 98.6661H339.837Z" stroke="#8E6CED" stroke-linecap="round" stroke-linejoin="round"/>
<path d="M335.718 102.244C336.644 102.244 337.395 101.493 337.395 100.567C337.395 99.6401 336.644 98.889 335.718 98.889C334.791 98.889 334.04 99.6401 334.04 100.567C334.04 101.493 334.791 102.244 335.718 102.244Z" stroke="#8E6CED" stroke-linecap="round" stroke-linejoin="round"/>
<path d="M317.954 172.795C317.768 172.798 317.582 172.823 317.402 172.869C317.637 172.645 317.825 172.375 317.952 172.075C318.08 171.776 318.146 171.454 318.145 171.128C318.142 170.518 317.908 169.931 317.489 169.487C317.07 169.042 316.499 168.773 315.889 168.734C315.28 168.695 314.678 168.889 314.206 169.276C313.734 169.663 313.427 170.215 313.346 170.82C313.189 170.497 312.962 170.212 312.681 169.988C312.401 169.764 312.073 169.605 311.723 169.523C311.373 169.442 311.009 169.44 310.658 169.517C310.307 169.594 309.977 169.749 309.694 169.97C309.411 170.191 309.18 170.473 309.02 170.795C308.859 171.116 308.773 171.47 308.766 171.829C308.76 172.188 308.835 172.545 308.984 172.872C309.133 173.199 309.354 173.488 309.63 173.719C309.319 173.876 309.047 174.098 308.83 174.37C308.614 174.642 308.459 174.957 308.376 175.294C308.293 175.632 308.284 175.983 308.35 176.325C308.416 176.666 308.554 176.989 308.756 177.272C308.958 177.554 309.219 177.79 309.521 177.962C309.823 178.135 310.158 178.24 310.504 178.27C310.851 178.301 311.199 178.256 311.527 178.14C311.854 178.023 312.152 177.837 312.401 177.594C312.468 178.191 312.755 178.742 313.207 179.138C313.659 179.534 314.243 179.747 314.844 179.735C315.445 179.723 316.02 179.487 316.456 179.073C316.891 178.66 317.157 178.098 317.2 177.499C317.442 177.587 317.697 177.634 317.954 177.637C318.596 177.637 319.212 177.381 319.666 176.928C320.12 176.474 320.375 175.858 320.375 175.216C320.375 174.574 320.12 173.958 319.666 173.504C319.212 173.05 318.596 172.795 317.954 172.795V172.795Z" stroke="#8E6CED" stroke-linecap="round" stroke-linejoin="round"/>
<path d="M313.834 176.373C314.76 176.373 315.512 175.622 315.512 174.696C315.512 173.769 314.76 173.018 313.834 173.018C312.907 173.018 312.156 173.769 312.156 174.696C312.156 175.622 312.907 176.373 313.834 176.373Z" stroke="#8E6CED" stroke-linecap="round" stroke-linejoin="round"/>
<path d="M364.949 58.4376C364.762 58.4407 364.577 58.4657 364.396 58.5119C364.675 58.2456 364.885 57.9166 365.01 57.5523C365.134 57.1881 365.17 56.7993 365.114 56.4184C365.057 56.0375 364.911 55.6757 364.686 55.3632C364.461 55.0507 364.164 54.7967 363.821 54.6223C363.478 54.448 363.097 54.3584 362.712 54.3611C362.327 54.3639 361.949 54.4588 361.608 54.638C361.267 54.8172 360.974 55.0754 360.754 55.391C360.533 55.7067 360.391 56.0705 360.34 56.4522C360.105 55.956 359.706 55.5554 359.211 55.3165C358.717 55.0777 358.155 55.015 357.62 55.1389C357.085 55.2628 356.608 55.5658 356.268 55.9977C355.929 56.4297 355.747 56.9646 355.753 57.5139C355.753 57.8655 355.831 58.2127 355.982 58.5305C356.132 58.8482 356.352 59.1284 356.624 59.3507C356.134 59.5898 355.74 59.9881 355.505 60.4805C355.271 60.9728 355.21 61.5301 355.333 62.0613C355.457 62.5925 355.756 63.0662 356.184 63.405C356.611 63.7438 357.141 63.9277 357.686 63.9267C358 63.927 358.31 63.8652 358.6 63.7449C358.89 63.6247 359.153 63.4483 359.374 63.2259C359.44 63.8231 359.727 64.3741 360.178 64.7709C360.629 65.1678 361.212 65.3819 361.813 65.3713C362.413 65.3606 362.988 65.126 363.425 64.7135C363.862 64.3009 364.129 63.7401 364.173 63.141C364.416 63.2246 364.671 63.2711 364.927 63.279C365.569 63.279 366.185 63.024 366.639 62.57C367.093 62.116 367.348 61.5003 367.348 60.8583C367.348 60.2163 367.093 59.6006 366.639 59.1466C366.185 58.6926 365.569 58.4376 364.927 58.4376H364.949Z" stroke="#8E6CED" stroke-linecap="round" stroke-linejoin="round"/>
<path d="M360.829 62.0157C361.756 62.0157 362.507 61.2646 362.507 60.3382C362.507 59.4117 361.756 58.6606 360.829 58.6606C359.902 58.6606 359.151 59.4117 359.151 60.3382C359.151 61.2646 359.902 62.0157 360.829 62.0157Z" stroke="#8E6CED" stroke-linecap="round" stroke-linejoin="round"/>
<path d="M416.817 73.7157C416.627 73.7188 416.438 73.7438 416.254 73.7901C416.493 73.5675 416.684 73.2979 416.813 72.9983C416.943 72.6986 417.009 72.3754 417.008 72.0488C417.037 71.4178 416.817 70.8005 416.396 70.33C415.974 69.8594 415.385 69.5731 414.754 69.5328C414.124 69.4924 413.503 69.7012 413.025 70.1142C412.547 70.5272 412.25 71.1113 412.198 71.741C412.043 71.4149 411.817 71.1278 411.536 70.9011C411.255 70.6743 410.926 70.5135 410.575 70.4307C410.223 70.3479 409.858 70.3451 409.505 70.4226C409.152 70.5 408.821 70.6558 408.537 70.8783C408.252 71.1007 408.022 71.3843 407.861 71.708C407.701 72.0316 407.616 72.3872 407.612 72.7482C407.608 73.1093 407.685 73.4667 407.837 73.7941C407.989 74.1214 408.214 74.4103 408.493 74.6394C408.094 74.8335 407.757 75.1351 407.521 75.5103C407.284 75.8856 407.158 76.3194 407.155 76.7629C407.156 77.2385 407.297 77.7033 407.56 78.0992C407.823 78.4952 408.198 78.8048 408.636 78.9894C409.074 79.174 409.557 79.2255 410.025 79.1373C410.492 79.049 410.923 78.8251 411.264 78.4935C411.331 79.0907 411.619 79.6413 412.071 80.0374C412.523 80.4335 413.106 80.6465 413.707 80.6345C414.308 80.6225 414.883 80.3865 415.319 79.9728C415.755 79.559 416.02 78.9973 416.063 78.3979C416.305 78.4875 416.56 78.5342 416.817 78.536C417.459 78.536 418.075 78.2809 418.529 77.8269C418.983 77.373 419.238 76.7572 419.238 76.1152C419.238 75.4732 418.983 74.8575 418.529 74.4035C418.075 73.9495 417.459 73.6945 416.817 73.6945V73.7157Z" stroke="#8E6CED" stroke-linecap="round" stroke-linejoin="round"/>
<path d="M412.698 77.2938C413.624 77.2938 414.375 76.5427 414.375 75.6162C414.375 74.6898 413.624 73.9387 412.698 73.9387C411.771 73.9387 411.02 74.6898 411.02 75.6162C411.02 76.5427 411.771 77.2938 412.698 77.2938Z" stroke="#8E6CED" stroke-linecap="round" stroke-linejoin="round"/>
<path d="M385.303 104.845C386.655 101.173 388.313 97.6215 390.262 94.2281C392.736 90.3316 401.58 89.6309 401.58 89.6309C401.58 89.6309 396.983 97.0629 394.859 100.598C392.736 104.134 385.303 104.845 385.303 104.845Z" stroke="#8E6CED" stroke-linecap="round" stroke-linejoin="round"/>
<path d="M385.303 104.845C385.303 104.845 392.024 95.2899 399.818 90.6926" stroke="#8E6CED" stroke-linecap="round" stroke-linejoin="round"/>
<path d="M283.233 139.287C287.05 138.423 290.932 137.88 294.839 137.663C299.447 137.663 304.873 144.649 304.873 144.649C304.873 144.649 296.124 144.84 292.004 144.989C287.884 145.137 283.233 139.287 283.233 139.287Z" stroke="#8E6CED" stroke-linecap="round" stroke-linejoin="round"/>
<path d="M283.233 139.287C283.233 139.287 294.913 139.723 303.015 143.736" stroke="#8E6CED" stroke-linecap="round" stroke-linejoin="round"/>
<path d="M440.761 131.208C440.761 131.208 439.04 123.213 435.292 123.68C431.544 124.147 434.57 133.554 434.57 133.554C434.57 133.554 429.644 134.956 429.877 137.068C430.111 139.181 433.615 137.419 436.651 136.952C436.651 136.952 435.43 142.441 438.711 143.322C441.992 144.203 441.366 136.081 441.366 136.081C441.366 136.081 448.692 137.578 450.752 134.297C453.141 130.528 443.808 130.73 440.761 131.208Z" stroke="#8E6CED" stroke-linecap="round" stroke-linejoin="round"/>
<path d="M440.761 128.745C440.761 128.745 433.923 139.139 434.326 140.232C434.73 141.326 442.13 131.208 443.362 129.976C444.594 128.745 442.406 126.961 440.761 128.745Z" fill="#263238" stroke="#8E6CED" stroke-linecap="round" stroke-linejoin="round"/>
<path d="M443.362 129.976C443.362 129.976 447.875 125.867 450.062 127.513C452.249 129.159 449.659 129.424 449.383 128.882" stroke="#8E6CED" stroke-linecap="round" stroke-linejoin="round"/>
<path d="M441.175 127.916C441.175 127.916 442.406 121.896 441.037 120.665C439.667 119.433 439.115 121.079 440.081 122.035" stroke="#8E6CED" stroke-linecap="round" stroke-linejoin="round"/>
<path d="M375.747 81.0203C372.095 75.7117 366.446 80.8823 364.928 82.4642C363.399 80.8823 357.75 75.6905 354.097 81.0203C350.116 86.8066 364.79 98.8677 364.928 98.8146C365.066 98.7616 379.708 86.796 375.747 81.0203Z" stroke="#8E6CED" stroke-linecap="round" stroke-linejoin="round"/>
<path d="M325.068 60.3169C321.288 58.066 319.281 62.8756 318.782 64.2771C317.391 63.7356 312.411 62.1537 311.679 66.4642C310.872 71.1676 323.358 74.459 323.433 74.3846C323.507 74.3103 329.166 62.7588 325.068 60.3169Z" stroke="#8E6CED" stroke-linecap="round" stroke-linejoin="round"/>
<path d="M289.827 104.102C285.442 103.773 285.782 108.975 285.973 110.472C284.486 110.61 279.326 111.385 280.589 115.59C281.959 120.166 294.616 117.533 294.637 117.437C294.658 117.342 294.584 104.463 289.827 104.102Z" stroke="#8E6CED" stroke-linecap="round" stroke-linejoin="round"/>
<path d="M429.017 172.88C432.5 170.194 428.773 166.51 427.648 165.575C428.709 164.514 431.99 160.458 428.242 158.143C424.165 155.648 416.499 166.053 416.562 166.138C416.626 166.223 425.237 175.789 429.017 172.88Z" stroke="#8E6CED" stroke-linecap="round" stroke-linejoin="round"/>
<path d="M408.716 101.427C411.095 99.2187 413.755 97.3339 416.626 95.8207" stroke="#8E6CED" stroke-linecap="round" stroke-linejoin="round"/>
<path d="M389.02 144.129C389.02 144.129 391.504 122.99 403.141 107.595" stroke="#8E6CED" stroke-linecap="round" stroke-linejoin="round"/>
<path d="M357.633 153.1C358.636 154.654 359.544 156.267 360.351 157.931" stroke="#8E6CED" stroke-linecap="round" stroke-linejoin="round"/>
<path d="M318.103 128.012C319.631 129.233 321.349 130.194 323.189 130.857C331.587 134.042 343.309 137.228 352.43 146.592" stroke="#8E6CED" stroke-linecap="round" stroke-linejoin="round"/>
<path d="M314.163 118.117C313.75 120.344 314.125 122.645 315.225 124.625" stroke="#8E6CED" stroke-linecap="round" stroke-linejoin="round"/>
<path d="M412.284 62.9711C414.953 60.5457 417.146 57.6436 418.75 54.4137" stroke="#8E6CED" stroke-linecap="round" stroke-linejoin="round"/>
<path d="M380.823 93.9945C382.552 89.65 384.961 85.6076 387.958 82.0183C394 74.8305 400.508 71.4011 406.295 67.5259" stroke="#8E6CED" stroke-linecap="round" stroke-linejoin="round"/>
<path d="M377.34 111.216C377.339 108.722 377.57 106.234 378.03 103.784" stroke="#8E6CED" stroke-linecap="round" stroke-linejoin="round"/>
<path d="M410.447 154.3C414.864 152.07 421.065 150.393 429.368 151.03C450.073 152.622 459.629 158.993 468.654 146.783" stroke="#8E6CED" stroke-linecap="round" stroke-linejoin="round"/>
<path d="M401.23 162.178C402.184 160.705 403.342 159.375 404.671 158.228" stroke="#8E6CED" stroke-linecap="round" stroke-linejoin="round"/>
<path d="M445.252 106.279H442.417C440.708 106.279 437.586 104.293 439.009 102.584C440.432 100.874 445.252 104.856 445.252 104.856L441.005 91.51L450.094 87.2632L453.789 99.7596C453.789 99.7596 448.108 97.4875 447.535 100.036C446.962 102.584 451.23 102.308 453.789 101.172" stroke="#8E6CED" stroke-linecap="round" stroke-linejoin="round"/>
<path d="M441.844 94.3449L450.646 90.0874" stroke="#8E6CED" stroke-linecap="round" stroke-linejoin="round"/>
<path d="M464.779 102.032H462.91C461.774 102.032 459.724 100.715 460.648 99.5899C461.572 98.4644 464.779 101.087 464.779 101.087L461.965 92.264L467.975 89.4504L470.417 97.7106C470.417 97.7106 466.658 96.2136 466.286 97.9017C465.915 99.5899 468.728 99.3987 470.417 98.6449" stroke="#8E6CED" stroke-linecap="round" stroke-linejoin="round"/>
<path d="M462.527 94.1431L468.346 91.3296" stroke="#8E6CED" stroke-linecap="round" stroke-linejoin="round"/>
<path d="M299.67 92.4762H297.801C296.665 92.4762 294.616 91.1597 295.539 90.0343C296.463 88.9089 299.67 91.5313 299.67 91.5313L296.856 82.7084L302.866 79.8949L305.308 88.1551C305.308 88.1551 301.549 86.658 301.177 88.3462C300.806 90.0343 303.62 89.8432 305.308 89.0894" stroke="#8E6CED" stroke-linecap="round" stroke-linejoin="round"/>
<path d="M297.419 84.5877L303.238 81.7742" stroke="#8E6CED" stroke-linecap="round" stroke-linejoin="round"/>
<path d="M477.679 122.321C477.679 122.321 485.367 120.007 484.146 115.462C483.084 111.619 479.495 115.462 479.495 115.462C479.495 115.462 481.725 111.853 478.433 110.154C475.142 108.455 474.186 113.105 474.186 113.105C474.186 113.105 473.528 108.795 470.534 110.78C467.539 112.766 473.857 123.404 473.857 123.404L477.679 122.321Z" stroke="#8E6CED" stroke-linecap="round" stroke-linejoin="round"/>
<path d="M467.826 138.725C470.832 134.085 472.866 128.884 473.804 123.436L477.074 113.328" stroke="#8E6CED" stroke-linecap="round" stroke-linejoin="round"/>
<path d="M471.808 130.751C472.126 128.659 471.653 126.524 470.48 124.763C469.308 122.794 467.856 121.006 466.169 119.454C466.169 119.454 465.171 123.107 465.83 125.432C466.488 127.757 471.808 130.751 471.808 130.751Z" stroke="#8E6CED" stroke-linecap="round" stroke-linejoin="round"/>
<path d="M470.82 133.405C472.112 132.296 473.769 131.706 475.471 131.749H481.778C481.778 131.749 473.804 138.056 470.82 133.405Z" stroke="#8E6CED" stroke-linecap="round" stroke-linejoin="round"/>
<path d="M472.785 115.038L473.783 122.894L479.357 118.754" stroke="#8E6CED" stroke-linecap="round" stroke-linejoin="round"/>
<path d="M298.736 156.583C298.736 156.583 293.703 150.34 289.955 153.175C286.769 155.585 291.706 157.485 291.706 157.485C291.706 157.485 287.512 156.784 287.226 160.49C286.939 164.195 291.547 163.24 291.547 163.24C291.547 163.24 287.799 165.48 290.772 167.486C293.745 169.493 301.22 159.651 301.22 159.651L298.736 156.583Z" stroke="#8E6CED" stroke-linecap="round" stroke-linejoin="round"/>
<path d="M317.625 159.502C312.199 158.46 306.617 158.533 301.22 159.715L290.602 160.5" stroke="#8E6CED" stroke-linecap="round" stroke-linejoin="round"/>
<path d="M308.737 158.812C306.681 159.305 304.883 160.547 303.694 162.295C302.311 164.124 301.203 166.145 300.402 168.293C300.402 168.293 304.161 167.847 306.062 166.35C307.962 164.853 308.737 158.812 308.737 158.812Z" stroke="#8E6CED" stroke-linecap="round" stroke-linejoin="round"/>
<path d="M311.572 158.738C310.056 157.961 308.883 156.647 308.281 155.054C307.166 152.283 305.913 149.204 305.913 149.204C305.913 149.204 314.758 154.215 311.572 158.738Z" stroke="#8E6CED" stroke-linecap="round" stroke-linejoin="round"/>
<path d="M293.819 163.824L300.721 159.938L294.786 156.339" stroke="#8E6CED" stroke-linecap="round" stroke-linejoin="round"/>
<path d="M350.094 129.891C349.777 129.166 349.422 128.457 349.032 127.768C347.132 124.275 344.339 121.206 339.954 121.833C332.521 122.894 346.325 134.573 348.809 134.924C351.867 135.359 351.082 132.248 350.094 129.891Z" fill="#8E6CED"/>
<path d="M344.435 86.0104C344.053 85.1079 343.649 84.3223 343.373 83.887C341.462 80.3833 338.68 77.3256 334.295 77.952C326.862 79.0137 340.666 90.6926 343.15 91.0429C346.208 91.4783 345.422 88.3568 344.435 86.0104Z" fill="#8E6CED"/>
<path d="M419.143 134.202C418.198 134.478 417.369 134.796 416.913 134.977C413.218 136.463 409.852 138.884 409.969 143.311C410.171 150.818 423.358 138.449 423.995 136.017C424.77 133.076 421.585 133.512 419.143 134.202Z" fill="#8E6CED"/>
<path d="M428.699 94.5678C427.943 94.7872 427.198 95.0459 426.469 95.3429C422.774 96.8293 419.408 99.2393 419.525 103.667C419.727 111.173 432.914 98.804 433.551 96.3833C434.326 93.4318 431.141 93.8565 428.699 94.5678Z" fill="#8E6CED"/>
<path d="M483.115 92.1047C482.362 92.3206 481.621 92.5794 480.896 92.8798C477.201 94.3662 473.835 96.7763 473.952 101.204C474.154 108.71 487.341 96.341 487.978 93.9203C488.754 90.9368 485.568 91.3615 483.115 92.1047Z" fill="#8E6CED"/>
<path d="M333.902 128.203C333.754 127.841 333.588 127.486 333.403 127.141C332.479 125.443 331.12 123.956 328.975 124.243C325.344 124.763 332.086 130.464 333.297 130.613C334.773 130.868 334.39 129.35 333.902 128.203Z" fill="#8E6CED"/>
<path d="M307.983 100.662C307.622 100.354 307.261 100.099 307.07 99.9614C305.467 98.8466 303.588 98.1246 301.814 99.3562C298.799 101.48 307.378 103.518 308.536 103.136C309.916 102.658 308.928 101.48 307.983 100.662Z" fill="#8E6CED"/>
<path d="M346.293 113.689C346.146 113.327 345.98 112.972 345.794 112.628C344.86 110.918 343.501 109.443 341.366 109.729C337.735 110.249 344.477 115.94 345.688 116.099C347.153 116.365 346.771 114.836 346.293 113.689Z" fill="#8E6CED"/>
<path d="M283.785 89.7795C283.64 89.4161 283.473 89.0616 283.286 88.7178C282.362 87.0084 281.003 85.5326 278.859 85.8193C275.227 86.3395 281.97 92.041 283.18 92.1896C284.656 92.4444 284.274 90.9262 283.785 89.7795Z" fill="#8E6CED"/>
<path d="M300.678 126.971C300.336 126.764 299.981 126.576 299.617 126.409C297.875 125.559 295.9 125.135 294.308 126.621C291.653 129.159 300.455 129.881 301.538 129.318C302.94 128.638 301.74 127.619 300.678 126.971Z" fill="#8E6CED"/>
<path d="M343.108 71.932C342.96 71.5696 342.793 71.2152 342.608 70.8703C341.674 69.1715 340.315 67.6851 338.181 67.9718C334.55 68.492 341.292 74.1935 342.502 74.3421C343.968 74.5969 343.585 73.0787 343.108 71.932Z" fill="#8E6CED"/>
<path d="M383.042 115.08C382.755 115.452 382.511 115.813 382.383 116.014C381.322 117.65 380.674 119.571 381.98 121.323C384.189 124.253 385.93 115.6 385.495 114.454C384.964 113.031 383.817 114.103 383.042 115.08Z" fill="#8E6CED"/>
<path d="M400.031 137.376C399.744 137.748 399.5 138.109 399.372 138.31C398.31 139.946 397.663 141.867 398.969 143.619C401.177 146.549 402.919 137.896 402.483 136.75C401.952 135.327 400.806 136.399 400.031 137.376Z" fill="#8E6CED"/>
<path d="M423.687 79.364C423.327 79.4619 422.973 79.5788 422.625 79.7144C420.81 80.4045 419.143 81.5511 419.153 83.7064C419.153 87.3693 425.736 81.4768 426.076 80.2983C426.448 78.8119 424.898 78.9818 423.687 79.364Z" fill="#8E6CED"/>
<path d="M382.681 66.0182C382.341 66.3474 382.044 66.6659 381.884 66.8464C380.6 68.3009 379.655 70.0952 380.684 71.9957C382.415 75.1809 385.452 66.9419 385.208 65.7528C384.9 64.2876 383.594 65.1689 382.681 66.0182Z" fill="#8E6CED"/>
<path d="M309.47 140.944C309.746 141.208 310.037 141.456 310.341 141.687C311.88 142.887 313.728 143.704 315.565 142.568C318.676 140.646 310.256 138.119 309.045 138.449C307.612 138.82 308.567 140.062 309.47 140.944Z" fill="#8E6CED"/>
<path d="M442.13 79.7568C441.663 79.7568 441.228 79.7568 440.983 79.7568C439.04 79.8736 437.108 80.4682 436.471 82.5279C435.409 86.0316 443.425 82.3687 444.094 81.3494C444.912 80.1072 443.383 79.8099 442.13 79.7568Z" fill="#8E6CED"/>
<path d="M80.1868 276H80.1127C80.0142 275.984 79.9208 275.945 79.8394 275.888C79.7581 275.83 79.6911 275.754 79.6434 275.667L57.0459 232.499C56.9847 232.344 56.9847 232.172 57.0459 232.018C57.0984 231.863 57.2091 231.735 57.3546 231.66L59.9107 230.427C60.0546 230.367 60.2159 230.363 60.3621 230.417C60.5084 230.471 60.6287 230.579 60.6991 230.718C60.7694 230.857 60.7845 231.017 60.7414 231.167C60.6982 231.316 60.6 231.444 60.4664 231.524L58.4783 232.523L80.372 274.372L117.627 234.731C117.697 234.655 117.787 234.6 117.886 234.571L163.291 220.572L140.83 184.804L139.175 184.928C139.094 184.936 139.011 184.928 138.933 184.904C138.855 184.879 138.782 184.84 138.72 184.786C138.658 184.733 138.607 184.668 138.57 184.595C138.534 184.522 138.513 184.442 138.508 184.36C138.498 184.199 138.552 184.039 138.658 183.917C138.764 183.795 138.915 183.719 139.076 183.706L141.114 183.546C141.226 183.535 141.338 183.555 141.439 183.606C141.54 183.656 141.624 183.734 141.682 183.83L164.761 220.621C164.802 220.706 164.824 220.799 164.824 220.893C164.824 220.987 164.802 221.08 164.761 221.164C164.727 221.253 164.675 221.333 164.606 221.4C164.538 221.466 164.456 221.516 164.366 221.546L118.343 235.718L80.6437 275.827C80.5201 275.942 80.3559 276.005 80.1868 276Z" fill="white"/>
<path d="M80.6809 270.117H80.5821C80.4902 270.1 80.4033 270.063 80.3284 270.007C80.2534 269.951 80.1923 269.879 80.1499 269.796L58.5403 228.589C58.4721 228.463 58.4508 228.317 58.4802 228.177C58.5096 228.037 58.5877 227.912 58.7008 227.824C58.7996 227.738 68.9499 219.437 73.7411 207.942C78.1618 197.335 85.7685 192.069 94.0913 193.845C94.1776 193.863 94.2588 193.901 94.3292 193.954C94.3996 194.007 94.4575 194.075 94.4988 194.153L114.639 230.451C114.697 230.556 114.724 230.675 114.715 230.794C114.707 230.913 114.664 231.027 114.592 231.122C114.521 231.217 114.423 231.29 114.31 231.331C114.198 231.371 114.076 231.379 113.96 231.352C113.626 231.278 105.686 229.637 103.896 237.272C101.97 245.437 93.5356 255.945 89.4853 260.99L89.0408 261.557C86.6183 264.564 83.9635 267.376 81.1008 269.969C80.9835 270.067 80.8342 270.12 80.6809 270.117ZM59.8492 228.441L80.8414 268.501C83.4284 266.1 85.8385 263.515 88.0529 260.768L88.4975 260.2C92.4983 255.267 100.846 244.869 102.661 236.976C104.279 230.118 110.292 229.773 112.935 229.97L93.5479 194.98C85.966 193.512 79.0015 198.507 74.8648 208.411C70.4935 218.895 61.7879 226.776 59.8492 228.441Z" fill="white"/>
<path d="M114.083 231.315C113.973 231.316 113.865 231.288 113.769 231.234C113.674 231.18 113.594 231.101 113.539 231.006L93.3992 194.696C93.3565 194.559 93.3565 194.413 93.3992 194.277C94.8563 187.493 102.315 184.41 117.577 184.41C130.901 184.41 136.298 180.179 136.347 180.142C136.416 180.087 136.495 180.046 136.58 180.023C136.665 180 136.754 179.994 136.841 180.006C136.927 180.022 137.008 180.055 137.081 180.104C137.153 180.153 137.214 180.216 137.261 180.29L159.858 217.082C159.94 217.219 159.966 217.382 159.931 217.537C159.897 217.693 159.805 217.83 159.673 217.92C159.611 217.92 158.018 218.981 148.708 221.916C142.249 223.964 135.124 223.68 129.382 223.458C127.104 223.33 124.82 223.33 122.541 223.458C117.133 223.902 114.75 230.858 114.725 230.858C114.687 230.972 114.616 231.073 114.522 231.147C114.428 231.222 114.314 231.267 114.194 231.278L114.083 231.315ZM94.597 194.314L113.996 229.292C115.009 227.072 117.627 222.644 122.381 222.249C124.709 222.121 127.042 222.121 129.37 222.249C135.001 222.471 142.015 222.743 148.275 220.769C151.71 219.764 155.086 218.57 158.389 217.193L136.495 181.524C134.766 182.646 129.024 185.668 117.516 185.668C103.117 185.68 96.0294 188.393 94.597 194.314Z" fill="white"/>
<path d="M96.4 255.39C96.2622 255.393 96.1275 255.349 96.0172 255.267C95.8892 255.163 95.8071 255.013 95.7886 254.849C95.7702 254.685 95.8168 254.521 95.9184 254.391C98.3017 251.406 100.191 248.767 101.858 246.436C103.697 243.596 105.851 240.973 108.279 238.616C110.404 236.793 112.773 235.273 115.318 234.102C115.391 234.07 115.471 234.052 115.551 234.051C115.632 234.049 115.712 234.064 115.787 234.094C115.861 234.124 115.929 234.168 115.987 234.225C116.044 234.281 116.089 234.349 116.12 234.423C116.183 234.574 116.185 234.743 116.125 234.895C116.065 235.047 115.948 235.169 115.799 235.237C113.373 236.363 111.113 237.815 109.082 239.554C106.743 241.849 104.671 244.402 102.908 247.164C101.228 249.507 99.3266 252.097 96.9187 255.168C96.8561 255.244 96.7764 255.303 96.6862 255.342C96.596 255.38 96.4979 255.397 96.4 255.39V255.39Z" fill="white"/>
<path d="M119.479 232.338C119.343 232.34 119.211 232.292 119.109 232.203C118.98 232.103 118.896 231.956 118.875 231.794C118.854 231.632 118.898 231.469 118.998 231.339C121.33 228.519 124.642 226.682 128.271 226.196L130.482 226.023C139.955 225.504 149.277 223.42 158.068 219.857C158.222 219.798 158.393 219.802 158.543 219.869C158.694 219.936 158.812 220.061 158.871 220.214C158.93 220.368 158.925 220.539 158.858 220.689C158.791 220.84 158.666 220.957 158.512 221.016C149.607 224.61 140.171 226.719 130.58 227.257L128.382 227.43C125.095 227.889 122.097 229.556 119.973 232.104C119.913 232.176 119.837 232.235 119.752 232.275C119.667 232.316 119.574 232.337 119.479 232.338V232.338Z" fill="white"/>
<path d="M66.4429 234.3C66.3224 234.3 66.2043 234.266 66.1032 234.201C66.002 234.135 65.9222 234.042 65.8737 233.931C65.8251 233.821 65.8099 233.699 65.8298 233.581C65.8498 233.462 65.9041 233.352 65.986 233.263C70.1838 228.444 74.1006 223.387 77.717 218.118C84.6938 208.177 89.8184 204.119 95.4122 204.119C95.576 204.119 95.733 204.184 95.8488 204.3C95.9646 204.415 96.0296 204.572 96.0296 204.736C96.0296 204.899 95.9646 205.056 95.8488 205.172C95.733 205.287 95.576 205.352 95.4122 205.352C90.2753 205.352 85.4347 209.262 78.7296 218.833C75.0761 224.14 71.1266 229.238 66.8998 234.102C66.8415 234.165 66.7708 234.215 66.6922 234.249C66.6135 234.283 66.5286 234.3 66.4429 234.3V234.3Z" fill="white"/>
<path d="M70.3695 240.676C70.2144 240.677 70.0645 240.62 69.9497 240.516C69.8922 240.459 69.8465 240.392 69.8153 240.318C69.7841 240.244 69.7681 240.164 69.7681 240.084C69.7681 240.003 69.7841 239.924 69.8153 239.85C69.8465 239.776 69.8922 239.708 69.9497 239.652C74.1435 234.822 78.0641 229.761 81.693 224.494C88.6575 214.553 93.7821 210.495 99.3882 210.495C99.551 210.498 99.7062 210.564 99.8213 210.679C99.9364 210.794 100.002 210.949 100.006 211.112C100.006 211.275 99.9406 211.432 99.8248 211.548C99.709 211.664 99.552 211.729 99.3882 211.729C94.239 211.729 89.4107 215.638 82.6932 225.209C79.0397 230.517 75.0902 235.614 70.8635 240.479C70.8011 240.546 70.7243 240.599 70.6389 240.633C70.5534 240.667 70.4614 240.682 70.3695 240.676Z" fill="white"/>
<path d="M74.2965 247.053C74.1784 247.051 74.0631 247.016 73.9644 246.951C73.8657 246.886 73.7876 246.795 73.7395 246.687C73.6914 246.579 73.6753 246.46 73.693 246.343C73.7108 246.227 73.7617 246.117 73.8396 246.029C78.0319 241.201 81.9524 236.145 85.583 230.883C92.5474 220.93 97.672 216.872 103.278 216.872C103.441 216.875 103.596 216.941 103.711 217.056C103.826 217.171 103.892 217.326 103.896 217.489C103.896 217.652 103.831 217.809 103.715 217.925C103.599 218.04 103.442 218.105 103.278 218.105C98.1289 218.105 93.3007 222.015 86.5955 231.586C82.9359 236.892 78.9824 241.99 74.7534 246.855C74.6956 246.919 74.625 246.969 74.5462 247.003C74.4675 247.037 74.3823 247.054 74.2965 247.053Z" fill="white"/>
<path d="M78.2234 253.429C78.1482 253.43 78.0735 253.417 78.0035 253.39C77.9336 253.362 77.8698 253.321 77.8159 253.269C77.7584 253.212 77.7127 253.145 77.6815 253.071C77.6503 252.997 77.6343 252.917 77.6343 252.837C77.6343 252.756 77.6503 252.677 77.6815 252.603C77.7127 252.529 77.7584 252.461 77.8159 252.405C82.0128 247.582 85.9335 242.525 89.5592 237.259C96.5237 227.306 101.648 223.261 107.254 223.261C107.418 223.261 107.575 223.326 107.691 223.441C107.807 223.557 107.872 223.714 107.872 223.877C107.872 224.041 107.807 224.198 107.691 224.313C107.575 224.429 107.418 224.494 107.254 224.494C102.105 224.494 97.2769 228.391 90.5718 237.962C86.921 243.275 82.9671 248.373 78.7297 253.232C78.6665 253.302 78.5879 253.356 78.5 253.39C78.412 253.424 78.3173 253.438 78.2234 253.429V253.429Z" fill="white"/>
<path d="M102.291 202.417H102.081C101.929 202.358 101.805 202.244 101.736 202.097C101.667 201.949 101.658 201.781 101.71 201.627C101.71 201.566 103.921 195.818 111.589 195.818C125.975 195.818 135.31 193.598 136.545 189.861C136.597 189.697 136.713 189.561 136.866 189.483C136.941 189.444 137.024 189.42 137.109 189.413C137.193 189.406 137.279 189.416 137.36 189.442C137.441 189.468 137.516 189.509 137.581 189.564C137.646 189.619 137.7 189.686 137.739 189.762C137.778 189.837 137.801 189.92 137.808 190.005C137.815 190.089 137.806 190.175 137.78 190.256C135.816 196.176 120.566 197.052 111.651 197.052C104.834 197.052 103.007 201.837 102.896 202.047C102.845 202.163 102.76 202.261 102.652 202.327C102.543 202.393 102.417 202.425 102.291 202.417Z" fill="white"/>
<path d="M106.711 209.768C106.573 209.769 106.439 209.725 106.328 209.644C106.201 209.543 106.119 209.395 106.101 209.233C106.082 209.071 106.128 208.909 106.229 208.781C106.378 208.584 109.934 204.119 119.479 204.119C129.741 204.119 137.36 201.714 142.139 196.941C142.254 196.828 142.409 196.764 142.571 196.764C142.732 196.764 142.887 196.828 143.003 196.941C143.061 196.998 143.107 197.066 143.138 197.141C143.169 197.216 143.186 197.297 143.186 197.378C143.186 197.46 143.169 197.54 143.138 197.616C143.107 197.691 143.061 197.759 143.003 197.816C138.002 202.824 130.086 205.414 119.479 205.414C110.613 205.414 107.23 209.558 107.205 209.595C107.14 209.658 107.063 209.706 106.977 209.736C106.892 209.766 106.801 209.777 106.711 209.768V209.768Z" fill="white"/>
<path d="M109.662 217.131C109.573 217.128 109.484 217.107 109.403 217.069C109.329 217.036 109.263 216.988 109.208 216.929C109.153 216.87 109.11 216.801 109.083 216.725C109.055 216.649 109.043 216.568 109.047 216.488C109.051 216.407 109.071 216.328 109.107 216.255C110.249 214.133 111.967 212.376 114.064 211.185C116.161 209.993 118.551 209.417 120.961 209.521C131.284 209.521 140.323 207.363 145.152 203.761C145.216 203.711 145.29 203.674 145.368 203.653C145.447 203.632 145.529 203.627 145.61 203.639C145.691 203.65 145.768 203.678 145.838 203.72C145.908 203.762 145.968 203.818 146.016 203.884C146.111 204.016 146.151 204.18 146.128 204.341C146.105 204.502 146.021 204.648 145.893 204.748C138.644 210.162 126.036 210.754 120.961 210.754C118.786 210.653 116.626 211.163 114.726 212.227C112.827 213.291 111.265 214.866 110.218 216.773C110.17 216.88 110.092 216.971 109.993 217.035C109.895 217.098 109.78 217.132 109.662 217.131Z" fill="white"/>
<path d="M113.095 222.521C113.038 222.532 112.979 222.532 112.922 222.521C112.767 222.472 112.636 222.365 112.558 222.223C112.48 222.08 112.46 221.913 112.502 221.756C112.576 221.534 114.206 216.428 122.887 215.922C131.922 215.445 140.814 213.474 149.202 210.088C149.277 210.045 149.36 210.018 149.447 210.009C149.533 210 149.62 210.009 149.703 210.036C149.785 210.063 149.861 210.107 149.925 210.166C149.989 210.224 150.041 210.295 150.076 210.374C150.111 210.454 150.128 210.539 150.128 210.626C150.127 210.713 150.108 210.798 150.073 210.877C150.037 210.956 149.985 211.027 149.92 211.084C149.855 211.142 149.778 211.185 149.696 211.211C141.179 214.668 132.142 216.677 122.961 217.156C115.194 217.612 113.75 221.929 113.688 222.089C113.648 222.215 113.569 222.325 113.463 222.402C113.356 222.48 113.227 222.522 113.095 222.521Z" fill="white"/>
<g opacity="0.2">
<path d="M172.451 366.803C172.397 366.816 172.341 366.816 172.287 366.803L144.189 355.562C144.121 355.537 144.061 355.495 144.014 355.441C143.966 355.387 143.932 355.322 143.915 355.252C143.898 355.183 143.898 355.111 143.913 355.041C143.929 354.971 143.961 354.906 144.006 354.851L146.956 351.201C147.021 351.125 147.108 351.072 147.205 351.049C147.302 351.026 147.404 351.034 147.495 351.074L172.744 362.396L185.441 338.674C185.487 338.594 185.556 338.53 185.639 338.488C185.721 338.446 185.814 338.428 185.906 338.437L189.277 338.93C189.349 338.939 189.417 338.965 189.476 339.006C189.535 339.048 189.583 339.103 189.615 339.167C189.649 339.232 189.666 339.304 189.666 339.377C189.666 339.45 189.649 339.522 189.615 339.587L176.827 364.896C176.772 365.005 176.677 365.088 176.561 365.126C176.445 365.165 176.319 365.156 176.21 365.101C176.101 365.047 176.018 364.951 175.98 364.836C175.941 364.72 175.95 364.594 176.005 364.486L188.501 339.742L186.08 339.386L173.365 363.153C173.308 363.255 173.216 363.331 173.107 363.368C172.997 363.406 172.877 363.4 172.771 363.354L147.459 352.004L145.12 354.942L172.643 365.891C172.754 365.937 172.843 366.025 172.891 366.136C172.938 366.246 172.941 366.371 172.899 366.484C172.868 366.577 172.808 366.659 172.727 366.716C172.647 366.774 172.55 366.804 172.451 366.803V366.803Z" fill="white"/>
<path d="M172.963 363.418C172.863 363.42 172.764 363.389 172.683 363.33C172.603 363.27 172.543 363.186 172.515 363.09L162.02 324.596L141.732 315.591L147.98 349.304C148.001 349.422 147.975 349.544 147.906 349.643C147.838 349.742 147.733 349.811 147.614 349.833C147.496 349.854 147.373 349.828 147.274 349.759C147.175 349.691 147.107 349.586 147.085 349.468L140.69 314.907C140.672 314.826 140.678 314.741 140.708 314.664C140.737 314.586 140.788 314.518 140.855 314.469C140.919 314.417 140.997 314.384 141.079 314.373C141.161 314.361 141.244 314.373 141.321 314.405L162.595 323.857C162.657 323.884 162.711 323.924 162.756 323.975C162.8 324.025 162.832 324.085 162.851 324.149L173.365 362.843C173.394 362.96 173.377 363.084 173.317 363.189C173.258 363.294 173.161 363.373 173.045 363.409L172.963 363.418Z" fill="white"/>
<path d="M144.381 355.544C144.272 355.545 144.167 355.507 144.085 355.437C144.002 355.366 143.949 355.268 143.933 355.161L138.014 321.403C137.995 321.322 137.995 321.238 138.014 321.157L140.681 314.67C140.734 314.57 140.823 314.493 140.93 314.454C141.037 314.416 141.154 314.419 141.259 314.462C141.364 314.505 141.449 314.586 141.497 314.689C141.546 314.791 141.555 314.908 141.522 315.017L138.909 321.403L144.801 355.052C144.811 355.111 144.81 355.172 144.797 355.231C144.784 355.289 144.759 355.345 144.724 355.394C144.689 355.443 144.645 355.485 144.594 355.517C144.543 355.549 144.486 355.571 144.426 355.581L144.381 355.544Z" fill="white"/>
<path d="M184.326 336.184C184.229 336.183 184.134 336.152 184.055 336.094C183.977 336.037 183.918 335.957 183.887 335.864L173.986 305.555L162.823 324.505C162.76 324.607 162.66 324.68 162.544 324.709C162.427 324.737 162.304 324.719 162.201 324.658C162.098 324.597 162.023 324.498 161.993 324.382C161.962 324.267 161.978 324.144 162.037 324.04L173.712 304.223C173.756 304.146 173.822 304.085 173.902 304.046C173.982 304.007 174.071 303.992 174.159 304.004C174.246 304.014 174.328 304.048 174.396 304.103C174.465 304.158 174.515 304.231 174.543 304.314L184.755 335.581C184.775 335.638 184.783 335.699 184.779 335.759C184.775 335.819 184.759 335.877 184.732 335.931C184.704 335.985 184.666 336.032 184.62 336.071C184.574 336.11 184.521 336.139 184.463 336.156L184.326 336.184Z" fill="white"/>
<path d="M189.232 339.824C189.135 339.825 189.041 339.796 188.962 339.74C188.883 339.684 188.824 339.605 188.793 339.514L177.485 304.944H174.077C173.956 304.944 173.84 304.896 173.754 304.81C173.669 304.725 173.621 304.609 173.621 304.488C173.625 304.367 173.676 304.252 173.763 304.167C173.849 304.082 173.965 304.034 174.086 304.031H177.823C177.919 304.033 178.012 304.064 178.089 304.122C178.166 304.179 178.223 304.259 178.252 304.351L189.661 339.231C189.681 339.288 189.689 339.348 189.685 339.408C189.681 339.468 189.665 339.527 189.637 339.581C189.61 339.634 189.572 339.682 189.526 339.721C189.48 339.759 189.426 339.788 189.369 339.806L189.232 339.824Z" fill="white"/>
<path d="M170.771 349.979C170.69 349.98 170.61 349.958 170.542 349.915C170.439 349.854 170.363 349.755 170.331 349.639C170.298 349.524 170.312 349.4 170.369 349.294L179.503 333.456C179.565 333.352 179.663 333.276 179.779 333.244C179.895 333.212 180.019 333.225 180.125 333.282C180.229 333.345 180.305 333.445 180.337 333.562C180.369 333.679 180.355 333.805 180.298 333.912L171.118 349.751C171.082 349.813 171.032 349.867 170.972 349.906C170.911 349.946 170.842 349.971 170.771 349.979Z" fill="white"/>
<path d="M169.245 343.081C169.164 343.084 169.084 343.062 169.017 343.017C168.911 342.958 168.834 342.859 168.802 342.743C168.769 342.627 168.784 342.502 168.843 342.397L178.023 326.567C178.05 326.509 178.088 326.457 178.136 326.414C178.183 326.372 178.239 326.34 178.3 326.321C178.361 326.301 178.425 326.295 178.489 326.302C178.553 326.308 178.614 326.329 178.669 326.361C178.724 326.393 178.772 326.436 178.81 326.488C178.847 326.539 178.873 326.598 178.887 326.661C178.9 326.723 178.9 326.788 178.886 326.85C178.873 326.913 178.847 326.972 178.809 327.023L169.674 342.862C169.63 342.935 169.567 342.994 169.491 343.033C169.415 343.072 169.33 343.088 169.245 343.081Z" fill="white"/>
<path d="M167.71 336.202C167.63 336.203 167.551 336.18 167.482 336.138C167.43 336.109 167.384 336.069 167.347 336.022C167.31 335.975 167.284 335.921 167.268 335.863C167.253 335.805 167.249 335.744 167.258 335.685C167.266 335.626 167.287 335.569 167.318 335.518L176.498 319.679C176.564 319.587 176.662 319.524 176.773 319.501C176.884 319.477 176.999 319.496 177.097 319.553C177.195 319.609 177.268 319.7 177.302 319.808C177.337 319.916 177.33 320.032 177.283 320.135L168.149 335.974C168.104 336.049 168.04 336.11 167.962 336.151C167.885 336.191 167.797 336.209 167.71 336.202V336.202Z" fill="white"/>
<path d="M166.185 329.313C166.104 329.314 166.025 329.292 165.957 329.25C165.904 329.22 165.858 329.181 165.822 329.134C165.785 329.086 165.758 329.032 165.743 328.974C165.728 328.916 165.724 328.856 165.733 328.797C165.741 328.737 165.761 328.68 165.792 328.629L174.927 312.79C174.99 312.686 175.091 312.611 175.208 312.58C175.326 312.549 175.451 312.566 175.557 312.626C175.609 312.655 175.655 312.695 175.692 312.742C175.729 312.789 175.755 312.844 175.771 312.902C175.786 312.959 175.79 313.02 175.781 313.079C175.773 313.138 175.752 313.195 175.721 313.247L166.541 329.085C166.505 329.149 166.453 329.203 166.391 329.243C166.329 329.283 166.258 329.307 166.185 329.313Z" fill="white"/>
<path d="M166.212 350.024C166.149 350.023 166.086 350.007 166.029 349.979L150.829 343.236C150.774 343.213 150.724 343.178 150.683 343.135C150.641 343.091 150.608 343.04 150.587 342.984C150.566 342.927 150.556 342.867 150.558 342.807C150.561 342.747 150.575 342.688 150.601 342.634C150.625 342.579 150.659 342.529 150.703 342.487C150.746 342.445 150.797 342.412 150.853 342.39C150.909 342.368 150.969 342.357 151.029 342.358C151.089 342.36 151.149 342.373 151.204 342.397L166.395 349.148C166.516 349.173 166.623 349.244 166.691 349.347C166.76 349.449 166.784 349.575 166.76 349.696C166.736 349.817 166.665 349.923 166.562 349.992C166.459 350.06 166.333 350.085 166.212 350.061V350.024Z" fill="white"/>
<path d="M165.546 343.465C165.485 343.474 165.423 343.474 165.363 343.465L150.163 336.695C150.105 336.673 150.051 336.639 150.007 336.596C149.962 336.552 149.926 336.5 149.902 336.443C149.879 336.385 149.867 336.323 149.868 336.261C149.869 336.199 149.882 336.137 149.908 336.081C149.934 336.024 149.971 335.973 150.017 335.931C150.063 335.889 150.117 335.857 150.176 335.837C150.235 335.816 150.297 335.808 150.36 335.813C150.422 335.818 150.482 335.835 150.537 335.864L165.728 342.607C165.849 342.631 165.956 342.702 166.024 342.805C166.093 342.908 166.118 343.033 166.094 343.154C166.069 343.275 165.998 343.382 165.895 343.45C165.792 343.519 165.667 343.543 165.546 343.519V343.465Z" fill="white"/>
<path d="M162.787 336.694C162.723 336.693 162.661 336.678 162.604 336.649L147.404 329.906C147.349 329.883 147.299 329.848 147.257 329.805C147.216 329.761 147.183 329.71 147.162 329.654C147.141 329.598 147.131 329.538 147.133 329.478C147.136 329.418 147.15 329.359 147.176 329.304C147.2 329.249 147.234 329.199 147.277 329.157C147.321 329.115 147.372 329.082 147.428 329.06C147.484 329.038 147.544 329.028 147.604 329.029C147.664 329.03 147.724 329.043 147.779 329.067L162.97 335.819C163.025 335.842 163.075 335.877 163.117 335.92C163.159 335.963 163.192 336.014 163.214 336.07C163.236 336.126 163.247 336.186 163.245 336.246C163.244 336.306 163.231 336.366 163.207 336.421C163.17 336.502 163.111 336.57 163.037 336.619C162.963 336.667 162.876 336.694 162.787 336.694Z" fill="white"/>
<path d="M161.672 329.77C161.612 329.783 161.55 329.783 161.489 329.77L146.289 323.009C146.228 322.99 146.172 322.958 146.124 322.915C146.076 322.873 146.037 322.821 146.011 322.762C145.984 322.704 145.97 322.641 145.97 322.576C145.969 322.512 145.983 322.449 146.008 322.39C146.034 322.331 146.072 322.279 146.12 322.236C146.167 322.193 146.223 322.16 146.284 322.14C146.345 322.12 146.41 322.113 146.474 322.12C146.537 322.127 146.599 322.147 146.655 322.179L161.855 328.93C161.91 328.954 161.96 328.989 162.002 329.032C162.044 329.075 162.077 329.126 162.099 329.182C162.121 329.238 162.132 329.298 162.131 329.358C162.13 329.418 162.116 329.477 162.092 329.532C162.05 329.606 161.988 329.667 161.915 329.708C161.841 329.75 161.757 329.771 161.672 329.77V329.77Z" fill="white"/>
</g>
<path d="M116.634 86.6445C116.803 86.9379 134.056 115.616 134.506 116.396C134.957 117.176 136.386 119.652 138.183 120.14C139.981 120.629 144.802 121.09 145.001 121.089C145.06 121.093 145.12 121.085 145.176 121.066C145.232 121.047 145.283 121.016 145.327 120.977L172.293 95.3908C172.372 95.3157 172.418 95.2124 172.421 95.1033C172.424 94.9943 172.384 94.8884 172.31 94.8088C172.273 94.7686 172.229 94.7362 172.179 94.7135C172.13 94.6908 172.077 94.6783 172.022 94.6767C171.968 94.6751 171.914 94.6845 171.863 94.7042C171.813 94.724 171.767 94.7537 171.728 94.7916L144.89 120.237C143.96 120.144 139.817 119.703 138.393 119.332C136.969 118.962 135.642 116.713 135.217 115.976C134.791 115.239 119.511 89.8297 117.533 86.5354L152.207 58.8841C152.294 58.8161 152.35 58.7162 152.364 58.6065C152.377 58.4967 152.347 58.3861 152.279 58.2988C152.211 58.2116 152.111 58.155 152.001 58.1414C151.891 58.1278 151.781 58.1583 151.694 58.2263L116.726 86.095C116.645 86.1584 116.59 86.25 116.573 86.3517C116.556 86.4534 116.578 86.5578 116.634 86.6445Z" fill="white"/>
<path d="M173.935 85.6083L175.353 87.9662C175.41 88.0607 175.502 88.129 175.609 88.1566C175.716 88.1841 175.829 88.1687 175.924 88.1136C176.012 88.0517 176.074 87.9603 176.1 87.8562C176.125 87.752 176.113 87.642 176.064 87.5465L174.641 85.1813C174.586 85.0864 174.496 85.0172 174.39 84.9888C174.285 84.9603 174.172 84.9751 174.077 85.0299C173.982 85.0846 173.913 85.1747 173.885 85.2805C173.857 85.3863 173.872 85.4991 173.926 85.5939L173.935 85.6083Z" fill="white"/>
<path d="M143.266 119.619C143.321 119.714 143.411 119.783 143.517 119.812C143.623 119.84 143.736 119.825 143.83 119.771C143.925 119.716 143.994 119.626 144.023 119.52C144.051 119.414 144.036 119.302 143.981 119.207L126.007 87.844L158.643 60.1956L172.199 82.7176C172.255 82.8102 172.345 82.8772 172.45 82.9041C172.554 82.9311 172.665 82.916 172.759 82.862C172.846 82.7988 172.908 82.7072 172.935 82.6029C172.962 82.4986 172.952 82.3882 172.906 82.2907L159.103 59.3578C159.072 59.306 159.029 59.2618 158.978 59.2284C158.928 59.1949 158.87 59.1731 158.81 59.1643C158.752 59.1552 158.693 59.1581 158.636 59.173C158.579 59.1878 158.525 59.2142 158.479 59.2506L125.203 87.4405C125.128 87.5019 125.078 87.5881 125.061 87.6835C125.044 87.7788 125.062 87.877 125.112 87.9602L143.252 119.628L143.266 119.619Z" fill="white"/>
<path d="M119.35 87.1564L137.617 117.014C137.681 117.107 137.777 117.174 137.887 117.201L142.242 118.141C142.348 118.168 142.46 118.152 142.555 118.098C142.65 118.043 142.719 117.953 142.749 117.848C142.764 117.796 142.767 117.742 142.761 117.689C142.754 117.635 142.737 117.584 142.71 117.537C142.683 117.49 142.647 117.45 142.604 117.417C142.561 117.384 142.512 117.361 142.46 117.347L138.292 116.433L120.3 87.0368L149.917 62.7249L154.325 63.1471C154.379 63.1541 154.435 63.1501 154.487 63.1353C154.54 63.1204 154.589 63.095 154.631 63.0607C154.674 63.0263 154.709 62.9837 154.734 62.9354C154.76 62.8871 154.776 62.834 154.78 62.7795C154.785 62.7252 154.78 62.6704 154.764 62.6183C154.748 62.5662 154.721 62.5177 154.687 62.4757C154.652 62.4338 154.609 62.3991 154.561 62.3738C154.512 62.3485 154.459 62.333 154.405 62.3282L149.753 61.8465C149.642 61.8382 149.533 61.874 149.449 61.9461L119.423 86.5895C119.34 86.6563 119.286 86.7525 119.272 86.8581C119.259 86.9638 119.287 87.0706 119.35 87.1564Z" fill="white"/>
<path d="M137.617 113.398L135.084 109.012C135.084 109.012 132.024 111.733 128.962 114.006C125.901 116.279 121.79 118.881 121.79 118.881L128.018 118.692L125.791 124.127L137.617 113.398Z" fill="white"/>
<path d="M626.759 66.4901L626.799 66.467C626.847 66.4275 626.886 66.3776 626.912 66.3209C626.938 66.2643 626.95 66.2025 626.949 66.1403L625.691 35.7342C625.676 35.6316 625.622 35.5385 625.541 35.4741C625.464 35.4068 625.364 35.3719 625.262 35.377L623.494 35.5081C623.398 35.5207 623.31 35.5693 623.247 35.6441C623.185 35.719 623.153 35.8146 623.159 35.9117C623.164 36.0089 623.206 36.1003 623.276 36.1678C623.346 36.2352 623.439 36.2737 623.537 36.2754L624.924 36.1949L626.15 65.6674L593.62 55.8603C593.559 55.841 593.493 55.8391 593.43 55.8545L564.499 62.4619L565.479 36.101L566.412 35.651C566.459 35.6301 566.501 35.6 566.536 35.5625C566.57 35.525 566.597 35.4808 566.614 35.4326C566.632 35.3844 566.639 35.3333 566.636 35.2823C566.632 35.2313 566.619 35.1815 566.596 35.1359C566.551 35.0453 566.472 34.976 566.376 34.943C566.281 34.9101 566.176 34.916 566.084 34.9597L564.932 35.5093C564.868 35.538 564.814 35.5844 564.775 35.643C564.736 35.7015 564.715 35.7699 564.714 35.8401L563.72 62.9475C563.724 63.0061 563.741 63.0631 563.77 63.114C563.8 63.1648 563.84 63.2083 563.889 63.2411C563.935 63.2788 563.989 63.3058 564.046 63.3202C564.104 63.3347 564.164 63.3361 564.222 63.3245L593.541 56.6176L626.458 66.5394C626.561 66.5632 626.669 66.5455 626.759 66.4901Z" fill="white"/>
<path d="M624.654 63.4622L624.708 63.4313C624.752 63.3937 624.788 63.3463 624.811 63.2928C624.834 63.2393 624.844 63.1811 624.841 63.1229L623.662 34.0861C623.659 33.9967 623.625 33.9112 623.566 33.8446C623.506 33.778 623.425 33.7348 623.336 33.7226C623.256 33.7067 615.173 32.3868 608.992 27.6655C603.289 23.3088 597.53 22.8356 593.582 26.3953C593.542 26.4323 593.509 26.4778 593.488 26.5286C593.466 26.5794 593.456 26.6343 593.458 26.6893L593.9 52.6122C593.901 52.6867 593.924 52.7593 593.966 52.8211C594.007 52.8829 594.066 52.9313 594.135 52.9604C594.203 52.9895 594.279 52.9981 594.352 52.9851C594.426 52.972 594.494 52.938 594.548 52.8871C594.706 52.7429 598.488 49.3761 601.841 52.9464C605.432 56.7612 613.276 59.8113 617.042 61.275L617.46 61.443C619.709 62.3129 622.023 63.0051 624.381 63.5132C624.475 63.53 624.572 63.5119 624.654 63.4622ZM622.907 34.4148L624.063 62.6384C621.914 62.1475 619.803 61.5022 617.747 60.7076L617.33 60.5395C613.625 59.1205 605.863 56.1034 602.416 52.4007C599.4 49.1967 596.039 50.8879 594.671 51.8198L594.231 26.8394C597.873 23.6778 603.2 24.2047 608.531 28.2699C614.169 32.5753 621.339 34.1196 622.907 34.4148Z" fill="white"/>
<path d="M594.47 52.9056C594.53 52.8721 594.58 52.8233 594.615 52.7642C594.65 52.705 594.668 52.6377 594.668 52.5692L594.222 26.6397C594.203 26.5525 594.157 26.4734 594.091 26.4129C591.185 23.1987 586.188 23.8601 577.932 28.6263C570.726 32.7872 566.486 32.1841 566.447 32.1795C566.393 32.1711 566.338 32.1739 566.284 32.1878C566.231 32.2017 566.181 32.2264 566.138 32.2604C566.096 32.2957 566.063 32.3392 566.039 32.3882C566.015 32.4371 566.001 32.4905 565.999 32.545L565.266 59.502C565.265 59.6016 565.302 59.6979 565.369 59.7714C565.436 59.8448 565.529 59.89 565.628 59.8978C565.661 59.8785 566.854 59.9548 572.807 58.635C576.94 57.7256 580.705 55.3471 583.741 53.4339C584.934 52.653 586.169 51.9397 587.442 51.2976C590.506 49.8487 593.967 52.867 593.98 52.8593C594.037 52.9091 594.106 52.9414 594.18 52.9522C594.255 52.963 594.33 52.952 594.399 52.9203L594.47 52.9056ZM593.455 26.8069L593.885 51.7845C592.644 50.8999 589.846 49.3225 587.151 50.5937C585.852 51.2512 584.59 51.9799 583.371 52.7763C580.394 54.6548 576.685 56.9919 572.683 57.8796C570.511 58.4085 568.312 58.817 566.095 59.1031L566.799 32.973C568.084 33.0402 572.134 32.8815 578.359 29.2875C586.15 24.7979 590.832 24.0521 593.455 26.8069Z" fill="white"/>
<path d="M611.553 60.4057C611.629 60.3641 611.688 60.2986 611.722 60.2195C611.759 60.1233 611.756 60.0165 611.715 59.9222C611.674 59.8278 611.597 59.7534 611.502 59.7149C609.281 58.8448 607.434 58.0071 605.805 57.2669C603.923 56.3051 601.939 55.5589 599.89 55.0425C598.171 54.7198 596.415 54.6378 594.673 54.7989C594.623 54.8044 594.575 54.8197 594.531 54.8441C594.487 54.8685 594.448 54.9014 594.417 54.9409C594.386 54.9804 594.363 55.0257 594.349 55.0741C594.336 55.1226 594.332 55.1732 594.339 55.223C594.352 55.3241 594.404 55.4162 594.484 55.4796C594.564 55.5431 594.665 55.573 594.767 55.563C596.431 55.4144 598.107 55.4942 599.748 55.8002C601.73 56.3113 603.648 57.0453 605.464 57.9882C607.105 58.7313 608.942 59.5384 611.203 60.4476C611.261 60.4689 611.323 60.4762 611.383 60.4689C611.444 60.4616 611.502 60.44 611.553 60.4057V60.4057Z" fill="white"/>
<path d="M591.871 55.1444C591.945 55.1028 592.001 55.0355 592.029 54.9553C592.068 54.8609 592.067 54.7551 592.028 54.6611C591.989 54.5671 591.914 54.4925 591.819 54.4536C589.677 53.6565 587.312 53.6973 585.197 54.5677L583.948 55.1646C578.662 57.8422 572.969 59.6261 567.101 60.4437C566.999 60.46 566.908 60.5159 566.848 60.5992C566.787 60.6824 566.762 60.7863 566.778 60.8879C566.795 60.9894 566.85 61.0804 566.934 61.1407C567.017 61.2011 567.121 61.2259 567.222 61.2097C573.162 60.3728 578.924 58.5664 584.28 55.8626L585.522 55.2696C587.444 54.4915 589.586 54.4567 591.531 55.1719C591.586 55.1921 591.645 55.2001 591.704 55.1953C591.763 55.1906 591.82 55.1732 591.871 55.1444V55.1444Z" fill="white"/>
<path d="M621.17 39.6427C621.236 39.6055 621.289 39.55 621.323 39.4831C621.357 39.4161 621.371 39.3406 621.363 39.2659C621.355 39.1911 621.325 39.1204 621.277 39.0624C621.23 39.0045 621.166 38.9618 621.094 38.9397C617.318 37.6435 613.62 36.1314 610.019 34.4108C603.141 31.2126 599.102 30.6181 596.076 32.3649C595.987 32.4161 595.923 32.5002 595.896 32.599C595.87 32.6977 595.884 32.8028 595.935 32.8913C595.986 32.9798 596.07 33.0443 596.169 33.0707C596.267 33.0971 596.373 33.0832 596.461 33.032C599.24 31.4279 603.079 32.031 609.695 35.1139C613.328 36.8437 617.056 38.3676 620.861 39.6786C620.913 39.6944 620.966 39.6993 621.02 39.6932C621.073 39.687 621.124 39.6698 621.17 39.6427V39.6427Z" fill="white"/>
<path d="M621.038 44.3181C621.122 44.2702 621.185 44.1924 621.215 44.1002C621.228 44.0518 621.232 44.0012 621.226 43.9514C621.219 43.9016 621.203 43.8535 621.178 43.81C621.153 43.7665 621.119 43.7285 621.079 43.6981C621.039 43.6678 620.994 43.6457 620.945 43.6332C617.168 42.3302 613.467 40.8172 609.859 39.1016C602.988 35.8995 598.949 35.305 595.917 37.0557C595.83 37.1082 595.766 37.1924 595.74 37.2905C595.714 37.3887 595.726 37.4931 595.775 37.5821C595.826 37.6705 595.911 37.7351 596.009 37.7615C596.108 37.7879 596.213 37.7739 596.302 37.7228C599.087 36.1148 602.92 36.7218 609.542 39.8009C613.175 41.5306 616.904 43.0545 620.709 44.3656C620.764 44.3826 620.822 44.3872 620.879 44.379C620.935 44.3708 620.99 44.35 621.038 44.3181Z" fill="white"/>
<path d="M620.905 48.9934C620.969 48.9558 621.02 48.9007 621.053 48.8349C621.086 48.769 621.1 48.695 621.092 48.6217C621.085 48.5484 621.056 48.4788 621.01 48.4213C620.964 48.3637 620.903 48.3205 620.833 48.297C617.058 46.995 613.358 45.4844 609.751 43.772C602.876 40.5632 598.837 39.9687 595.804 41.7194C595.717 41.772 595.654 41.8561 595.628 41.9543C595.601 42.0524 595.614 42.1569 595.663 42.2458C595.714 42.3343 595.798 42.3988 595.897 42.4252C595.996 42.4516 596.101 42.4377 596.19 42.3865C598.975 40.7785 602.807 41.3855 609.423 44.4684C613.059 46.1956 616.79 47.7182 620.596 49.0293C620.648 49.0455 620.701 49.0507 620.755 49.0445C620.808 49.0383 620.859 49.0209 620.905 48.9934Z" fill="white"/>
<path d="M620.772 53.6686C620.813 53.646 620.85 53.6154 620.879 53.5786C620.908 53.5419 620.93 53.4998 620.943 53.4546C620.956 53.4062 620.96 53.3556 620.954 53.3058C620.947 53.256 620.931 53.2079 620.906 53.1644C620.881 53.1209 620.847 53.0829 620.807 53.0525C620.767 53.0222 620.722 53.0001 620.673 52.9876C616.897 51.6892 613.197 50.1785 609.591 48.4627C602.716 45.2539 598.681 44.6661 595.649 46.4168C595.56 46.4679 595.495 46.5521 595.469 46.6508C595.442 46.7495 595.456 46.8547 595.507 46.9431C595.558 47.0316 595.642 47.0961 595.741 47.1225C595.84 47.1489 595.945 47.135 596.034 47.0839C598.819 45.4759 602.648 46.0762 609.263 49.1591C612.897 50.8925 616.628 52.4153 620.437 53.72C620.493 53.7381 620.552 53.743 620.611 53.734C620.669 53.7251 620.724 53.7027 620.772 53.6686V53.6686Z" fill="white"/>
<path d="M591.824 33.5923L591.938 33.5267C592.002 33.4478 592.033 33.3472 592.024 33.246C592.015 33.1449 591.968 33.051 591.892 32.9841C591.872 32.9507 588.882 30.5322 584.734 32.9269C576.953 37.4194 571.21 39.1339 569.375 37.4981C569.296 37.426 569.191 37.3884 569.084 37.3936C569.031 37.3962 568.979 37.4092 568.931 37.4319C568.883 37.4545 568.839 37.4865 568.804 37.5258C568.768 37.5651 568.74 37.6111 568.722 37.6611C568.704 37.7111 568.696 37.7642 568.699 37.8172C568.701 37.8703 568.714 37.9223 568.737 37.9704C568.76 38.0184 568.791 38.0615 568.831 38.0972C571.741 40.6863 580.264 36.3975 585.086 33.6133C588.773 31.4847 591.256 33.5024 591.381 33.5811C591.445 33.6283 591.522 33.6546 591.601 33.6566C591.68 33.6586 591.758 33.6362 591.824 33.5923Z" fill="white"/>
<path d="M591.728 38.9489C591.803 38.9064 591.862 38.8411 591.897 38.7626C591.934 38.6678 591.932 38.5623 591.892 38.4691C591.851 38.3758 591.775 38.3024 591.681 38.2648C591.539 38.2043 588.221 36.8999 583.058 39.8808C577.508 43.0853 572.636 44.1637 568.56 43.0743C568.463 43.0492 568.359 43.0634 568.272 43.1139C568.184 43.1643 568.12 43.247 568.093 43.3442C568.079 43.3933 568.076 43.4445 568.082 43.4949C568.089 43.5454 568.105 43.594 568.131 43.6381C568.156 43.6821 568.19 43.7206 568.23 43.7515C568.271 43.7824 568.317 43.8049 568.366 43.8179C572.635 44.9646 577.725 43.8937 583.463 40.5812C588.258 37.8125 591.382 38.9974 591.407 39.0097C591.462 39.0237 591.519 39.0255 591.575 39.015C591.63 39.0045 591.683 38.9819 591.728 38.9489V38.9489Z" fill="white"/>
<path d="M592.432 43.8531C592.48 43.8236 592.521 43.7847 592.553 43.7388C592.582 43.6979 592.603 43.6514 592.615 43.6022C592.626 43.5531 592.627 43.5021 592.619 43.4525C592.61 43.4028 592.591 43.3554 592.564 43.3131C592.536 43.2707 592.501 43.2343 592.459 43.206C591.178 42.4149 589.7 42.0009 588.194 42.0114C586.688 42.0219 585.215 42.4566 583.944 43.2654C578.36 46.4892 572.797 48.1445 569.061 47.7043C569.01 47.6972 568.959 47.7004 568.91 47.7136C568.861 47.7268 568.815 47.7498 568.775 47.7813C568.735 47.8127 568.701 47.852 568.677 47.8966C568.652 47.9412 568.637 47.9903 568.632 48.0409C568.622 48.142 568.651 48.2431 568.714 48.323C568.776 48.4028 568.868 48.4553 568.968 48.4694C574.58 49.1344 581.584 45.5175 584.329 43.9326C585.474 43.1983 586.802 42.7996 588.161 42.7821C589.521 42.7645 590.858 43.1287 592.02 43.8332C592.079 43.8761 592.15 43.9009 592.223 43.9044C592.296 43.908 592.369 43.8902 592.432 43.8531Z" fill="white"/>
<path d="M592.258 47.8406C592.293 47.8289 592.325 47.8105 592.352 47.7866C592.421 47.7118 592.458 47.6133 592.456 47.5118C592.454 47.4102 592.412 47.3135 592.34 47.2419C592.231 47.1449 589.755 44.892 584.901 47.3294C579.866 49.8925 574.44 51.6031 568.846 52.3915C568.792 52.3916 568.738 52.403 568.689 52.4251C568.639 52.4472 568.595 52.4795 568.559 52.5199C568.523 52.5602 568.496 52.6077 568.479 52.6593C568.462 52.7108 568.457 52.7653 568.463 52.8191C568.469 52.8729 568.486 52.9249 568.513 52.9716C568.541 53.0183 568.577 53.0587 568.621 53.0902C568.666 53.1217 568.716 53.1435 568.769 53.1543C568.822 53.1651 568.877 53.1646 568.93 53.1528C574.616 52.363 580.131 50.628 585.246 48.0197C589.59 45.841 591.72 47.7247 591.803 47.7922C591.864 47.8478 591.941 47.8826 592.023 47.8913C592.105 47.9 592.187 47.8822 592.258 47.8406Z" fill="white"/>
<g opacity="0.2">
<path d="M622.025 383.847L622.071 383.859C622.134 383.866 622.198 383.858 622.258 383.835C622.318 383.813 622.372 383.778 622.415 383.731L643.514 360.812C643.577 360.727 643.606 360.621 643.593 360.515C643.587 360.411 643.54 360.313 643.462 360.243L642.088 359.058C642.009 358.998 641.91 358.969 641.81 358.978C641.711 358.987 641.619 359.034 641.553 359.108C641.486 359.182 641.45 359.278 641.452 359.378C641.454 359.478 641.494 359.573 641.563 359.644L642.625 360.59L622.18 382.811L605.732 352.166C605.702 352.108 605.655 352.059 605.599 352.024L579.875 335.866L599.665 317.494L600.666 317.844C600.715 317.863 600.767 317.871 600.82 317.869C600.872 317.867 600.923 317.855 600.971 317.832C601.018 317.81 601.06 317.778 601.095 317.739C601.129 317.7 601.156 317.654 601.172 317.604C601.205 317.506 601.198 317.399 601.153 317.306C601.107 317.213 601.027 317.141 600.929 317.106L599.698 316.67C599.631 316.645 599.557 316.639 599.487 316.653C599.417 316.668 599.352 316.702 599.3 316.751L578.959 335.653C578.92 335.699 578.891 335.752 578.876 335.81C578.86 335.868 578.858 335.929 578.87 335.988C578.875 336.049 578.895 336.107 578.926 336.159C578.957 336.212 579 336.256 579.05 336.29L605.127 352.657L621.771 383.665C621.828 383.757 621.92 383.822 622.025 383.847Z" fill="white"/>
<path d="M622.694 380.132L622.755 380.149C622.814 380.154 622.874 380.145 622.93 380.123C622.985 380.101 623.035 380.066 623.075 380.022L643.238 358.15C643.301 358.084 643.339 357.997 643.344 357.906C643.349 357.815 643.321 357.725 643.266 357.652C643.219 357.582 638.324 350.776 637.268 342.885C636.293 335.603 632.467 331.092 627.033 330.811C626.977 330.808 626.92 330.818 626.868 330.839C626.816 330.86 626.769 330.893 626.73 330.934L608.286 350.018C608.233 350.072 608.197 350.141 608.182 350.216C608.168 350.291 608.175 350.369 608.204 350.44C608.233 350.51 608.281 350.571 608.344 350.615C608.406 350.659 608.48 350.683 608.557 350.686C608.775 350.696 613.95 350.996 613.792 356.007C613.631 361.368 617.1 369.254 618.767 373.039L618.947 373.463C619.946 375.721 621.12 377.897 622.459 379.971C622.515 380.052 622.598 380.109 622.694 380.132ZM642.455 357.842L622.862 379.108C621.662 377.197 620.601 375.202 619.688 373.139L619.507 372.715C617.853 369.006 614.418 361.204 614.604 356.029C614.739 351.526 611.083 350.318 609.418 350.003L627.181 331.602C632.106 331.95 635.58 336.187 636.496 342.988C637.461 350.186 641.533 356.493 642.455 357.842Z" fill="white"/>
<path d="M608.486 350.643C608.554 350.662 608.625 350.663 608.693 350.645C608.761 350.627 608.823 350.592 608.873 350.542L627.319 331.451C627.368 331.374 627.392 331.284 627.388 331.192C627.611 326.762 623.515 323.624 614.09 321.098C605.861 318.893 603.229 315.388 603.205 315.357C603.171 315.311 603.129 315.273 603.081 315.245C603.032 315.216 602.978 315.198 602.922 315.191C602.866 315.187 602.811 315.194 602.758 315.212C602.705 315.23 602.657 315.259 602.616 315.297L582.573 334.278C582.5 334.35 582.457 334.446 582.452 334.548C582.448 334.65 582.482 334.749 582.548 334.827C582.586 334.837 583.395 335.756 588.659 339.109C592.308 341.442 596.755 342.446 600.338 343.259C601.766 343.557 603.177 343.935 604.563 344.391C607.829 345.56 608.15 350.251 608.165 350.255C608.17 350.331 608.197 350.405 608.243 350.467C608.289 350.528 608.352 350.575 608.424 350.602L608.486 350.643ZM626.643 331.017L608.874 349.408C608.616 347.869 607.732 344.702 604.862 343.671C603.445 343.207 602.004 342.821 600.546 342.515C597.032 341.72 592.655 340.727 589.115 338.472C587.161 337.283 585.273 335.987 583.462 334.59L602.885 316.185C603.766 317.165 606.812 319.981 613.92 321.885C622.809 324.275 626.738 327.124 626.643 331.017Z" fill="white"/>
<path d="M615.422 368.437C615.507 368.461 615.597 368.457 615.679 368.424C615.775 368.381 615.851 368.302 615.889 368.204C615.928 368.106 615.926 367.996 615.885 367.899C614.907 365.662 614.177 363.719 613.533 362.004C612.868 359.946 611.972 357.969 610.862 356.112C609.851 354.634 608.64 353.304 607.262 352.16C607.222 352.128 607.176 352.104 607.126 352.089C607.077 352.075 607.025 352.071 606.974 352.077C606.923 352.083 606.874 352.099 606.829 352.125C606.784 352.15 606.745 352.184 606.714 352.225C606.65 352.308 606.621 352.412 606.633 352.516C606.645 352.619 606.696 352.715 606.777 352.781C608.089 353.878 609.244 355.148 610.211 356.558C611.276 358.363 612.133 360.282 612.765 362.279C613.414 364.005 614.16 365.919 615.139 368.214C615.165 368.271 615.204 368.321 615.254 368.359C615.303 368.398 615.361 368.425 615.422 368.437V368.437Z" fill="white"/>
<path d="M604.984 350.382C605.068 350.406 605.158 350.398 605.236 350.36C605.332 350.319 605.408 350.242 605.448 350.146C605.488 350.049 605.487 349.941 605.447 349.845C604.474 347.717 602.732 346.035 600.571 345.134L599.235 344.662C593.47 342.774 588.058 339.944 583.219 336.289C583.134 336.227 583.028 336.201 582.923 336.218C582.819 336.234 582.726 336.291 582.664 336.377C582.603 336.462 582.577 336.568 582.594 336.672C582.61 336.776 582.668 336.869 582.753 336.931C587.658 340.624 593.136 343.488 598.97 345.407L600.299 345.877C602.253 346.705 603.828 348.231 604.718 350.156C604.744 350.21 604.781 350.259 604.827 350.298C604.872 350.337 604.926 350.366 604.984 350.382V350.382Z" fill="white"/>
<path d="M637.413 360.369C637.487 360.39 637.566 360.388 637.639 360.364C637.713 360.341 637.777 360.296 637.825 360.236C637.874 360.176 637.903 360.103 637.911 360.027C637.918 359.95 637.903 359.873 637.867 359.805C636.072 356.134 634.49 352.363 633.128 348.51C630.465 341.217 627.971 337.863 624.517 336.937C624.416 336.91 624.308 336.924 624.217 336.977C624.127 337.029 624.061 337.115 624.034 337.216C624.007 337.317 624.021 337.425 624.073 337.515C624.126 337.606 624.212 337.672 624.313 337.699C627.485 338.549 629.828 341.764 632.385 348.785C633.763 352.667 635.358 356.468 637.164 360.172C637.189 360.22 637.225 360.263 637.268 360.297C637.31 360.331 637.36 360.355 637.413 360.369V360.369Z" fill="white"/>
<path d="M633.933 363.657C634.028 363.684 634.13 363.673 634.219 363.628C634.263 363.602 634.303 363.569 634.334 363.528C634.366 363.487 634.389 363.441 634.402 363.391C634.416 363.342 634.419 363.29 634.412 363.239C634.405 363.188 634.388 363.139 634.361 363.095C632.571 359.417 630.987 355.644 629.618 351.79C626.962 344.499 624.468 341.145 621.006 340.217C620.905 340.192 620.798 340.207 620.708 340.259C620.618 340.311 620.552 340.396 620.523 340.496C620.496 340.597 620.51 340.705 620.562 340.795C620.615 340.886 620.701 340.952 620.802 340.979C623.982 341.831 626.317 345.044 628.882 352.067C630.26 355.949 631.855 359.75 633.66 363.454C633.688 363.506 633.726 363.551 633.774 363.586C633.821 363.621 633.875 363.646 633.933 363.657Z" fill="white"/>
<path d="M630.453 366.945C630.526 366.964 630.603 366.961 630.674 366.938C630.746 366.914 630.81 366.87 630.857 366.812C630.905 366.753 630.934 366.682 630.943 366.607C630.951 366.532 630.938 366.456 630.904 366.389C629.114 362.714 627.53 358.942 626.158 355.092C623.504 347.793 621.011 344.439 617.549 343.511C617.448 343.486 617.341 343.502 617.251 343.553C617.161 343.605 617.094 343.69 617.066 343.79C617.039 343.891 617.053 343.999 617.105 344.089C617.158 344.18 617.244 344.246 617.345 344.273C620.525 345.125 622.86 348.339 625.417 355.359C626.799 359.241 628.397 363.043 630.203 366.748C630.228 366.797 630.264 366.839 630.307 366.873C630.35 366.907 630.399 366.932 630.453 366.945Z" fill="white"/>
<path d="M626.972 370.233C627.018 370.247 627.067 370.251 627.115 370.245C627.162 370.24 627.209 370.225 627.25 370.202C627.295 370.177 627.335 370.143 627.366 370.102C627.398 370.061 627.421 370.015 627.434 369.965C627.447 369.916 627.451 369.864 627.444 369.813C627.437 369.762 627.42 369.713 627.393 369.669C625.6 365.995 624.015 362.224 622.647 358.372C619.993 351.073 617.498 347.727 614.036 346.799C613.935 346.772 613.827 346.786 613.737 346.838C613.646 346.891 613.58 346.977 613.553 347.078C613.526 347.179 613.54 347.286 613.592 347.377C613.645 347.467 613.731 347.534 613.832 347.561C617.012 348.413 619.349 351.619 621.906 358.639C623.281 362.524 624.879 366.326 626.692 370.028C626.72 370.081 626.759 370.128 626.808 370.164C626.857 370.199 626.913 370.223 626.972 370.233V370.233Z" fill="white"/>
<path d="M620.551 334.748L620.68 334.783C620.784 334.772 620.879 334.722 620.946 334.642C621.013 334.563 621.047 334.46 621.04 334.357C621.05 334.319 620.636 330.403 615.901 329.135C607.016 326.754 601.619 323.838 601.475 321.326C601.469 321.216 601.421 321.113 601.339 321.039C601.299 321.003 601.252 320.975 601.201 320.956C601.149 320.938 601.095 320.93 601.041 320.932C600.986 320.935 600.933 320.948 600.884 320.971C600.834 320.994 600.79 321.027 600.754 321.067C600.717 321.108 600.689 321.155 600.67 321.206C600.652 321.257 600.644 321.311 600.647 321.366C600.879 325.346 610.152 328.411 615.658 329.886C619.868 331.014 620.204 334.272 620.238 334.42C620.25 334.5 620.287 334.574 620.343 334.633C620.399 334.692 620.471 334.732 620.551 334.748Z" fill="white"/>
<path d="M616.604 338.556C616.689 338.579 616.779 338.575 616.861 338.543C616.956 338.502 617.031 338.424 617.07 338.327C617.108 338.23 617.106 338.122 617.065 338.027C617.006 337.88 615.549 334.534 609.654 332.955C603.317 331.257 599.01 328.511 596.848 324.772C596.796 324.684 596.71 324.619 596.611 324.592C596.511 324.565 596.404 324.579 596.314 324.629C596.269 324.655 596.23 324.69 596.198 324.731C596.166 324.772 596.143 324.819 596.129 324.87C596.116 324.92 596.112 324.972 596.119 325.024C596.126 325.076 596.143 325.125 596.17 325.17C598.429 329.09 602.889 331.999 609.44 333.755C614.915 335.222 616.319 338.341 616.328 338.368C616.357 338.418 616.397 338.46 616.445 338.493C616.493 338.525 616.547 338.547 616.604 338.556V338.556Z" fill="white"/>
<path d="M613.564 342.615C613.62 342.628 613.678 342.63 613.734 342.62C613.785 342.612 613.834 342.593 613.878 342.566C613.921 342.538 613.959 342.502 613.989 342.46C614.018 342.418 614.039 342.37 614.05 342.32C614.061 342.269 614.062 342.217 614.052 342.166C613.698 340.667 612.927 339.297 611.83 338.215C610.732 337.132 609.351 336.38 607.845 336.046C601.47 334.338 596.245 331.509 593.86 328.486C593.828 328.444 593.789 328.409 593.744 328.383C593.698 328.357 593.648 328.341 593.597 328.335C593.545 328.328 593.492 328.333 593.442 328.347C593.392 328.362 593.346 328.386 593.305 328.419C593.225 328.485 593.173 328.579 593.16 328.682C593.148 328.786 593.176 328.89 593.239 328.973C596.819 333.516 604.507 335.968 607.641 336.808C609.001 337.105 610.251 337.777 611.248 338.749C612.245 339.72 612.949 340.951 613.28 342.302C613.292 342.376 613.325 342.445 613.375 342.501C613.426 342.556 613.491 342.596 613.564 342.615Z" fill="white"/>
<path d="M610.552 345.376C610.585 345.392 610.621 345.402 610.658 345.404C610.762 345.4 610.861 345.356 610.932 345.28C611.004 345.205 611.044 345.105 611.044 345.001C611.035 344.852 610.873 341.429 605.596 339.68C600.096 337.891 594.931 335.202 590.311 331.723C590.272 331.684 590.225 331.653 590.173 331.634C590.121 331.614 590.066 331.605 590.01 331.608C589.955 331.611 589.901 331.626 589.851 331.651C589.802 331.676 589.759 331.712 589.724 331.755C589.689 331.798 589.664 331.848 589.65 331.902C589.636 331.956 589.633 332.012 589.643 332.066C589.652 332.121 589.672 332.173 589.703 332.219C589.733 332.265 589.773 332.305 589.82 332.335C594.508 335.879 599.756 338.615 605.346 340.43C610.067 341.997 610.245 344.902 610.257 345.011C610.261 345.095 610.291 345.176 610.344 345.242C610.397 345.307 610.47 345.354 610.552 345.376Z" fill="white"/>
</g>
<path d="M674.374 199.967C673.944 200.215 631.017 223.98 629.874 224.64C628.73 225.3 625.101 227.395 622.461 226.698C619.82 226.002 613.362 223.052 613.109 222.905C613.031 222.867 612.962 222.813 612.905 222.748C612.848 222.682 612.804 222.606 612.777 222.524L597.296 170.272C597.25 170.119 597.268 169.954 597.344 169.813C597.42 169.672 597.548 169.567 597.701 169.521C597.777 169.497 597.857 169.488 597.937 169.495C598.016 169.503 598.093 169.526 598.163 169.564C598.233 169.602 598.295 169.653 598.344 169.715C598.394 169.777 598.431 169.849 598.452 169.925L613.874 221.905C615.123 222.469 620.707 224.945 622.786 225.518C624.866 226.092 628.199 224.21 629.279 223.586C630.36 222.962 668.386 201.902 673.312 199.169L649.558 138.645C649.498 138.495 649.499 138.327 649.562 138.178C649.626 138.028 649.746 137.91 649.896 137.849C650.047 137.789 650.215 137.79 650.364 137.853C650.513 137.916 650.631 138.036 650.692 138.186L674.66 199.202C674.716 199.342 674.719 199.498 674.666 199.64C674.613 199.781 674.509 199.898 674.374 199.967Z" fill="white"/>
<path d="M602.382 156.648L598.852 158.602C598.71 158.68 598.544 158.7 598.388 158.656C598.232 158.613 598.1 158.51 598.019 158.37C597.953 158.228 597.941 158.066 597.985 157.915C598.029 157.764 598.126 157.634 598.258 157.548L601.798 155.588C601.937 155.508 602.102 155.486 602.257 155.527C602.412 155.569 602.544 155.67 602.625 155.809C602.705 155.948 602.727 156.113 602.685 156.268C602.643 156.423 602.542 156.556 602.403 156.636L602.382 156.648Z" fill="white"/>
<path d="M616.389 222.311C616.25 222.391 616.084 222.413 615.929 222.371C615.774 222.33 615.642 222.229 615.562 222.09C615.482 221.951 615.46 221.785 615.502 221.63C615.543 221.475 615.645 221.343 615.784 221.263L661.594 194.619L640.425 135.592L606.704 154.25C606.566 154.327 606.402 154.346 606.25 154.303C606.097 154.261 605.967 154.16 605.888 154.023C605.824 153.879 605.812 153.717 605.854 153.565C605.897 153.413 605.991 153.28 606.121 153.19L640.455 134.191C640.533 134.149 640.62 134.124 640.709 134.119C640.797 134.113 640.886 134.127 640.969 134.16C641.049 134.191 641.123 134.239 641.184 134.299C641.246 134.36 641.294 134.433 641.326 134.513L662.911 194.696C662.961 194.829 662.962 194.975 662.913 195.109C662.864 195.242 662.769 195.353 662.646 195.423L616.401 222.332L616.389 222.311Z" fill="white"/>
<path d="M670.551 198.626L625.471 223.144C625.321 223.216 625.15 223.23 624.991 223.184L618.774 221.185C618.619 221.141 618.488 221.039 618.408 220.9C618.328 220.762 618.305 220.597 618.344 220.441C618.364 220.365 618.398 220.293 618.446 220.23C618.494 220.167 618.554 220.115 618.622 220.075C618.691 220.036 618.766 220.01 618.844 220C618.923 219.99 619.002 219.996 619.078 220.017L625.04 221.912L669.431 197.778L649.65 145.2L643.744 142.505C643.67 142.474 643.603 142.429 643.547 142.371C643.491 142.314 643.447 142.246 643.419 142.171C643.39 142.096 643.377 142.016 643.379 141.936C643.382 141.856 643.402 141.777 643.436 141.705C643.469 141.632 643.516 141.567 643.575 141.512C643.633 141.458 643.702 141.415 643.777 141.388C643.852 141.36 643.932 141.347 644.012 141.351C644.092 141.354 644.17 141.373 644.243 141.407L650.502 144.205C650.649 144.276 650.762 144.401 650.816 144.555L670.874 197.853C670.93 197.998 670.928 198.16 670.868 198.304C670.807 198.448 670.694 198.564 670.551 198.626Z" fill="white"/>
<path d="M628.123 218.554L634.553 214.841C634.553 214.841 636.444 220.539 638.665 225.669C640.885 230.8 644.197 237.116 644.197 237.116L636.429 232.311L635.271 240.844L628.123 218.554Z" fill="white"/>
</svg>
