<svg width="861" height="581" viewBox="0 0 861 581" fill="none" xmlns="http://www.w3.org/2000/svg">
<path d="M28.1915 357.721H28.1014C27.9817 357.701 27.868 357.654 27.7691 357.584C27.6703 357.514 27.5888 357.422 27.5308 357.316L0.0558156 304.83C-0.0186052 304.642 -0.0186052 304.433 0.0558156 304.245C0.119635 304.057 0.254245 303.901 0.431158 303.81L3.53899 302.311C3.71397 302.238 3.91003 302.234 4.08782 302.3C4.26561 302.365 4.41196 302.496 4.49748 302.665C4.58301 302.834 4.60138 303.029 4.54891 303.211C4.49644 303.392 4.37701 303.548 4.2146 303.645L1.7974 304.86L28.4167 355.741L73.7129 307.544C73.7983 307.452 73.9073 307.384 74.0282 307.349L129.234 290.329L101.924 246.841L99.9118 246.991C99.8128 247.001 99.7127 246.992 99.6176 246.962C99.5225 246.933 99.4343 246.884 99.3585 246.82C99.2827 246.755 99.2208 246.676 99.1766 246.587C99.1323 246.498 99.1066 246.401 99.1011 246.301C99.0887 246.105 99.1541 245.911 99.2833 245.763C99.4126 245.614 99.5952 245.522 99.7917 245.507L102.269 245.312C102.405 245.298 102.542 245.323 102.664 245.384C102.787 245.445 102.889 245.539 102.96 245.656L131.02 290.389C131.071 290.492 131.097 290.605 131.097 290.719C131.097 290.833 131.071 290.946 131.02 291.049C130.98 291.157 130.915 291.255 130.832 291.335C130.749 291.416 130.649 291.477 130.54 291.514L74.5837 308.744L28.747 357.511C28.5967 357.651 28.3971 357.726 28.1915 357.721Z" fill="white"/>
<path d="M28.792 350.568H28.6718C28.5601 350.547 28.4545 350.502 28.3633 350.434C28.2721 350.367 28.1979 350.279 28.1464 350.178L1.87242 300.077C1.78951 299.924 1.76361 299.746 1.79935 299.576C1.83509 299.406 1.93014 299.254 2.06759 299.147C2.1877 299.042 14.529 288.95 20.3543 274.973C25.7292 262.077 34.9776 255.674 45.0968 257.833C45.2018 257.856 45.3005 257.901 45.3861 257.966C45.4717 258.031 45.5421 258.113 45.5923 258.208L70.0796 302.341C70.1502 302.468 70.1824 302.612 70.1724 302.757C70.1623 302.902 70.1105 303.041 70.023 303.156C69.9356 303.272 69.8164 303.36 69.6799 303.41C69.5434 303.459 69.3953 303.468 69.2538 303.436C68.8485 303.346 59.1947 301.351 57.0177 310.634C54.6756 320.561 44.4212 333.337 39.4967 339.471L38.9562 340.16C36.0109 343.816 32.7831 347.236 29.3024 350.388C29.1599 350.508 28.9784 350.572 28.792 350.568ZM3.46386 299.897L28.9871 348.603C32.1325 345.684 35.0627 342.541 37.7551 339.201L38.2956 338.511C43.1601 332.513 53.3093 319.871 55.5163 310.274C57.4831 301.936 64.7948 301.516 68.0077 301.756L44.4362 259.213C35.2178 257.428 26.7501 263.502 21.7205 275.543C16.4057 288.29 5.82101 297.872 3.46386 299.897Z" fill="white"/>
<path d="M69.4039 303.391C69.2704 303.392 69.1387 303.359 69.0226 303.293C68.9065 303.227 68.8101 303.131 68.7433 303.016L44.256 258.868C44.2041 258.702 44.2041 258.524 44.256 258.358C46.0276 250.11 55.0959 246.361 73.6528 246.361C89.8526 246.361 96.4135 241.218 96.4736 241.173C96.557 241.106 96.6534 241.056 96.7567 241.028C96.86 241 96.968 240.993 97.0741 241.008C97.1785 241.027 97.2778 241.067 97.3656 241.127C97.4535 241.186 97.5281 241.263 97.5846 241.353L125.06 286.085C125.158 286.252 125.19 286.45 125.148 286.64C125.107 286.829 124.994 286.995 124.834 287.105C124.759 287.105 122.823 288.395 111.502 291.964C103.65 294.453 94.9872 294.108 88.0059 293.838C85.2355 293.682 82.4586 293.682 79.6883 293.838C73.1123 294.378 70.2146 302.836 70.1846 302.836C70.1384 302.974 70.0527 303.096 69.938 303.187C69.8233 303.277 69.6847 303.333 69.539 303.346L69.4039 303.391ZM45.7123 258.403L69.2988 300.931C70.5299 298.232 73.7128 292.848 79.4931 292.369C82.3235 292.213 85.1604 292.213 87.9908 292.369C94.8371 292.639 103.365 292.968 110.977 290.569C115.153 289.347 119.258 287.895 123.273 286.22L96.6537 242.852C94.5518 244.217 87.5705 247.891 73.5777 247.891C56.0718 247.906 47.4539 251.205 45.7123 258.403Z" fill="white"/>
<path d="M47.9044 332.662C47.7369 332.666 47.573 332.613 47.439 332.513C47.2833 332.386 47.1835 332.204 47.1611 332.005C47.1386 331.806 47.1953 331.606 47.3189 331.448C50.2165 327.819 52.5136 324.61 54.5405 321.775C56.7761 318.323 59.3951 315.133 62.3476 312.268C64.9314 310.051 67.8116 308.204 70.9054 306.78C70.995 306.74 71.0915 306.719 71.1894 306.717C71.2872 306.716 71.3845 306.733 71.4753 306.77C71.5662 306.806 71.649 306.86 71.7187 306.929C71.7884 306.997 71.8436 307.079 71.8813 307.169C71.9575 307.353 71.9594 307.559 71.8866 307.743C71.8137 307.928 71.6719 308.077 71.4909 308.159C68.5413 309.528 65.7932 311.294 63.3235 313.408C60.4793 316.199 57.9609 319.303 55.8166 322.66C53.7748 325.509 51.4627 328.659 48.535 332.393C48.4589 332.484 48.362 332.557 48.2524 332.604C48.1427 332.651 48.0234 332.671 47.9044 332.662Z" fill="white"/>
<path d="M75.965 304.635C75.7998 304.637 75.6395 304.578 75.5146 304.47C75.3577 304.349 75.2553 304.17 75.23 303.973C75.2047 303.776 75.2584 303.578 75.3795 303.42C78.215 299.992 82.2418 297.758 86.6548 297.167L89.3422 296.957C100.86 296.326 112.194 293.792 122.883 289.459C123.07 289.388 123.278 289.393 123.461 289.475C123.644 289.556 123.787 289.707 123.859 289.894C123.93 290.081 123.925 290.289 123.843 290.472C123.761 290.654 123.61 290.797 123.423 290.869C112.596 295.239 101.122 297.803 89.4624 298.457L86.7899 298.667C82.7929 299.226 79.1476 301.252 76.5656 304.35C76.492 304.438 76.4002 304.509 76.2965 304.558C76.1929 304.608 76.0798 304.634 75.965 304.635Z" fill="white"/>
<path d="M11.4814 307.02C11.3349 307.021 11.1913 306.979 11.0683 306.899C10.9453 306.82 10.8483 306.706 10.7893 306.572C10.7302 306.438 10.7117 306.29 10.736 306.146C10.7602 306.001 10.8263 305.867 10.9259 305.76C16.0297 299.9 20.7919 293.751 25.1889 287.345C33.6716 275.258 39.9023 270.325 46.7035 270.325C46.9026 270.325 47.0935 270.404 47.2343 270.544C47.3751 270.685 47.4542 270.876 47.4542 271.074C47.4542 271.273 47.3751 271.464 47.2343 271.605C47.0935 271.745 46.9026 271.824 46.7035 271.824C40.4578 271.824 34.5724 276.578 26.42 288.215C21.9779 294.668 17.176 300.866 12.0369 306.78C11.966 306.856 11.8801 306.917 11.7844 306.958C11.6888 306.999 11.5856 307.02 11.4814 307.02Z" fill="white"/>
<path d="M16.2555 314.772C16.0668 314.774 15.8846 314.704 15.745 314.577C15.6751 314.509 15.6195 314.427 15.5816 314.337C15.5437 314.247 15.5242 314.15 15.5242 314.052C15.5242 313.955 15.5437 313.858 15.5816 313.768C15.6195 313.678 15.6751 313.596 15.745 313.528C20.844 307.655 25.6108 301.502 30.023 295.098C38.4907 283.011 44.7214 278.077 51.5376 278.077C51.7355 278.081 51.9242 278.161 52.0642 278.301C52.2041 278.441 52.2844 278.63 52.2883 278.827C52.2883 279.026 52.2092 279.217 52.0684 279.357C51.9277 279.498 51.7367 279.577 51.5376 279.577C45.2769 279.577 39.4066 284.331 31.2391 295.967C26.797 302.42 21.9951 308.618 16.856 314.532C16.7801 314.614 16.6868 314.679 16.5829 314.72C16.479 314.762 16.3671 314.779 16.2555 314.772Z" fill="white"/>
<path d="M21.0299 322.525C20.8862 322.524 20.7461 322.481 20.6261 322.402C20.506 322.323 20.4111 322.212 20.3526 322.081C20.2942 321.95 20.2745 321.805 20.2961 321.663C20.3177 321.521 20.3796 321.388 20.4744 321.281C25.5715 315.411 30.3382 309.263 34.7524 302.866C43.2201 290.764 49.4508 285.83 56.267 285.83C56.4649 285.834 56.6536 285.915 56.7936 286.054C56.9335 286.194 57.0138 286.383 57.0177 286.58C57.0177 286.779 56.9386 286.97 56.7978 287.11C56.657 287.251 56.4661 287.33 56.267 287.33C50.0063 287.33 44.1359 292.084 35.9835 303.72C31.534 310.172 26.7271 316.37 21.5854 322.285C21.5151 322.362 21.4292 322.424 21.3335 322.465C21.2377 322.506 21.1342 322.527 21.0299 322.525Z" fill="white"/>
<path d="M25.8041 330.278C25.7128 330.28 25.6219 330.263 25.5369 330.23C25.4518 330.197 25.3743 330.147 25.3087 330.083C25.2388 330.014 25.1833 329.933 25.1453 329.843C25.1074 329.753 25.0879 329.656 25.0879 329.558C25.0879 329.46 25.1074 329.364 25.1453 329.273C25.1833 329.183 25.2388 329.102 25.3087 329.033C30.4115 323.168 35.1785 317.02 39.5867 310.618C48.0544 298.517 54.2851 293.598 61.1013 293.598C61.3004 293.598 61.4914 293.677 61.6322 293.818C61.7729 293.958 61.852 294.149 61.852 294.348C61.852 294.547 61.7729 294.737 61.6322 294.878C61.4914 295.019 61.3004 295.098 61.1013 295.098C54.8406 295.098 48.9703 299.836 40.8178 311.473C36.3791 317.932 31.5718 324.131 26.4197 330.038C26.3429 330.123 26.2473 330.189 26.1404 330.231C26.0335 330.272 25.9184 330.289 25.8041 330.278Z" fill="white"/>
<path d="M55.0659 268.255H54.8106C54.626 268.184 54.4759 268.045 54.392 267.866C54.308 267.687 54.2966 267.483 54.3602 267.295C54.3602 267.221 57.0477 260.232 66.3712 260.232C83.8621 260.232 95.2125 257.533 96.7138 252.989C96.7775 252.791 96.9177 252.625 97.1035 252.53C97.1956 252.482 97.296 252.453 97.3991 252.445C97.5023 252.436 97.6061 252.448 97.7047 252.48C97.8033 252.511 97.8947 252.562 97.9737 252.628C98.0527 252.695 98.1178 252.777 98.1652 252.869C98.2126 252.961 98.2414 253.061 98.25 253.164C98.2585 253.267 98.2467 253.371 98.2152 253.469C95.828 260.667 77.2861 261.732 66.4462 261.732C58.1587 261.732 55.9367 267.55 55.8015 267.805C55.7401 267.947 55.6365 268.066 55.5048 268.146C55.3732 268.227 55.2199 268.265 55.0659 268.255Z" fill="white"/>
<path d="M60.4408 277.193C60.2735 277.194 60.1104 277.141 59.9753 277.043C59.8207 276.919 59.7212 276.739 59.6987 276.543C59.6762 276.346 59.7325 276.148 59.8552 275.993C60.0354 275.753 64.3593 270.325 75.9649 270.325C88.4413 270.325 97.7047 267.4 103.515 261.597C103.655 261.46 103.844 261.383 104.04 261.383C104.237 261.383 104.426 261.46 104.566 261.597C104.636 261.667 104.692 261.75 104.73 261.841C104.768 261.932 104.788 262.03 104.788 262.129C104.788 262.228 104.768 262.326 104.73 262.418C104.692 262.509 104.636 262.592 104.566 262.662C98.4854 268.75 88.8617 271.899 75.9649 271.899C65.1851 271.899 61.0713 276.938 61.0413 276.983C60.9627 277.06 60.8682 277.118 60.7644 277.154C60.6606 277.191 60.5501 277.204 60.4408 277.193Z" fill="white"/>
<path d="M64.0289 286.145C63.9199 286.142 63.8126 286.116 63.7136 286.07C63.624 286.03 63.5434 285.972 63.4765 285.9C63.4097 285.828 63.3579 285.744 63.3243 285.651C63.2907 285.559 63.276 285.461 63.281 285.363C63.286 285.265 63.3106 285.169 63.3533 285.081C64.7422 282.501 66.8312 280.364 69.3805 278.916C71.9299 277.467 74.8363 276.766 77.7664 276.893C90.3179 276.893 101.308 274.269 107.178 269.89C107.256 269.829 107.346 269.784 107.442 269.759C107.538 269.733 107.638 269.727 107.736 269.741C107.834 269.755 107.928 269.789 108.013 269.84C108.098 269.891 108.171 269.959 108.229 270.04C108.345 270.2 108.394 270.399 108.366 270.595C108.338 270.791 108.235 270.968 108.079 271.089C99.2661 277.673 83.9371 278.392 77.7664 278.392C75.1217 278.269 72.4953 278.889 70.1861 280.183C67.8769 281.477 65.9777 283.392 64.7045 285.71C64.6463 285.841 64.5514 285.951 64.4314 286.028C64.3115 286.105 64.1716 286.146 64.0289 286.145Z" fill="white"/>
<path d="M68.2028 292.699C68.1334 292.712 68.062 292.712 67.9926 292.699C67.8037 292.639 67.6451 292.51 67.5499 292.336C67.4547 292.163 67.4305 291.96 67.4822 291.769C67.5723 291.499 69.554 285.291 80.1087 284.676C91.0928 284.095 101.904 281.699 112.103 277.583C112.194 277.53 112.296 277.497 112.401 277.486C112.506 277.475 112.612 277.487 112.712 277.52C112.812 277.552 112.904 277.606 112.982 277.677C113.061 277.747 113.123 277.834 113.165 277.93C113.208 278.027 113.229 278.131 113.229 278.237C113.228 278.342 113.205 278.446 113.162 278.542C113.118 278.638 113.055 278.724 112.976 278.793C112.897 278.863 112.804 278.916 112.703 278.947C102.348 283.151 91.3614 285.594 80.1988 286.175C70.7552 286.73 68.9985 291.979 68.9235 292.174C68.8753 292.327 68.7793 292.46 68.6496 292.555C68.5199 292.649 68.3633 292.699 68.2028 292.699Z" fill="white"/>
<g opacity="0.2">
<path d="M151.187 501.987C151.116 502.004 151.043 502.004 150.972 501.987L114.291 487.313C114.203 487.28 114.124 487.225 114.062 487.155C114 487.084 113.956 487 113.933 486.908C113.911 486.818 113.911 486.723 113.931 486.632C113.952 486.542 113.993 486.457 114.052 486.384L117.904 481.62C117.988 481.521 118.102 481.451 118.228 481.421C118.355 481.391 118.488 481.402 118.608 481.453L151.568 496.234L168.144 465.266C168.205 465.162 168.295 465.077 168.403 465.022C168.51 464.968 168.632 464.945 168.752 464.957L173.152 465.6C173.246 465.611 173.335 465.646 173.412 465.7C173.489 465.754 173.551 465.826 173.594 465.91C173.638 465.994 173.66 466.088 173.66 466.184C173.66 466.279 173.638 466.373 173.594 466.457L156.899 499.498C156.828 499.64 156.703 499.748 156.552 499.799C156.401 499.849 156.236 499.837 156.094 499.766C155.951 499.695 155.843 499.57 155.793 499.42C155.743 499.269 155.754 499.104 155.825 498.962L172.139 466.66L168.979 466.195L152.379 497.223C152.306 497.355 152.186 497.455 152.042 497.504C151.899 497.552 151.743 497.546 151.604 497.485L118.56 482.668L115.507 486.503L151.437 500.796C151.582 500.857 151.698 500.972 151.76 501.116C151.823 501.261 151.826 501.423 151.771 501.571C151.73 501.693 151.652 501.799 151.547 501.874C151.442 501.949 151.316 501.989 151.187 501.987Z" fill="white"/>
<path d="M151.854 497.569C151.723 497.571 151.595 497.531 151.49 497.453C151.384 497.376 151.307 497.265 151.27 497.14L137.568 446.888L111.083 435.132L119.24 479.143C119.267 479.297 119.233 479.457 119.144 479.586C119.054 479.715 118.917 479.804 118.763 479.833C118.608 479.861 118.448 479.827 118.319 479.737C118.189 479.648 118.1 479.511 118.071 479.357L109.723 434.239C109.7 434.133 109.708 434.023 109.746 433.921C109.784 433.82 109.851 433.731 109.938 433.667C110.022 433.599 110.124 433.556 110.231 433.541C110.338 433.526 110.447 433.541 110.546 433.584L138.32 445.923C138.4 445.958 138.471 446.011 138.529 446.077C138.587 446.142 138.629 446.22 138.653 446.304L152.379 496.818C152.417 496.971 152.394 497.133 152.317 497.27C152.239 497.407 152.112 497.51 151.962 497.557L151.854 497.569Z" fill="white"/>
<path d="M114.541 487.29C114.4 487.291 114.262 487.241 114.155 487.149C114.047 487.057 113.977 486.929 113.957 486.789L106.229 442.719C106.205 442.613 106.205 442.504 106.229 442.398L109.712 433.929C109.781 433.798 109.897 433.698 110.036 433.648C110.176 433.598 110.329 433.601 110.466 433.658C110.603 433.714 110.714 433.82 110.777 433.954C110.841 434.087 110.852 434.24 110.809 434.382L107.398 442.719L115.09 486.646C115.103 486.724 115.102 486.803 115.084 486.88C115.067 486.957 115.035 487.029 114.989 487.094C114.944 487.158 114.886 487.212 114.82 487.254C114.753 487.296 114.678 487.324 114.601 487.337L114.541 487.29Z" fill="white"/>
<path d="M166.689 462.015C166.562 462.014 166.439 461.973 166.336 461.898C166.233 461.823 166.157 461.718 166.117 461.598L153.19 422.03L138.618 446.769C138.536 446.902 138.405 446.997 138.253 447.035C138.101 447.072 137.941 447.048 137.806 446.969C137.672 446.889 137.574 446.76 137.534 446.609C137.494 446.458 137.515 446.297 137.592 446.161L152.832 420.291C152.89 420.191 152.977 420.11 153.081 420.059C153.185 420.009 153.302 419.99 153.417 420.005C153.53 420.018 153.638 420.063 153.727 420.134C153.815 420.206 153.882 420.302 153.917 420.41L167.25 461.229C167.275 461.303 167.286 461.382 167.281 461.46C167.276 461.538 167.254 461.615 167.219 461.685C167.183 461.755 167.134 461.817 167.073 461.868C167.013 461.918 166.943 461.956 166.868 461.979L166.689 462.015Z" fill="white"/>
<path d="M173.093 466.767C172.967 466.769 172.844 466.73 172.741 466.658C172.638 466.585 172.561 466.482 172.521 466.362L157.757 421.232H153.309C153.151 421.232 153 421.169 152.888 421.058C152.776 420.946 152.713 420.795 152.713 420.637C152.719 420.479 152.786 420.329 152.899 420.218C153.012 420.107 153.163 420.044 153.321 420.041H158.199C158.324 420.043 158.446 420.084 158.546 420.159C158.647 420.234 158.721 420.338 158.759 420.458L173.653 465.993C173.679 466.067 173.69 466.146 173.685 466.224C173.679 466.303 173.658 466.379 173.623 466.449C173.587 466.519 173.538 466.582 173.477 466.632C173.417 466.683 173.347 466.721 173.272 466.743L173.093 466.767Z" fill="white"/>
<path d="M148.993 480.024C148.887 480.026 148.783 479.997 148.694 479.94C148.559 479.861 148.46 479.732 148.418 479.581C148.376 479.43 148.394 479.269 148.468 479.13L160.393 458.453C160.473 458.318 160.602 458.219 160.753 458.177C160.904 458.135 161.066 458.153 161.204 458.227C161.34 458.309 161.439 458.44 161.481 458.593C161.523 458.746 161.505 458.909 161.43 459.049L149.446 479.726C149.399 479.808 149.334 479.878 149.255 479.929C149.176 479.981 149.086 480.013 148.993 480.024Z" fill="white"/>
<path d="M147.001 471.019C146.895 471.023 146.791 470.994 146.703 470.936C146.565 470.858 146.464 470.73 146.422 470.578C146.379 470.426 146.399 470.263 146.476 470.126L158.461 449.461C158.495 449.385 158.545 449.317 158.607 449.261C158.67 449.206 158.743 449.164 158.822 449.139C158.902 449.113 158.986 449.105 159.069 449.114C159.152 449.123 159.232 449.149 159.304 449.191C159.376 449.233 159.439 449.29 159.487 449.357C159.536 449.425 159.57 449.502 159.588 449.583C159.605 449.665 159.605 449.749 159.587 449.83C159.57 449.912 159.535 449.989 159.486 450.056L147.561 470.733C147.504 470.829 147.421 470.906 147.322 470.956C147.223 471.007 147.112 471.029 147.001 471.019Z" fill="white"/>
<path d="M144.997 462.039C144.892 462.039 144.789 462.011 144.699 461.955C144.631 461.917 144.571 461.866 144.523 461.804C144.475 461.742 144.44 461.671 144.42 461.596C144.4 461.52 144.396 461.441 144.407 461.364C144.418 461.287 144.444 461.212 144.485 461.145L156.469 440.468C156.556 440.349 156.684 440.266 156.828 440.236C156.973 440.205 157.123 440.229 157.251 440.304C157.379 440.378 157.474 440.496 157.519 440.637C157.564 440.777 157.556 440.929 157.495 441.064L145.57 461.741C145.512 461.839 145.428 461.919 145.326 461.972C145.225 462.025 145.111 462.048 144.997 462.039Z" fill="white"/>
<path d="M143.006 453.046C142.901 453.047 142.798 453.018 142.708 452.963C142.64 452.924 142.58 452.873 142.532 452.811C142.484 452.749 142.449 452.679 142.429 452.603C142.409 452.527 142.404 452.449 142.416 452.371C142.427 452.294 142.453 452.22 142.493 452.153L154.418 431.476C154.5 431.34 154.632 431.241 154.786 431.201C154.94 431.161 155.103 431.182 155.241 431.261C155.309 431.299 155.369 431.351 155.417 431.413C155.465 431.474 155.5 431.545 155.52 431.621C155.54 431.696 155.545 431.775 155.534 431.852C155.523 431.93 155.496 432.004 155.456 432.071L143.471 452.748C143.423 452.832 143.356 452.902 143.275 452.954C143.194 453.006 143.102 453.038 143.006 453.046Z" fill="white"/>
<path d="M143.042 480.083C142.959 480.082 142.877 480.061 142.803 480.024L122.96 471.222C122.888 471.191 122.823 471.146 122.768 471.089C122.714 471.032 122.672 470.965 122.644 470.892C122.616 470.819 122.603 470.74 122.606 470.662C122.61 470.584 122.628 470.507 122.662 470.436C122.693 470.364 122.738 470.298 122.795 470.244C122.851 470.189 122.918 470.146 122.991 470.117C123.064 470.088 123.142 470.074 123.221 470.076C123.3 470.077 123.377 470.094 123.449 470.126L143.28 478.94C143.439 478.972 143.578 479.065 143.667 479.199C143.757 479.333 143.789 479.497 143.757 479.655C143.726 479.813 143.633 479.951 143.498 480.041C143.364 480.13 143.2 480.163 143.042 480.131V480.083Z" fill="white"/>
<path d="M142.171 471.52C142.092 471.532 142.012 471.532 141.933 471.52L122.09 462.682C122.014 462.653 121.944 462.609 121.886 462.553C121.827 462.496 121.781 462.428 121.75 462.353C121.719 462.278 121.703 462.197 121.704 462.116C121.706 462.035 121.724 461.954 121.757 461.88C121.79 461.806 121.839 461.74 121.899 461.685C121.959 461.63 122.03 461.588 122.107 461.562C122.184 461.535 122.265 461.525 122.346 461.531C122.428 461.537 122.507 461.56 122.579 461.598L142.41 470.4C142.568 470.432 142.707 470.525 142.797 470.659C142.886 470.793 142.918 470.957 142.887 471.115C142.855 471.273 142.762 471.412 142.628 471.501C142.494 471.59 142.329 471.623 142.171 471.591V471.52Z" fill="white"/>
<path d="M138.57 462.682C138.487 462.68 138.405 462.66 138.331 462.622L118.488 453.82C118.416 453.789 118.351 453.744 118.296 453.687C118.242 453.631 118.2 453.564 118.172 453.49C118.144 453.417 118.131 453.339 118.134 453.26C118.138 453.182 118.157 453.105 118.19 453.034C118.221 452.962 118.266 452.897 118.323 452.842C118.379 452.787 118.446 452.744 118.519 452.716C118.592 452.687 118.67 452.673 118.749 452.674C118.828 452.676 118.905 452.693 118.977 452.724L138.808 461.538C138.881 461.569 138.946 461.614 139.001 461.671C139.055 461.727 139.098 461.794 139.127 461.867C139.156 461.94 139.17 462.018 139.169 462.096C139.167 462.175 139.15 462.252 139.118 462.324C139.071 462.43 138.994 462.52 138.896 462.583C138.799 462.646 138.686 462.681 138.57 462.682Z" fill="white"/>
<path d="M137.115 453.642C137.036 453.659 136.955 453.659 136.876 453.642L117.033 444.816C116.953 444.79 116.88 444.749 116.817 444.693C116.754 444.638 116.704 444.57 116.669 444.494C116.635 444.417 116.616 444.335 116.616 444.251C116.615 444.167 116.633 444.084 116.666 444.008C116.7 443.931 116.75 443.863 116.812 443.806C116.874 443.75 116.947 443.708 117.027 443.682C117.106 443.656 117.19 443.647 117.274 443.655C117.357 443.664 117.438 443.69 117.51 443.732L137.353 452.546C137.426 452.577 137.491 452.622 137.546 452.678C137.6 452.735 137.643 452.801 137.672 452.874C137.701 452.947 137.715 453.025 137.714 453.104C137.712 453.182 137.695 453.26 137.663 453.332C137.608 453.428 137.528 453.507 137.432 453.561C137.335 453.616 137.226 453.644 137.115 453.642Z" fill="white"/>
</g>
<path d="M123.634 109.644C123.803 109.938 141.056 138.616 141.506 139.396C141.957 140.176 143.386 142.652 145.183 143.14C146.981 143.629 151.802 144.09 152.001 144.089C152.06 144.093 152.12 144.085 152.176 144.066C152.232 144.047 152.283 144.016 152.327 143.977L179.293 118.391C179.372 118.316 179.418 118.212 179.421 118.103C179.424 117.994 179.384 117.888 179.31 117.809C179.273 117.769 179.229 117.736 179.179 117.713C179.13 117.691 179.077 117.678 179.022 117.677C178.968 117.675 178.914 117.684 178.863 117.704C178.813 117.724 178.767 117.754 178.728 117.792L151.89 143.237C150.96 143.144 146.817 142.703 145.393 142.332C143.969 141.962 142.642 139.713 142.217 138.976C141.791 138.239 126.511 112.83 124.533 109.535L159.207 81.884C159.294 81.816 159.35 81.7161 159.364 81.6064C159.377 81.4966 159.347 81.3859 159.279 81.2987C159.211 81.2115 159.111 81.1548 159.001 81.1413C158.891 81.1277 158.781 81.1582 158.694 81.2262L123.726 109.095C123.645 109.158 123.59 109.25 123.573 109.352C123.556 109.453 123.578 109.558 123.634 109.644Z" fill="white"/>
<path d="M180.935 108.608L182.353 110.966C182.41 111.061 182.502 111.129 182.609 111.156C182.716 111.184 182.829 111.169 182.924 111.113C183.012 111.052 183.074 110.96 183.1 110.856C183.126 110.752 183.113 110.642 183.064 110.546L181.641 108.181C181.587 108.086 181.496 108.017 181.391 107.989C181.285 107.96 181.172 107.975 181.077 108.03C180.983 108.084 180.913 108.175 180.885 108.28C180.857 108.386 180.872 108.499 180.927 108.594L180.935 108.608Z" fill="white"/>
<path d="M150.266 142.619C150.321 142.714 150.411 142.783 150.517 142.812C150.623 142.84 150.736 142.825 150.83 142.771C150.925 142.716 150.994 142.626 151.023 142.52C151.051 142.414 151.036 142.301 150.981 142.207L133.007 110.844L165.643 83.1955L179.199 105.718C179.255 105.81 179.345 105.877 179.45 105.904C179.554 105.931 179.665 105.916 179.759 105.862C179.846 105.799 179.908 105.707 179.935 105.603C179.962 105.498 179.952 105.388 179.906 105.291L166.103 82.3577C166.072 82.3059 166.029 82.2617 165.978 82.2283C165.928 82.1948 165.87 82.173 165.81 82.1642C165.752 82.155 165.693 82.158 165.636 82.1728C165.579 82.1877 165.525 82.2141 165.479 82.2505L132.203 110.44C132.128 110.502 132.078 110.588 132.061 110.683C132.044 110.779 132.062 110.877 132.112 110.96L150.252 142.627L150.266 142.619Z" fill="white"/>
<path d="M126.35 110.156L144.617 140.014C144.681 140.107 144.777 140.174 144.887 140.201L149.241 141.141C149.348 141.168 149.46 141.152 149.555 141.097C149.649 141.043 149.719 140.953 149.749 140.848C149.763 140.796 149.767 140.742 149.76 140.688C149.754 140.635 149.736 140.583 149.709 140.537C149.682 140.49 149.646 140.449 149.604 140.417C149.561 140.384 149.512 140.361 149.46 140.347L145.292 139.433L127.3 110.037L156.917 85.7248L161.325 86.1469C161.379 86.154 161.434 86.15 161.487 86.1351C161.539 86.1203 161.589 86.0949 161.631 86.0606C161.674 86.0262 161.709 85.9836 161.734 85.9353C161.76 85.8869 161.775 85.8339 161.78 85.7794C161.785 85.7251 161.779 85.6703 161.763 85.6182C161.747 85.566 161.721 85.5176 161.686 85.4756C161.651 85.4337 161.609 85.399 161.56 85.3737C161.512 85.3484 161.459 85.3328 161.405 85.328L156.753 84.8464C156.642 84.8381 156.533 84.8739 156.448 84.946L126.423 109.589C126.34 109.656 126.286 109.752 126.272 109.858C126.259 109.964 126.286 110.07 126.35 110.156Z" fill="white"/>
<path d="M144.617 136.398L142.084 132.012C142.084 132.012 139.024 134.733 135.962 137.006C132.901 139.279 128.79 141.881 128.79 141.881L135.018 141.692L132.791 147.127L144.617 136.398Z" fill="white"/>
<path d="M679.237 72.0355L679.286 72.0073C679.344 71.9593 679.391 71.8985 679.423 71.8295C679.455 71.7606 679.47 71.6854 679.468 71.6096L677.937 34.59C677.918 34.4649 677.853 34.3517 677.754 34.2732C677.66 34.1912 677.539 34.1488 677.414 34.155L675.262 34.3146C675.145 34.3299 675.037 34.3891 674.961 34.4802C674.886 34.5714 674.847 34.6878 674.854 34.806C674.86 34.9243 674.911 35.0357 674.997 35.1178C675.082 35.1999 675.195 35.2467 675.314 35.2488L677.003 35.1508L678.496 71.0338L638.89 59.0936C638.815 59.0702 638.735 59.0677 638.659 59.0866L603.435 67.1312L604.628 35.0365L605.764 34.4886C605.821 34.4632 605.872 34.4266 605.915 34.3808C605.957 34.3351 605.989 34.2813 606.01 34.2227C606.031 34.1641 606.04 34.1018 606.036 34.0397C606.032 33.9776 606.016 33.917 605.988 33.8614C605.933 33.7511 605.837 33.6668 605.721 33.6266C605.604 33.5865 605.476 33.5938 605.365 33.6469L603.962 34.316C603.884 34.351 603.818 34.4075 603.771 34.4788C603.724 34.5501 603.698 34.6334 603.696 34.7188L602.486 67.7224C602.491 67.7937 602.512 67.8631 602.548 67.925C602.584 67.987 602.633 68.0399 602.692 68.0798C602.748 68.1257 602.814 68.1586 602.884 68.1761C602.954 68.1937 603.027 68.1955 603.098 68.1813L638.794 60.0157L678.87 72.0955C678.996 72.1245 679.127 72.103 679.237 72.0355Z" fill="white"/>
<path d="M676.675 68.349L676.74 68.3114C676.794 68.2656 676.837 68.2079 676.865 68.1427C676.893 68.0776 676.906 68.0068 676.902 67.9359L675.466 32.5833C675.463 32.4745 675.422 32.3703 675.349 32.2893C675.276 32.2083 675.177 32.1556 675.07 32.1408C674.972 32.1215 665.131 30.5145 657.606 24.7662C650.662 19.4618 643.65 18.8857 638.844 23.2197C638.794 23.2648 638.755 23.3202 638.729 23.382C638.703 23.4439 638.691 23.5107 638.693 23.5777L639.231 55.139C639.232 55.2298 639.26 55.3181 639.311 55.3934C639.361 55.4686 639.433 55.5276 639.517 55.563C639.6 55.5984 639.692 55.6089 639.782 55.593C639.871 55.5771 639.954 55.5357 640.02 55.4737C640.212 55.2982 644.817 51.1991 648.899 55.546C653.272 60.1905 662.821 63.904 667.406 65.686L667.915 65.8906C670.653 66.9498 673.471 67.7925 676.342 68.4112C676.457 68.4316 676.575 68.4095 676.675 68.349ZM674.548 32.9835L675.955 67.346C673.338 66.7484 670.768 65.9627 668.265 64.9952L667.757 64.7906C663.246 63.0629 653.796 59.3896 649.599 54.8815C645.927 50.9806 641.835 53.0396 640.17 54.1743L639.633 23.7604C644.068 19.9111 650.554 20.5527 657.044 25.502C663.908 30.7439 672.638 32.6241 674.548 32.9835Z" fill="white"/>
<path d="M639.925 55.4963C639.998 55.4556 640.059 55.3961 640.101 55.3241C640.143 55.2521 640.166 55.1701 640.166 55.0867L639.623 23.5173C639.6 23.4111 639.544 23.3148 639.464 23.2411C635.925 19.3279 629.841 20.1331 619.79 25.9361C611.016 31.0019 605.854 30.2677 605.807 30.2621C605.741 30.2518 605.673 30.2552 605.608 30.2722C605.544 30.2891 605.483 30.3192 605.43 30.3606C605.38 30.4035 605.338 30.4565 605.309 30.5161C605.28 30.5758 605.264 30.6408 605.262 30.707L604.369 63.5275C604.367 63.6487 604.412 63.766 604.494 63.8554C604.576 63.9449 604.688 63.9999 604.809 64.0094C604.85 63.9859 606.302 64.0787 613.55 62.4718C618.581 61.3647 623.166 58.4689 626.863 56.1395C628.314 55.1887 629.818 54.3203 631.368 53.5385C635.098 51.7745 639.313 55.4493 639.329 55.4399C639.397 55.5005 639.482 55.5398 639.572 55.553C639.663 55.5662 639.755 55.5527 639.838 55.5142L639.925 55.4963ZM638.689 23.7209L639.213 54.1314C637.702 53.0544 634.295 51.1338 631.014 52.6815C629.432 53.4821 627.895 54.3692 626.411 55.3388C622.787 57.6259 618.272 60.4714 613.398 61.5521C610.754 62.1961 608.077 62.6934 605.378 63.0419L606.235 31.2282C607.8 31.31 612.73 31.1168 620.309 26.7411C629.796 21.2749 635.495 20.3669 638.689 23.7209Z" fill="white"/>
<path d="M660.724 64.6277C660.816 64.5771 660.888 64.4973 660.929 64.401C660.974 64.2838 660.971 64.1539 660.921 64.039C660.871 63.9241 660.777 63.8335 660.661 63.7867C657.957 62.7273 655.709 61.7074 653.725 60.8062C651.434 59.6352 649.019 58.7267 646.523 58.098C644.43 57.7051 642.293 57.6052 640.172 57.8014C640.111 57.808 640.052 57.8268 639.999 57.8565C639.945 57.8861 639.898 57.9262 639.86 57.9743C639.822 58.0224 639.794 58.0775 639.778 58.1365C639.762 58.1955 639.757 58.2571 639.765 58.3178C639.781 58.4409 639.845 58.5529 639.942 58.6302C640.039 58.7074 640.162 58.7439 640.286 58.7317C642.312 58.5507 644.352 58.6479 646.351 59.0205C648.764 59.6428 651.099 60.5365 653.31 61.6844C655.307 62.5892 657.544 63.5718 660.298 64.6787C660.368 64.7047 660.443 64.7136 660.517 64.7047C660.591 64.6958 660.662 64.6694 660.724 64.6277Z" fill="white"/>
<path d="M636.761 58.2221C636.851 58.1714 636.919 58.0895 636.953 57.9919C637 57.877 637 57.7482 636.952 57.6337C636.904 57.5192 636.813 57.4284 636.698 57.3811C634.09 56.4106 631.211 56.4602 628.635 57.52L627.114 58.2467C620.678 61.5067 613.747 63.6786 606.603 64.6741C606.479 64.6938 606.368 64.7619 606.295 64.8633C606.221 64.9647 606.191 65.0912 606.21 65.2148C606.23 65.3385 606.298 65.4492 606.399 65.5227C606.501 65.5962 606.627 65.6263 606.751 65.6066C613.982 64.5878 620.998 62.3884 627.518 59.0965L629.031 58.3745C631.371 57.4272 633.979 57.3848 636.346 58.2555C636.414 58.2801 636.486 58.2899 636.557 58.2841C636.629 58.2783 636.698 58.2572 636.761 58.2221Z" fill="white"/>
<path d="M672.433 39.3487C672.512 39.3034 672.577 39.2359 672.619 39.1543C672.661 39.0728 672.678 38.9809 672.668 38.8899C672.658 38.7989 672.621 38.7128 672.563 38.6422C672.505 38.5716 672.427 38.5197 672.34 38.4927C667.743 36.9147 663.241 35.0737 658.856 32.9788C650.482 29.0849 645.564 28.3611 641.88 30.4879C641.773 30.5502 641.694 30.6527 641.662 30.7729C641.629 30.893 641.646 31.0211 641.708 31.1288C641.77 31.2365 641.873 31.315 641.993 31.3472C642.113 31.3793 642.241 31.3624 642.349 31.3001C645.732 29.347 650.406 30.0814 658.461 33.8349C662.885 35.9408 667.424 37.7963 672.057 39.3924C672.119 39.4116 672.185 39.4176 672.249 39.4101C672.314 39.4026 672.377 39.3817 672.433 39.3487Z" fill="white"/>
<path d="M672.271 45.0408C672.374 44.9826 672.451 44.8879 672.487 44.7756C672.503 44.7167 672.508 44.6551 672.5 44.5945C672.492 44.5338 672.473 44.4752 672.442 44.4223C672.412 44.3693 672.371 44.323 672.322 44.2861C672.273 44.2491 672.218 44.2223 672.159 44.2071C667.56 42.6206 663.054 40.7786 658.662 38.6897C650.296 34.7912 645.378 34.0673 641.686 36.1989C641.58 36.2628 641.503 36.3653 641.471 36.4848C641.439 36.6042 641.454 36.7315 641.514 36.8397C641.576 36.9474 641.679 37.026 641.799 37.0581C641.919 37.0903 642.047 37.0733 642.155 37.0111C645.546 35.0533 650.212 35.7923 658.275 39.5411C662.699 41.6471 667.238 43.5025 671.871 45.0987C671.938 45.1195 672.008 45.1251 672.078 45.1151C672.147 45.1051 672.213 45.0797 672.271 45.0408Z" fill="white"/>
<path d="M672.11 50.7331C672.187 50.6873 672.25 50.6204 672.29 50.5401C672.33 50.4599 672.347 50.3699 672.338 50.2806C672.328 50.1913 672.294 50.1067 672.238 50.0366C672.181 49.9665 672.106 49.914 672.021 49.8852C667.425 48.3001 662.921 46.4609 658.529 44.376C650.159 40.4693 645.241 39.7455 641.549 41.877C641.443 41.941 641.366 42.0435 641.334 42.163C641.302 42.2825 641.317 42.4096 641.377 42.5179C641.439 42.6256 641.542 42.7042 641.662 42.7363C641.782 42.7685 641.91 42.7515 642.018 42.6893C645.409 40.7315 650.075 41.4705 658.13 45.224C662.557 47.3268 667.099 49.1806 671.734 50.7769C671.796 50.7966 671.862 50.803 671.926 50.7954C671.991 50.7879 672.054 50.7666 672.11 50.7331Z" fill="white"/>
<path d="M671.948 56.4252C671.998 56.3977 672.042 56.3604 672.078 56.3157C672.114 56.271 672.14 56.2197 672.156 56.1647C672.172 56.1058 672.177 56.0442 672.169 55.9835C672.161 55.9229 672.142 55.8643 672.111 55.8114C672.081 55.7584 672.04 55.7121 671.991 55.6752C671.942 55.6382 671.887 55.6114 671.827 55.5962C667.23 54.0153 662.725 52.176 658.335 50.0869C649.965 46.1803 645.052 45.4646 641.36 47.5961C641.252 47.6583 641.173 47.7608 641.141 47.881C641.109 48.0012 641.126 48.1292 641.188 48.2369C641.25 48.3446 641.352 48.4232 641.473 48.4553C641.593 48.4875 641.721 48.4706 641.829 48.4083C645.22 46.4505 649.881 47.1814 657.936 50.9349C662.36 53.0453 666.902 54.8993 671.54 56.4878C671.608 56.5099 671.68 56.5158 671.751 56.5049C671.822 56.494 671.89 56.4668 671.948 56.4252Z" fill="white"/>
<path d="M636.704 31.9821L636.842 31.9023C636.92 31.8062 636.958 31.6837 636.947 31.5605C636.937 31.4374 636.879 31.3231 636.786 31.2416C636.762 31.201 633.122 28.2564 628.072 31.172C618.598 36.6416 611.606 38.729 609.372 36.7375C609.275 36.6497 609.148 36.6039 609.017 36.6103C608.953 36.6134 608.889 36.6292 608.831 36.6568C608.772 36.6844 608.72 36.7233 608.676 36.7712C608.632 36.8191 608.599 36.8751 608.577 36.936C608.555 36.9968 608.545 37.0614 608.548 37.126C608.551 37.1906 608.567 37.254 608.595 37.3125C608.622 37.3709 608.661 37.4234 608.709 37.4669C612.253 40.6191 622.629 35.3975 628.5 32.0077C632.989 29.4161 636.012 31.8727 636.165 31.9685C636.242 32.0259 636.336 32.058 636.432 32.0604C636.528 32.0629 636.623 32.0355 636.704 31.9821Z" fill="white"/>
<path d="M636.588 38.5038C636.678 38.4521 636.75 38.3726 636.793 38.2771C636.838 38.1617 636.835 38.0332 636.786 37.9197C636.737 37.8061 636.645 37.7167 636.53 37.6709C636.357 37.5973 632.317 36.0092 626.031 39.6384C619.274 43.5399 613.342 44.8529 608.38 43.5265C608.261 43.496 608.135 43.5133 608.028 43.5748C607.922 43.6362 607.844 43.7369 607.811 43.8552C607.795 43.9149 607.79 43.9773 607.798 44.0387C607.806 44.1001 607.826 44.1593 607.857 44.213C607.888 44.2666 607.929 44.3135 607.979 44.3511C608.028 44.3887 608.084 44.4161 608.144 44.4319C613.341 45.828 619.538 44.5242 626.524 40.4913C632.362 37.1203 636.166 38.5629 636.197 38.5779C636.263 38.5949 636.333 38.5971 636.4 38.5843C636.468 38.5715 636.532 38.544 636.588 38.5038Z" fill="white"/>
<path d="M637.444 44.4749C637.502 44.4388 637.552 44.3915 637.591 44.3356C637.627 44.2858 637.652 44.2293 637.666 44.1694C637.68 44.1095 637.681 44.0475 637.671 43.987C637.66 43.9265 637.637 43.8688 637.604 43.8173C637.571 43.7657 637.527 43.7214 637.477 43.6869C635.917 42.7238 634.118 42.2197 632.284 42.2325C630.45 42.2453 628.657 42.7745 627.109 43.7593C620.311 47.6843 613.538 49.6996 608.989 49.1637C608.928 49.155 608.865 49.1589 608.805 49.175C608.745 49.1911 608.689 49.2191 608.641 49.2574C608.592 49.2957 608.551 49.3434 608.521 49.3978C608.492 49.4521 608.473 49.5119 608.467 49.5735C608.454 49.6966 608.49 49.8197 608.566 49.9169C608.643 50.0142 608.754 50.078 608.876 50.0952C615.708 50.9049 624.236 46.5012 627.578 44.5715C628.972 43.6775 630.589 43.1922 632.244 43.1708C633.899 43.1494 635.527 43.5928 636.942 44.4506C637.014 44.5029 637.1 44.533 637.189 44.5373C637.278 44.5416 637.366 44.5199 637.444 44.4749Z" fill="white"/>
<path d="M637.232 49.3295C637.274 49.3153 637.313 49.2929 637.346 49.2638C637.43 49.1728 637.475 49.0529 637.473 48.9292C637.47 48.8056 637.419 48.6878 637.332 48.6006C637.199 48.4826 634.184 45.7397 628.275 48.7072C622.144 51.8278 615.538 53.9105 608.728 54.8704C608.662 54.8704 608.596 54.8843 608.536 54.9113C608.476 54.9382 608.422 54.9775 608.378 55.0266C608.334 55.0757 608.301 55.1336 608.281 55.1963C608.26 55.2591 608.254 55.3254 608.261 55.3909C608.268 55.4565 608.289 55.5197 608.322 55.5766C608.356 55.6335 608.4 55.6827 608.454 55.721C608.508 55.7594 608.569 55.786 608.633 55.7991C608.698 55.8123 608.765 55.8116 608.829 55.7973C615.752 54.8357 622.467 52.7233 628.695 49.5476C633.983 46.895 636.576 49.1885 636.678 49.2706C636.752 49.3384 636.845 49.3807 636.945 49.3913C637.045 49.4019 637.146 49.3803 637.232 49.3295Z" fill="white"/>
<path d="M839.085 259.737C838.564 260.037 786.575 288.818 785.191 289.617C783.806 290.417 779.41 292.955 776.212 292.111C773.015 291.267 765.193 287.695 764.887 287.517C764.793 287.47 764.708 287.406 764.639 287.326C764.57 287.247 764.518 287.155 764.485 287.055L745.735 223.773C745.681 223.587 745.702 223.388 745.794 223.217C745.886 223.047 746.041 222.92 746.227 222.863C746.319 222.834 746.416 222.824 746.512 222.832C746.608 222.841 746.701 222.87 746.786 222.915C746.871 222.961 746.945 223.023 747.006 223.099C747.066 223.174 747.11 223.261 747.136 223.353L765.813 286.305C767.326 286.988 774.088 289.987 776.607 290.682C779.125 291.376 783.162 289.097 784.471 288.341C785.779 287.586 831.832 262.08 837.799 258.77L809.03 185.47C808.957 185.288 808.959 185.084 809.035 184.904C809.112 184.723 809.257 184.58 809.44 184.506C809.622 184.433 809.825 184.434 810.006 184.511C810.187 184.587 810.33 184.732 810.403 184.914L839.431 258.809C839.499 258.979 839.502 259.168 839.438 259.34C839.374 259.511 839.248 259.653 839.085 259.737Z" fill="white"/>
<path d="M751.895 207.273L747.621 209.64C747.449 209.734 747.247 209.758 747.059 209.705C746.87 209.653 746.71 209.529 746.612 209.359C746.532 209.186 746.518 208.991 746.571 208.808C746.624 208.625 746.741 208.467 746.901 208.363L751.188 205.99C751.357 205.892 751.557 205.866 751.745 205.916C751.932 205.966 752.093 206.089 752.19 206.257C752.287 206.426 752.313 206.626 752.263 206.813C752.212 207.001 752.089 207.161 751.921 207.259L751.895 207.273Z" fill="white"/>
<path d="M768.859 286.797C768.69 286.894 768.49 286.92 768.302 286.87C768.114 286.82 767.954 286.697 767.857 286.529C767.76 286.361 767.734 286.161 767.784 285.973C767.835 285.785 767.958 285.625 768.126 285.528L823.606 253.259L797.968 181.772L757.13 204.369C756.962 204.462 756.764 204.485 756.579 204.434C756.394 204.382 756.237 204.26 756.141 204.094C756.063 203.92 756.049 203.723 756.1 203.539C756.152 203.355 756.266 203.195 756.423 203.086L798.005 180.076C798.1 180.025 798.205 179.994 798.312 179.988C798.42 179.981 798.527 179.999 798.627 180.038C798.725 180.076 798.814 180.133 798.888 180.207C798.963 180.28 799.021 180.368 799.06 180.465L825.202 253.353C825.262 253.514 825.263 253.691 825.204 253.853C825.145 254.014 825.03 254.149 824.88 254.233L768.873 286.822L768.859 286.797Z" fill="white"/>
<path d="M834.454 258.112L779.859 287.806C779.677 287.893 779.47 287.91 779.277 287.854L771.748 285.434C771.561 285.381 771.402 285.257 771.305 285.089C771.208 284.921 771.18 284.721 771.227 284.533C771.251 284.44 771.293 284.353 771.351 284.277C771.409 284.201 771.481 284.137 771.564 284.089C771.647 284.042 771.739 284.011 771.833 283.999C771.928 283.987 772.025 283.994 772.117 284.019L779.337 286.314L833.099 257.085L809.142 193.409L801.989 190.145C801.899 190.107 801.818 190.052 801.75 189.983C801.683 189.913 801.63 189.831 801.595 189.74C801.56 189.649 801.544 189.553 801.548 189.456C801.551 189.359 801.574 189.263 801.616 189.176C801.656 189.088 801.713 189.008 801.784 188.942C801.855 188.876 801.939 188.825 802.029 188.792C802.12 188.758 802.217 188.743 802.314 188.747C802.41 188.751 802.505 188.774 802.593 188.814L810.174 192.204C810.351 192.289 810.488 192.441 810.554 192.627L834.845 257.176C834.914 257.352 834.911 257.548 834.838 257.723C834.765 257.897 834.628 258.037 834.454 258.112Z" fill="white"/>
<path d="M783.07 282.247L790.858 277.75C790.858 277.75 793.148 284.651 795.837 290.864C798.527 297.077 802.537 304.728 802.537 304.728L793.129 298.908L791.728 309.243L783.07 282.247Z" fill="white"/>
<g opacity="0.2">
<path d="M716.637 439.762L716.693 439.777C716.77 439.785 716.848 439.775 716.921 439.747C716.994 439.72 717.06 439.677 717.114 439.621L742.879 411.632C742.956 411.527 742.991 411.398 742.976 411.269C742.968 411.141 742.91 411.022 742.816 410.937L741.137 409.49C741.041 409.416 740.92 409.381 740.799 409.392C740.677 409.403 740.565 409.46 740.484 409.55C740.403 409.641 740.359 409.759 740.361 409.88C740.364 410.002 740.412 410.118 740.496 410.205L741.794 411.361L716.826 438.497L696.74 401.073C696.703 401.002 696.646 400.942 696.577 400.9L665.163 381.167L689.331 358.732L690.554 359.159C690.614 359.182 690.677 359.192 690.741 359.19C690.805 359.187 690.868 359.172 690.925 359.145C690.983 359.117 691.035 359.078 691.077 359.031C691.119 358.983 691.151 358.927 691.171 358.866C691.212 358.746 691.203 358.615 691.148 358.502C691.092 358.388 690.994 358.3 690.875 358.258L689.371 357.726C689.289 357.694 689.2 357.687 689.114 357.705C689.028 357.722 688.948 357.764 688.885 357.825L664.045 380.908C663.997 380.963 663.962 381.028 663.943 381.099C663.924 381.17 663.921 381.245 663.936 381.317C663.943 381.391 663.966 381.462 664.004 381.526C664.043 381.589 664.095 381.644 664.156 381.685L696.001 401.673L716.327 439.539C716.397 439.651 716.508 439.731 716.637 439.762Z" fill="white"/>
<path d="M717.453 435.225L717.528 435.245C717.6 435.251 717.673 435.241 717.741 435.214C717.809 435.187 717.87 435.145 717.918 435.091L742.542 408.381C742.619 408.3 742.665 408.194 742.671 408.083C742.677 407.971 742.643 407.861 742.576 407.772C742.519 407.687 736.541 399.376 735.251 389.738C734.06 380.846 729.388 375.337 722.752 374.994C722.683 374.991 722.615 375.003 722.551 375.029C722.487 375.055 722.43 375.094 722.383 375.145L699.859 398.449C699.794 398.516 699.75 398.601 699.732 398.692C699.714 398.783 699.723 398.878 699.758 398.965C699.793 399.051 699.853 399.125 699.929 399.179C700.006 399.232 700.096 399.262 700.189 399.266C700.456 399.277 706.775 399.645 706.583 405.764C706.385 412.311 710.622 421.94 712.658 426.563L712.878 427.081C714.098 429.838 715.531 432.495 717.166 435.029C717.235 435.127 717.337 435.197 717.453 435.225ZM741.585 408.005L717.659 433.974C716.193 431.641 714.898 429.205 713.783 426.685L713.562 426.167C711.542 421.638 707.348 412.11 707.574 405.79C707.739 400.292 703.274 398.816 701.241 398.431L722.933 375.96C728.947 376.385 733.19 381.56 734.309 389.865C735.487 398.654 740.46 406.357 741.585 408.005Z" fill="white"/>
<path d="M700.104 399.213C700.186 399.236 700.273 399.237 700.356 399.215C700.439 399.194 700.515 399.15 700.576 399.09L723.102 375.776C723.162 375.682 723.191 375.571 723.187 375.46C723.459 370.049 718.457 366.217 706.947 363.133C696.898 360.44 693.684 356.159 693.654 356.121C693.613 356.066 693.562 356.019 693.502 355.985C693.443 355.95 693.377 355.928 693.309 355.919C693.241 355.914 693.172 355.922 693.108 355.945C693.044 355.967 692.985 356.002 692.935 356.048L668.458 379.229C668.369 379.316 668.316 379.433 668.311 379.558C668.305 379.682 668.347 379.804 668.428 379.899C668.475 379.911 669.462 381.033 675.89 385.128C680.347 387.977 685.778 389.203 690.153 390.196C691.897 390.56 693.62 391.021 695.312 391.578C699.301 393.006 699.693 398.734 699.712 398.739C699.717 398.832 699.75 398.922 699.806 398.998C699.862 399.073 699.939 399.13 700.027 399.162L700.104 399.213ZM722.276 375.246L700.578 397.705C700.263 395.826 699.183 391.958 695.677 390.699C693.948 390.132 692.188 389.66 690.407 389.287C686.115 388.316 680.771 387.104 676.448 384.35C674.061 382.898 671.756 381.316 669.544 379.609L693.263 357.133C694.34 358.329 698.06 361.768 706.739 364.094C717.595 367.013 722.392 370.491 722.276 375.246Z" fill="white"/>
<path d="M708.574 420.943C708.677 420.973 708.788 420.967 708.888 420.927C709.005 420.874 709.097 420.778 709.145 420.658C709.192 420.538 709.19 420.405 709.139 420.287C707.945 417.554 707.054 415.182 706.267 413.087C705.454 410.574 704.36 408.16 703.005 405.892C701.771 404.087 700.291 402.463 698.609 401.065C698.56 401.026 698.504 400.997 698.443 400.979C698.383 400.962 698.319 400.957 698.257 400.964C698.195 400.972 698.134 400.992 698.08 401.023C698.025 401.054 697.977 401.095 697.939 401.145C697.861 401.246 697.826 401.373 697.84 401.5C697.855 401.627 697.918 401.743 698.016 401.824C699.619 403.163 701.03 404.715 702.21 406.437C703.511 408.641 704.557 410.985 705.329 413.423C706.122 415.53 707.032 417.868 708.228 420.67C708.26 420.74 708.308 420.801 708.368 420.848C708.428 420.896 708.499 420.928 708.574 420.943Z" fill="white"/>
<path d="M695.827 398.894C695.929 398.923 696.038 398.913 696.134 398.867C696.251 398.818 696.344 398.724 696.393 398.606C696.441 398.488 696.441 398.356 696.392 398.238C695.203 395.64 693.076 393.586 690.437 392.486L688.805 391.909C681.766 389.603 675.157 386.148 669.247 381.683C669.143 381.608 669.013 381.577 668.886 381.597C668.759 381.617 668.645 381.687 668.57 381.791C668.494 381.895 668.463 382.025 668.483 382.152C668.504 382.279 668.573 382.392 668.678 382.468C674.667 386.978 681.358 390.475 688.482 392.819L690.104 393.393C692.491 394.404 694.415 396.267 695.502 398.618C695.533 398.685 695.578 398.744 695.634 398.792C695.69 398.839 695.756 398.874 695.827 398.894Z" fill="white"/>
<path d="M735.428 411.09C735.519 411.115 735.615 411.113 735.704 411.084C735.794 411.056 735.873 411.001 735.932 410.928C735.991 410.855 736.027 410.766 736.036 410.672C736.045 410.579 736.026 410.485 735.982 410.401C733.79 405.918 731.858 401.313 730.196 396.609C726.943 387.702 723.898 383.606 719.68 382.476C719.556 382.443 719.425 382.46 719.314 382.524C719.203 382.587 719.122 382.693 719.089 382.816C719.056 382.939 719.074 383.071 719.138 383.181C719.202 383.292 719.307 383.373 719.43 383.406C723.304 384.444 726.165 388.371 729.288 396.944C730.97 401.684 732.919 406.327 735.124 410.849C735.155 410.908 735.198 410.96 735.251 411.002C735.303 411.043 735.364 411.074 735.428 411.09Z" fill="white"/>
<path d="M731.178 415.106C731.295 415.138 731.42 415.125 731.527 415.07C731.582 415.039 731.63 414.998 731.669 414.948C731.707 414.898 731.735 414.842 731.752 414.781C731.768 414.72 731.772 414.657 731.763 414.595C731.755 414.533 731.734 414.473 731.702 414.419C729.515 409.928 727.581 405.32 725.909 400.614C722.665 391.71 719.62 387.614 715.392 386.481C715.269 386.451 715.139 386.469 715.029 386.532C714.919 386.596 714.837 386.699 714.802 386.821C714.769 386.945 714.787 387.076 714.85 387.187C714.914 387.297 715.02 387.378 715.143 387.411C719.027 388.452 721.878 392.376 725.01 400.951C726.693 405.692 728.641 410.335 730.846 414.857C730.879 414.921 730.926 414.976 730.984 415.019C731.041 415.062 731.108 415.092 731.178 415.106Z" fill="white"/>
<path d="M726.929 419.121C727.018 419.144 727.112 419.141 727.2 419.112C727.287 419.083 727.365 419.03 727.423 418.958C727.481 418.887 727.517 418.8 727.527 418.708C727.537 418.617 727.521 418.524 727.48 418.442C725.294 413.954 723.359 409.348 721.684 404.646C718.443 395.733 715.399 391.637 711.171 390.504C711.047 390.473 710.917 390.492 710.807 390.555C710.697 390.619 710.616 390.722 710.58 390.844C710.547 390.968 710.565 391.099 710.629 391.21C710.693 391.32 710.798 391.401 710.921 391.434C714.805 392.475 717.656 396.399 720.779 404.972C722.466 409.713 724.418 414.356 726.624 418.88C726.655 418.94 726.698 418.992 726.75 419.033C726.803 419.075 726.864 419.105 726.929 419.121Z" fill="white"/>
<path d="M722.679 423.137C722.735 423.153 722.794 423.158 722.852 423.151C722.911 423.145 722.967 423.127 723.018 423.098C723.073 423.067 723.121 423.026 723.16 422.976C723.198 422.927 723.226 422.87 723.243 422.809C723.259 422.749 723.263 422.685 723.254 422.623C723.246 422.561 723.225 422.501 723.193 422.447C721.002 417.961 719.067 413.355 717.397 408.652C714.156 399.738 711.109 395.652 706.881 394.519C706.757 394.486 706.626 394.503 706.515 394.567C706.405 394.63 706.324 394.736 706.291 394.859C706.258 394.982 706.275 395.114 706.339 395.224C706.403 395.335 706.508 395.416 706.632 395.449C710.515 396.489 713.369 400.404 716.491 408.977C718.171 413.721 720.123 418.365 722.337 422.886C722.37 422.951 722.419 423.008 722.478 423.052C722.537 423.095 722.606 423.124 722.679 423.137Z" fill="white"/>
<path d="M714.837 379.802L714.995 379.845C715.121 379.831 715.238 379.77 715.319 379.673C715.401 379.576 715.442 379.451 715.434 379.324C715.446 379.278 714.941 374.497 709.158 372.947C698.308 370.04 691.717 366.479 691.541 363.411C691.534 363.277 691.475 363.151 691.375 363.061C691.326 363.017 691.269 362.982 691.206 362.96C691.144 362.937 691.077 362.927 691.011 362.93C690.944 362.933 690.879 362.95 690.819 362.978C690.759 363.006 690.705 363.046 690.66 363.095C690.616 363.144 690.581 363.202 690.559 363.264C690.536 363.327 690.526 363.393 690.53 363.459C690.814 368.321 702.138 372.063 708.862 373.865C714.002 375.242 714.414 379.22 714.455 379.401C714.47 379.499 714.514 379.59 714.582 379.662C714.651 379.734 714.739 379.783 714.837 379.802Z" fill="white"/>
<path d="M710.017 384.453C710.121 384.481 710.231 384.476 710.331 384.437C710.447 384.386 710.539 384.291 710.586 384.173C710.632 384.054 710.63 383.923 710.58 383.806C710.508 383.627 708.728 379.541 701.529 377.612C693.791 375.539 688.531 372.185 685.891 367.62C685.827 367.511 685.723 367.432 685.601 367.4C685.479 367.367 685.349 367.383 685.239 367.445C685.184 367.477 685.136 367.519 685.097 367.569C685.058 367.62 685.03 367.677 685.013 367.739C684.997 367.8 684.993 367.864 685.001 367.927C685.01 367.99 685.03 368.051 685.063 368.106C687.822 372.893 693.268 376.445 701.268 378.589C707.954 380.381 709.668 384.19 709.68 384.223C709.716 384.283 709.764 384.335 709.823 384.375C709.881 384.415 709.948 384.441 710.017 384.453Z" fill="white"/>
<path d="M706.304 389.409C706.372 389.425 706.443 389.427 706.512 389.415C706.574 389.405 706.634 389.383 706.687 389.349C706.74 389.316 706.787 389.272 706.823 389.22C706.859 389.168 706.884 389.11 706.898 389.048C706.911 388.987 706.912 388.923 706.9 388.861C706.467 387.03 705.526 385.357 704.186 384.035C702.845 382.713 701.159 381.796 699.32 381.387C691.535 379.301 685.154 375.847 682.241 372.155C682.203 372.104 682.154 372.061 682.099 372.03C682.044 371.998 681.983 371.978 681.92 371.97C681.857 371.962 681.793 371.968 681.731 371.985C681.67 372.003 681.613 372.033 681.564 372.073C681.466 372.154 681.402 372.269 681.387 372.395C681.372 372.521 681.406 372.648 681.483 372.749C685.855 378.297 695.244 381.292 699.071 382.317C700.732 382.68 702.258 383.501 703.475 384.688C704.693 385.874 705.553 387.377 705.957 389.027C705.971 389.118 706.012 389.202 706.073 389.27C706.135 389.338 706.215 389.386 706.304 389.409Z" fill="white"/>
<path d="M702.625 392.78C702.666 392.8 702.71 392.812 702.756 392.815C702.883 392.81 703.003 392.756 703.091 392.664C703.178 392.573 703.227 392.45 703.227 392.323C703.216 392.141 703.019 387.961 696.574 385.825C689.857 383.64 683.549 380.356 677.908 376.108C677.86 376.06 677.802 376.023 677.739 375.999C677.676 375.975 677.608 375.964 677.54 375.968C677.473 375.971 677.407 375.989 677.346 376.02C677.286 376.051 677.233 376.094 677.191 376.147C677.148 376.2 677.118 376.261 677.101 376.327C677.083 376.392 677.08 376.46 677.091 376.527C677.103 376.594 677.128 376.658 677.165 376.714C677.202 376.77 677.251 376.818 677.308 376.855C683.033 381.183 689.442 384.524 696.269 386.74C702.034 388.654 702.252 392.202 702.266 392.335C702.27 392.438 702.307 392.537 702.372 392.617C702.437 392.697 702.526 392.754 702.625 392.78Z" fill="white"/>
</g>
<path d="M375.498 363.886C375.498 363.886 355.599 365.697 348.369 352.998C341.139 340.299 353.795 324.865 340.23 319.421C326.666 313.976 310.388 332.133 283.259 316.699C256.131 301.264 270.59 281.311 277.834 265.89C285.077 250.47 288.685 243.202 271.499 233.225C254.313 223.249 235.323 194.204 247.083 166.084C258.844 137.965 288.685 150.65 304.054 136.141C319.422 121.632 305.858 104.374 304.963 80.7869C304.067 57.1999 335.7 39.0434 366.45 43.5893C397.201 48.1352 403.522 80.7869 403.522 101.652C403.522 122.517 436.076 127.975 451.458 104.374C466.84 80.7733 479.483 75.3427 502.094 85.3192C524.706 95.2958 505.716 128.873 516.568 134.317C527.419 139.761 536.453 113.452 569.008 128.873C601.562 144.294 583.481 185.125 567.204 195.116C543.52 209.665 571.449 237.88 575.939 255.152C582.518 280.399 562.266 300.597 537.362 299.468C497.577 297.644 487.621 291.301 479.482 303.088C471.344 314.875 496.669 317.611 493.047 336.665C489.425 355.72 482.195 362.974 465.918 362.974C449.641 362.974 439.698 348.466 422.512 355.72C405.326 362.974 383.636 368.419 375.498 363.886Z" fill="#263238" stroke="#263238" stroke-linecap="round" stroke-linejoin="round"/>
<path d="M344.069 493.867C341.152 504.724 340.12 516.004 341.017 527.213C342.712 544.566 351.529 553.754 389.849 559.538C428.168 565.323 454.619 560.559 475.983 550.351C497.347 540.143 492.504 503.517 486.957 495.119C481.409 486.722 460.045 485.02 425.455 488.083C390.866 491.145 369.502 485.701 356.955 487.742C344.408 489.784 344.069 493.867 344.069 493.867Z" fill="#1B2327"/>
<path d="M335.428 390.359L333.177 435.818C333.177 435.818 329.107 446.38 336.432 453.158C343.757 459.936 353.198 457.935 358.135 449.143C363.073 440.35 362.394 420.003 363.642 411.959C364.89 403.915 355.137 395.626 347.121 392.618C339.104 389.61 335.428 390.359 335.428 390.359Z" fill="white"/>
<path d="M494.051 390.359L496.303 435.818C496.303 435.818 500.304 446.38 493.047 453.158C485.79 459.936 476.268 457.935 471.263 449.143C466.257 440.35 467.003 420.003 465.755 411.959C464.508 403.915 474.274 395.626 482.277 392.618C490.28 389.61 494.051 390.359 494.051 390.359Z" fill="white"/>
<path d="M396.726 322.619C396.726 322.619 397.581 341.538 393.009 349.554C388.438 357.571 373.87 357.081 364.456 357.081C355.043 357.081 341.03 364.812 336.459 372.556C333.011 378.906 330.054 385.514 327.615 392.319L359.03 409.223C359.03 409.223 355.599 415.824 359.03 425.556C362.462 435.287 367.59 439.03 366.165 443.903C364.741 448.775 346.171 483.441 344.462 488.886C343.598 491.407 342.932 493.991 342.468 496.616C342.468 496.616 382.158 504.361 416.706 503.218C451.255 502.074 486.957 495.187 486.957 495.187C486.957 495.187 476.39 476.568 470.679 465.965C464.969 455.363 459.828 444.474 460.967 440.745C462.107 437.016 468.685 426.998 468.4 409.509C468.4 409.509 493.807 402.921 503.234 392.319C503.234 392.319 492.098 364.526 480.676 359.939C469.255 355.353 456.125 359.939 446.765 357.367C437.406 354.794 432.482 350.194 431.058 346.764C429.633 343.334 428.195 327.274 428.765 323.558L396.726 322.619Z" fill="#8E6CED"/>
<path opacity="0.1" d="M367.807 433.3C367.807 433.3 358.311 423.092 369.163 421.731C380.015 420.37 395.614 431.259 412.569 435.342C429.525 439.425 449.871 421.051 458.688 423.773C467.505 426.495 462.079 440.105 452.584 446.23C443.089 452.355 416.639 451.674 401.718 450.994C386.797 450.313 379.336 446.23 367.807 433.3Z" fill="black"/>
<path d="M414.997 392.251C437.338 391.366 444.351 369.793 446.548 357.258C437.229 354.672 432.414 350.112 430.99 346.696C429.565 343.28 428.128 327.206 428.697 323.49L396.726 322.619C396.726 322.619 397.581 341.538 393.009 349.554C390.676 353.638 385.712 355.516 380.164 356.36C382.28 365.356 390.866 393.217 414.997 392.251Z" fill="white"/>
<path opacity="0.3" d="M429.253 336.747C428.684 332.353 428.498 327.917 428.697 323.49L396.726 322.619C396.894 327.493 396.726 332.373 396.224 337.223C401.84 340.912 413.22 345.322 429.253 336.747Z" fill="black"/>
<path d="M383.162 283.584C383.162 283.584 379.092 276.929 375.091 280.985C371.089 285.041 375.091 293.125 377.682 296.882C380.272 300.638 385.169 303.524 386.322 302.081C387.475 300.638 383.162 283.584 383.162 283.584Z" fill="white" stroke="#263238" stroke-linecap="round" stroke-linejoin="round"/>
<path d="M445.666 282.985C445.666 282.985 451.431 275.472 454.605 282.699C457.779 289.927 449.179 300.91 445.11 302.938C441.041 304.966 443.089 298.311 443.374 295.997C443.659 293.683 445.666 282.985 445.666 282.985Z" fill="white" stroke="#263238" stroke-linecap="round" stroke-linejoin="round"/>
<path d="M380.015 258.132C380.015 258.132 382.036 285.599 383.474 299.468C384.911 313.337 390.066 325.777 405.909 329.86C421.752 333.943 434.394 328.417 439.047 319.162C443.7 309.907 446.25 292.281 446.25 277.827V254.689C446.25 254.689 405.339 243.106 380.015 258.132Z" fill="white"/>
<path d="M410.521 297.44C411.986 298.415 413.668 299.014 415.418 299.182C417.252 298.991 419.021 298.396 420.599 297.44" stroke="#263238" stroke-linecap="round" stroke-linejoin="round"/>
<path d="M406.777 306.409C406.777 306.409 413.98 311.037 424.411 305.824" stroke="#263238" stroke-linecap="round" stroke-linejoin="round"/>
<path d="M395.261 282.985C395.261 282.985 401.311 282.128 404.756 284.442" stroke="#263238" stroke-width="2" stroke-linecap="round" stroke-linejoin="round"/>
<path d="M423.489 284.142C423.489 284.142 429.253 281.257 434.72 283.856" stroke="#263238" stroke-width="2" stroke-linecap="round" stroke-linejoin="round"/>
<path d="M381.724 280.358C383.699 277.016 385.245 273.435 386.322 269.701C388.074 264.815 388.618 259.575 387.909 254.43C385.171 255.421 382.528 256.66 380.015 258.132C380.015 258.132 380.774 268.898 381.724 280.358Z" fill="#263238" stroke="#263238" stroke-linecap="round" stroke-linejoin="round"/>
<path d="M446.236 278.058C446.236 277.963 446.236 277.881 446.236 277.786V254.648C446.236 254.648 443.415 253.859 438.816 252.96C439.115 257.452 440.458 270.994 446.236 278.058Z" fill="#263238" stroke="#263238" stroke-linecap="round" stroke-linejoin="round"/>
<path d="M392.955 272.873C392.955 272.873 397.852 266.231 408.215 268.245" stroke="#263238" stroke-linecap="round" stroke-linejoin="round"/>
<path d="M422.905 269.116C425.27 268.248 427.823 268.031 430.299 268.489C432.775 268.946 435.084 270.06 436.985 271.716" stroke="#263238" stroke-linecap="round" stroke-linejoin="round"/>
<path d="M417.656 543.546C417.656 543.546 404.43 543.546 380.693 520.068C356.955 496.589 342.034 476.854 323.722 468.688C305.41 460.521 287.776 478.555 288.794 497.95C289.811 517.345 304.054 544.567 346.443 560.219C388.831 575.871 425.116 569.406 428.846 569.406C432.577 569.406 450.889 578.593 461.74 579.614C467.714 580.255 473.739 580.255 479.713 579.614C479.713 579.614 482.765 579.954 484.461 579.954C486.156 579.954 488.191 577.912 488.191 577.912C488.191 577.912 491.623 578.811 492.979 576.429C494.336 574.047 493.278 573.149 493.278 573.149C493.278 573.149 499.083 573.652 501.118 569.909C503.152 566.166 500.25 566.316 500.25 566.316C500.25 566.316 504.224 565.54 504.129 562.328C504.204 561.132 503.97 559.937 503.451 558.858C503.451 558.858 505.825 555.115 504.807 552.052C503.79 548.99 500.06 547.969 496.33 549.67C492.599 551.372 474.626 550.691 460.045 549.67C445.463 548.65 417.656 543.546 417.656 543.546Z" fill="white"/>
<path d="M411.755 542.185C405.706 539.993 395.152 534.413 380.693 520.108C356.955 496.589 342.034 476.854 323.722 468.688C305.41 460.521 287.776 478.555 288.794 497.95C289.811 517.345 304.054 544.567 346.443 560.219C362.252 566.013 378.824 569.448 395.627 570.413C411.036 563.962 412.474 550.351 411.755 542.185Z" fill="#263238"/>
<path opacity="0.3" d="M405.991 563.063C399.303 560.518 391.49 557.796 382.728 555.115C351.529 545.587 328.47 534.018 312.871 516.325C297.272 498.631 302.697 476.173 302.697 476.173L299.103 472.907C295.651 476.061 292.937 479.941 291.155 484.271C289.373 488.6 288.567 493.272 288.794 497.95C289.811 517.345 304.054 544.566 346.443 560.219C362.252 566.013 378.824 569.448 395.627 570.413C399.615 568.824 403.167 566.305 405.991 563.063Z" fill="black"/>
<path d="M503.451 558.858C502.41 558.388 501.277 558.159 500.136 558.187C498.995 558.215 497.875 558.5 496.859 559.021" fill="white"/>
<path d="M503.451 558.858C502.41 558.388 501.277 558.159 500.136 558.187C498.995 558.215 497.875 558.5 496.859 559.021" stroke="#263238" stroke-linecap="round" stroke-linejoin="round"/>
<path d="M500.25 566.316C498.497 565.679 496.577 565.679 494.824 566.316H500.25Z" fill="white"/>
<path d="M500.25 566.316C498.497 565.679 496.577 565.679 494.824 566.316" stroke="#263238" stroke-linecap="round" stroke-linejoin="round"/>
<path d="M493.278 573.149C492.025 572.203 490.474 571.744 488.91 571.856L493.278 573.149Z" fill="white"/>
<path d="M493.278 573.149C492.025 572.203 490.474 571.744 488.91 571.856" stroke="#263238" stroke-linecap="round" stroke-linejoin="round"/>
<path d="M487.838 577.572C487.838 577.572 486.387 574.945 484.257 574.945L487.838 577.572Z" fill="white"/>
<path d="M487.838 577.572C487.838 577.572 486.387 574.945 484.257 574.945" stroke="#263238" stroke-linecap="round" stroke-linejoin="round"/>
<path d="M402.613 543.546C402.613 543.546 415.838 543.546 439.576 520.068C463.314 496.589 478.235 476.854 496.547 468.688C514.859 460.521 532.492 478.555 531.475 497.95C530.458 517.345 516.215 544.567 473.826 560.219C431.437 575.871 395.152 569.406 391.422 569.406C387.692 569.406 369.38 578.593 358.529 579.614C352.555 580.255 346.53 580.255 340.556 579.614C340.556 579.614 337.504 579.954 335.808 579.954C334.113 579.954 332.078 577.912 332.078 577.912C332.078 577.912 328.646 578.811 327.29 576.429C325.933 574.047 326.991 573.149 326.991 573.149C326.991 573.149 321.172 573.652 319.137 569.909C317.103 566.166 320.006 566.316 320.006 566.316C320.006 566.316 316.031 565.54 316.126 562.328C316.048 561.13 316.286 559.933 316.818 558.858C316.818 558.858 314.444 555.115 315.461 552.052C316.479 548.99 320.209 547.969 323.939 549.67C327.669 551.372 345.642 550.691 360.224 549.67C374.806 548.65 402.613 543.546 402.613 543.546Z" fill="white"/>
<path d="M408.5 542.185C414.536 539.993 425.089 534.413 439.563 520.108C463.3 496.63 478.221 476.895 496.533 468.728C514.845 460.562 532.479 478.596 531.462 497.991C530.444 517.386 516.202 544.607 473.813 560.259C457.999 566.055 441.423 569.49 424.615 570.454C409.219 563.962 407.795 550.351 408.5 542.185Z" fill="#263238"/>
<path opacity="0.3" d="M531.475 497.95C532.18 484.435 523.825 471.6 512.485 467.803L507.52 471.41C507.52 471.41 524.476 481.618 520.407 501.353C516.337 521.088 483.104 541.504 456.654 552.393C443.484 557.572 429.968 561.816 416.205 565.091C418.677 567.351 421.529 569.153 424.628 570.413C441.436 569.449 458.013 566.014 473.826 560.219C516.215 544.567 530.458 517.345 531.475 497.95Z" fill="black"/>
<path d="M316.818 558.858C317.859 558.388 318.992 558.159 320.133 558.187C321.274 558.215 322.394 558.5 323.41 559.021" fill="white"/>
<path d="M316.818 558.858C317.859 558.388 318.992 558.159 320.133 558.187C321.274 558.215 322.394 558.5 323.41 559.021" stroke="#263238" stroke-linecap="round" stroke-linejoin="round"/>
<path d="M320.006 566.316C321.758 565.679 323.679 565.679 325.431 566.316H320.006Z" fill="white"/>
<path d="M320.006 566.316C321.758 565.679 323.679 565.679 325.431 566.316" stroke="#263238" stroke-linecap="round" stroke-linejoin="round"/>
<path d="M326.991 573.149C328.244 572.203 329.795 571.744 331.359 571.856L326.991 573.149Z" fill="white"/>
<path d="M326.991 573.149C328.244 572.203 329.795 571.744 331.359 571.856" stroke="#263238" stroke-linecap="round" stroke-linejoin="round"/>
<path d="M332.431 577.572C332.431 577.572 333.896 574.85 336.012 574.85L332.431 577.572Z" fill="white"/>
<path d="M332.431 577.572C332.431 577.572 333.896 574.85 336.012 574.85" stroke="#263238" stroke-linecap="round" stroke-linejoin="round"/>
<path d="M341.18 438.84C341.18 438.84 336.174 437.832 327.167 442.351C318.161 446.87 309.886 454.914 305.125 457.677C300.364 460.44 297.122 462.209 292.917 457.935C288.712 453.662 279.651 441.848 271.133 442.106C262.614 442.365 259.617 454.165 261.122 456.669C262.628 459.174 264.88 459.691 266.629 457.677C268.379 455.662 270.631 451.647 272.883 453.158C275.134 454.669 273.886 461.705 270.387 462.958C266.887 464.21 257.365 470.239 259.617 473.764C261.868 477.289 274.646 482.053 284.155 482.802C293.663 483.55 305.437 477.031 313.196 475.765C320.955 474.499 341.993 473.043 351.746 464.972C354.555 462.679 356.708 459.679 357.985 456.279C359.262 452.88 359.618 449.201 359.017 445.618" fill="white"/>
<path d="M260.81 468.483C260.81 468.483 259.82 457.432 256.565 456.669C253.309 455.907 252.807 463.475 253.309 470.743C253.811 478.011 257.813 480.039 260.309 478.024C262.804 476.01 260.81 468.483 260.81 468.483Z" fill="white" stroke="#263238" stroke-linecap="round" stroke-linejoin="round"/>
<path d="M268.637 471.6C268.637 471.6 269.587 460.535 266.521 459.215C263.456 457.894 261.638 465.231 260.838 472.485C260.037 479.739 263.645 482.434 266.467 480.91C269.288 479.386 268.637 471.6 268.637 471.6Z" fill="white" stroke="#263238" stroke-linecap="round" stroke-linejoin="round"/>
<path d="M275.392 474.132C275.392 474.132 276.355 463.08 273.276 461.76C270.197 460.44 268.393 467.776 267.606 475.03C266.819 482.285 270.4 484.979 273.222 483.441C276.043 481.903 275.392 474.132 275.392 474.132Z" fill="white" stroke="#263238" stroke-linecap="round" stroke-linejoin="round"/>
<path d="M293.107 482.298C288.562 484.402 283.598 485.435 278.593 485.32C278.304 483.235 278.136 481.136 278.092 479.032C278.092 476.309 283.843 464.972 292.361 465.72" fill="white"/>
<path d="M293.107 482.298C288.562 484.402 283.598 485.435 278.593 485.32C278.304 483.235 278.136 481.136 278.092 479.032C278.092 476.31 283.843 464.972 292.361 465.72" stroke="#263238" stroke-linecap="round" stroke-linejoin="round"/>
<path d="M282.568 478.446C282.568 478.446 285.755 469.79 283.124 467.776C280.492 465.761 277.251 471.124 274.985 476.759C272.72 482.394 275.582 485.687 278.566 485.32C281.55 484.952 282.568 478.446 282.568 478.446Z" fill="white" stroke="#263238" stroke-linecap="round" stroke-linejoin="round"/>
<path d="M488.286 438.84C488.286 438.84 493.291 437.832 502.312 442.351C511.332 446.87 519.579 454.914 524.34 457.677C529.101 460.44 532.357 462.209 536.616 457.935C540.875 453.662 549.882 441.848 558.387 442.106C566.892 442.365 569.903 454.165 568.411 456.669C566.919 459.174 564.654 459.691 562.904 457.677C561.154 455.662 558.835 451.647 556.637 453.158C554.44 454.669 555.633 461.705 559.147 462.958C562.66 464.21 572.168 470.239 569.903 473.764C567.638 477.289 554.887 482.053 545.379 482.802C535.87 483.55 524.096 477.031 516.324 475.765C508.551 474.499 487.54 473.043 477.774 464.972C474.965 462.679 472.813 459.679 471.538 456.279C470.263 452.879 469.911 449.2 470.517 445.618" fill="white"/>
<path d="M568.655 468.483C568.655 468.483 569.659 457.432 572.914 456.669C576.17 455.907 576.672 463.475 576.17 470.743C575.668 478.011 571.666 480.039 569.157 478.024C566.647 476.01 568.655 468.483 568.655 468.483Z" fill="white" stroke="#263238" stroke-linecap="round" stroke-linejoin="round"/>
<path d="M560.842 471.6C560.842 471.6 559.879 460.535 562.945 459.215C566.01 457.894 567.841 465.231 568.628 472.485C569.415 479.739 565.847 482.434 563.012 480.937C560.177 479.44 560.842 471.6 560.842 471.6Z" fill="white" stroke="#263238" stroke-linecap="round" stroke-linejoin="round"/>
<path d="M554.073 474.132C554.073 474.132 553.124 463.08 556.189 461.76C559.255 460.44 561.086 467.776 561.873 475.03C562.66 482.285 559.065 484.979 556.257 483.441C553.449 481.903 554.073 474.132 554.073 474.132Z" fill="white" stroke="#263238" stroke-linecap="round" stroke-linejoin="round"/>
<path d="M536.358 482.298C540.921 484.408 545.904 485.442 550.926 485.32C551.216 483.235 551.384 481.136 551.428 479.032C551.428 476.309 545.663 464.972 537.145 465.72" fill="white"/>
<path d="M536.358 482.298C540.921 484.408 545.904 485.442 550.926 485.32C551.216 483.235 551.384 481.136 551.428 479.032C551.428 476.309 545.663 464.972 537.145 465.72" stroke="#263238" stroke-linecap="round" stroke-linejoin="round"/>
<path d="M546.857 478.446C546.857 478.446 543.669 469.79 546.301 467.776C548.932 465.761 552.161 471.124 554.44 476.759C556.719 482.394 553.843 485.687 550.859 485.32C547.874 484.952 546.857 478.446 546.857 478.446Z" fill="white" stroke="#263238" stroke-linecap="round" stroke-linejoin="round"/>
<path d="M408.025 245.556C404.043 240.178 398.679 235.986 392.507 233.429C382.578 229.537 389.048 221.751 393.362 223.902C396.145 225.274 399.029 226.429 401.989 227.359C401.989 227.359 390.771 218.267 390.351 210.482C389.93 202.697 401.989 212.646 401.989 212.646C401.989 212.646 387.326 192.393 392.073 188.855C396.821 185.316 401.121 191.89 404.146 197.511C406.293 201.712 408.165 206.049 409.748 210.495C409.748 210.495 408.893 196.218 413.641 200.546C418.388 204.874 415.363 226.515 415.363 226.515C415.363 226.515 421.834 208.821 424.859 218.349C427.883 227.876 409.327 244.25 408.025 245.556Z" stroke="#8E6CED" stroke-linecap="round" stroke-linejoin="round"/>
<path d="M408.025 245.556C408.025 245.556 414.93 224.773 400.7 197.919" stroke="#8E6CED" stroke-linecap="round" stroke-linejoin="round"/>
<path d="M384.355 107.586C379.41 107.548 374.548 108.861 370.289 111.383C363.507 115.467 361.879 108.212 365.08 106.62C367.128 105.579 369.095 104.387 370.967 103.054C370.967 103.054 360.604 105.64 355.829 102.414C351.055 99.1884 362.3 96.4799 362.3 96.4799C362.3 96.4799 343.784 96.0988 343.866 91.7434C343.947 87.388 349.685 87.6602 354.351 88.4496C357.782 89.0524 361.171 89.8753 364.497 90.9132C364.497 90.9132 355.707 85.047 360.36 84.1079C365.012 83.1688 376.42 94.6697 376.42 94.6697C376.42 94.6697 368.865 82.9238 375.81 85.3737C382.755 87.8236 384.165 106.239 384.355 107.586Z" stroke="#8E6CED" stroke-linecap="round" stroke-linejoin="round"/>
<path d="M384.355 107.586C384.355 107.586 375.213 94.2205 353.062 90.6818" stroke="#8E6CED" stroke-linecap="round" stroke-linejoin="round"/>
<path d="M470.028 193.578C469.644 193.585 469.262 193.636 468.889 193.727C469.463 193.178 469.897 192.499 470.154 191.747C470.412 190.994 470.486 190.191 470.37 189.404C470.254 188.617 469.951 187.87 469.487 187.225C469.023 186.58 468.411 186.056 467.704 185.697C466.996 185.339 466.213 185.156 465.42 185.164C464.627 185.173 463.848 185.372 463.148 185.746C462.448 186.119 461.848 186.656 461.397 187.31C460.947 187.965 460.66 188.719 460.56 189.508C460.243 188.836 459.778 188.243 459.202 187.775C458.625 187.307 457.952 186.975 457.23 186.803C456.508 186.631 455.757 186.624 455.033 186.782C454.308 186.941 453.628 187.261 453.043 187.718C452.458 188.176 451.983 188.759 451.653 189.425C451.323 190.092 451.146 190.824 451.136 191.568C451.126 192.312 451.283 193.049 451.594 193.724C451.906 194.4 452.365 194.996 452.937 195.469C452.297 195.791 451.734 196.248 451.287 196.809C450.84 197.37 450.52 198.022 450.348 198.719C450.176 199.417 450.157 200.143 450.293 200.848C450.428 201.554 450.713 202.221 451.13 202.805C451.547 203.389 452.086 203.875 452.708 204.23C453.33 204.585 454.022 204.8 454.735 204.861C455.449 204.922 456.166 204.827 456.84 204.582C457.513 204.338 458.125 203.95 458.634 203.445C458.746 204.692 459.325 205.851 460.254 206.687C461.182 207.524 462.392 207.977 463.64 207.954C464.888 207.932 466.081 207.436 466.979 206.567C467.878 205.697 468.415 204.519 468.482 203.268C468.981 203.436 469.502 203.527 470.028 203.54C471.345 203.54 472.608 203.016 473.539 202.081C474.47 201.147 474.993 199.88 474.993 198.559C474.993 197.238 474.47 195.971 473.539 195.037C472.608 194.102 471.345 193.578 470.028 193.578V193.578Z" stroke="#8E6CED" stroke-linecap="round" stroke-linejoin="round"/>
<path d="M461.578 200.941C463.473 200.941 465.009 199.399 465.009 197.497C465.009 195.596 463.473 194.054 461.578 194.054C459.682 194.054 458.146 195.596 458.146 197.497C458.146 199.399 459.682 200.941 461.578 200.941Z" stroke="#8E6CED" stroke-linecap="round" stroke-linejoin="round"/>
<path d="M370.764 232.762C370.375 232.769 369.988 232.82 369.611 232.912C370.188 232.365 370.625 231.686 370.886 230.933C371.147 230.18 371.223 229.375 371.109 228.586C370.994 227.798 370.692 227.048 370.229 226.401C369.765 225.754 369.153 225.229 368.444 224.869C367.735 224.509 366.95 224.326 366.156 224.335C365.362 224.343 364.581 224.543 363.88 224.918C363.179 225.293 362.578 225.832 362.129 226.489C361.679 227.146 361.393 227.902 361.296 228.693C360.809 227.677 359.993 226.857 358.981 226.368C357.97 225.879 356.822 225.75 355.727 226.002C354.633 226.253 353.656 226.871 352.957 227.753C352.258 228.636 351.879 229.73 351.882 230.857C351.883 231.583 352.044 232.3 352.354 232.957C352.663 233.613 353.114 234.193 353.672 234.654C353.032 234.976 352.47 235.433 352.023 235.994C351.576 236.555 351.255 237.207 351.084 237.904C350.912 238.601 350.893 239.328 351.028 240.033C351.163 240.739 351.449 241.406 351.866 241.99C352.283 242.574 352.821 243.06 353.443 243.415C354.066 243.77 354.757 243.985 355.471 244.046C356.184 244.107 356.902 244.012 357.575 243.767C358.248 243.523 358.86 243.135 359.37 242.63C359.501 243.861 360.087 244.997 361.012 245.816C361.937 246.635 363.134 247.077 364.367 247.055C365.601 247.032 366.781 246.548 367.676 245.696C368.571 244.845 369.116 243.688 369.204 242.453C369.706 242.628 370.232 242.72 370.764 242.725C372.08 242.725 373.343 242.2 374.274 241.266C375.205 240.332 375.728 239.065 375.728 237.744C375.728 236.423 375.205 235.156 374.274 234.221C373.343 233.287 372.08 232.762 370.764 232.762V232.762Z" stroke="#8E6CED" stroke-linecap="round" stroke-linejoin="round"/>
<path d="M362.299 240.126C364.195 240.126 365.731 238.584 365.731 236.682C365.731 234.78 364.195 233.239 362.299 233.239C360.404 233.239 358.868 234.78 358.868 236.682C358.868 238.584 360.404 240.126 362.299 240.126Z" stroke="#8E6CED" stroke-linecap="round" stroke-linejoin="round"/>
<path d="M368.051 170.862C367.808 170.866 367.567 170.897 367.332 170.957C367.637 170.672 367.88 170.326 368.046 169.942C368.212 169.558 368.297 169.143 368.295 168.725C368.332 167.916 368.051 167.124 367.513 166.521C366.974 165.918 366.221 165.551 365.416 165.499C364.61 165.447 363.817 165.715 363.206 166.245C362.595 166.774 362.216 167.523 362.15 168.33C361.952 167.912 361.663 167.544 361.304 167.253C360.945 166.963 360.525 166.757 360.076 166.65C359.627 166.544 359.16 166.541 358.709 166.64C358.259 166.739 357.836 166.939 357.473 167.224C357.109 167.509 356.815 167.873 356.61 168.288C356.405 168.703 356.296 169.158 356.291 169.621C356.286 170.084 356.384 170.542 356.579 170.962C356.773 171.382 357.06 171.752 357.416 172.046C356.907 172.294 356.477 172.681 356.175 173.162C355.873 173.643 355.711 174.199 355.707 174.768C355.689 175.394 355.86 176.011 356.197 176.538C356.535 177.064 357.023 177.476 357.599 177.719C358.174 177.962 358.809 178.025 359.421 177.899C360.032 177.773 360.591 177.464 361.024 177.014C361.11 177.779 361.478 178.485 362.055 178.993C362.632 179.501 363.378 179.774 364.146 179.758C364.913 179.743 365.648 179.44 366.204 178.91C366.761 178.379 367.1 177.659 367.156 176.891C367.464 177.006 367.79 177.066 368.119 177.068C368.939 177.068 369.725 176.741 370.305 176.159C370.885 175.577 371.211 174.788 371.211 173.965C371.211 173.142 370.885 172.352 370.305 171.77C369.725 171.188 368.939 170.862 368.119 170.862H368.051Z" stroke="#8E6CED" stroke-linecap="round" stroke-linejoin="round"/>
<path d="M362.788 175.448C363.971 175.448 364.931 174.485 364.931 173.298C364.931 172.11 363.971 171.147 362.788 171.147C361.604 171.147 360.645 172.11 360.645 173.298C360.645 174.485 361.604 175.448 362.788 175.448Z" stroke="#8E6CED" stroke-linecap="round" stroke-linejoin="round"/>
<path d="M340.095 265.89C339.857 265.894 339.62 265.926 339.389 265.986C339.69 265.698 339.929 265.351 340.093 264.968C340.256 264.584 340.34 264.171 340.339 263.754C340.335 262.971 340.036 262.219 339.501 261.649C338.966 261.079 338.235 260.735 337.457 260.685C336.678 260.634 335.91 260.883 335.307 261.379C334.704 261.875 334.311 262.583 334.208 263.359C334.007 262.944 333.717 262.58 333.359 262.292C333 262.004 332.582 261.801 332.134 261.696C331.687 261.592 331.222 261.589 330.774 261.688C330.325 261.787 329.905 261.986 329.542 262.269C329.18 262.552 328.886 262.914 328.681 263.326C328.476 263.738 328.365 264.191 328.357 264.652C328.35 265.113 328.444 265.569 328.635 265.989C328.826 266.408 329.108 266.779 329.46 267.075C329.064 267.275 328.716 267.56 328.439 267.909C328.163 268.257 327.965 268.662 327.859 269.094C327.753 269.527 327.742 269.978 327.825 270.415C327.909 270.852 328.086 271.267 328.344 271.629C328.603 271.991 328.936 272.293 329.321 272.514C329.707 272.735 330.135 272.87 330.578 272.909C331.02 272.949 331.465 272.892 331.884 272.742C332.302 272.592 332.683 272.354 333 272.042C333.086 272.808 333.453 273.514 334.031 274.022C334.608 274.529 335.354 274.802 336.122 274.787C336.889 274.772 337.623 274.469 338.18 273.939C338.737 273.408 339.076 272.688 339.131 271.92C339.44 272.033 339.766 272.093 340.095 272.097C340.915 272.097 341.701 271.77 342.281 271.188C342.861 270.606 343.187 269.817 343.187 268.994C343.187 268.171 342.861 267.381 342.281 266.799C341.701 266.217 340.915 265.89 340.095 265.89V265.89Z" stroke="#8E6CED" stroke-linecap="round" stroke-linejoin="round"/>
<path d="M334.832 270.477C336.015 270.477 336.975 269.514 336.975 268.327C336.975 267.139 336.015 266.176 334.832 266.176C333.648 266.176 332.688 267.139 332.688 268.327C332.688 269.514 333.648 270.477 334.832 270.477Z" stroke="#8E6CED" stroke-linecap="round" stroke-linejoin="round"/>
<path d="M400.131 119.291C399.893 119.295 399.656 119.327 399.425 119.386C399.781 119.045 400.049 118.623 400.209 118.156C400.368 117.689 400.414 117.191 400.342 116.703C400.27 116.214 400.082 115.751 399.795 115.35C399.507 114.949 399.129 114.624 398.69 114.4C398.251 114.177 397.766 114.062 397.274 114.065C396.782 114.069 396.298 114.191 395.863 114.42C395.427 114.65 395.053 114.981 394.772 115.386C394.49 115.79 394.309 116.257 394.244 116.746C393.942 116.11 393.434 115.596 392.802 115.29C392.17 114.984 391.452 114.904 390.768 115.062C390.085 115.221 389.476 115.61 389.042 116.163C388.608 116.717 388.376 117.403 388.384 118.107C388.383 118.558 388.483 119.003 388.675 119.41C388.868 119.817 389.148 120.177 389.496 120.462C388.87 120.768 388.366 121.279 388.067 121.91C387.767 122.541 387.69 123.256 387.847 123.936C388.005 124.617 388.388 125.225 388.934 125.659C389.479 126.093 390.156 126.329 390.853 126.328C391.253 126.328 391.65 126.249 392.02 126.095C392.391 125.941 392.727 125.715 393.009 125.429C393.094 126.195 393.46 126.901 394.036 127.41C394.612 127.919 395.357 128.193 396.124 128.18C396.892 128.166 397.627 127.865 398.184 127.336C398.742 126.808 399.083 126.089 399.141 125.321C399.451 125.428 399.776 125.487 400.104 125.498C400.924 125.498 401.71 125.171 402.29 124.589C402.87 124.007 403.196 123.217 403.196 122.394C403.196 121.571 402.87 120.782 402.29 120.2C401.71 119.618 400.924 119.291 400.104 119.291H400.131Z" stroke="#8E6CED" stroke-linecap="round" stroke-linejoin="round"/>
<path d="M394.868 123.878C396.051 123.878 397.011 122.915 397.011 121.727C397.011 120.54 396.051 119.577 394.868 119.577C393.684 119.577 392.725 120.54 392.725 121.727C392.725 122.915 393.684 123.878 394.868 123.878Z" stroke="#8E6CED" stroke-linecap="round" stroke-linejoin="round"/>
<path d="M466.393 138.877C466.15 138.881 465.909 138.913 465.674 138.972C465.979 138.687 466.222 138.341 466.388 137.957C466.554 137.573 466.639 137.158 466.637 136.74C466.674 135.931 466.393 135.14 465.855 134.536C465.316 133.933 464.563 133.566 463.758 133.514C462.953 133.463 462.159 133.73 461.548 134.26C460.938 134.789 460.558 135.538 460.492 136.345C460.294 135.927 460.005 135.559 459.646 135.268C459.287 134.978 458.867 134.772 458.418 134.665C457.969 134.559 457.502 134.556 457.052 134.655C456.601 134.754 456.178 134.954 455.815 135.239C455.452 135.524 455.157 135.888 454.952 136.303C454.748 136.718 454.639 137.174 454.633 137.636C454.628 138.099 454.726 138.557 454.921 138.977C455.116 139.397 455.402 139.767 455.758 140.061C455.249 140.31 454.819 140.696 454.517 141.177C454.215 141.658 454.053 142.214 454.049 142.783C454.05 143.393 454.23 143.988 454.567 144.496C454.904 145.004 455.382 145.401 455.942 145.637C456.501 145.874 457.119 145.94 457.716 145.827C458.313 145.714 458.863 145.427 459.299 145.001C459.384 145.767 459.752 146.473 460.329 146.981C460.907 147.488 461.652 147.761 462.42 147.746C463.188 147.731 463.922 147.428 464.479 146.898C465.036 146.367 465.375 145.647 465.43 144.879C465.738 144.994 466.064 145.054 466.393 145.056C467.213 145.056 468 144.729 468.58 144.147C469.16 143.565 469.486 142.776 469.486 141.953C469.486 141.13 469.16 140.34 468.58 139.758C468 139.176 467.213 138.849 466.393 138.849V138.877Z" stroke="#8E6CED" stroke-linecap="round" stroke-linejoin="round"/>
<path d="M461.13 143.464C462.314 143.464 463.273 142.501 463.273 141.313C463.273 140.125 462.314 139.163 461.13 139.163C459.946 139.163 458.987 140.125 458.987 141.313C458.987 142.501 459.946 143.464 461.13 143.464Z" stroke="#8E6CED" stroke-linecap="round" stroke-linejoin="round"/>
<path d="M426.134 178.783C427.86 174.075 429.979 169.522 432.468 165.172C435.629 160.177 446.928 159.279 446.928 159.279C446.928 159.279 441.055 168.806 438.342 173.339C435.629 177.871 426.134 178.783 426.134 178.783Z" stroke="#8E6CED" stroke-linecap="round" stroke-linejoin="round"/>
<path d="M426.134 178.783C426.134 178.783 434.72 166.533 444.676 160.64" stroke="#8E6CED" stroke-linecap="round" stroke-linejoin="round"/>
<path d="M295.739 222.936C300.614 221.827 305.573 221.131 310.565 220.853C316.452 220.853 323.383 229.809 323.383 229.809C323.383 229.809 312.206 230.054 306.943 230.244C301.68 230.435 295.739 222.936 295.739 222.936Z" stroke="#8E6CED" stroke-linecap="round" stroke-linejoin="round"/>
<path d="M295.739 222.936C295.739 222.936 310.66 223.494 321.009 228.638" stroke="#8E6CED" stroke-linecap="round" stroke-linejoin="round"/>
<path d="M496.981 212.578C496.981 212.578 494.783 202.329 489.995 202.928C485.207 203.527 489.073 215.586 489.073 215.586C489.073 215.586 482.779 217.382 483.077 220.091C483.376 222.799 487.852 220.54 491.731 219.941C491.731 219.941 490.171 226.978 494.363 228.107C498.554 229.237 497.754 218.825 497.754 218.825C497.754 218.825 507.113 220.744 509.745 216.539C512.797 211.707 500.874 211.965 496.981 212.578Z" stroke="#8E6CED" stroke-linecap="round" stroke-linejoin="round"/>
<path d="M496.981 209.42C496.981 209.42 488.245 222.745 488.761 224.147C489.276 225.549 498.731 212.578 500.304 210.999C501.877 209.42 499.083 207.134 496.981 209.42Z" fill="#263238" stroke="#8E6CED" stroke-linecap="round" stroke-linejoin="round"/>
<path d="M500.304 210.999C500.304 210.999 506.069 205.732 508.863 207.841C511.658 209.951 508.348 210.291 507.995 209.597" stroke="#8E6CED" stroke-linecap="round" stroke-linejoin="round"/>
<path d="M497.51 208.359C497.51 208.359 499.083 200.641 497.333 199.063C495.583 197.484 494.878 199.593 496.112 200.818" stroke="#8E6CED" stroke-linecap="round" stroke-linejoin="round"/>
<path d="M413.926 148.241C409.259 141.436 402.043 148.064 400.103 150.092C398.15 148.064 390.934 141.408 386.268 148.241C381.181 155.659 399.927 171.12 400.103 171.052C400.28 170.984 418.985 155.645 413.926 148.241Z" stroke="#8E6CED" stroke-linecap="round" stroke-linejoin="round"/>
<path d="M349.183 121.7C344.354 118.815 341.79 124.98 341.153 126.777C339.376 126.083 333.014 124.055 332.078 129.581C331.047 135.61 346.999 139.829 347.094 139.734C347.189 139.639 354.419 124.831 349.183 121.7Z" stroke="#8E6CED" stroke-linecap="round" stroke-linejoin="round"/>
<path d="M304.162 177.83C298.56 177.408 298.994 184.077 299.238 185.997C297.339 186.173 290.747 187.167 292.361 192.557C294.111 198.423 310.28 195.048 310.307 194.925C310.334 194.803 310.239 178.293 304.162 177.83Z" stroke="#8E6CED" stroke-linecap="round" stroke-linejoin="round"/>
<path d="M481.978 265.999C486.428 262.556 481.666 257.833 480.229 256.635C481.585 255.274 485.776 250.075 480.988 247.108C475.78 243.909 465.986 257.248 466.067 257.357C466.149 257.465 477.15 269.729 481.978 265.999Z" stroke="#8E6CED" stroke-linecap="round" stroke-linejoin="round"/>
<path d="M456.043 174.4C459.083 171.57 462.48 169.154 466.149 167.214" stroke="#8E6CED" stroke-linecap="round" stroke-linejoin="round"/>
<path d="M430.881 229.142C430.881 229.142 434.055 202.043 448.922 182.308" stroke="#8E6CED" stroke-linecap="round" stroke-linejoin="round"/>
<path d="M390.785 240.643C392.067 242.634 393.226 244.702 394.257 246.836" stroke="#8E6CED" stroke-linecap="round" stroke-linejoin="round"/>
<path d="M340.284 208.481C342.236 210.046 344.431 211.278 346.782 212.129C357.511 216.212 372.486 220.295 384.138 232.3" stroke="#8E6CED" stroke-linecap="round" stroke-linejoin="round"/>
<path d="M335.252 195.796C334.724 198.651 335.204 201.601 336.609 204.139" stroke="#8E6CED" stroke-linecap="round" stroke-linejoin="round"/>
<path d="M460.601 125.103C464.011 121.994 466.812 118.273 468.862 114.133" stroke="#8E6CED" stroke-linecap="round" stroke-linejoin="round"/>
<path d="M420.41 164.873C422.619 159.303 425.696 154.121 429.525 149.52C437.243 140.306 445.558 135.91 452.951 130.942" stroke="#8E6CED" stroke-linecap="round" stroke-linejoin="round"/>
<path d="M415.96 186.949C415.96 183.753 416.255 180.563 416.842 177.422" stroke="#8E6CED" stroke-linecap="round" stroke-linejoin="round"/>
<path d="M458.254 242.181C463.897 239.323 471.819 237.172 482.426 237.989C508.877 240.03 521.085 248.197 532.615 232.545" stroke="#8E6CED" stroke-linecap="round" stroke-linejoin="round"/>
<path d="M446.48 252.28C447.698 250.391 449.178 248.686 450.875 247.217" stroke="#8E6CED" stroke-linecap="round" stroke-linejoin="round"/>
<path d="M502.719 180.62H499.097C496.913 180.62 492.925 178.075 494.743 175.884C496.56 173.692 502.719 178.796 502.719 178.796L497.293 161.688L508.904 156.244L513.624 172.263C513.624 172.263 506.367 169.351 505.635 172.617C504.902 175.884 510.355 175.53 513.624 174.074" stroke="#8E6CED" stroke-linecap="round" stroke-linejoin="round"/>
<path d="M498.364 165.322L509.609 159.864" stroke="#8E6CED" stroke-linecap="round" stroke-linejoin="round"/>
<path d="M527.664 175.176H525.276C523.825 175.176 521.207 173.488 522.387 172.046C523.567 170.603 527.664 173.965 527.664 173.965L524.069 162.654L531.746 159.048L534.866 169.637C534.866 169.637 530.065 167.718 529.59 169.882C529.115 172.046 532.71 171.801 534.866 170.834" stroke="#8E6CED" stroke-linecap="round" stroke-linejoin="round"/>
<path d="M524.788 165.063L532.221 161.457" stroke="#8E6CED" stroke-linecap="round" stroke-linejoin="round"/>
<path d="M316.737 162.927H314.349C312.898 162.927 310.28 161.239 311.46 159.796C312.64 158.353 316.737 161.715 316.737 161.715L313.142 150.405L320.82 146.798L323.939 157.387C323.939 157.387 319.138 155.468 318.663 157.632C318.188 159.796 321.783 159.551 323.939 158.585" stroke="#8E6CED" stroke-linecap="round" stroke-linejoin="round"/>
<path d="M313.861 152.814L321.294 149.207" stroke="#8E6CED" stroke-linecap="round" stroke-linejoin="round"/>
<path d="M544.144 201.186C544.144 201.186 553.965 198.219 552.405 192.393C551.048 187.466 546.464 192.393 546.464 192.393C546.464 192.393 549.312 187.766 545.107 185.588C540.902 183.41 539.682 189.372 539.682 189.372C539.682 189.372 538.841 183.846 535.015 186.391C531.19 188.936 539.261 202.574 539.261 202.574L544.144 201.186Z" stroke="#8E6CED" stroke-linecap="round" stroke-linejoin="round"/>
<path d="M531.556 222.214C535.397 216.267 537.995 209.599 539.193 202.615L543.371 189.658" stroke="#8E6CED" stroke-linecap="round" stroke-linejoin="round"/>
<path d="M536.643 211.993C537.05 209.311 536.446 206.574 534.947 204.316C533.45 201.792 531.595 199.5 529.44 197.511C529.44 197.511 528.165 202.193 529.006 205.174C529.847 208.154 536.643 211.993 536.643 211.993Z" stroke="#8E6CED" stroke-linecap="round" stroke-linejoin="round"/>
<path d="M535.382 215.395C537.031 213.973 539.149 213.217 541.323 213.272H549.38C549.38 213.272 539.193 221.357 535.382 215.395Z" stroke="#8E6CED" stroke-linecap="round" stroke-linejoin="round"/>
<path d="M537.891 191.849L539.166 201.921L546.287 196.613" stroke="#8E6CED" stroke-linecap="round" stroke-linejoin="round"/>
<path d="M315.543 245.107C315.543 245.107 309.113 237.104 304.325 240.738C300.256 243.828 306.563 246.264 306.563 246.264C306.563 246.264 301.205 245.366 300.839 250.116C300.473 254.866 306.36 253.641 306.36 253.641C306.36 253.641 301.572 256.513 305.37 259.085C309.168 261.658 318.717 249.041 318.717 249.041L315.543 245.107Z" stroke="#8E6CED" stroke-linecap="round" stroke-linejoin="round"/>
<path d="M339.674 248.85C332.742 247.514 325.612 247.607 318.717 249.122L305.153 250.129" stroke="#8E6CED" stroke-linecap="round" stroke-linejoin="round"/>
<path d="M328.321 247.965C325.694 248.597 323.397 250.189 321.878 252.43C320.111 254.775 318.695 257.365 317.673 260.12C317.673 260.12 322.474 259.548 324.902 257.629C327.33 255.71 328.321 247.965 328.321 247.965Z" stroke="#8E6CED" stroke-linecap="round" stroke-linejoin="round"/>
<path d="M331.942 247.87C330.005 246.873 328.507 245.19 327.737 243.147C326.313 239.595 324.712 235.648 324.712 235.648C324.712 235.648 336.012 242.072 331.942 247.87Z" stroke="#8E6CED" stroke-linecap="round" stroke-linejoin="round"/>
<path d="M309.262 254.389L318.079 249.408L310.497 244.794" stroke="#8E6CED" stroke-linecap="round" stroke-linejoin="round"/>
<path d="M381.154 210.89C380.748 209.96 380.296 209.052 379.798 208.168C377.37 203.69 373.802 199.757 368.2 200.56C358.705 201.921 376.339 216.892 379.513 217.342C383.419 217.9 382.416 213.912 381.154 210.89Z" fill="#8E6CED"/>
<path d="M373.924 154.638C373.436 153.481 372.92 152.474 372.568 151.916C370.126 147.424 366.572 143.504 360.97 144.307C351.475 145.668 369.109 160.64 372.283 161.089C376.19 161.647 375.186 157.646 373.924 154.638Z" fill="#8E6CED"/>
<path d="M469.364 216.416C468.156 216.77 467.098 217.178 466.515 217.41C461.795 219.315 457.495 222.418 457.644 228.094C457.902 237.717 474.749 221.86 475.563 218.743C476.553 214.973 472.483 215.531 469.364 216.416Z" fill="#8E6CED"/>
<path d="M481.572 165.608C480.605 165.889 479.655 166.221 478.723 166.601C474.003 168.507 469.703 171.597 469.852 177.272C470.11 186.895 486.957 171.038 487.771 167.935C488.761 164.152 484.691 164.696 481.572 165.608Z" fill="#8E6CED"/>
<path d="M551.089 162.45C550.126 162.727 549.18 163.059 548.254 163.444C543.534 165.349 539.234 168.439 539.383 174.114C539.641 183.737 556.488 167.881 557.302 164.778C558.292 160.953 554.223 161.497 551.089 162.45Z" fill="#8E6CED"/>
<path d="M360.468 208.726C360.28 208.261 360.067 207.807 359.831 207.365C358.651 205.187 356.914 203.282 354.174 203.649C349.535 204.316 358.149 211.625 359.695 211.816C361.581 212.142 361.092 210.196 360.468 208.726Z" fill="#8E6CED"/>
<path d="M327.358 173.42C326.896 173.026 326.435 172.699 326.191 172.522C324.143 171.093 321.742 170.167 319.477 171.746C315.624 174.468 326.584 177.082 328.063 176.592C329.826 175.979 328.565 174.468 327.358 173.42Z" fill="#8E6CED"/>
<path d="M376.298 190.12C376.11 189.655 375.898 189.201 375.66 188.759C374.467 186.568 372.731 184.676 370.004 185.044C365.365 185.711 373.978 193.006 375.525 193.21C377.397 193.55 376.908 191.59 376.298 190.12Z" fill="#8E6CED"/>
<path d="M296.444 159.469C296.259 159.004 296.046 158.549 295.807 158.108C294.627 155.917 292.89 154.025 290.15 154.393C285.511 155.06 294.125 162.369 295.671 162.559C297.556 162.886 297.068 160.939 296.444 159.469Z" fill="#8E6CED"/>
<path d="M318.025 207.147C317.587 206.881 317.134 206.64 316.669 206.426C314.444 205.337 311.921 204.793 309.887 206.698C306.495 209.951 317.74 210.876 319.124 210.155C320.914 209.284 319.382 207.977 318.025 207.147Z" fill="#8E6CED"/>
<path d="M372.229 136.59C372.04 136.126 371.827 135.671 371.591 135.229C370.397 133.051 368.661 131.146 365.935 131.513C361.296 132.18 369.909 139.489 371.455 139.68C373.327 140.006 372.839 138.06 372.229 136.59Z" fill="#8E6CED"/>
<path d="M423.244 191.903C422.878 192.38 422.566 192.843 422.404 193.101C421.047 195.197 420.22 197.661 421.888 199.907C424.709 203.663 426.934 192.57 426.378 191.1C425.7 189.277 424.235 190.651 423.244 191.903Z" fill="#8E6CED"/>
<path d="M444.948 220.486C444.581 220.962 444.269 221.425 444.107 221.683C442.75 223.779 441.923 226.243 443.591 228.489C446.413 232.245 448.637 221.153 448.081 219.683C447.403 217.859 445.938 219.233 444.948 220.486Z" fill="#8E6CED"/>
<path d="M475.169 146.118C474.709 146.243 474.256 146.393 473.813 146.567C471.493 147.451 469.363 148.921 469.377 151.684C469.377 156.38 477.787 148.826 478.221 147.315C478.696 145.41 476.715 145.628 475.169 146.118Z" fill="#8E6CED"/>
<path d="M422.783 129.009C422.349 129.431 421.969 129.839 421.766 130.071C420.125 131.935 418.917 134.236 420.233 136.672C422.444 140.755 426.324 130.193 426.012 128.669C425.618 126.791 423.95 127.92 422.783 129.009Z" fill="#8E6CED"/>
<path d="M329.257 225.059C329.609 225.397 329.981 225.715 330.369 226.011C332.336 227.549 334.696 228.597 337.043 227.141C341.017 224.678 330.26 221.438 328.714 221.86C326.883 222.337 328.104 223.929 329.257 225.059Z" fill="#8E6CED"/>
<path d="M498.731 146.621C498.134 146.621 497.578 146.621 497.266 146.621C494.783 146.771 492.315 147.533 491.501 150.173C490.144 154.665 500.385 149.969 501.24 148.663C502.284 147.07 500.331 146.689 498.731 146.621Z" fill="#8E6CED"/>
</svg>
