<svg width="102" height="72" viewBox="0 0 102 72" fill="none" xmlns="http://www.w3.org/2000/svg">
<path d="M34.1378 44.0999L30.6 38.8439H27.053V44.0999H22.4584V25.8569H30.6092C35.2038 25.8569 38.3557 28.3319 38.3557 32.2829C38.3811 33.3869 38.1006 34.477 37.544 35.4374C36.9874 36.3977 36.1755 37.1924 35.1946 37.7369L39.5135 44.0999H34.1378ZM27.053 34.7579H30.4897C32.2724 34.7579 33.6692 33.7859 33.6692 32.2829C33.6692 30.7799 32.2724 29.8619 30.4897 29.8619H27.053V34.7579Z" fill="white"/>
<path d="M46.4513 29.8079V33.1469H54.7216V37.0169H46.4513V40.1849H55.9162V44.0999H41.8108V25.8569H55.9162V29.8079H46.4513Z" fill="white"/>
<path d="M76.6011 34.9469C76.6011 40.3469 72.4016 44.1359 66.493 44.1359H59.0314V25.8569H66.5298C72.4016 25.8569 76.6011 29.5919 76.6011 34.9469ZM71.9054 34.9469C71.8986 34.2695 71.7529 33.6003 71.477 32.979C71.2011 32.3578 70.8005 31.7971 70.2991 31.3304C69.7977 30.8637 69.2057 30.5004 68.5582 30.262C67.9107 30.0237 67.2209 29.9152 66.5298 29.9429H63.6719V40.0499H66.5298C67.2281 40.0729 67.924 39.9578 68.5759 39.7116C69.2279 39.4653 69.8224 39.0929 70.3242 38.6166C70.8259 38.1404 71.2245 37.5699 71.4962 36.9394C71.7679 36.3089 71.9071 35.6313 71.9054 34.9469V34.9469Z" fill="white"/>
<path d="M83.787 25.8569V44.0999H79.1465V25.8569H83.787Z" fill="white"/>
<path d="M101.55 29.9159H96.2016V44.0999H91.607V29.9159H86.2589V25.8569H101.568L101.55 29.9159Z" fill="white"/>
<path d="M14.8589 37.557C14.5241 38.3917 13.9293 39.1019 13.1589 39.5866C12.3886 40.0713 11.4818 40.3059 10.5675 40.257C9.1863 40.201 7.88064 39.6241 6.92356 38.6471C5.96648 37.6701 5.43208 36.3685 5.43208 35.0145C5.43208 33.6605 5.96648 32.359 6.92356 31.382C7.88064 30.4049 9.1863 29.8281 10.5675 29.772C11.4818 29.7232 12.3886 29.9578 13.1589 30.4425C13.9293 30.9272 14.5241 31.6373 14.8589 32.472H19.7751C19.3292 30.4383 18.1609 28.6256 16.4781 27.3565C14.7954 26.0875 12.7074 25.4445 10.5859 25.542C9.28831 25.5029 7.99589 25.7194 6.78532 26.1787C5.57476 26.638 4.47073 27.3308 3.53872 28.216C2.6067 29.1011 1.86571 30.1606 1.35968 31.3315C0.853648 32.5025 0.592896 33.761 0.592896 35.0325C0.592896 36.304 0.853648 37.5626 1.35968 38.7335C1.86571 39.9044 2.6067 40.9639 3.53872 41.8491C4.47073 42.7342 5.57476 43.427 6.78532 43.8863C7.99589 44.3456 9.28831 44.5622 10.5859 44.523C12.7074 44.6205 14.7954 43.9775 16.4781 42.7085C18.1609 41.4395 19.3292 39.6267 19.7751 37.593L14.8589 37.557Z" fill="white"/>
<path d="M18.1211 61.623C18.1211 64.665 15.6216 66.708 11.413 66.708H2.01245V48.402H10.8616C14.9325 48.402 17.2941 50.283 17.2941 53.28C17.3213 54.1249 17.0888 54.9584 16.6268 55.6725C16.1648 56.3866 15.4945 56.9483 14.7027 57.285C15.7045 57.4948 16.5979 58.046 17.2238 58.8403C17.8497 59.6346 18.1677 60.6206 18.1211 61.623V61.623ZM6.65299 52.119V55.944H10.1081C11.8725 55.944 12.8649 55.044 12.8649 53.892C12.8649 52.74 11.946 52.092 10.1081 52.092L6.65299 52.119ZM13.5816 61.029C13.5816 59.895 12.6627 59.229 10.8892 59.229H6.65299V62.91H10.8065C12.7362 62.937 13.5816 62.1 13.5816 61.029Z" fill="white"/>
<path d="M32.4654 63.558H24.5536L23.313 66.708H18.3784L26.3179 48.402H30.7746L38.6865 66.708H33.7336L32.4654 63.558ZM30.9584 59.76L28.4865 53.595L26.033 59.76H30.9584Z" fill="white"/>
<path d="M57.4049 48.402V66.708H53.8303L44.8708 56.7V66.744H40.2762V48.402H43.8233L52.8379 58.716V48.402H57.4049Z" fill="white"/>
<path d="M68.6525 59.877L65.8957 62.991V66.708H61.246V48.402H65.8957V56.799L73.3389 48.402H78.8524L71.74 56.43L79.4589 66.708H73.6606L68.6525 59.877Z" fill="white"/>
<path d="M18.6633 3.31201V21.6H14.0687V14.742H6.43249V21.6H1.83789V3.31201H6.43249V10.656H14.0595V3.31201H18.6633Z" fill="white"/>
<path d="M71.9882 21.6H67.3936V12.429L63.2492 18.729H60.6487L56.4768 12.429V21.645H51.8822V3.31201H55.3465L61.9536 13.077L68.5698 3.31201H72.0249L71.9882 21.6Z" fill="white"/>
<path d="M80.4789 7.27201V10.602H88.7492V14.472H80.4789V17.64H89.9438V21.6H75.8384V3.31201H89.9438V7.27201H80.4789Z" fill="white"/>
<path d="M35.2589 2.51099C27.9076 2.51099 21.8978 8.09099 21.8978 14.985C21.8865 17.3337 22.5799 19.6339 23.8919 21.6H30.3243C28.9628 20.5966 27.9579 19.1994 27.4518 17.606C26.9457 16.0125 26.9639 14.3036 27.504 12.7208C28.0441 11.1381 29.0786 9.76179 30.4612 8.78657C31.8438 7.81135 33.5045 7.28662 35.2084 7.28662C36.9122 7.28662 38.5729 7.81135 39.9556 8.78657C41.3382 9.76179 42.3727 11.1381 42.9128 12.7208C43.4528 14.3036 43.4711 16.0125 42.9649 17.606C42.4588 19.1994 41.4539 20.5966 40.0924 21.6H46.5249C47.8481 19.6404 48.5543 17.3433 48.5557 14.994C48.62 8.09999 42.6378 2.51099 35.2589 2.51099Z" fill="white"/>
<path d="M30.8756 17.028C31.1688 17.9416 31.752 18.7399 32.5403 19.3066C33.3286 19.8733 34.281 20.1788 35.2589 20.1788C36.2367 20.1788 37.1891 19.8733 37.9774 19.3066C38.7658 18.7399 39.3489 17.9416 39.6421 17.028H30.8756Z" fill="white"/>
</svg>
