<svg width="1278" height="828" viewBox="0 0 1278 828" fill="none" xmlns="http://www.w3.org/2000/svg">
<path d="M222.191 357.721H222.101C221.982 357.701 221.868 357.654 221.769 357.584C221.67 357.514 221.589 357.422 221.531 357.316L194.056 304.83C193.981 304.642 193.981 304.433 194.056 304.245C194.12 304.057 194.254 303.901 194.431 303.81L197.539 302.311C197.714 302.238 197.91 302.234 198.088 302.3C198.266 302.365 198.412 302.496 198.497 302.665C198.583 302.834 198.601 303.029 198.549 303.211C198.496 303.392 198.377 303.548 198.215 303.645L195.797 304.86L222.417 355.741L267.713 307.544C267.798 307.452 267.907 307.384 268.028 307.349L323.234 290.329L295.924 246.841L293.912 246.991C293.813 247.001 293.713 246.992 293.618 246.962C293.522 246.933 293.434 246.884 293.359 246.82C293.283 246.755 293.221 246.676 293.177 246.587C293.132 246.498 293.107 246.401 293.101 246.301C293.089 246.105 293.154 245.911 293.283 245.763C293.413 245.614 293.595 245.522 293.792 245.507L296.269 245.312C296.405 245.298 296.542 245.323 296.664 245.384C296.787 245.445 296.889 245.539 296.96 245.656L325.02 290.389C325.071 290.492 325.097 290.605 325.097 290.719C325.097 290.833 325.071 290.946 325.02 291.049C324.98 291.157 324.915 291.255 324.832 291.335C324.749 291.416 324.649 291.477 324.54 291.514L268.584 308.744L222.747 357.511C222.597 357.651 222.397 357.726 222.191 357.721Z" fill="white"/>
<path d="M222.792 350.568H222.672C222.56 350.547 222.454 350.502 222.363 350.434C222.272 350.367 222.198 350.279 222.146 350.178L195.872 300.077C195.79 299.924 195.764 299.746 195.799 299.576C195.835 299.406 195.93 299.254 196.068 299.147C196.188 299.042 208.529 288.95 214.354 274.973C219.729 262.077 228.978 255.674 239.097 257.833C239.202 257.856 239.301 257.901 239.386 257.966C239.472 258.031 239.542 258.113 239.592 258.208L264.08 302.341C264.15 302.468 264.182 302.612 264.172 302.757C264.162 302.902 264.11 303.041 264.023 303.156C263.936 303.272 263.816 303.36 263.68 303.41C263.543 303.459 263.395 303.468 263.254 303.436C262.848 303.346 253.195 301.351 251.018 310.634C248.676 320.561 238.421 333.337 233.497 339.471L232.956 340.16C230.011 343.816 226.783 347.236 223.302 350.388C223.16 350.508 222.978 350.572 222.792 350.568ZM197.464 299.897L222.987 348.603C226.132 345.684 229.063 342.541 231.755 339.201L232.296 338.511C237.16 332.513 247.309 319.871 249.516 310.274C251.483 301.936 258.795 301.516 262.008 301.756L238.436 259.213C229.218 257.428 220.75 263.502 215.721 275.543C210.406 288.29 199.821 297.872 197.464 299.897Z" fill="white"/>
<path d="M263.404 303.391C263.27 303.392 263.139 303.359 263.023 303.293C262.906 303.227 262.81 303.131 262.743 303.016L238.256 258.868C238.204 258.702 238.204 258.524 238.256 258.358C240.028 250.11 249.096 246.361 267.653 246.361C283.853 246.361 290.414 241.218 290.474 241.173C290.557 241.106 290.653 241.056 290.757 241.028C290.86 241 290.968 240.993 291.074 241.008C291.178 241.027 291.278 241.067 291.366 241.127C291.454 241.186 291.528 241.263 291.585 241.353L319.06 286.085C319.158 286.252 319.19 286.45 319.148 286.64C319.107 286.829 318.994 286.995 318.834 287.105C318.759 287.105 316.823 288.395 305.502 291.964C297.65 294.453 288.987 294.108 282.006 293.838C279.236 293.682 276.459 293.682 273.688 293.838C267.112 294.378 264.215 302.836 264.185 302.836C264.138 302.974 264.053 303.096 263.938 303.187C263.823 303.277 263.685 303.333 263.539 303.346L263.404 303.391ZM239.712 258.403L263.299 300.931C264.53 298.232 267.713 292.848 273.493 292.369C276.324 292.213 279.16 292.213 281.991 292.369C288.837 292.639 297.365 292.968 304.977 290.569C309.153 289.347 313.258 287.895 317.273 286.22L290.654 242.852C288.552 244.217 281.57 247.891 267.578 247.891C250.072 247.906 241.454 251.205 239.712 258.403Z" fill="white"/>
<path d="M241.904 332.662C241.737 332.666 241.573 332.613 241.439 332.513C241.283 332.386 241.184 332.204 241.161 332.005C241.139 331.806 241.195 331.606 241.319 331.448C244.217 327.819 246.514 324.61 248.54 321.775C250.776 318.323 253.395 315.133 256.348 312.268C258.931 310.051 261.812 308.204 264.905 306.78C264.995 306.74 265.092 306.719 265.189 306.717C265.287 306.716 265.384 306.733 265.475 306.77C265.566 306.806 265.649 306.86 265.719 306.929C265.788 306.997 265.844 307.079 265.881 307.169C265.958 307.353 265.959 307.559 265.887 307.743C265.814 307.928 265.672 308.077 265.491 308.159C262.541 309.528 259.793 311.294 257.323 313.408C254.479 316.199 251.961 319.303 249.817 322.66C247.775 325.509 245.463 328.659 242.535 332.393C242.459 332.484 242.362 332.557 242.252 332.604C242.143 332.651 242.023 332.671 241.904 332.662Z" fill="white"/>
<path d="M269.965 304.635C269.8 304.637 269.64 304.578 269.515 304.47C269.358 304.349 269.255 304.17 269.23 303.973C269.205 303.776 269.258 303.578 269.38 303.42C272.215 299.992 276.242 297.758 280.655 297.167L283.342 296.957C294.86 296.326 306.194 293.792 316.883 289.459C317.07 289.388 317.278 289.393 317.461 289.475C317.644 289.556 317.787 289.707 317.859 289.894C317.93 290.081 317.925 290.289 317.843 290.472C317.761 290.654 317.61 290.797 317.423 290.869C306.596 295.239 295.122 297.803 283.462 298.457L280.79 298.667C276.793 299.226 273.148 301.252 270.566 304.35C270.492 304.438 270.4 304.509 270.297 304.558C270.193 304.608 270.08 304.634 269.965 304.635Z" fill="white"/>
<path d="M205.481 307.02C205.335 307.021 205.191 306.979 205.068 306.899C204.945 306.82 204.848 306.706 204.789 306.572C204.73 306.438 204.712 306.29 204.736 306.146C204.76 306.001 204.826 305.867 204.926 305.76C210.03 299.9 214.792 293.751 219.189 287.345C227.672 275.258 233.902 270.325 240.703 270.325C240.903 270.325 241.094 270.404 241.234 270.544C241.375 270.685 241.454 270.876 241.454 271.074C241.454 271.273 241.375 271.464 241.234 271.605C241.094 271.745 240.903 271.824 240.703 271.824C234.458 271.824 228.572 276.578 220.42 288.215C215.978 294.668 211.176 300.866 206.037 306.78C205.966 306.856 205.88 306.917 205.784 306.958C205.689 306.999 205.586 307.02 205.481 307.02Z" fill="white"/>
<path d="M210.255 314.772C210.067 314.774 209.885 314.704 209.745 314.577C209.675 314.509 209.62 314.427 209.582 314.337C209.544 314.247 209.524 314.15 209.524 314.052C209.524 313.955 209.544 313.858 209.582 313.768C209.62 313.678 209.675 313.596 209.745 313.528C214.844 307.655 219.611 301.502 224.023 295.098C232.491 283.011 238.721 278.077 245.538 278.077C245.735 278.081 245.924 278.161 246.064 278.301C246.204 278.441 246.284 278.63 246.288 278.827C246.288 279.026 246.209 279.217 246.068 279.357C245.928 279.498 245.737 279.577 245.538 279.577C239.277 279.577 233.407 284.331 225.239 295.967C220.797 302.42 215.995 308.618 210.856 314.532C210.78 314.614 210.687 314.679 210.583 314.72C210.479 314.762 210.367 314.779 210.255 314.772Z" fill="white"/>
<path d="M215.03 322.525C214.886 322.524 214.746 322.481 214.626 322.402C214.506 322.323 214.411 322.212 214.353 322.081C214.294 321.95 214.275 321.805 214.296 321.663C214.318 321.521 214.38 321.388 214.474 321.281C219.572 315.411 224.338 309.263 228.752 302.866C237.22 290.764 243.451 285.83 250.267 285.83C250.465 285.834 250.654 285.915 250.794 286.054C250.934 286.194 251.014 286.383 251.018 286.58C251.018 286.779 250.939 286.97 250.798 287.11C250.657 287.251 250.466 287.33 250.267 287.33C244.006 287.33 238.136 292.084 229.983 303.72C225.534 310.172 220.727 316.37 215.585 322.285C215.515 322.362 215.429 322.424 215.333 322.465C215.238 322.506 215.134 322.527 215.03 322.525Z" fill="white"/>
<path d="M219.804 330.278C219.713 330.28 219.622 330.263 219.537 330.23C219.452 330.197 219.374 330.147 219.309 330.083C219.239 330.014 219.183 329.933 219.145 329.843C219.107 329.753 219.088 329.656 219.088 329.558C219.088 329.46 219.107 329.364 219.145 329.273C219.183 329.183 219.239 329.102 219.309 329.033C224.412 323.168 229.178 317.02 233.587 310.618C242.054 298.517 248.285 293.598 255.101 293.598C255.3 293.598 255.491 293.677 255.632 293.818C255.773 293.958 255.852 294.149 255.852 294.348C255.852 294.547 255.773 294.737 255.632 294.878C255.491 295.019 255.3 295.098 255.101 295.098C248.841 295.098 242.97 299.836 234.818 311.473C230.379 317.932 225.572 324.131 220.42 330.038C220.343 330.123 220.247 330.189 220.14 330.231C220.034 330.272 219.918 330.289 219.804 330.278Z" fill="white"/>
<path d="M249.066 268.255H248.811C248.626 268.184 248.476 268.045 248.392 267.866C248.308 267.687 248.297 267.483 248.36 267.295C248.36 267.221 251.048 260.232 260.371 260.232C277.862 260.232 289.212 257.533 290.714 252.989C290.778 252.791 290.918 252.625 291.104 252.53C291.196 252.482 291.296 252.453 291.399 252.445C291.502 252.436 291.606 252.448 291.705 252.48C291.803 252.511 291.895 252.562 291.974 252.628C292.053 252.695 292.118 252.777 292.165 252.869C292.213 252.961 292.241 253.061 292.25 253.164C292.259 253.267 292.247 253.371 292.215 253.469C289.828 260.667 271.286 261.732 260.446 261.732C252.159 261.732 249.937 267.55 249.802 267.805C249.74 267.947 249.636 268.066 249.505 268.146C249.373 268.227 249.22 268.265 249.066 268.255Z" fill="white"/>
<path d="M254.441 277.193C254.274 277.194 254.11 277.141 253.975 277.043C253.821 276.919 253.721 276.739 253.699 276.543C253.676 276.346 253.732 276.148 253.855 275.993C254.035 275.753 258.359 270.325 269.965 270.325C282.441 270.325 291.705 267.4 297.515 261.597C297.655 261.46 297.844 261.383 298.04 261.383C298.237 261.383 298.426 261.46 298.566 261.597C298.636 261.667 298.692 261.75 298.73 261.841C298.768 261.932 298.788 262.03 298.788 262.129C298.788 262.228 298.768 262.326 298.73 262.418C298.692 262.509 298.636 262.592 298.566 262.662C292.485 268.75 282.862 271.899 269.965 271.899C259.185 271.899 255.071 276.938 255.041 276.983C254.963 277.06 254.868 277.118 254.764 277.154C254.661 277.191 254.55 277.204 254.441 277.193Z" fill="white"/>
<path d="M258.029 286.145C257.92 286.142 257.813 286.116 257.714 286.07C257.624 286.03 257.543 285.972 257.477 285.9C257.41 285.828 257.358 285.744 257.324 285.651C257.291 285.559 257.276 285.461 257.281 285.363C257.286 285.265 257.311 285.169 257.353 285.081C258.742 282.501 260.831 280.364 263.381 278.916C265.93 277.467 268.836 276.766 271.766 276.893C284.318 276.893 295.308 274.269 301.178 269.89C301.256 269.829 301.346 269.784 301.442 269.759C301.538 269.733 301.638 269.727 301.736 269.741C301.834 269.755 301.928 269.789 302.013 269.84C302.098 269.891 302.171 269.959 302.229 270.04C302.345 270.2 302.394 270.399 302.366 270.595C302.338 270.791 302.235 270.968 302.079 271.089C293.266 277.673 277.937 278.392 271.766 278.392C269.122 278.269 266.495 278.889 264.186 280.183C261.877 281.477 259.978 283.392 258.705 285.71C258.646 285.841 258.551 285.951 258.431 286.028C258.311 286.105 258.172 286.146 258.029 286.145Z" fill="white"/>
<path d="M262.203 292.699C262.133 292.712 262.062 292.712 261.993 292.699C261.804 292.639 261.645 292.51 261.55 292.336C261.455 292.163 261.43 291.96 261.482 291.769C261.572 291.499 263.554 285.291 274.109 284.676C285.093 284.095 295.904 281.699 306.103 277.583C306.194 277.53 306.296 277.497 306.401 277.486C306.506 277.475 306.612 277.487 306.712 277.52C306.812 277.552 306.904 277.606 306.982 277.677C307.061 277.747 307.123 277.834 307.165 277.93C307.208 278.027 307.229 278.131 307.229 278.237C307.228 278.342 307.205 278.446 307.162 278.542C307.118 278.638 307.055 278.724 306.976 278.793C306.897 278.863 306.804 278.916 306.703 278.947C296.348 283.151 285.361 285.594 274.199 286.175C264.755 286.73 262.999 291.979 262.923 292.174C262.875 292.327 262.779 292.46 262.65 292.555C262.52 292.649 262.363 292.699 262.203 292.699Z" fill="white"/>
<g opacity="0.2">
<path d="M345.187 501.987C345.116 502.004 345.043 502.004 344.972 501.987L308.291 487.313C308.203 487.28 308.124 487.225 308.062 487.155C308 487.084 307.956 487 307.933 486.908C307.911 486.818 307.911 486.723 307.931 486.632C307.952 486.542 307.993 486.457 308.052 486.384L311.904 481.62C311.988 481.521 312.102 481.451 312.228 481.421C312.355 481.391 312.488 481.402 312.608 481.453L345.568 496.234L362.144 465.266C362.205 465.162 362.295 465.077 362.403 465.022C362.51 464.968 362.632 464.945 362.752 464.957L367.152 465.6C367.246 465.611 367.335 465.646 367.412 465.7C367.489 465.754 367.551 465.826 367.594 465.91C367.638 465.994 367.66 466.088 367.66 466.184C367.66 466.279 367.638 466.373 367.594 466.457L350.899 499.498C350.828 499.64 350.703 499.748 350.552 499.799C350.401 499.849 350.236 499.837 350.094 499.766C349.951 499.695 349.843 499.57 349.793 499.42C349.743 499.269 349.754 499.104 349.825 498.962L366.139 466.66L362.979 466.195L346.379 497.223C346.306 497.355 346.186 497.455 346.042 497.504C345.899 497.552 345.743 497.546 345.604 497.485L312.56 482.668L309.507 486.503L345.437 500.796C345.582 500.857 345.698 500.972 345.76 501.116C345.823 501.261 345.826 501.423 345.771 501.571C345.73 501.693 345.652 501.799 345.547 501.874C345.442 501.949 345.316 501.989 345.187 501.987Z" fill="white"/>
<path d="M345.854 497.569C345.723 497.571 345.595 497.531 345.49 497.453C345.384 497.376 345.307 497.265 345.27 497.14L331.568 446.888L305.083 435.132L313.24 479.143C313.267 479.297 313.233 479.457 313.144 479.586C313.054 479.715 312.917 479.804 312.763 479.833C312.608 479.861 312.448 479.827 312.319 479.737C312.189 479.648 312.1 479.511 312.071 479.357L303.723 434.239C303.7 434.133 303.708 434.023 303.746 433.921C303.784 433.82 303.851 433.731 303.938 433.667C304.022 433.599 304.124 433.556 304.231 433.541C304.338 433.526 304.447 433.541 304.546 433.584L332.32 445.923C332.4 445.958 332.471 446.011 332.529 446.077C332.587 446.142 332.629 446.22 332.653 446.304L346.379 496.818C346.417 496.971 346.394 497.133 346.317 497.27C346.239 497.407 346.112 497.51 345.962 497.557L345.854 497.569Z" fill="white"/>
<path d="M308.541 487.29C308.4 487.291 308.262 487.241 308.155 487.149C308.047 487.057 307.977 486.929 307.957 486.789L300.229 442.719C300.205 442.613 300.205 442.504 300.229 442.398L303.712 433.929C303.781 433.798 303.897 433.698 304.036 433.648C304.176 433.598 304.329 433.601 304.466 433.658C304.603 433.714 304.714 433.82 304.777 433.954C304.841 434.087 304.852 434.24 304.809 434.382L301.398 442.719L309.09 486.646C309.103 486.724 309.102 486.803 309.084 486.88C309.067 486.957 309.035 487.029 308.989 487.094C308.944 487.158 308.886 487.212 308.82 487.254C308.753 487.296 308.678 487.324 308.601 487.337L308.541 487.29Z" fill="white"/>
<path d="M360.689 462.015C360.562 462.014 360.439 461.973 360.336 461.898C360.233 461.823 360.157 461.718 360.117 461.598L347.19 422.03L332.618 446.769C332.536 446.902 332.405 446.997 332.253 447.035C332.101 447.072 331.941 447.048 331.806 446.969C331.672 446.889 331.574 446.76 331.534 446.609C331.494 446.458 331.515 446.297 331.592 446.161L346.832 420.291C346.89 420.191 346.977 420.11 347.081 420.059C347.185 420.009 347.302 419.99 347.417 420.005C347.53 420.018 347.638 420.063 347.727 420.134C347.815 420.206 347.882 420.302 347.917 420.41L361.25 461.229C361.275 461.303 361.286 461.382 361.281 461.46C361.276 461.538 361.254 461.615 361.219 461.685C361.183 461.755 361.134 461.817 361.073 461.868C361.013 461.918 360.943 461.956 360.868 461.979L360.689 462.015Z" fill="white"/>
<path d="M367.093 466.767C366.967 466.769 366.844 466.73 366.741 466.658C366.638 466.585 366.561 466.482 366.521 466.362L351.757 421.232H347.309C347.151 421.232 347 421.169 346.888 421.058C346.776 420.946 346.713 420.795 346.713 420.637C346.719 420.479 346.786 420.329 346.899 420.218C347.012 420.107 347.163 420.044 347.321 420.041H352.199C352.324 420.043 352.446 420.084 352.546 420.159C352.647 420.234 352.721 420.338 352.759 420.458L367.653 465.993C367.679 466.067 367.69 466.146 367.685 466.224C367.679 466.303 367.658 466.379 367.623 466.449C367.587 466.519 367.538 466.582 367.477 466.632C367.417 466.683 367.347 466.721 367.272 466.743L367.093 466.767Z" fill="white"/>
<path d="M342.993 480.024C342.887 480.026 342.783 479.997 342.694 479.94C342.559 479.861 342.46 479.732 342.418 479.581C342.376 479.43 342.394 479.269 342.468 479.13L354.393 458.453C354.473 458.318 354.602 458.219 354.753 458.177C354.904 458.135 355.066 458.153 355.204 458.227C355.34 458.309 355.439 458.44 355.481 458.593C355.523 458.746 355.505 458.909 355.43 459.049L343.446 479.726C343.399 479.808 343.334 479.878 343.255 479.929C343.176 479.981 343.086 480.013 342.993 480.024Z" fill="white"/>
<path d="M341.001 471.019C340.895 471.023 340.791 470.994 340.703 470.936C340.565 470.858 340.464 470.73 340.422 470.578C340.379 470.426 340.399 470.263 340.476 470.126L352.461 449.461C352.495 449.385 352.545 449.317 352.607 449.261C352.67 449.206 352.743 449.164 352.822 449.139C352.902 449.113 352.986 449.105 353.069 449.114C353.152 449.123 353.232 449.149 353.304 449.191C353.376 449.233 353.439 449.29 353.487 449.357C353.536 449.425 353.57 449.502 353.588 449.583C353.605 449.665 353.605 449.749 353.587 449.83C353.57 449.912 353.535 449.989 353.486 450.056L341.561 470.733C341.504 470.829 341.421 470.906 341.322 470.956C341.223 471.007 341.112 471.029 341.001 471.019Z" fill="white"/>
<path d="M338.997 462.039C338.892 462.039 338.789 462.011 338.699 461.955C338.631 461.917 338.571 461.866 338.523 461.804C338.475 461.742 338.44 461.671 338.42 461.596C338.4 461.52 338.396 461.441 338.407 461.364C338.418 461.287 338.444 461.212 338.485 461.145L350.469 440.468C350.556 440.349 350.684 440.266 350.828 440.236C350.973 440.205 351.123 440.229 351.251 440.304C351.379 440.378 351.474 440.496 351.519 440.637C351.564 440.777 351.556 440.929 351.495 441.064L339.57 461.741C339.512 461.839 339.428 461.919 339.326 461.972C339.225 462.025 339.111 462.048 338.997 462.039Z" fill="white"/>
<path d="M337.006 453.046C336.901 453.047 336.798 453.018 336.708 452.963C336.64 452.924 336.58 452.873 336.532 452.811C336.484 452.749 336.449 452.679 336.429 452.603C336.409 452.527 336.404 452.449 336.416 452.371C336.427 452.294 336.453 452.22 336.493 452.153L348.418 431.476C348.5 431.34 348.632 431.241 348.786 431.201C348.94 431.161 349.103 431.182 349.241 431.261C349.309 431.299 349.369 431.351 349.417 431.413C349.465 431.474 349.5 431.545 349.52 431.621C349.54 431.696 349.545 431.775 349.534 431.852C349.523 431.93 349.496 432.004 349.456 432.071L337.471 452.748C337.423 452.832 337.356 452.902 337.275 452.954C337.194 453.006 337.102 453.038 337.006 453.046Z" fill="white"/>
<path d="M337.042 480.083C336.959 480.082 336.877 480.061 336.803 480.024L316.96 471.222C316.888 471.191 316.823 471.146 316.768 471.089C316.714 471.032 316.672 470.965 316.644 470.892C316.616 470.819 316.603 470.74 316.606 470.662C316.61 470.584 316.628 470.507 316.662 470.436C316.693 470.364 316.738 470.298 316.795 470.244C316.851 470.189 316.918 470.146 316.991 470.117C317.064 470.088 317.142 470.074 317.221 470.076C317.3 470.077 317.377 470.094 317.449 470.126L337.28 478.94C337.439 478.972 337.578 479.065 337.667 479.199C337.757 479.333 337.789 479.497 337.757 479.655C337.726 479.813 337.633 479.951 337.498 480.041C337.364 480.13 337.2 480.163 337.042 480.131V480.083Z" fill="white"/>
<path d="M336.171 471.52C336.092 471.532 336.012 471.532 335.933 471.52L316.09 462.682C316.014 462.653 315.944 462.609 315.886 462.553C315.827 462.496 315.781 462.428 315.75 462.353C315.719 462.278 315.703 462.197 315.704 462.116C315.706 462.035 315.724 461.954 315.757 461.88C315.79 461.806 315.839 461.74 315.899 461.685C315.959 461.63 316.03 461.588 316.107 461.562C316.184 461.535 316.265 461.525 316.346 461.531C316.428 461.537 316.507 461.56 316.579 461.598L336.41 470.4C336.568 470.432 336.707 470.525 336.797 470.659C336.886 470.793 336.918 470.957 336.887 471.115C336.855 471.273 336.762 471.412 336.628 471.501C336.494 471.59 336.329 471.623 336.171 471.591V471.52Z" fill="white"/>
<path d="M332.57 462.682C332.487 462.68 332.405 462.66 332.331 462.622L312.488 453.82C312.416 453.789 312.351 453.744 312.296 453.687C312.242 453.631 312.2 453.564 312.172 453.49C312.144 453.417 312.131 453.339 312.134 453.26C312.138 453.182 312.157 453.105 312.19 453.034C312.221 452.962 312.266 452.897 312.323 452.842C312.379 452.787 312.446 452.744 312.519 452.716C312.592 452.687 312.67 452.673 312.749 452.674C312.828 452.676 312.905 452.693 312.977 452.724L332.808 461.538C332.881 461.569 332.946 461.614 333.001 461.671C333.055 461.727 333.098 461.794 333.127 461.867C333.156 461.94 333.17 462.018 333.169 462.096C333.167 462.175 333.15 462.252 333.118 462.324C333.071 462.43 332.994 462.52 332.896 462.583C332.799 462.646 332.686 462.681 332.57 462.682Z" fill="white"/>
<path d="M331.115 453.642C331.036 453.659 330.955 453.659 330.876 453.642L311.033 444.816C310.953 444.79 310.88 444.749 310.817 444.693C310.754 444.638 310.704 444.57 310.669 444.494C310.635 444.417 310.616 444.335 310.616 444.251C310.615 444.167 310.633 444.084 310.666 444.008C310.7 443.931 310.75 443.863 310.812 443.806C310.874 443.75 310.947 443.708 311.027 443.682C311.106 443.656 311.19 443.647 311.274 443.655C311.357 443.664 311.438 443.69 311.51 443.732L331.353 452.546C331.426 452.577 331.491 452.622 331.546 452.678C331.6 452.735 331.643 452.801 331.672 452.874C331.701 452.947 331.715 453.025 331.714 453.104C331.712 453.182 331.695 453.26 331.663 453.332C331.608 453.428 331.528 453.507 331.432 453.561C331.335 453.616 331.226 453.644 331.115 453.642Z" fill="white"/>
</g>
<path d="M317.634 109.644C317.803 109.938 335.056 138.616 335.506 139.396C335.957 140.176 337.386 142.652 339.183 143.14C340.981 143.629 345.802 144.09 346.001 144.089C346.06 144.093 346.12 144.085 346.176 144.066C346.232 144.047 346.283 144.016 346.327 143.977L373.293 118.391C373.372 118.316 373.418 118.212 373.421 118.103C373.424 117.994 373.384 117.888 373.31 117.809C373.273 117.769 373.229 117.736 373.179 117.713C373.13 117.691 373.077 117.678 373.022 117.677C372.968 117.675 372.914 117.684 372.863 117.704C372.813 117.724 372.767 117.754 372.728 117.792L345.89 143.237C344.96 143.144 340.817 142.703 339.393 142.332C337.969 141.962 336.642 139.713 336.217 138.976C335.791 138.239 320.511 112.83 318.533 109.535L353.207 81.884C353.294 81.816 353.35 81.7161 353.364 81.6064C353.377 81.4966 353.347 81.3859 353.279 81.2987C353.211 81.2115 353.111 81.1548 353.001 81.1413C352.891 81.1277 352.781 81.1582 352.694 81.2262L317.726 109.095C317.645 109.158 317.59 109.25 317.573 109.352C317.556 109.453 317.578 109.558 317.634 109.644Z" fill="white"/>
<path d="M374.935 108.608L376.353 110.966C376.41 111.061 376.502 111.129 376.609 111.156C376.716 111.184 376.829 111.169 376.924 111.113C377.012 111.052 377.074 110.96 377.1 110.856C377.126 110.752 377.113 110.642 377.064 110.546L375.641 108.181C375.587 108.086 375.496 108.017 375.391 107.989C375.285 107.96 375.172 107.975 375.077 108.03C374.983 108.084 374.913 108.175 374.885 108.28C374.857 108.386 374.872 108.499 374.927 108.594L374.935 108.608Z" fill="white"/>
<path d="M344.266 142.619C344.321 142.714 344.411 142.783 344.517 142.812C344.623 142.84 344.736 142.825 344.83 142.771C344.925 142.716 344.994 142.626 345.023 142.52C345.051 142.414 345.036 142.301 344.981 142.207L327.007 110.844L359.643 83.1955L373.199 105.718C373.255 105.81 373.345 105.877 373.45 105.904C373.554 105.931 373.665 105.916 373.759 105.862C373.846 105.799 373.908 105.707 373.935 105.603C373.962 105.498 373.952 105.388 373.906 105.291L360.103 82.3577C360.072 82.3059 360.029 82.2617 359.978 82.2283C359.928 82.1948 359.87 82.173 359.81 82.1642C359.752 82.155 359.693 82.158 359.636 82.1728C359.579 82.1877 359.525 82.2141 359.479 82.2505L326.203 110.44C326.128 110.502 326.078 110.588 326.061 110.683C326.044 110.779 326.062 110.877 326.112 110.96L344.252 142.627L344.266 142.619Z" fill="white"/>
<path d="M320.35 110.156L338.617 140.014C338.681 140.107 338.777 140.174 338.887 140.201L343.241 141.141C343.348 141.168 343.46 141.152 343.555 141.097C343.649 141.043 343.719 140.953 343.749 140.848C343.763 140.796 343.767 140.742 343.76 140.688C343.754 140.635 343.736 140.583 343.709 140.537C343.682 140.49 343.646 140.449 343.604 140.417C343.561 140.384 343.512 140.361 343.46 140.347L339.292 139.433L321.3 110.037L350.917 85.7248L355.325 86.1469C355.379 86.154 355.434 86.15 355.487 86.1351C355.539 86.1203 355.589 86.0949 355.631 86.0606C355.674 86.0262 355.709 85.9836 355.734 85.9353C355.76 85.8869 355.775 85.8339 355.78 85.7794C355.785 85.7251 355.779 85.6703 355.763 85.6182C355.747 85.566 355.721 85.5176 355.686 85.4756C355.651 85.4337 355.609 85.399 355.56 85.3737C355.512 85.3484 355.459 85.3328 355.405 85.328L350.753 84.8464C350.642 84.8381 350.533 84.8739 350.448 84.946L320.423 109.589C320.34 109.656 320.286 109.752 320.272 109.858C320.259 109.964 320.286 110.07 320.35 110.156Z" fill="white"/>
<path d="M338.617 136.398L336.084 132.012C336.084 132.012 333.024 134.733 329.962 137.006C326.901 139.279 322.79 141.881 322.79 141.881L329.018 141.692L326.791 147.127L338.617 136.398Z" fill="white"/>
<path d="M873.237 72.0355L873.286 72.0073C873.344 71.9593 873.391 71.8985 873.423 71.8295C873.455 71.7606 873.47 71.6854 873.468 71.6096L871.937 34.59C871.918 34.4649 871.853 34.3517 871.754 34.2732C871.66 34.1912 871.539 34.1488 871.414 34.155L869.262 34.3146C869.145 34.3299 869.037 34.3891 868.961 34.4802C868.886 34.5714 868.847 34.6878 868.854 34.806C868.86 34.9243 868.911 35.0357 868.997 35.1178C869.082 35.1999 869.195 35.2467 869.314 35.2488L871.003 35.1508L872.496 71.0338L832.89 59.0936C832.815 59.0702 832.735 59.0677 832.659 59.0866L797.435 67.1312L798.628 35.0365L799.764 34.4886C799.821 34.4632 799.872 34.4266 799.915 34.3808C799.957 34.3351 799.989 34.2813 800.01 34.2227C800.031 34.1641 800.04 34.1018 800.036 34.0397C800.032 33.9776 800.016 33.917 799.988 33.8614C799.933 33.7511 799.837 33.6668 799.721 33.6266C799.604 33.5865 799.476 33.5938 799.365 33.6469L797.962 34.316C797.884 34.351 797.818 34.4075 797.771 34.4788C797.724 34.5501 797.698 34.6334 797.696 34.7188L796.486 67.7224C796.491 67.7937 796.512 67.8631 796.548 67.925C796.584 67.987 796.633 68.0399 796.692 68.0798C796.748 68.1257 796.814 68.1586 796.884 68.1761C796.954 68.1937 797.027 68.1955 797.098 68.1813L832.794 60.0157L872.87 72.0955C872.996 72.1245 873.127 72.103 873.237 72.0355Z" fill="white"/>
<path d="M870.675 68.349L870.74 68.3114C870.794 68.2656 870.837 68.2079 870.865 68.1427C870.893 68.0776 870.906 68.0068 870.902 67.9359L869.466 32.5833C869.463 32.4745 869.422 32.3703 869.349 32.2893C869.276 32.2083 869.177 32.1556 869.07 32.1408C868.972 32.1215 859.131 30.5145 851.606 24.7662C844.662 19.4618 837.65 18.8857 832.844 23.2197C832.794 23.2648 832.755 23.3202 832.729 23.382C832.703 23.4439 832.691 23.5107 832.693 23.5777L833.231 55.139C833.232 55.2298 833.26 55.3181 833.311 55.3934C833.361 55.4686 833.433 55.5276 833.517 55.563C833.6 55.5984 833.692 55.6089 833.782 55.593C833.871 55.5771 833.954 55.5357 834.02 55.4737C834.212 55.2982 838.817 51.1991 842.899 55.546C847.272 60.1905 856.821 63.904 861.406 65.686L861.915 65.8906C864.653 66.9498 867.471 67.7925 870.342 68.4112C870.457 68.4316 870.575 68.4095 870.675 68.349ZM868.548 32.9835L869.955 67.346C867.338 66.7484 864.768 65.9627 862.265 64.9952L861.757 64.7906C857.246 63.0629 847.796 59.3896 843.599 54.8815C839.927 50.9806 835.835 53.0396 834.17 54.1743L833.633 23.7604C838.068 19.9111 844.554 20.5527 851.044 25.502C857.908 30.7439 866.638 32.6241 868.548 32.9835Z" fill="white"/>
<path d="M833.925 55.4963C833.998 55.4556 834.059 55.3961 834.101 55.3241C834.143 55.2521 834.166 55.1701 834.166 55.0867L833.623 23.5173C833.6 23.4111 833.544 23.3148 833.464 23.2411C829.925 19.3279 823.841 20.1331 813.79 25.9361C805.016 31.0019 799.854 30.2677 799.807 30.2621C799.741 30.2518 799.673 30.2552 799.608 30.2722C799.544 30.2891 799.483 30.3192 799.43 30.3606C799.38 30.4035 799.338 30.4565 799.309 30.5161C799.28 30.5758 799.264 30.6408 799.262 30.707L798.369 63.5275C798.367 63.6487 798.412 63.766 798.494 63.8554C798.576 63.9449 798.688 63.9999 798.809 64.0094C798.85 63.9859 800.302 64.0787 807.55 62.4718C812.581 61.3647 817.166 58.4689 820.863 56.1395C822.314 55.1887 823.818 54.3203 825.368 53.5385C829.098 51.7745 833.313 55.4493 833.329 55.4399C833.397 55.5005 833.482 55.5398 833.572 55.553C833.663 55.5662 833.755 55.5527 833.838 55.5142L833.925 55.4963ZM832.689 23.7209L833.213 54.1314C831.702 53.0544 828.295 51.1338 825.014 52.6815C823.432 53.4821 821.895 54.3692 820.411 55.3388C816.787 57.6259 812.272 60.4714 807.398 61.5521C804.754 62.1961 802.077 62.6934 799.378 63.0419L800.235 31.2282C801.8 31.31 806.73 31.1168 814.309 26.7411C823.796 21.2749 829.495 20.3669 832.689 23.7209Z" fill="white"/>
<path d="M854.724 64.6277C854.816 64.5771 854.888 64.4973 854.929 64.401C854.974 64.2838 854.971 64.1539 854.921 64.039C854.871 63.9241 854.777 63.8335 854.661 63.7867C851.957 62.7273 849.709 61.7074 847.725 60.8062C845.434 59.6352 843.019 58.7267 840.523 58.098C838.43 57.7051 836.293 57.6052 834.172 57.8014C834.111 57.808 834.052 57.8268 833.999 57.8565C833.945 57.8861 833.898 57.9262 833.86 57.9743C833.822 58.0224 833.794 58.0775 833.778 58.1365C833.762 58.1955 833.757 58.2571 833.765 58.3178C833.781 58.4409 833.845 58.5529 833.942 58.6302C834.039 58.7074 834.162 58.7439 834.286 58.7317C836.312 58.5507 838.352 58.6479 840.351 59.0205C842.764 59.6428 845.099 60.5365 847.31 61.6844C849.307 62.5892 851.544 63.5718 854.298 64.6787C854.368 64.7047 854.443 64.7136 854.517 64.7047C854.591 64.6958 854.662 64.6694 854.724 64.6277Z" fill="white"/>
<path d="M830.761 58.2221C830.851 58.1714 830.919 58.0895 830.953 57.9919C831 57.877 831 57.7482 830.952 57.6337C830.904 57.5192 830.813 57.4284 830.698 57.3811C828.09 56.4106 825.211 56.4602 822.635 57.52L821.114 58.2467C814.678 61.5067 807.747 63.6786 800.603 64.6741C800.479 64.6938 800.368 64.7619 800.295 64.8633C800.221 64.9647 800.191 65.0912 800.21 65.2148C800.23 65.3385 800.298 65.4492 800.399 65.5227C800.501 65.5962 800.627 65.6263 800.751 65.6066C807.982 64.5878 814.998 62.3884 821.518 59.0965L823.031 58.3745C825.371 57.4272 827.979 57.3848 830.346 58.2555C830.414 58.2801 830.486 58.2899 830.557 58.2841C830.629 58.2783 830.698 58.2572 830.761 58.2221Z" fill="white"/>
<path d="M866.433 39.3487C866.512 39.3034 866.577 39.2359 866.619 39.1543C866.661 39.0728 866.678 38.9809 866.668 38.8899C866.658 38.7989 866.621 38.7128 866.563 38.6422C866.505 38.5716 866.427 38.5197 866.34 38.4927C861.743 36.9147 857.241 35.0737 852.856 32.9788C844.482 29.0849 839.564 28.3611 835.88 30.4879C835.773 30.5502 835.694 30.6527 835.662 30.7729C835.629 30.893 835.646 31.0211 835.708 31.1288C835.77 31.2365 835.873 31.315 835.993 31.3472C836.113 31.3793 836.241 31.3624 836.349 31.3001C839.732 29.347 844.406 30.0814 852.461 33.8349C856.885 35.9408 861.424 37.7963 866.057 39.3924C866.119 39.4116 866.185 39.4176 866.249 39.4101C866.314 39.4026 866.377 39.3817 866.433 39.3487Z" fill="white"/>
<path d="M866.271 45.0408C866.374 44.9826 866.451 44.8879 866.487 44.7756C866.503 44.7167 866.508 44.6551 866.5 44.5945C866.492 44.5338 866.473 44.4752 866.442 44.4223C866.412 44.3693 866.371 44.323 866.322 44.2861C866.273 44.2491 866.218 44.2223 866.159 44.2071C861.56 42.6206 857.054 40.7786 852.662 38.6897C844.296 34.7912 839.378 34.0673 835.686 36.1989C835.58 36.2628 835.503 36.3653 835.471 36.4848C835.439 36.6042 835.454 36.7315 835.514 36.8397C835.576 36.9474 835.679 37.026 835.799 37.0581C835.919 37.0903 836.047 37.0733 836.155 37.0111C839.546 35.0533 844.212 35.7923 852.275 39.5411C856.699 41.6471 861.238 43.5025 865.871 45.0987C865.938 45.1195 866.008 45.1251 866.078 45.1151C866.147 45.1051 866.213 45.0797 866.271 45.0408Z" fill="white"/>
<path d="M866.11 50.7331C866.187 50.6873 866.25 50.6204 866.29 50.5401C866.33 50.4599 866.347 50.3699 866.338 50.2806C866.328 50.1913 866.294 50.1067 866.238 50.0366C866.181 49.9665 866.106 49.914 866.021 49.8852C861.425 48.3001 856.921 46.4609 852.529 44.376C844.159 40.4693 839.241 39.7455 835.549 41.877C835.443 41.941 835.366 42.0435 835.334 42.163C835.302 42.2825 835.317 42.4096 835.377 42.5179C835.439 42.6256 835.542 42.7042 835.662 42.7363C835.782 42.7685 835.91 42.7515 836.018 42.6893C839.409 40.7315 844.075 41.4705 852.13 45.224C856.557 47.3268 861.099 49.1806 865.734 50.7769C865.796 50.7966 865.862 50.803 865.926 50.7954C865.991 50.7879 866.054 50.7666 866.11 50.7331Z" fill="white"/>
<path d="M865.948 56.4252C865.998 56.3977 866.042 56.3604 866.078 56.3157C866.114 56.271 866.14 56.2197 866.156 56.1647C866.172 56.1058 866.177 56.0442 866.169 55.9835C866.161 55.9229 866.142 55.8643 866.111 55.8114C866.081 55.7584 866.04 55.7121 865.991 55.6752C865.942 55.6382 865.887 55.6114 865.827 55.5962C861.23 54.0153 856.725 52.176 852.335 50.0869C843.965 46.1803 839.052 45.4646 835.36 47.5961C835.252 47.6583 835.173 47.7608 835.141 47.881C835.109 48.0012 835.126 48.1292 835.188 48.2369C835.25 48.3446 835.352 48.4232 835.473 48.4553C835.593 48.4875 835.721 48.4706 835.829 48.4083C839.22 46.4505 843.881 47.1814 851.936 50.9349C856.36 53.0453 860.902 54.8993 865.54 56.4878C865.608 56.5099 865.68 56.5158 865.751 56.5049C865.822 56.494 865.89 56.4668 865.948 56.4252Z" fill="white"/>
<path d="M830.704 31.9821L830.842 31.9023C830.92 31.8062 830.958 31.6837 830.947 31.5605C830.937 31.4374 830.879 31.3231 830.786 31.2416C830.762 31.201 827.122 28.2564 822.072 31.172C812.598 36.6416 805.606 38.729 803.372 36.7375C803.275 36.6497 803.148 36.6039 803.017 36.6103C802.953 36.6134 802.889 36.6292 802.831 36.6568C802.772 36.6844 802.72 36.7233 802.676 36.7712C802.632 36.8191 802.599 36.8751 802.577 36.936C802.555 36.9968 802.545 37.0614 802.548 37.126C802.551 37.1906 802.567 37.254 802.595 37.3125C802.622 37.3709 802.661 37.4234 802.709 37.4669C806.253 40.6191 816.629 35.3975 822.5 32.0077C826.989 29.4161 830.012 31.8727 830.165 31.9685C830.242 32.0259 830.336 32.058 830.432 32.0604C830.528 32.0629 830.623 32.0355 830.704 31.9821Z" fill="white"/>
<path d="M830.588 38.5038C830.678 38.4521 830.75 38.3726 830.793 38.2771C830.838 38.1617 830.835 38.0332 830.786 37.9197C830.737 37.8061 830.645 37.7167 830.53 37.6709C830.357 37.5973 826.317 36.0092 820.031 39.6384C813.274 43.5399 807.342 44.8529 802.38 43.5265C802.261 43.496 802.135 43.5133 802.028 43.5748C801.922 43.6362 801.844 43.7369 801.811 43.8552C801.795 43.9149 801.79 43.9773 801.798 44.0387C801.806 44.1001 801.826 44.1593 801.857 44.213C801.888 44.2666 801.929 44.3135 801.979 44.3511C802.028 44.3887 802.084 44.4161 802.144 44.4319C807.341 45.828 813.538 44.5242 820.524 40.4913C826.362 37.1203 830.166 38.5629 830.197 38.5779C830.263 38.5949 830.333 38.5971 830.4 38.5843C830.468 38.5715 830.532 38.544 830.588 38.5038Z" fill="white"/>
<path d="M831.444 44.4749C831.502 44.4388 831.552 44.3915 831.591 44.3356C831.627 44.2858 831.652 44.2293 831.666 44.1694C831.68 44.1095 831.681 44.0475 831.671 43.987C831.66 43.9265 831.637 43.8688 831.604 43.8173C831.571 43.7657 831.527 43.7214 831.477 43.6869C829.917 42.7238 828.118 42.2197 826.284 42.2325C824.45 42.2453 822.657 42.7745 821.109 43.7593C814.311 47.6843 807.538 49.6996 802.989 49.1637C802.928 49.155 802.865 49.1589 802.805 49.175C802.745 49.1911 802.689 49.2191 802.641 49.2574C802.592 49.2957 802.551 49.3434 802.521 49.3978C802.492 49.4521 802.473 49.5119 802.467 49.5735C802.454 49.6966 802.49 49.8197 802.566 49.9169C802.643 50.0142 802.754 50.078 802.876 50.0952C809.708 50.9049 818.236 46.5012 821.578 44.5715C822.972 43.6775 824.589 43.1922 826.244 43.1708C827.899 43.1494 829.527 43.5928 830.942 44.4506C831.014 44.5029 831.1 44.533 831.189 44.5373C831.278 44.5416 831.366 44.5199 831.444 44.4749Z" fill="white"/>
<path d="M831.232 49.3295C831.274 49.3153 831.313 49.2929 831.346 49.2638C831.43 49.1728 831.475 49.0529 831.473 48.9292C831.47 48.8056 831.419 48.6878 831.332 48.6006C831.199 48.4826 828.184 45.7397 822.275 48.7072C816.144 51.8278 809.538 53.9105 802.728 54.8704C802.662 54.8704 802.596 54.8843 802.536 54.9113C802.476 54.9382 802.422 54.9775 802.378 55.0266C802.334 55.0757 802.301 55.1336 802.281 55.1963C802.26 55.2591 802.254 55.3254 802.261 55.3909C802.268 55.4565 802.289 55.5197 802.322 55.5766C802.356 55.6335 802.4 55.6827 802.454 55.721C802.508 55.7594 802.569 55.786 802.633 55.7991C802.698 55.8123 802.765 55.8116 802.829 55.7973C809.752 54.8357 816.467 52.7233 822.695 49.5476C827.983 46.895 830.576 49.1885 830.678 49.2706C830.752 49.3384 830.845 49.3807 830.945 49.3913C831.045 49.4019 831.146 49.3803 831.232 49.3295Z" fill="white"/>
<path d="M1033.08 259.737C1032.56 260.037 980.575 288.818 979.191 289.617C977.806 290.417 973.41 292.955 970.212 292.111C967.015 291.267 959.193 287.695 958.887 287.517C958.793 287.47 958.708 287.406 958.639 287.326C958.57 287.247 958.518 287.155 958.485 287.055L939.735 223.773C939.681 223.587 939.702 223.388 939.794 223.217C939.886 223.047 940.041 222.92 940.227 222.863C940.319 222.834 940.416 222.824 940.512 222.832C940.608 222.841 940.701 222.87 940.786 222.915C940.871 222.961 940.945 223.023 941.006 223.099C941.066 223.174 941.11 223.261 941.136 223.353L959.813 286.305C961.326 286.988 968.088 289.987 970.607 290.682C973.125 291.376 977.162 289.097 978.471 288.341C979.779 287.586 1025.83 262.08 1031.8 258.77L1003.03 185.47C1002.96 185.288 1002.96 185.084 1003.04 184.904C1003.11 184.723 1003.26 184.58 1003.44 184.506C1003.62 184.433 1003.83 184.434 1004.01 184.511C1004.19 184.587 1004.33 184.732 1004.4 184.914L1033.43 258.809C1033.5 258.979 1033.5 259.168 1033.44 259.34C1033.37 259.511 1033.25 259.653 1033.08 259.737Z" fill="white"/>
<path d="M945.895 207.273L941.621 209.64C941.449 209.734 941.247 209.758 941.059 209.705C940.87 209.653 940.71 209.529 940.612 209.359C940.532 209.186 940.518 208.991 940.571 208.808C940.624 208.625 940.741 208.467 940.901 208.363L945.188 205.99C945.357 205.892 945.557 205.866 945.745 205.916C945.932 205.966 946.093 206.089 946.19 206.257C946.287 206.426 946.313 206.626 946.263 206.813C946.212 207.001 946.089 207.161 945.921 207.259L945.895 207.273Z" fill="white"/>
<path d="M962.859 286.797C962.69 286.894 962.49 286.92 962.302 286.87C962.114 286.82 961.954 286.697 961.857 286.529C961.76 286.361 961.734 286.161 961.784 285.973C961.835 285.785 961.958 285.625 962.126 285.528L1017.61 253.259L991.968 181.772L951.13 204.369C950.962 204.462 950.764 204.485 950.579 204.434C950.394 204.382 950.237 204.26 950.141 204.094C950.063 203.92 950.049 203.723 950.1 203.539C950.152 203.355 950.266 203.195 950.423 203.086L992.005 180.076C992.1 180.025 992.205 179.994 992.312 179.988C992.42 179.981 992.527 179.999 992.627 180.038C992.725 180.076 992.814 180.133 992.888 180.207C992.963 180.28 993.021 180.368 993.06 180.465L1019.2 253.353C1019.26 253.514 1019.26 253.691 1019.2 253.853C1019.14 254.014 1019.03 254.149 1018.88 254.233L962.873 286.822L962.859 286.797Z" fill="white"/>
<path d="M1028.45 258.112L973.859 287.806C973.677 287.893 973.47 287.91 973.277 287.854L965.748 285.434C965.561 285.381 965.402 285.257 965.305 285.089C965.208 284.921 965.18 284.721 965.227 284.533C965.251 284.44 965.293 284.353 965.351 284.277C965.409 284.201 965.481 284.137 965.564 284.089C965.647 284.042 965.739 284.011 965.833 283.999C965.928 283.987 966.025 283.994 966.117 284.019L973.337 286.314L1027.1 257.085L1003.14 193.409L995.989 190.145C995.899 190.107 995.818 190.052 995.75 189.983C995.683 189.913 995.63 189.831 995.595 189.74C995.56 189.649 995.544 189.553 995.548 189.456C995.551 189.359 995.574 189.263 995.616 189.176C995.656 189.088 995.713 189.008 995.784 188.942C995.855 188.876 995.939 188.825 996.029 188.792C996.12 188.758 996.217 188.743 996.314 188.747C996.41 188.751 996.505 188.774 996.593 188.814L1004.17 192.204C1004.35 192.289 1004.49 192.441 1004.55 192.627L1028.85 257.176C1028.91 257.352 1028.91 257.548 1028.84 257.723C1028.77 257.897 1028.63 258.037 1028.45 258.112Z" fill="white"/>
<path d="M977.07 282.247L984.858 277.75C984.858 277.75 987.148 284.651 989.837 290.864C992.527 297.077 996.537 304.728 996.537 304.728L987.129 298.908L985.728 309.243L977.07 282.247Z" fill="white"/>
<g opacity="0.2">
<path d="M910.637 439.762L910.693 439.777C910.77 439.785 910.848 439.775 910.921 439.747C910.994 439.72 911.06 439.677 911.114 439.621L936.879 411.632C936.956 411.527 936.991 411.398 936.976 411.269C936.968 411.141 936.91 411.022 936.816 410.937L935.137 409.49C935.041 409.416 934.92 409.381 934.799 409.392C934.677 409.403 934.565 409.46 934.484 409.55C934.403 409.641 934.359 409.759 934.361 409.88C934.364 410.002 934.412 410.118 934.496 410.205L935.794 411.361L910.826 438.497L890.74 401.073C890.703 401.002 890.646 400.942 890.577 400.9L859.163 381.167L883.331 358.732L884.554 359.159C884.614 359.182 884.677 359.192 884.741 359.19C884.805 359.187 884.868 359.172 884.925 359.145C884.983 359.117 885.035 359.078 885.077 359.031C885.119 358.983 885.151 358.927 885.171 358.866C885.212 358.746 885.203 358.615 885.148 358.502C885.092 358.388 884.994 358.3 884.875 358.258L883.371 357.726C883.289 357.694 883.2 357.687 883.114 357.705C883.028 357.722 882.948 357.764 882.885 357.825L858.045 380.908C857.997 380.963 857.962 381.028 857.943 381.099C857.924 381.17 857.921 381.245 857.936 381.317C857.943 381.391 857.966 381.462 858.004 381.526C858.043 381.589 858.095 381.644 858.156 381.685L890.001 401.673L910.327 439.539C910.397 439.651 910.508 439.731 910.637 439.762Z" fill="white"/>
<path d="M911.453 435.225L911.528 435.245C911.6 435.251 911.673 435.241 911.741 435.214C911.809 435.187 911.87 435.145 911.918 435.091L936.542 408.381C936.619 408.3 936.665 408.194 936.671 408.083C936.677 407.971 936.643 407.861 936.576 407.772C936.519 407.687 930.541 399.376 929.251 389.738C928.06 380.846 923.388 375.337 916.752 374.994C916.683 374.991 916.615 375.003 916.551 375.029C916.487 375.055 916.43 375.094 916.383 375.145L893.859 398.449C893.794 398.516 893.75 398.601 893.732 398.692C893.714 398.783 893.723 398.878 893.758 398.965C893.793 399.051 893.853 399.125 893.929 399.179C894.006 399.232 894.096 399.262 894.189 399.266C894.456 399.277 900.775 399.645 900.583 405.764C900.385 412.311 904.622 421.94 906.658 426.563L906.878 427.081C908.098 429.838 909.531 432.495 911.166 435.029C911.235 435.127 911.337 435.197 911.453 435.225ZM935.585 408.005L911.659 433.974C910.193 431.641 908.898 429.205 907.783 426.685L907.562 426.167C905.542 421.638 901.348 412.11 901.574 405.79C901.739 400.292 897.274 398.816 895.241 398.431L916.933 375.96C922.947 376.385 927.19 381.56 928.309 389.865C929.487 398.654 934.46 406.357 935.585 408.005Z" fill="white"/>
<path d="M894.104 399.213C894.186 399.236 894.273 399.237 894.356 399.215C894.439 399.194 894.515 399.15 894.576 399.09L917.102 375.776C917.162 375.682 917.191 375.571 917.187 375.46C917.459 370.049 912.457 366.217 900.947 363.133C890.898 360.44 887.684 356.159 887.654 356.121C887.613 356.066 887.562 356.019 887.502 355.985C887.443 355.95 887.377 355.928 887.309 355.919C887.241 355.914 887.172 355.922 887.108 355.945C887.044 355.967 886.985 356.002 886.935 356.048L862.458 379.229C862.369 379.316 862.316 379.433 862.311 379.558C862.305 379.682 862.347 379.804 862.428 379.899C862.475 379.911 863.462 381.033 869.89 385.128C874.347 387.977 879.778 389.203 884.153 390.196C885.897 390.56 887.62 391.021 889.312 391.578C893.301 393.006 893.693 398.734 893.712 398.739C893.717 398.832 893.75 398.922 893.806 398.998C893.862 399.073 893.939 399.13 894.027 399.162L894.104 399.213ZM916.276 375.246L894.578 397.705C894.263 395.826 893.183 391.958 889.677 390.699C887.948 390.132 886.188 389.66 884.407 389.287C880.115 388.316 874.771 387.104 870.448 384.35C868.061 382.898 865.756 381.316 863.544 379.609L887.263 357.133C888.34 358.329 892.06 361.768 900.739 364.094C911.595 367.013 916.392 370.491 916.276 375.246Z" fill="white"/>
<path d="M902.574 420.943C902.677 420.973 902.788 420.967 902.888 420.927C903.005 420.874 903.097 420.778 903.145 420.658C903.192 420.538 903.19 420.405 903.139 420.287C901.945 417.554 901.054 415.182 900.267 413.087C899.454 410.574 898.36 408.16 897.005 405.892C895.771 404.087 894.291 402.463 892.609 401.065C892.56 401.026 892.504 400.997 892.443 400.979C892.383 400.962 892.319 400.957 892.257 400.964C892.195 400.972 892.134 400.992 892.08 401.023C892.025 401.054 891.977 401.095 891.939 401.145C891.861 401.246 891.826 401.373 891.84 401.5C891.855 401.627 891.918 401.743 892.016 401.824C893.619 403.163 895.03 404.715 896.21 406.437C897.511 408.641 898.557 410.985 899.329 413.423C900.122 415.53 901.032 417.868 902.228 420.67C902.26 420.74 902.308 420.801 902.368 420.848C902.428 420.896 902.499 420.928 902.574 420.943Z" fill="white"/>
<path d="M889.827 398.894C889.929 398.923 890.038 398.913 890.134 398.867C890.251 398.818 890.344 398.724 890.393 398.606C890.441 398.488 890.441 398.356 890.392 398.238C889.203 395.64 887.076 393.586 884.437 392.486L882.805 391.909C875.766 389.603 869.157 386.148 863.247 381.683C863.143 381.608 863.013 381.577 862.886 381.597C862.759 381.617 862.645 381.687 862.57 381.791C862.494 381.895 862.463 382.025 862.483 382.152C862.504 382.279 862.573 382.392 862.678 382.468C868.667 386.978 875.358 390.475 882.482 392.819L884.104 393.393C886.491 394.404 888.415 396.267 889.502 398.618C889.533 398.685 889.578 398.744 889.634 398.792C889.69 398.839 889.756 398.874 889.827 398.894Z" fill="white"/>
<path d="M929.428 411.09C929.519 411.115 929.615 411.113 929.704 411.084C929.794 411.056 929.873 411.001 929.932 410.928C929.991 410.855 930.027 410.766 930.036 410.672C930.045 410.579 930.026 410.485 929.982 410.401C927.79 405.918 925.858 401.313 924.196 396.609C920.943 387.702 917.898 383.606 913.68 382.476C913.556 382.443 913.425 382.46 913.314 382.524C913.203 382.587 913.122 382.693 913.089 382.816C913.056 382.939 913.074 383.071 913.138 383.181C913.202 383.292 913.307 383.373 913.43 383.406C917.304 384.444 920.165 388.371 923.288 396.944C924.97 401.684 926.919 406.327 929.124 410.849C929.155 410.908 929.198 410.96 929.251 411.002C929.303 411.043 929.364 411.074 929.428 411.09Z" fill="white"/>
<path d="M925.178 415.106C925.295 415.138 925.42 415.125 925.527 415.07C925.582 415.039 925.63 414.998 925.669 414.948C925.707 414.898 925.735 414.842 925.752 414.781C925.768 414.72 925.772 414.657 925.763 414.595C925.755 414.533 925.734 414.473 925.702 414.419C923.515 409.928 921.581 405.32 919.909 400.614C916.665 391.71 913.62 387.614 909.392 386.481C909.269 386.451 909.139 386.469 909.029 386.532C908.919 386.596 908.837 386.699 908.802 386.821C908.769 386.945 908.787 387.076 908.85 387.187C908.914 387.297 909.02 387.378 909.143 387.411C913.027 388.452 915.878 392.376 919.01 400.951C920.693 405.692 922.641 410.335 924.846 414.857C924.879 414.921 924.926 414.976 924.984 415.019C925.041 415.062 925.108 415.092 925.178 415.106Z" fill="white"/>
<path d="M920.929 419.121C921.018 419.144 921.112 419.141 921.2 419.112C921.287 419.083 921.365 419.03 921.423 418.958C921.481 418.887 921.517 418.8 921.527 418.708C921.537 418.617 921.521 418.524 921.48 418.442C919.294 413.954 917.359 409.348 915.684 404.646C912.443 395.733 909.399 391.637 905.171 390.504C905.047 390.473 904.917 390.492 904.807 390.555C904.697 390.619 904.616 390.722 904.58 390.844C904.547 390.968 904.565 391.099 904.629 391.21C904.693 391.32 904.798 391.401 904.921 391.434C908.805 392.475 911.656 396.399 914.779 404.972C916.466 409.713 918.418 414.356 920.624 418.88C920.655 418.94 920.698 418.992 920.75 419.033C920.803 419.075 920.864 419.105 920.929 419.121Z" fill="white"/>
<path d="M916.679 423.137C916.735 423.153 916.794 423.158 916.852 423.151C916.911 423.145 916.967 423.127 917.018 423.098C917.073 423.067 917.121 423.026 917.16 422.976C917.198 422.927 917.226 422.87 917.243 422.809C917.259 422.749 917.263 422.685 917.254 422.623C917.246 422.561 917.225 422.501 917.193 422.447C915.002 417.961 913.067 413.355 911.397 408.652C908.156 399.738 905.109 395.652 900.881 394.519C900.757 394.486 900.626 394.503 900.515 394.567C900.405 394.63 900.324 394.736 900.291 394.859C900.258 394.982 900.275 395.114 900.339 395.224C900.403 395.335 900.508 395.416 900.632 395.449C904.515 396.489 907.369 400.404 910.491 408.977C912.171 413.721 914.123 418.365 916.337 422.886C916.37 422.951 916.419 423.008 916.478 423.052C916.537 423.095 916.606 423.124 916.679 423.137Z" fill="white"/>
<path d="M908.837 379.802L908.995 379.845C909.121 379.831 909.238 379.77 909.319 379.673C909.401 379.576 909.442 379.451 909.434 379.324C909.446 379.278 908.941 374.497 903.158 372.947C892.308 370.04 885.717 366.479 885.541 363.411C885.534 363.277 885.475 363.151 885.375 363.061C885.326 363.017 885.269 362.982 885.206 362.96C885.144 362.937 885.077 362.927 885.011 362.93C884.944 362.933 884.879 362.95 884.819 362.978C884.759 363.006 884.705 363.046 884.66 363.095C884.616 363.144 884.581 363.202 884.559 363.264C884.536 363.327 884.526 363.393 884.53 363.459C884.814 368.321 896.138 372.063 902.862 373.865C908.002 375.242 908.414 379.22 908.455 379.401C908.47 379.499 908.514 379.59 908.582 379.662C908.651 379.734 908.739 379.783 908.837 379.802Z" fill="white"/>
<path d="M904.017 384.453C904.121 384.481 904.231 384.476 904.331 384.437C904.447 384.386 904.539 384.291 904.586 384.173C904.632 384.054 904.63 383.923 904.58 383.806C904.508 383.627 902.728 379.541 895.529 377.612C887.791 375.539 882.531 372.185 879.891 367.62C879.827 367.511 879.723 367.432 879.601 367.4C879.479 367.367 879.349 367.383 879.239 367.445C879.184 367.477 879.136 367.519 879.097 367.569C879.058 367.62 879.03 367.677 879.013 367.739C878.997 367.8 878.993 367.864 879.001 367.927C879.01 367.99 879.03 368.051 879.063 368.106C881.822 372.893 887.268 376.445 895.268 378.589C901.954 380.381 903.668 384.19 903.68 384.223C903.716 384.283 903.764 384.335 903.823 384.375C903.881 384.415 903.948 384.441 904.017 384.453Z" fill="white"/>
<path d="M900.304 389.409C900.372 389.425 900.443 389.427 900.512 389.415C900.574 389.405 900.634 389.383 900.687 389.349C900.74 389.316 900.787 389.272 900.823 389.22C900.859 389.168 900.884 389.11 900.898 389.048C900.911 388.987 900.912 388.923 900.9 388.861C900.467 387.03 899.526 385.357 898.186 384.035C896.845 382.713 895.159 381.796 893.32 381.387C885.535 379.301 879.154 375.847 876.241 372.155C876.203 372.104 876.154 372.061 876.099 372.03C876.044 371.998 875.983 371.978 875.92 371.97C875.857 371.962 875.793 371.968 875.731 371.985C875.67 372.003 875.613 372.033 875.564 372.073C875.466 372.154 875.402 372.269 875.387 372.395C875.372 372.521 875.406 372.648 875.483 372.749C879.855 378.297 889.244 381.292 893.071 382.317C894.732 382.68 896.258 383.501 897.475 384.688C898.693 385.874 899.553 387.377 899.957 389.027C899.971 389.118 900.012 389.202 900.073 389.27C900.135 389.338 900.215 389.386 900.304 389.409Z" fill="white"/>
<path d="M896.625 392.78C896.666 392.8 896.71 392.812 896.756 392.815C896.883 392.81 897.003 392.756 897.091 392.664C897.178 392.573 897.227 392.45 897.227 392.323C897.216 392.141 897.019 387.961 890.574 385.825C883.857 383.64 877.549 380.356 871.908 376.108C871.86 376.06 871.802 376.023 871.739 375.999C871.676 375.975 871.608 375.964 871.54 375.968C871.473 375.971 871.407 375.989 871.346 376.02C871.286 376.051 871.233 376.094 871.191 376.147C871.148 376.2 871.118 376.261 871.101 376.327C871.083 376.392 871.08 376.46 871.091 376.527C871.103 376.594 871.128 376.658 871.165 376.714C871.202 376.77 871.251 376.818 871.308 376.855C877.033 381.183 883.442 384.524 890.269 386.74C896.034 388.654 896.252 392.202 896.266 392.335C896.27 392.438 896.307 392.537 896.372 392.617C896.437 392.697 896.526 392.754 896.625 392.78Z" fill="white"/>
</g>
<path d="M569.498 363.886C569.498 363.886 549.599 365.697 542.369 352.998C535.139 340.299 547.795 324.865 534.23 319.421C520.666 313.976 504.388 332.133 477.259 316.699C450.131 301.264 464.59 281.311 471.834 265.89C479.077 250.47 482.685 243.202 465.499 233.225C448.313 223.249 429.323 194.204 441.083 166.084C452.844 137.965 482.685 150.65 498.054 136.141C513.422 121.632 499.858 104.374 498.963 80.7869C498.067 57.1999 529.7 39.0434 560.45 43.5893C591.201 48.1352 597.522 80.7869 597.522 101.652C597.522 122.517 630.076 127.975 645.458 104.374C660.84 80.7733 673.483 75.3427 696.094 85.3192C718.706 95.2958 699.716 128.873 710.568 134.317C721.419 139.761 730.453 113.452 763.008 128.873C795.562 144.294 777.481 185.125 761.204 195.116C737.52 209.665 765.449 237.88 769.939 255.152C776.518 280.399 756.266 300.597 731.362 299.468C691.577 297.644 681.621 291.301 673.482 303.088C665.344 314.875 690.669 317.611 687.047 336.665C683.425 355.72 676.195 362.974 659.918 362.974C643.641 362.974 633.698 348.466 616.512 355.72C599.326 362.974 577.636 368.419 569.498 363.886Z" fill="#263238" stroke="#263238" stroke-linecap="round" stroke-linejoin="round"/>
<path d="M538.069 493.867C535.152 504.724 534.12 516.004 535.017 527.213C536.712 544.566 545.529 553.754 583.849 559.538C622.168 565.323 648.619 560.559 669.983 550.351C691.347 540.143 686.504 503.517 680.957 495.119C675.409 486.722 654.045 485.02 619.455 488.083C584.866 491.145 563.502 485.701 550.955 487.742C538.408 489.784 538.069 493.867 538.069 493.867Z" fill="#1B2327"/>
<path d="M529.428 390.359L527.177 435.818C527.177 435.818 523.107 446.38 530.432 453.158C537.757 459.936 547.198 457.935 552.135 449.143C557.073 440.35 556.394 420.003 557.642 411.959C558.89 403.915 549.137 395.626 541.121 392.618C533.104 389.61 529.428 390.359 529.428 390.359Z" fill="white"/>
<path d="M688.051 390.359L690.303 435.818C690.303 435.818 694.304 446.38 687.047 453.158C679.79 459.936 670.268 457.935 665.263 449.143C660.257 440.35 661.003 420.003 659.755 411.959C658.508 403.915 668.274 395.626 676.277 392.618C684.28 389.61 688.051 390.359 688.051 390.359Z" fill="white"/>
<path d="M590.726 322.619C590.726 322.619 591.581 341.538 587.009 349.554C582.438 357.571 567.87 357.081 558.456 357.081C549.043 357.081 535.03 364.812 530.459 372.556C527.011 378.906 524.054 385.514 521.615 392.319L553.03 409.223C553.03 409.223 549.599 415.824 553.03 425.556C556.462 435.287 561.59 439.03 560.165 443.903C558.741 448.775 540.171 483.441 538.462 488.886C537.598 491.407 536.932 493.991 536.468 496.616C536.468 496.616 576.158 504.361 610.706 503.218C645.255 502.074 680.957 495.187 680.957 495.187C680.957 495.187 670.39 476.568 664.679 465.965C658.969 455.363 653.828 444.474 654.967 440.745C656.107 437.016 662.685 426.998 662.4 409.509C662.4 409.509 687.807 402.921 697.234 392.319C697.234 392.319 686.098 364.526 674.676 359.939C663.255 355.353 650.125 359.939 640.765 357.367C631.406 354.794 626.482 350.194 625.058 346.764C623.633 343.334 622.195 327.274 622.765 323.558L590.726 322.619Z" fill="#8E6CED"/>
<path opacity="0.1" d="M561.807 433.3C561.807 433.3 552.311 423.092 563.163 421.731C574.015 420.37 589.614 431.259 606.569 435.342C623.525 439.425 643.871 421.051 652.688 423.773C661.505 426.495 656.079 440.105 646.584 446.23C637.089 452.355 610.639 451.674 595.718 450.994C580.797 450.313 573.336 446.23 561.807 433.3Z" fill="black"/>
<path d="M608.997 392.251C631.338 391.366 638.351 369.793 640.548 357.258C631.229 354.672 626.414 350.112 624.99 346.696C623.565 343.28 622.128 327.206 622.697 323.49L590.726 322.619C590.726 322.619 591.581 341.538 587.009 349.554C584.676 353.638 579.712 355.516 574.164 356.36C576.28 365.356 584.866 393.217 608.997 392.251Z" fill="white"/>
<path opacity="0.3" d="M623.253 336.747C622.684 332.353 622.498 327.917 622.697 323.49L590.726 322.619C590.894 327.493 590.726 332.373 590.224 337.223C595.84 340.912 607.22 345.322 623.253 336.747Z" fill="black"/>
<path d="M577.162 283.584C577.162 283.584 573.092 276.929 569.091 280.985C565.089 285.041 569.091 293.125 571.682 296.882C574.272 300.638 579.169 303.524 580.322 302.081C581.475 300.638 577.162 283.584 577.162 283.584Z" fill="white" stroke="#263238" stroke-linecap="round" stroke-linejoin="round"/>
<path d="M639.666 282.985C639.666 282.985 645.431 275.472 648.605 282.699C651.779 289.927 643.179 300.91 639.11 302.938C635.041 304.966 637.089 298.311 637.374 295.997C637.659 293.683 639.666 282.985 639.666 282.985Z" fill="white" stroke="#263238" stroke-linecap="round" stroke-linejoin="round"/>
<path d="M574.015 258.132C574.015 258.132 576.036 285.599 577.474 299.468C578.911 313.337 584.066 325.777 599.909 329.86C615.752 333.943 628.394 328.417 633.047 319.162C637.7 309.907 640.25 292.281 640.25 277.827V254.689C640.25 254.689 599.339 243.106 574.015 258.132Z" fill="white"/>
<path d="M604.521 297.44C605.986 298.415 607.668 299.014 609.418 299.182C611.252 298.991 613.021 298.396 614.599 297.44" stroke="#263238" stroke-linecap="round" stroke-linejoin="round"/>
<path d="M600.777 306.409C600.777 306.409 607.98 311.037 618.411 305.824" stroke="#263238" stroke-linecap="round" stroke-linejoin="round"/>
<path d="M589.261 282.985C589.261 282.985 595.311 282.128 598.756 284.442" stroke="#263238" stroke-width="2" stroke-linecap="round" stroke-linejoin="round"/>
<path d="M617.489 284.142C617.489 284.142 623.253 281.257 628.72 283.856" stroke="#263238" stroke-width="2" stroke-linecap="round" stroke-linejoin="round"/>
<path d="M575.724 280.358C577.699 277.016 579.245 273.435 580.322 269.701C582.074 264.815 582.618 259.575 581.909 254.43C579.171 255.421 576.528 256.66 574.015 258.132C574.015 258.132 574.774 268.898 575.724 280.358Z" fill="#263238" stroke="#263238" stroke-linecap="round" stroke-linejoin="round"/>
<path d="M640.236 278.058C640.236 277.963 640.236 277.881 640.236 277.786V254.648C640.236 254.648 637.415 253.859 632.816 252.96C633.115 257.452 634.458 270.994 640.236 278.058Z" fill="#263238" stroke="#263238" stroke-linecap="round" stroke-linejoin="round"/>
<path d="M586.955 272.873C586.955 272.873 591.852 266.231 602.215 268.245" stroke="#263238" stroke-linecap="round" stroke-linejoin="round"/>
<path d="M616.905 269.116C619.27 268.248 621.823 268.031 624.299 268.489C626.775 268.946 629.084 270.06 630.985 271.716" stroke="#263238" stroke-linecap="round" stroke-linejoin="round"/>
<path d="M611.656 543.546C611.656 543.546 598.43 543.546 574.693 520.068C550.955 496.589 536.034 476.854 517.722 468.688C499.41 460.521 481.776 478.555 482.794 497.95C483.811 517.345 498.054 544.567 540.443 560.219C582.831 575.871 619.116 569.406 622.846 569.406C626.577 569.406 644.889 578.593 655.74 579.614C661.714 580.255 667.739 580.255 673.713 579.614C673.713 579.614 676.765 579.954 678.461 579.954C680.156 579.954 682.191 577.912 682.191 577.912C682.191 577.912 685.623 578.811 686.979 576.429C688.336 574.047 687.278 573.149 687.278 573.149C687.278 573.149 693.083 573.652 695.118 569.909C697.152 566.166 694.25 566.316 694.25 566.316C694.25 566.316 698.224 565.54 698.129 562.328C698.204 561.132 697.97 559.937 697.451 558.858C697.451 558.858 699.825 555.115 698.807 552.052C697.79 548.99 694.06 547.969 690.33 549.67C686.599 551.372 668.626 550.691 654.045 549.67C639.463 548.65 611.656 543.546 611.656 543.546Z" fill="white"/>
<path d="M605.755 542.185C599.706 539.993 589.152 534.413 574.693 520.108C550.955 496.589 536.034 476.854 517.722 468.688C499.41 460.521 481.776 478.555 482.794 497.95C483.811 517.345 498.054 544.567 540.443 560.219C556.252 566.013 572.824 569.448 589.627 570.413C605.036 563.962 606.474 550.351 605.755 542.185Z" fill="#263238"/>
<path opacity="0.3" d="M599.991 563.063C593.303 560.518 585.49 557.796 576.728 555.115C545.529 545.587 522.47 534.018 506.871 516.325C491.272 498.631 496.697 476.173 496.697 476.173L493.103 472.907C489.651 476.061 486.937 479.941 485.155 484.271C483.373 488.6 482.567 493.272 482.794 497.95C483.811 517.345 498.054 544.566 540.443 560.219C556.252 566.013 572.824 569.448 589.627 570.413C593.615 568.824 597.167 566.305 599.991 563.063Z" fill="black"/>
<path d="M697.451 558.858C696.41 558.388 695.277 558.159 694.136 558.187C692.995 558.215 691.875 558.5 690.859 559.021" fill="white"/>
<path d="M697.451 558.858C696.41 558.388 695.277 558.159 694.136 558.187C692.995 558.215 691.875 558.5 690.859 559.021" stroke="#263238" stroke-linecap="round" stroke-linejoin="round"/>
<path d="M694.25 566.316C692.497 565.679 690.577 565.679 688.824 566.316H694.25Z" fill="white"/>
<path d="M694.25 566.316C692.497 565.679 690.577 565.679 688.824 566.316" stroke="#263238" stroke-linecap="round" stroke-linejoin="round"/>
<path d="M687.278 573.149C686.025 572.203 684.474 571.744 682.91 571.856L687.278 573.149Z" fill="white"/>
<path d="M687.278 573.149C686.025 572.203 684.474 571.744 682.91 571.856" stroke="#263238" stroke-linecap="round" stroke-linejoin="round"/>
<path d="M681.838 577.572C681.838 577.572 680.387 574.945 678.257 574.945L681.838 577.572Z" fill="white"/>
<path d="M681.838 577.572C681.838 577.572 680.387 574.945 678.257 574.945" stroke="#263238" stroke-linecap="round" stroke-linejoin="round"/>
<path d="M596.613 543.546C596.613 543.546 609.838 543.546 633.576 520.068C657.314 496.589 672.235 476.854 690.547 468.688C708.859 460.521 726.492 478.555 725.475 497.95C724.458 517.345 710.215 544.567 667.826 560.219C625.437 575.871 589.152 569.406 585.422 569.406C581.692 569.406 563.38 578.593 552.529 579.614C546.555 580.255 540.53 580.255 534.556 579.614C534.556 579.614 531.504 579.954 529.808 579.954C528.113 579.954 526.078 577.912 526.078 577.912C526.078 577.912 522.646 578.811 521.29 576.429C519.933 574.047 520.991 573.149 520.991 573.149C520.991 573.149 515.172 573.652 513.137 569.909C511.103 566.166 514.006 566.316 514.006 566.316C514.006 566.316 510.031 565.54 510.126 562.328C510.048 561.13 510.286 559.933 510.818 558.858C510.818 558.858 508.444 555.115 509.461 552.052C510.479 548.99 514.209 547.969 517.939 549.67C521.669 551.372 539.642 550.691 554.224 549.67C568.806 548.65 596.613 543.546 596.613 543.546Z" fill="white"/>
<path d="M602.5 542.185C608.536 539.993 619.089 534.413 633.563 520.108C657.3 496.63 672.221 476.895 690.533 468.728C708.845 460.562 726.479 478.596 725.462 497.991C724.444 517.386 710.202 544.607 667.813 560.259C651.999 566.055 635.423 569.49 618.615 570.454C603.219 563.962 601.795 550.351 602.5 542.185Z" fill="#263238"/>
<path opacity="0.3" d="M725.475 497.95C726.18 484.435 717.825 471.6 706.485 467.803L701.52 471.41C701.52 471.41 718.476 481.618 714.407 501.353C710.337 521.088 677.104 541.504 650.654 552.393C637.484 557.572 623.968 561.816 610.205 565.091C612.677 567.351 615.529 569.153 618.628 570.413C635.436 569.449 652.013 566.014 667.826 560.219C710.215 544.567 724.458 517.345 725.475 497.95Z" fill="black"/>
<path d="M510.818 558.858C511.859 558.388 512.992 558.159 514.133 558.187C515.274 558.215 516.394 558.5 517.41 559.021" fill="white"/>
<path d="M510.818 558.858C511.859 558.388 512.992 558.159 514.133 558.187C515.274 558.215 516.394 558.5 517.41 559.021" stroke="#263238" stroke-linecap="round" stroke-linejoin="round"/>
<path d="M514.006 566.316C515.758 565.679 517.679 565.679 519.431 566.316H514.006Z" fill="white"/>
<path d="M514.006 566.316C515.758 565.679 517.679 565.679 519.431 566.316" stroke="#263238" stroke-linecap="round" stroke-linejoin="round"/>
<path d="M520.991 573.149C522.244 572.203 523.795 571.744 525.359 571.856L520.991 573.149Z" fill="white"/>
<path d="M520.991 573.149C522.244 572.203 523.795 571.744 525.359 571.856" stroke="#263238" stroke-linecap="round" stroke-linejoin="round"/>
<path d="M526.431 577.572C526.431 577.572 527.896 574.85 530.012 574.85L526.431 577.572Z" fill="white"/>
<path d="M526.431 577.572C526.431 577.572 527.896 574.85 530.012 574.85" stroke="#263238" stroke-linecap="round" stroke-linejoin="round"/>
<path d="M535.18 438.84C535.18 438.84 530.174 437.832 521.167 442.351C512.161 446.87 503.886 454.914 499.125 457.677C494.364 460.44 491.122 462.209 486.917 457.935C482.712 453.662 473.651 441.848 465.133 442.106C456.614 442.365 453.617 454.165 455.122 456.669C456.628 459.174 458.88 459.691 460.629 457.677C462.379 455.662 464.631 451.647 466.883 453.158C469.134 454.669 467.886 461.705 464.387 462.958C460.887 464.21 451.365 470.239 453.617 473.764C455.868 477.289 468.646 482.053 478.155 482.802C487.663 483.55 499.437 477.031 507.196 475.765C514.955 474.499 535.993 473.043 545.746 464.972C548.555 462.679 550.708 459.679 551.985 456.279C553.262 452.88 553.618 449.201 553.017 445.618" fill="white"/>
<path d="M454.81 468.483C454.81 468.483 453.82 457.432 450.565 456.669C447.309 455.907 446.807 463.475 447.309 470.743C447.811 478.011 451.813 480.039 454.309 478.024C456.804 476.01 454.81 468.483 454.81 468.483Z" fill="white" stroke="#263238" stroke-linecap="round" stroke-linejoin="round"/>
<path d="M462.637 471.6C462.637 471.6 463.587 460.535 460.521 459.215C457.456 457.894 455.638 465.231 454.838 472.485C454.037 479.739 457.645 482.434 460.467 480.91C463.288 479.386 462.637 471.6 462.637 471.6Z" fill="white" stroke="#263238" stroke-linecap="round" stroke-linejoin="round"/>
<path d="M469.392 474.132C469.392 474.132 470.355 463.08 467.276 461.76C464.197 460.44 462.393 467.776 461.606 475.03C460.819 482.285 464.4 484.979 467.222 483.441C470.043 481.903 469.392 474.132 469.392 474.132Z" fill="white" stroke="#263238" stroke-linecap="round" stroke-linejoin="round"/>
<path d="M487.107 482.298C482.562 484.402 477.598 485.435 472.593 485.32C472.304 483.235 472.136 481.136 472.092 479.032C472.092 476.309 477.843 464.972 486.361 465.72" fill="white"/>
<path d="M487.107 482.298C482.562 484.402 477.598 485.435 472.593 485.32C472.304 483.235 472.136 481.136 472.092 479.032C472.092 476.31 477.843 464.972 486.361 465.72" stroke="#263238" stroke-linecap="round" stroke-linejoin="round"/>
<path d="M476.568 478.446C476.568 478.446 479.755 469.79 477.124 467.776C474.492 465.761 471.251 471.124 468.985 476.759C466.72 482.394 469.582 485.687 472.566 485.32C475.55 484.952 476.568 478.446 476.568 478.446Z" fill="white" stroke="#263238" stroke-linecap="round" stroke-linejoin="round"/>
<path d="M682.286 438.84C682.286 438.84 687.291 437.832 696.312 442.351C705.332 446.87 713.579 454.914 718.34 457.677C723.101 460.44 726.357 462.209 730.616 457.935C734.875 453.662 743.882 441.848 752.387 442.106C760.892 442.365 763.903 454.165 762.411 456.669C760.919 459.174 758.654 459.691 756.904 457.677C755.154 455.662 752.835 451.647 750.637 453.158C748.44 454.669 749.633 461.705 753.147 462.958C756.66 464.21 766.168 470.239 763.903 473.764C761.638 477.289 748.887 482.053 739.379 482.802C729.87 483.55 718.096 477.031 710.324 475.765C702.551 474.499 681.54 473.043 671.774 464.972C668.965 462.679 666.813 459.679 665.538 456.279C664.263 452.879 663.911 449.2 664.517 445.618" fill="white"/>
<path d="M762.655 468.483C762.655 468.483 763.659 457.432 766.914 456.669C770.17 455.907 770.672 463.475 770.17 470.743C769.668 478.011 765.666 480.039 763.157 478.024C760.647 476.01 762.655 468.483 762.655 468.483Z" fill="white" stroke="#263238" stroke-linecap="round" stroke-linejoin="round"/>
<path d="M754.842 471.6C754.842 471.6 753.879 460.535 756.945 459.215C760.01 457.894 761.841 465.231 762.628 472.485C763.415 479.739 759.847 482.434 757.012 480.937C754.177 479.44 754.842 471.6 754.842 471.6Z" fill="white" stroke="#263238" stroke-linecap="round" stroke-linejoin="round"/>
<path d="M748.073 474.132C748.073 474.132 747.124 463.08 750.189 461.76C753.255 460.44 755.086 467.776 755.873 475.03C756.66 482.285 753.065 484.979 750.257 483.441C747.449 481.903 748.073 474.132 748.073 474.132Z" fill="white" stroke="#263238" stroke-linecap="round" stroke-linejoin="round"/>
<path d="M730.358 482.298C734.921 484.408 739.904 485.442 744.926 485.32C745.216 483.235 745.384 481.136 745.428 479.032C745.428 476.309 739.663 464.972 731.145 465.72" fill="white"/>
<path d="M730.358 482.298C734.921 484.408 739.904 485.442 744.926 485.32C745.216 483.235 745.384 481.136 745.428 479.032C745.428 476.309 739.663 464.972 731.145 465.72" stroke="#263238" stroke-linecap="round" stroke-linejoin="round"/>
<path d="M740.857 478.446C740.857 478.446 737.669 469.79 740.301 467.776C742.932 465.761 746.161 471.124 748.44 476.759C750.719 482.394 747.843 485.687 744.859 485.32C741.874 484.952 740.857 478.446 740.857 478.446Z" fill="white" stroke="#263238" stroke-linecap="round" stroke-linejoin="round"/>
<path d="M602.025 245.556C598.043 240.178 592.679 235.986 586.507 233.429C576.578 229.537 583.048 221.751 587.362 223.902C590.145 225.274 593.029 226.429 595.989 227.359C595.989 227.359 584.771 218.267 584.351 210.482C583.93 202.697 595.989 212.646 595.989 212.646C595.989 212.646 581.326 192.393 586.073 188.855C590.821 185.316 595.121 191.89 598.146 197.511C600.293 201.712 602.165 206.049 603.748 210.495C603.748 210.495 602.893 196.218 607.641 200.546C612.388 204.874 609.363 226.515 609.363 226.515C609.363 226.515 615.834 208.821 618.859 218.349C621.883 227.876 603.327 244.25 602.025 245.556Z" stroke="#8E6CED" stroke-linecap="round" stroke-linejoin="round"/>
<path d="M602.025 245.556C602.025 245.556 608.93 224.773 594.7 197.919" stroke="#8E6CED" stroke-linecap="round" stroke-linejoin="round"/>
<path d="M578.355 107.586C573.41 107.548 568.548 108.861 564.289 111.383C557.507 115.467 555.879 108.212 559.08 106.62C561.128 105.579 563.095 104.387 564.967 103.054C564.967 103.054 554.604 105.64 549.829 102.414C545.055 99.1884 556.3 96.4799 556.3 96.4799C556.3 96.4799 537.784 96.0988 537.866 91.7434C537.947 87.388 543.685 87.6602 548.351 88.4496C551.782 89.0524 555.171 89.8753 558.497 90.9132C558.497 90.9132 549.707 85.047 554.36 84.1079C559.012 83.1688 570.42 94.6697 570.42 94.6697C570.42 94.6697 562.865 82.9238 569.81 85.3737C576.755 87.8236 578.165 106.239 578.355 107.586Z" stroke="#8E6CED" stroke-linecap="round" stroke-linejoin="round"/>
<path d="M578.355 107.586C578.355 107.586 569.213 94.2205 547.062 90.6818" stroke="#8E6CED" stroke-linecap="round" stroke-linejoin="round"/>
<path d="M664.028 193.578C663.644 193.585 663.262 193.636 662.889 193.727C663.463 193.178 663.897 192.499 664.154 191.747C664.412 190.994 664.486 190.191 664.37 189.404C664.254 188.617 663.951 187.87 663.487 187.225C663.023 186.58 662.411 186.056 661.704 185.697C660.996 185.339 660.213 185.156 659.42 185.164C658.627 185.173 657.848 185.372 657.148 185.746C656.448 186.119 655.848 186.656 655.397 187.31C654.947 187.965 654.66 188.719 654.56 189.508C654.243 188.836 653.778 188.243 653.202 187.775C652.625 187.307 651.952 186.975 651.23 186.803C650.508 186.631 649.757 186.624 649.033 186.782C648.308 186.941 647.628 187.261 647.043 187.718C646.458 188.176 645.983 188.759 645.653 189.425C645.323 190.092 645.146 190.824 645.136 191.568C645.126 192.312 645.283 193.049 645.594 193.724C645.906 194.4 646.365 194.996 646.937 195.469C646.297 195.791 645.734 196.248 645.287 196.809C644.84 197.37 644.52 198.022 644.348 198.719C644.176 199.417 644.157 200.143 644.293 200.848C644.428 201.554 644.713 202.221 645.13 202.805C645.547 203.389 646.086 203.875 646.708 204.23C647.33 204.585 648.022 204.8 648.735 204.861C649.449 204.922 650.166 204.827 650.84 204.582C651.513 204.338 652.125 203.95 652.634 203.445C652.746 204.692 653.325 205.851 654.254 206.687C655.182 207.524 656.392 207.977 657.64 207.954C658.888 207.932 660.081 207.436 660.979 206.567C661.878 205.697 662.415 204.519 662.482 203.268C662.981 203.436 663.502 203.527 664.028 203.54C665.345 203.54 666.608 203.016 667.539 202.081C668.47 201.147 668.993 199.88 668.993 198.559C668.993 197.238 668.47 195.971 667.539 195.037C666.608 194.102 665.345 193.578 664.028 193.578V193.578Z" stroke="#8E6CED" stroke-linecap="round" stroke-linejoin="round"/>
<path d="M655.578 200.941C657.473 200.941 659.009 199.399 659.009 197.497C659.009 195.596 657.473 194.054 655.578 194.054C653.682 194.054 652.146 195.596 652.146 197.497C652.146 199.399 653.682 200.941 655.578 200.941Z" stroke="#8E6CED" stroke-linecap="round" stroke-linejoin="round"/>
<path d="M564.764 232.762C564.375 232.769 563.988 232.82 563.611 232.912C564.188 232.365 564.625 231.686 564.886 230.933C565.147 230.18 565.223 229.375 565.109 228.586C564.994 227.798 564.692 227.048 564.229 226.401C563.765 225.754 563.153 225.229 562.444 224.869C561.735 224.509 560.95 224.326 560.156 224.335C559.362 224.343 558.581 224.543 557.88 224.918C557.179 225.293 556.578 225.832 556.129 226.489C555.679 227.146 555.393 227.902 555.296 228.693C554.809 227.677 553.993 226.857 552.981 226.368C551.97 225.879 550.822 225.75 549.727 226.002C548.633 226.253 547.656 226.871 546.957 227.753C546.258 228.636 545.879 229.73 545.882 230.857C545.883 231.583 546.044 232.3 546.354 232.957C546.663 233.613 547.114 234.193 547.672 234.654C547.032 234.976 546.47 235.433 546.023 235.994C545.576 236.555 545.255 237.207 545.084 237.904C544.912 238.601 544.893 239.328 545.028 240.033C545.163 240.739 545.449 241.406 545.866 241.99C546.283 242.574 546.821 243.06 547.443 243.415C548.066 243.77 548.757 243.985 549.471 244.046C550.184 244.107 550.902 244.012 551.575 243.767C552.248 243.523 552.86 243.135 553.37 242.63C553.501 243.861 554.087 244.997 555.012 245.816C555.937 246.635 557.134 247.077 558.367 247.055C559.601 247.032 560.781 246.548 561.676 245.696C562.571 244.845 563.116 243.688 563.204 242.453C563.706 242.628 564.232 242.72 564.764 242.725C566.08 242.725 567.343 242.2 568.274 241.266C569.205 240.332 569.728 239.065 569.728 237.744C569.728 236.423 569.205 235.156 568.274 234.221C567.343 233.287 566.08 232.762 564.764 232.762V232.762Z" stroke="#8E6CED" stroke-linecap="round" stroke-linejoin="round"/>
<path d="M556.299 240.126C558.195 240.126 559.731 238.584 559.731 236.682C559.731 234.78 558.195 233.239 556.299 233.239C554.404 233.239 552.868 234.78 552.868 236.682C552.868 238.584 554.404 240.126 556.299 240.126Z" stroke="#8E6CED" stroke-linecap="round" stroke-linejoin="round"/>
<path d="M562.051 170.862C561.808 170.866 561.567 170.897 561.332 170.957C561.637 170.672 561.88 170.326 562.046 169.942C562.212 169.558 562.297 169.143 562.295 168.725C562.332 167.916 562.051 167.124 561.513 166.521C560.974 165.918 560.221 165.551 559.416 165.499C558.61 165.447 557.817 165.715 557.206 166.245C556.595 166.774 556.216 167.523 556.15 168.33C555.952 167.912 555.663 167.544 555.304 167.253C554.945 166.963 554.525 166.757 554.076 166.65C553.627 166.544 553.16 166.541 552.709 166.64C552.259 166.739 551.836 166.939 551.473 167.224C551.109 167.509 550.815 167.873 550.61 168.288C550.405 168.703 550.296 169.158 550.291 169.621C550.286 170.084 550.384 170.542 550.579 170.962C550.773 171.382 551.06 171.752 551.416 172.046C550.907 172.294 550.477 172.681 550.175 173.162C549.873 173.643 549.711 174.199 549.707 174.768C549.689 175.394 549.86 176.011 550.197 176.538C550.535 177.064 551.023 177.476 551.599 177.719C552.174 177.962 552.809 178.025 553.421 177.899C554.032 177.773 554.591 177.464 555.024 177.014C555.11 177.779 555.478 178.485 556.055 178.993C556.632 179.501 557.378 179.774 558.146 179.758C558.913 179.743 559.648 179.44 560.204 178.91C560.761 178.379 561.1 177.659 561.156 176.891C561.464 177.006 561.79 177.066 562.119 177.068C562.939 177.068 563.725 176.741 564.305 176.159C564.885 175.577 565.211 174.788 565.211 173.965C565.211 173.142 564.885 172.352 564.305 171.77C563.725 171.188 562.939 170.862 562.119 170.862H562.051Z" stroke="#8E6CED" stroke-linecap="round" stroke-linejoin="round"/>
<path d="M556.788 175.448C557.971 175.448 558.931 174.485 558.931 173.298C558.931 172.11 557.971 171.147 556.788 171.147C555.604 171.147 554.645 172.11 554.645 173.298C554.645 174.485 555.604 175.448 556.788 175.448Z" stroke="#8E6CED" stroke-linecap="round" stroke-linejoin="round"/>
<path d="M534.095 265.89C533.857 265.894 533.62 265.926 533.389 265.986C533.69 265.698 533.929 265.351 534.093 264.968C534.256 264.584 534.34 264.171 534.339 263.754C534.335 262.971 534.036 262.219 533.501 261.649C532.966 261.079 532.235 260.735 531.457 260.685C530.678 260.634 529.91 260.883 529.307 261.379C528.704 261.875 528.311 262.583 528.208 263.359C528.007 262.944 527.717 262.58 527.359 262.292C527 262.004 526.582 261.801 526.134 261.696C525.687 261.592 525.222 261.589 524.774 261.688C524.325 261.787 523.905 261.986 523.542 262.269C523.18 262.552 522.886 262.914 522.681 263.326C522.476 263.738 522.365 264.191 522.357 264.652C522.35 265.113 522.444 265.569 522.635 265.989C522.826 266.408 523.108 266.779 523.46 267.075C523.064 267.275 522.716 267.56 522.439 267.909C522.163 268.257 521.965 268.662 521.859 269.094C521.753 269.527 521.742 269.978 521.825 270.415C521.909 270.852 522.086 271.267 522.344 271.629C522.603 271.991 522.936 272.293 523.321 272.514C523.707 272.735 524.135 272.87 524.578 272.909C525.02 272.949 525.465 272.892 525.884 272.742C526.302 272.592 526.683 272.354 527 272.042C527.086 272.808 527.453 273.514 528.031 274.022C528.608 274.529 529.354 274.802 530.122 274.787C530.889 274.772 531.623 274.469 532.18 273.939C532.737 273.408 533.076 272.688 533.131 271.92C533.44 272.033 533.766 272.093 534.095 272.097C534.915 272.097 535.701 271.77 536.281 271.188C536.861 270.606 537.187 269.817 537.187 268.994C537.187 268.171 536.861 267.381 536.281 266.799C535.701 266.217 534.915 265.89 534.095 265.89V265.89Z" stroke="#8E6CED" stroke-linecap="round" stroke-linejoin="round"/>
<path d="M528.832 270.477C530.015 270.477 530.975 269.514 530.975 268.327C530.975 267.139 530.015 266.176 528.832 266.176C527.648 266.176 526.688 267.139 526.688 268.327C526.688 269.514 527.648 270.477 528.832 270.477Z" stroke="#8E6CED" stroke-linecap="round" stroke-linejoin="round"/>
<path d="M594.131 119.291C593.893 119.295 593.656 119.327 593.425 119.386C593.781 119.045 594.049 118.623 594.209 118.156C594.368 117.689 594.414 117.191 594.342 116.703C594.27 116.214 594.082 115.751 593.795 115.35C593.507 114.949 593.129 114.624 592.69 114.4C592.251 114.177 591.766 114.062 591.274 114.065C590.782 114.069 590.298 114.191 589.863 114.42C589.427 114.65 589.053 114.981 588.772 115.386C588.49 115.79 588.309 116.257 588.244 116.746C587.942 116.11 587.434 115.596 586.802 115.29C586.17 114.984 585.452 114.904 584.768 115.062C584.085 115.221 583.476 115.61 583.042 116.163C582.608 116.717 582.376 117.403 582.384 118.107C582.383 118.558 582.483 119.003 582.675 119.41C582.868 119.817 583.148 120.177 583.496 120.462C582.87 120.768 582.366 121.279 582.067 121.91C581.767 122.541 581.69 123.256 581.847 123.936C582.005 124.617 582.388 125.225 582.934 125.659C583.479 126.093 584.156 126.329 584.853 126.328C585.253 126.328 585.65 126.249 586.02 126.095C586.391 125.941 586.727 125.715 587.009 125.429C587.094 126.195 587.46 126.901 588.036 127.41C588.612 127.919 589.357 128.193 590.124 128.18C590.892 128.166 591.627 127.865 592.184 127.336C592.742 126.808 593.083 126.089 593.141 125.321C593.451 125.428 593.776 125.487 594.104 125.498C594.924 125.498 595.71 125.171 596.29 124.589C596.87 124.007 597.196 123.217 597.196 122.394C597.196 121.571 596.87 120.782 596.29 120.2C595.71 119.618 594.924 119.291 594.104 119.291H594.131Z" stroke="#8E6CED" stroke-linecap="round" stroke-linejoin="round"/>
<path d="M588.868 123.878C590.051 123.878 591.011 122.915 591.011 121.727C591.011 120.54 590.051 119.577 588.868 119.577C587.684 119.577 586.725 120.54 586.725 121.727C586.725 122.915 587.684 123.878 588.868 123.878Z" stroke="#8E6CED" stroke-linecap="round" stroke-linejoin="round"/>
<path d="M660.393 138.877C660.15 138.881 659.909 138.913 659.674 138.972C659.979 138.687 660.222 138.341 660.388 137.957C660.554 137.573 660.639 137.158 660.637 136.74C660.674 135.931 660.393 135.14 659.855 134.536C659.316 133.933 658.563 133.566 657.758 133.514C656.953 133.463 656.159 133.73 655.548 134.26C654.938 134.789 654.558 135.538 654.492 136.345C654.294 135.927 654.005 135.559 653.646 135.268C653.287 134.978 652.867 134.772 652.418 134.665C651.969 134.559 651.502 134.556 651.052 134.655C650.601 134.754 650.178 134.954 649.815 135.239C649.452 135.524 649.157 135.888 648.952 136.303C648.748 136.718 648.639 137.174 648.633 137.636C648.628 138.099 648.726 138.557 648.921 138.977C649.116 139.397 649.402 139.767 649.758 140.061C649.249 140.31 648.819 140.696 648.517 141.177C648.215 141.658 648.053 142.214 648.049 142.783C648.05 143.393 648.23 143.988 648.567 144.496C648.904 145.004 649.382 145.401 649.942 145.637C650.501 145.874 651.119 145.94 651.716 145.827C652.313 145.714 652.863 145.427 653.299 145.001C653.384 145.767 653.752 146.473 654.329 146.981C654.907 147.488 655.652 147.761 656.42 147.746C657.188 147.731 657.922 147.428 658.479 146.898C659.036 146.367 659.375 145.647 659.43 144.879C659.738 144.994 660.064 145.054 660.393 145.056C661.213 145.056 662 144.729 662.58 144.147C663.16 143.565 663.486 142.776 663.486 141.953C663.486 141.13 663.16 140.34 662.58 139.758C662 139.176 661.213 138.849 660.393 138.849V138.877Z" stroke="#8E6CED" stroke-linecap="round" stroke-linejoin="round"/>
<path d="M655.13 143.464C656.314 143.464 657.273 142.501 657.273 141.313C657.273 140.125 656.314 139.163 655.13 139.163C653.946 139.163 652.987 140.125 652.987 141.313C652.987 142.501 653.946 143.464 655.13 143.464Z" stroke="#8E6CED" stroke-linecap="round" stroke-linejoin="round"/>
<path d="M620.134 178.783C621.86 174.075 623.979 169.522 626.468 165.172C629.629 160.177 640.928 159.279 640.928 159.279C640.928 159.279 635.055 168.806 632.342 173.339C629.629 177.871 620.134 178.783 620.134 178.783Z" stroke="#8E6CED" stroke-linecap="round" stroke-linejoin="round"/>
<path d="M620.134 178.783C620.134 178.783 628.72 166.533 638.676 160.64" stroke="#8E6CED" stroke-linecap="round" stroke-linejoin="round"/>
<path d="M489.739 222.936C494.614 221.827 499.573 221.131 504.565 220.853C510.452 220.853 517.383 229.809 517.383 229.809C517.383 229.809 506.206 230.054 500.943 230.244C495.68 230.435 489.739 222.936 489.739 222.936Z" stroke="#8E6CED" stroke-linecap="round" stroke-linejoin="round"/>
<path d="M489.739 222.936C489.739 222.936 504.66 223.494 515.009 228.638" stroke="#8E6CED" stroke-linecap="round" stroke-linejoin="round"/>
<path d="M690.981 212.578C690.981 212.578 688.783 202.329 683.995 202.928C679.207 203.527 683.073 215.586 683.073 215.586C683.073 215.586 676.779 217.382 677.077 220.091C677.376 222.799 681.852 220.54 685.731 219.941C685.731 219.941 684.171 226.978 688.363 228.107C692.554 229.237 691.754 218.825 691.754 218.825C691.754 218.825 701.113 220.744 703.745 216.539C706.797 211.707 694.874 211.965 690.981 212.578Z" stroke="#8E6CED" stroke-linecap="round" stroke-linejoin="round"/>
<path d="M690.981 209.42C690.981 209.42 682.245 222.745 682.761 224.147C683.276 225.549 692.731 212.578 694.304 210.999C695.877 209.42 693.083 207.134 690.981 209.42Z" fill="#263238" stroke="#8E6CED" stroke-linecap="round" stroke-linejoin="round"/>
<path d="M694.304 210.999C694.304 210.999 700.069 205.732 702.863 207.841C705.658 209.951 702.348 210.291 701.995 209.597" stroke="#8E6CED" stroke-linecap="round" stroke-linejoin="round"/>
<path d="M691.51 208.359C691.51 208.359 693.083 200.641 691.333 199.063C689.583 197.484 688.878 199.593 690.112 200.818" stroke="#8E6CED" stroke-linecap="round" stroke-linejoin="round"/>
<path d="M607.926 148.241C603.259 141.436 596.043 148.064 594.103 150.092C592.15 148.064 584.934 141.408 580.268 148.241C575.181 155.659 593.927 171.12 594.103 171.052C594.28 170.984 612.985 155.645 607.926 148.241Z" stroke="#8E6CED" stroke-linecap="round" stroke-linejoin="round"/>
<path d="M543.183 121.7C538.354 118.815 535.79 124.98 535.153 126.777C533.376 126.083 527.014 124.055 526.078 129.581C525.047 135.61 540.999 139.829 541.094 139.734C541.189 139.639 548.419 124.831 543.183 121.7Z" stroke="#8E6CED" stroke-linecap="round" stroke-linejoin="round"/>
<path d="M498.162 177.83C492.56 177.408 492.994 184.077 493.238 185.997C491.339 186.173 484.747 187.167 486.361 192.557C488.111 198.423 504.28 195.048 504.307 194.925C504.334 194.803 504.239 178.293 498.162 177.83Z" stroke="#8E6CED" stroke-linecap="round" stroke-linejoin="round"/>
<path d="M675.978 265.999C680.428 262.556 675.666 257.833 674.229 256.635C675.585 255.274 679.776 250.075 674.988 247.108C669.78 243.909 659.986 257.248 660.067 257.357C660.149 257.465 671.15 269.729 675.978 265.999Z" stroke="#8E6CED" stroke-linecap="round" stroke-linejoin="round"/>
<path d="M650.043 174.4C653.083 171.57 656.48 169.154 660.149 167.214" stroke="#8E6CED" stroke-linecap="round" stroke-linejoin="round"/>
<path d="M624.881 229.142C624.881 229.142 628.055 202.043 642.922 182.308" stroke="#8E6CED" stroke-linecap="round" stroke-linejoin="round"/>
<path d="M584.785 240.643C586.067 242.634 587.226 244.702 588.257 246.836" stroke="#8E6CED" stroke-linecap="round" stroke-linejoin="round"/>
<path d="M534.284 208.481C536.236 210.046 538.431 211.278 540.782 212.129C551.511 216.212 566.486 220.295 578.138 232.3" stroke="#8E6CED" stroke-linecap="round" stroke-linejoin="round"/>
<path d="M529.252 195.796C528.724 198.651 529.204 201.601 530.609 204.139" stroke="#8E6CED" stroke-linecap="round" stroke-linejoin="round"/>
<path d="M654.601 125.103C658.011 121.994 660.812 118.273 662.862 114.133" stroke="#8E6CED" stroke-linecap="round" stroke-linejoin="round"/>
<path d="M614.41 164.873C616.619 159.303 619.696 154.121 623.525 149.52C631.243 140.306 639.558 135.91 646.951 130.942" stroke="#8E6CED" stroke-linecap="round" stroke-linejoin="round"/>
<path d="M609.96 186.949C609.96 183.753 610.255 180.563 610.842 177.422" stroke="#8E6CED" stroke-linecap="round" stroke-linejoin="round"/>
<path d="M652.254 242.181C657.897 239.323 665.819 237.172 676.426 237.989C702.877 240.03 715.085 248.197 726.615 232.545" stroke="#8E6CED" stroke-linecap="round" stroke-linejoin="round"/>
<path d="M640.48 252.28C641.698 250.391 643.178 248.686 644.875 247.217" stroke="#8E6CED" stroke-linecap="round" stroke-linejoin="round"/>
<path d="M696.719 180.62H693.097C690.913 180.62 686.925 178.075 688.743 175.884C690.56 173.692 696.719 178.796 696.719 178.796L691.293 161.688L702.904 156.244L707.624 172.263C707.624 172.263 700.367 169.351 699.635 172.617C698.902 175.884 704.355 175.53 707.624 174.074" stroke="#8E6CED" stroke-linecap="round" stroke-linejoin="round"/>
<path d="M692.364 165.322L703.609 159.864" stroke="#8E6CED" stroke-linecap="round" stroke-linejoin="round"/>
<path d="M721.664 175.176H719.276C717.825 175.176 715.207 173.488 716.387 172.046C717.567 170.603 721.664 173.965 721.664 173.965L718.069 162.654L725.746 159.048L728.866 169.637C728.866 169.637 724.065 167.718 723.59 169.882C723.115 172.046 726.71 171.801 728.866 170.834" stroke="#8E6CED" stroke-linecap="round" stroke-linejoin="round"/>
<path d="M718.788 165.063L726.221 161.457" stroke="#8E6CED" stroke-linecap="round" stroke-linejoin="round"/>
<path d="M510.737 162.927H508.349C506.898 162.927 504.28 161.239 505.46 159.796C506.64 158.353 510.737 161.715 510.737 161.715L507.142 150.405L514.82 146.798L517.939 157.387C517.939 157.387 513.138 155.468 512.663 157.632C512.188 159.796 515.783 159.551 517.939 158.585" stroke="#8E6CED" stroke-linecap="round" stroke-linejoin="round"/>
<path d="M507.861 152.814L515.294 149.207" stroke="#8E6CED" stroke-linecap="round" stroke-linejoin="round"/>
<path d="M738.144 201.186C738.144 201.186 747.965 198.219 746.405 192.393C745.048 187.466 740.464 192.393 740.464 192.393C740.464 192.393 743.312 187.766 739.107 185.588C734.902 183.41 733.682 189.372 733.682 189.372C733.682 189.372 732.841 183.846 729.015 186.391C725.19 188.936 733.261 202.574 733.261 202.574L738.144 201.186Z" stroke="#8E6CED" stroke-linecap="round" stroke-linejoin="round"/>
<path d="M725.556 222.214C729.397 216.267 731.995 209.599 733.193 202.615L737.371 189.658" stroke="#8E6CED" stroke-linecap="round" stroke-linejoin="round"/>
<path d="M730.643 211.993C731.05 209.311 730.446 206.574 728.947 204.316C727.45 201.792 725.595 199.5 723.44 197.511C723.44 197.511 722.165 202.193 723.006 205.174C723.847 208.154 730.643 211.993 730.643 211.993Z" stroke="#8E6CED" stroke-linecap="round" stroke-linejoin="round"/>
<path d="M729.382 215.395C731.031 213.973 733.149 213.217 735.323 213.272H743.38C743.38 213.272 733.193 221.357 729.382 215.395Z" stroke="#8E6CED" stroke-linecap="round" stroke-linejoin="round"/>
<path d="M731.891 191.849L733.166 201.921L740.287 196.613" stroke="#8E6CED" stroke-linecap="round" stroke-linejoin="round"/>
<path d="M509.543 245.107C509.543 245.107 503.113 237.104 498.325 240.738C494.256 243.828 500.563 246.264 500.563 246.264C500.563 246.264 495.205 245.366 494.839 250.116C494.473 254.866 500.36 253.641 500.36 253.641C500.36 253.641 495.572 256.513 499.37 259.085C503.168 261.658 512.717 249.041 512.717 249.041L509.543 245.107Z" stroke="#8E6CED" stroke-linecap="round" stroke-linejoin="round"/>
<path d="M533.674 248.85C526.742 247.514 519.612 247.607 512.717 249.122L499.153 250.129" stroke="#8E6CED" stroke-linecap="round" stroke-linejoin="round"/>
<path d="M522.321 247.965C519.694 248.597 517.397 250.189 515.878 252.43C514.111 254.775 512.695 257.365 511.673 260.12C511.673 260.12 516.474 259.548 518.902 257.629C521.33 255.71 522.321 247.965 522.321 247.965Z" stroke="#8E6CED" stroke-linecap="round" stroke-linejoin="round"/>
<path d="M525.942 247.87C524.005 246.873 522.507 245.19 521.737 243.147C520.313 239.595 518.712 235.648 518.712 235.648C518.712 235.648 530.012 242.072 525.942 247.87Z" stroke="#8E6CED" stroke-linecap="round" stroke-linejoin="round"/>
<path d="M503.262 254.389L512.079 249.408L504.497 244.794" stroke="#8E6CED" stroke-linecap="round" stroke-linejoin="round"/>
<path d="M575.154 210.89C574.748 209.96 574.296 209.052 573.798 208.168C571.37 203.69 567.802 199.757 562.2 200.56C552.705 201.921 570.339 216.892 573.513 217.342C577.419 217.9 576.416 213.912 575.154 210.89Z" fill="#8E6CED"/>
<path d="M567.924 154.638C567.436 153.481 566.92 152.474 566.568 151.916C564.126 147.424 560.572 143.504 554.97 144.307C545.475 145.668 563.109 160.64 566.283 161.089C570.19 161.647 569.186 157.646 567.924 154.638Z" fill="#8E6CED"/>
<path d="M663.364 216.416C662.156 216.77 661.098 217.178 660.515 217.41C655.795 219.315 651.495 222.418 651.644 228.094C651.902 237.717 668.749 221.86 669.563 218.743C670.553 214.973 666.483 215.531 663.364 216.416Z" fill="#8E6CED"/>
<path d="M675.572 165.608C674.605 165.889 673.655 166.221 672.723 166.601C668.003 168.507 663.703 171.597 663.852 177.272C664.11 186.895 680.957 171.038 681.771 167.935C682.761 164.152 678.691 164.696 675.572 165.608Z" fill="#8E6CED"/>
<path d="M745.089 162.45C744.126 162.727 743.18 163.059 742.254 163.444C737.534 165.349 733.234 168.439 733.383 174.114C733.641 183.737 750.488 167.881 751.302 164.778C752.292 160.953 748.223 161.497 745.089 162.45Z" fill="#8E6CED"/>
<path d="M554.468 208.726C554.28 208.261 554.067 207.807 553.831 207.365C552.651 205.187 550.914 203.282 548.174 203.649C543.535 204.316 552.149 211.625 553.695 211.816C555.581 212.142 555.092 210.196 554.468 208.726Z" fill="#8E6CED"/>
<path d="M521.358 173.42C520.896 173.026 520.435 172.699 520.191 172.522C518.143 171.093 515.742 170.167 513.477 171.746C509.624 174.468 520.584 177.082 522.063 176.592C523.826 175.979 522.565 174.468 521.358 173.42Z" fill="#8E6CED"/>
<path d="M570.298 190.12C570.11 189.655 569.898 189.201 569.66 188.759C568.467 186.568 566.731 184.676 564.004 185.044C559.365 185.711 567.978 193.006 569.525 193.21C571.397 193.55 570.908 191.59 570.298 190.12Z" fill="#8E6CED"/>
<path d="M490.444 159.469C490.259 159.004 490.046 158.549 489.807 158.108C488.627 155.917 486.89 154.025 484.15 154.393C479.511 155.06 488.125 162.369 489.671 162.559C491.556 162.886 491.068 160.939 490.444 159.469Z" fill="#8E6CED"/>
<path d="M512.025 207.147C511.587 206.881 511.134 206.64 510.669 206.426C508.444 205.337 505.921 204.793 503.887 206.698C500.495 209.951 511.74 210.876 513.124 210.155C514.914 209.284 513.382 207.977 512.025 207.147Z" fill="#8E6CED"/>
<path d="M566.229 136.59C566.04 136.126 565.827 135.671 565.591 135.229C564.397 133.051 562.661 131.146 559.935 131.513C555.296 132.18 563.909 139.489 565.455 139.68C567.327 140.006 566.839 138.06 566.229 136.59Z" fill="#8E6CED"/>
<path d="M617.244 191.903C616.878 192.38 616.566 192.843 616.404 193.101C615.047 195.197 614.22 197.661 615.888 199.907C618.709 203.663 620.934 192.57 620.378 191.1C619.7 189.277 618.235 190.651 617.244 191.903Z" fill="#8E6CED"/>
<path d="M638.948 220.486C638.581 220.962 638.269 221.425 638.107 221.683C636.75 223.779 635.923 226.243 637.591 228.489C640.413 232.245 642.637 221.153 642.081 219.683C641.403 217.859 639.938 219.233 638.948 220.486Z" fill="#8E6CED"/>
<path d="M669.169 146.118C668.709 146.243 668.256 146.393 667.813 146.567C665.493 147.451 663.363 148.921 663.377 151.684C663.377 156.38 671.787 148.826 672.221 147.315C672.696 145.41 670.715 145.628 669.169 146.118Z" fill="#8E6CED"/>
<path d="M616.783 129.009C616.349 129.431 615.969 129.839 615.766 130.071C614.125 131.935 612.917 134.236 614.233 136.672C616.444 140.755 620.324 130.193 620.012 128.669C619.618 126.791 617.95 127.92 616.783 129.009Z" fill="#8E6CED"/>
<path d="M523.257 225.059C523.609 225.397 523.981 225.715 524.369 226.011C526.336 227.549 528.696 228.597 531.043 227.141C535.017 224.678 524.26 221.438 522.714 221.86C520.883 222.337 522.104 223.929 523.257 225.059Z" fill="#8E6CED"/>
<path d="M692.731 146.621C692.134 146.621 691.578 146.621 691.266 146.621C688.783 146.771 686.315 147.533 685.501 150.173C684.144 154.665 694.385 149.969 695.24 148.663C696.284 147.07 694.331 146.689 692.731 146.621Z" fill="#8E6CED"/>
<path d="M183.46 768.614C113.87 819.033 49.0022 824.833 0 828H1300C1204.88 828 1094.45 790.72 1046.34 755C948.405 682.279 850.139 567 613.488 567C363.433 567 244.764 724.199 183.46 768.614Z" fill="white"/>
</svg>
